<svg width="1920" height="32" viewBox="0 0 1920 32" fill="none" xmlns="http://www.w3.org/2000/svg">
<path d="M-319.94 32V11.8H-259.24C-258.94 11.5 -261.94 11.3 -275.54 11.5L-252.04 10.3C-258.14 9.8 -254.24 8.8 -270.14 9.2C-275.14 9.9 -284.94 10.8 -293.54 10.9C-259.24 9.5 -323.54 8.8 -291.64 7L-303.54 7.1C-302.04 7 -301.64 6.8 -302.44 6.7L-318.24 6.6C-308.54 6.2 -285.34 6 -296.14 4.7L-318.94 4.3C-312.84 3.3 -321.24 2.8 -319.84 2L-252.54 0C-255.14 0.6 -264.84 1 -261.24 1.6C-243.24 2.1 -246.54 0.5 -229.74 1.3L-237.24 2.1C-235.94 1.8 -233.54 1.7 -237.24 1.6C-243.14 1.1 -245.74 1.7 -245.84 2.2C-239.94 3.2 -222.94 2.5 -217.84 1.8C-195.94 1.9 -213.34 3.7 -208.54 4C-197.24 2.2 -172.04 4 -158.54 3.2L-167.24 4.3C-150.64 5.7 -135.74 4.5 -125.94 4.1L-129.74 5C-106.54 4.8 -95.1397 8 -77.4397 4.7L-79.8397 5.3C-70.3397 5.6 -55.9397 6.3 -46.8397 5.3C-46.6397 5.7 -45.0397 6.2 -41.1397 6.3C-36.0397 5 -26.1397 6 -12.1397 6.2C-21.4397 6.5 -18.4397 8.2 -28.2397 8.6C-6.63971 10.3 -8.4397 6.8 9.66031 6.8C20.5603 7.6 -0.139709 7.7 -2.73972 8.3C25.2603 7.4 54.8603 12.1 72.4603 8.8L60.4603 7.7C71.5603 7 77.6603 7 76.2603 7.3C72.6603 7.2 71.4603 7.5 70.1603 7.8C103.76 9.5 122.76 5.4 156.76 6C154.26 6.6 149.36 6.8 149.16 7.3C164.76 7.9 164.36 4.1 189.66 5.4L184.66 6.1C191.96 6.5 197.56 5.7 198.26 5.4C200.46 8 251.86 5.2 269.26 8.8C281.66 7.3 317.06 6.1 327.86 6.9C343.36 8.6 314.16 8.8 319.86 10.3C332.06 10.3 338.46 8.8 356.56 9.3C356.86 7.7 320.76 6.1 354.86 5.2L359.66 6C356.16 5.9 351.26 5.6 346.36 5.8C336.46 6.7 352.26 6.8 354.56 7.3L391.16 6.8C393.86 5.1 371.96 5.5 369.66 5.1C398.66 5.4 433.46 7.9 460.36 6.8L457.76 7.4C492.06 6 477.76 10.4 505.16 7.8C519.56 8.2 499.96 9.6 521.76 9.7C527.96 9.7 524.26 9.1 523.16 8.9C549.96 8.3 534.96 10.5 559.66 8.9L554.36 10.7C583.76 9.5 614.66 6.4 640.06 7.2C638.56 8.6 622.76 8.4 616.56 9.5C651.06 7.1 699.26 9.2 731.06 7.9C721.56 6.7 746.16 5.2 725.76 4.3C720.46 6.1 710.96 4.9 699.96 5.1C717.66 1.3 773.76 7 779.16 3.6L783.86 5C788.76 4.8 801.16 3.8 792.56 3.3L827.66 4.2C815.36 5.2 789.26 7.6 781.16 6.1C771.16 7.5 795.56 7.1 786.66 8.7C810.16 6.4 801.16 9.7 825.46 9.2C814.46 7.2 849.66 6.5 848.56 5.6C856.56 6 874.26 5.1 881.06 4.4C895.16 4.2 927.46 5.8 950.06 5.1C941.46 5.7 927.96 6.5 928.96 7.8C940.06 7.1 952.26 7.1 954.36 8.6C914.96 11.3 941.66 5.3 906.06 7C897.26 8.7 887.46 9.1 869.16 9.5C876.26 10.3 874.66 10.7 876.16 11.5H880.86C903.46 8.8 937.16 11.6 965.06 9.9C977.46 8.9 968.16 6.7 996.16 6.3L972.06 5.2C998.56 6.2 978.26 4.2 1000.16 3.8L991.46 4.9C1004.86 5.1 1009.76 4.9 1017.16 4.1L1005.86 5.9C1013.06 6.1 1026.46 6.3 1026.56 5.3C1028.46 5.7 1029.06 6.1 1029.06 6.4C1030.46 6.1 1033.86 5.9 1042.36 6C1037.46 6.2 1033.86 6.1 1033.76 6.6C1065.96 6.2 1041.26 8.5 1061.26 8.3C1058.06 8.7 1063.76 9.2 1070.96 9.4C1070.46 6.6 1110.06 6.3 1120.46 4.7H1120.36L1147.26 3.6C1141.76 3.8 1147.66 4.6 1155.56 4.9H1154.26C1162.86 5.3 1144.06 7.9 1169.76 7.1L1182.76 6.3C1181.16 6.4 1183.16 6.8 1184.36 7L1198.26 6.3C1219.56 8.9 1238.36 4.8 1263.36 6.1C1256.16 5.9 1245.16 6.1 1249.86 6.9C1254.66 7.2 1262.06 6.9 1265.76 6.5L1264.46 6.8L1312.16 5.1C1308.26 6 1281.66 6.1 1293.56 7.2C1300.56 8.5 1314.26 7.1 1322.86 7C1321.76 6.3 1305.96 5.6 1321.96 5.2C1323.96 5.6 1339.06 6.3 1331.96 6.8C1348.26 6.1 1371.96 5.6 1386.56 4.3C1391.16 4.6 1383.86 4.9 1381.46 5L1380.26 4.8C1370.46 5.2 1378.76 6.7 1359.46 5.9C1357.86 8.3 1387.26 6.6 1404.26 6.9L1377.26 8.5C1422.76 11.8 1484.16 8.2 1529.26 8.2C1516.06 7.5 1504.96 8.2 1506.56 6.3C1534.56 5.4 1530.86 5.8 1558.86 5.4L1556.46 5.5C1570.86 6.5 1590.66 4.6 1600.06 6.3C1593.86 7.3 1579.56 5.3 1579.26 7.4L1614.46 7.2C1603.36 8.4 1579.26 7.4 1565.76 7.7C1556.06 7.6 1585.26 7.4 1580.66 6.1C1547.76 6.2 1540.26 7.5 1524.06 9.5C1514.16 10.9 1538.46 11 1544.56 11C1565.46 8.8 1596.06 7.8 1628.66 8.8L1646.56 10.4C1662.66 9 1655.86 6.2 1684.96 6.5L1676.26 7.6C1682.66 8 1686.86 8.2 1689.96 8.2C1677.46 9.1 1663.86 10 1652.56 10.9C1653.96 11.1 1655.36 11.3 1656.96 11.4H1680.96C1695.16 10.8 1710.96 9.5 1724.66 9.3C1723.36 9.6 1714.86 9.7 1712.36 10.3C1748.76 10.9 1786.86 8 1814.96 7.6C1826.86 8.7 1791.66 8.3 1797.36 9.9C1812.16 9.3 1828.86 10.7 1832.76 9.2C1826.26 11.3 1866.76 9.4 1838.46 11.3C1841.66 11.4 1844.86 11.4 1848.06 11.4H1889.86C1928.06 11.1 1967.26 9.9 2004.16 9.1C2001.56 9.7 2001.56 10.2 2003.86 10.7C1992.36 10.7 1977.46 10.9 1965.56 11.4H2005.46C2021.86 10.1 2016.76 8.7 2046.66 9.2C2058.76 10.4 2048.56 10.3 2046.66 11.4H2089.96C2090.46 11.3 2090.96 11.3 2091.46 11.2L2069.46 11.1C2084.86 10.7 2099.46 10.7 2110.06 10.1C2108.96 10.4 2108.06 10.8 2104.76 10.9C2116.96 10.4 2132.66 10.5 2138.96 9.5L2142.36 11.2C2135.06 10.5 2113.26 10.3 2109.56 11.3C2109.66 11.4 2109.86 11.4 2110.06 11.5H2175.66L2178.86 11.3L2179.16 11.5H2239.86V32H-319.94ZM623.06 8.8L637.86 8.2L636.66 8L621.96 8.6L623.06 8.8ZM1363.96 10.8C1366.26 10.7 1368.66 10.5 1371.16 10.5C1366.96 10.6 1364.96 10.7 1363.96 10.8C1359.96 11 1356.76 11.4 1356.26 11.8H1362.56C1365.56 11.4 1361.66 11.1 1363.96 10.8ZM1373.66 10.4C1372.96 10.4 1372.36 10.4 1371.86 10.4C1372.46 10.5 1373.06 10.4 1373.66 10.4ZM-190.24 11.6L-182.94 11.3C-179.24 10.9 -181.54 10.5 -180.24 10.2C-188.84 10.3 -199.94 11 -190.24 11.6ZM-77.7397 6.5C-84.9397 6.8 -91.2397 7.8 -100.84 7.2C-99.5397 6.9 -100.74 6.7 -94.7397 6.7L-108.04 6.5C-123.24 8 -108.74 8.4 -94.5397 8.9C-94.0397 9.1 -93.0397 9.4 -90.3397 9.6C-88.0397 9.8 -85.9397 9.5 -83.7397 9.3C-80.8397 9.4 -78.2397 9.6 -77.1397 9.8L-75.8397 9.5C-78.8397 9 -81.4397 9.1 -83.8397 9.3C-87.0397 9.1 -90.8397 9 -94.6397 8.9C-96.9397 7.8 -81.7397 7.1 -77.7397 6.5ZM88.3603 9.2C84.5603 10.1 93.1603 9.5 96.7603 10.1L119.96 9.4C115.46 7.5 99.1603 9.5 88.3603 9.2ZM257.26 9.2C256.96 10.2 235.16 10.1 232.76 10.2C229.16 11.5 236.26 11.1 244.06 11.8H244.76C244.16 11.3 253.76 10.5 263.06 10.8L257.26 9.2ZM284.06 9.1C297.46 9.3 312.06 9.2 315.46 9.9C316.86 9.1 290.36 7.6 284.06 9.1ZM765.46 7.9L757.96 8.7L771.26 8.9L765.46 7.9ZM751.76 11.8H753.16C758.66 10.1 784.56 11.2 790.36 10.7C776.46 10.3 745.36 9.9 751.76 11.8ZM823.06 11.7C815.46 11.3 812.06 11.5 809.36 11.8H821.66C822.16 11.8 822.66 11.7 823.06 11.7ZM1259.66 11.8H1266.16L1265.26 11.5C1263.26 11.6 1261.36 11.7 1259.66 11.8ZM1330.16 9.1L1297.26 9.7L1329.26 9.3L1325.26 10.3L1331.46 9.3H1329.36L1330.16 9.1ZM1336.06 10.2L1355.56 9.4L1345.76 10.3L1375.16 8.6C1358.36 7.7 1338.66 9 1336.06 10.2ZM1586.36 11.4C1585.66 11.2 1584.26 11 1581.46 11C1582.26 11.1 1584.16 11.2 1586.36 11.4C1586.76 11.5 1586.86 11.7 1586.66 11.8H1596.36C1592.46 11.7 1588.96 11.5 1586.36 11.4ZM1744.16 11.4L1746.26 11.8H1752.26L1744.16 11.4Z" fill="white"/>
</svg>
