<svg width="1920" height="31" viewBox="0 0 1920 31" fill="none" xmlns="http://www.w3.org/2000/svg">
<path d="M1599.88 24.8C1562.88 25.2 1526.17 24.8 1489.17 24.6H1601.17C1600.37 24.7 1599.97 24.8 1599.88 24.8C1604.88 24.7 1609.88 24.7 1614.78 24.6C1614.68 24.6 1614.57 24.6 1614.57 24.6H2239.98V0H-319.925V23.7C-320.025 23.7 -320.025 23.7 -319.925 23.8V24.6H-282.225C-288.625 24.9 -294.025 25.4 -299.625 26.2C-292.525 26.6 -273.325 26.5 -274.125 27C-268.425 26.3 -254.725 26 -236.425 26C-234.325 26.8 -255.025 26.4 -249.825 26.6L-245.925 26.7C-248.025 27.1 -251.525 27.4 -257.825 27.4C-235.025 28.6 -192.225 28.4 -176.025 26.8C-157.425 27.6 -188.725 28.1 -198.225 28.7C-132.925 29.3 -88.725 29.2 -22.725 29.3C-21.625 27.8 -16.025 28.4 -6.92499 27.4L-1.32498 27.9C-4.02499 27.6 4.375 26.7 -6.625 26.4C21.575 27.2 32.375 25.6 47.575 24.5H61.275H61.175C62.775 24.5 64.375 24.5 65.775 24.5H117.275C122.075 25.1 78.875 24.5 86.775 26L96.575 25.7C90.975 26.4 84.575 27.7 73.675 28.2C106.675 27 120.975 28.7 156.875 27.7C152.675 28.5 120.375 29.2 111.575 29.3C123.675 29.4 145.375 28.8 146.375 29.6L148.775 28.5C170.175 28.4 145.975 29.5 152.975 30.1C203.575 29.9 159.675 26.7 202.175 26.1C206.375 27.7 222.175 25.8 236.575 26.3C222.875 26.5 226.375 27.5 228.075 28C244.975 25.9 248.775 28.4 279.975 28C280.675 28.7 265.575 28.8 263.775 29.6C280.975 29.1 307.275 28.8 311.175 27.6C340.375 27.6 361.075 28 378.575 27.8C357.475 28.3 374.675 29 359.275 30C380.675 28.6 428.475 27 459.775 25.3C463.575 26.6 464.975 26.7 461.075 27.9C496.175 28.8 471.275 26.7 504.575 27.1L489.275 27C504.175 26.6 505.775 25.5 510.175 24.6H525.775C523.875 24.7 522.675 24.9 522.975 25.2C532.775 24.9 540.175 24.7 544.775 25.4C536.675 26.2 524.475 25.3 520.475 26.5L535.275 26C544.775 26.6 531.675 27.5 540.475 27.4C552.775 25.8 582.875 28 596.575 27.8L591.675 28L612.775 28.8C612.975 28.8 612.775 28.9 612.875 28.9C613.275 28.8 613.575 28.7 613.875 28.6C622.275 29.4 637.975 30 655.575 29.8C662.275 28.9 711.075 29.5 719.175 28.7C711.775 28.9 705.575 28.9 696.375 28.7L697.775 27.6C714.275 27.6 698.775 28.6 714.675 28C711.875 26.5 691.875 28 680.275 27.8C684.475 27.5 690.275 27.2 697.475 27C674.175 27 651.975 26.5 635.875 28C630.275 27.7 631.675 27.2 635.275 27C620.875 27.6 624.475 26.1 610.675 26.8C615.575 25.4 645.375 26.1 659.875 25.3C681.275 26.4 709.375 25.4 733.275 25.2C734.275 26.2 717.375 27.1 726.875 27.7C750.375 28.4 750.375 27.1 763.775 26.6C780.575 27 765.475 28.3 792.175 28.4L776.375 29.1C791.675 30.6 791.075 28.5 802.675 28.8C798.875 28.4 798.875 28 785.475 28.1C784.075 27.6 794.275 27.3 799.175 27.3H796.075C801.675 26.6 803.475 25.8 820.275 26.2C809.675 27.1 833.575 26.9 837.775 27.3L833.375 27.5C845.675 27.2 858.375 27.3 866.175 27.2L865.475 27.4C874.775 27 878.175 26 891.675 26.2C890.275 26.6 874.275 27.8 889.075 27.6C886.975 28.2 870.575 28.3 857.075 28.1C870.475 28.3 877.275 29.4 860.775 29.5C865.275 30.3 876.275 29.1 884.975 29.5C883.575 29.3 885.775 29 885.675 28.8C887.375 29.8 917.775 28.8 918.275 28.1L902.075 28.7C900.975 27.9 916.875 27.4 915.775 26.9C925.275 28 957.875 26.1 965.775 27.2L959.975 26.5C991.175 26.9 1017.38 25.5 1048.38 25H1052.67C1044.07 25.4 1041.47 26.5 1028.67 26.5C1048.77 26.9 1031.37 28 1040.17 28.7C1064.77 29.3 1052.97 27.3 1060.57 26.8L1043.47 27.1C1065.47 25.3 1107.28 27.5 1141.28 26.4C1143.78 26.9 1134.27 26.7 1129.67 26.8C1144.97 27.7 1144.47 26.6 1153.78 26.3C1169.58 26.4 1188.57 26.9 1178.88 28C1196.28 28.3 1176.97 27.3 1186.28 27L1189.47 27.3L1207.88 26C1222.97 26.4 1241.28 27 1247.97 28C1281.67 27.8 1262.07 25.7 1282.97 25.1H1287.38C1299.07 25.6 1283.18 25.9 1281.78 26.3L1304.47 26.2C1296.38 27.5 1278.07 26.8 1279.47 28.3C1298.47 26.8 1305.17 27.9 1330.67 26.9L1329.07 26.8C1340.38 25.8 1366.57 26.5 1381.47 26.3C1375.47 26.9 1358.97 27 1348.07 27.2C1364.77 27.7 1406.88 27.2 1421.28 25.9C1430.78 26.1 1451.38 26.6 1437.47 27.2C1471.38 27.4 1451.58 25.3 1480.78 25.7L1479.57 26.7C1511.57 28.1 1542.67 25.4 1572.97 26.7L1574.88 25.5C1581.38 26 1594.88 26.2 1597.38 26.7L1581.88 27.1C1594.88 28.1 1597.17 26.1 1613.17 26.8C1613.07 26.1 1599.88 25.2 1599.88 24.8ZM238.975 26.4C236.875 25.6 253.075 25.3 260.075 24.7C268.875 24.6 275.075 24.6 275.875 25.3C285.775 25.2 289.975 24.9 291.475 24.7H326.575C326.775 24.8 327.475 25 328.875 25.1C311.675 28.1 268.175 25.2 238.975 26.4ZM367.875 27.2L328.175 26.8C330.575 26.1 333.975 25.3 340.075 24.6H385.475C369.875 25.5 348.875 26.2 367.875 27.2ZM471.775 24.7L483.875 24.6L471.775 24.7ZM704.775 24.7C704.375 24.7 703.975 24.7 703.475 24.7C703.675 24.7 703.875 24.7 703.975 24.7H704.775ZM735.975 24.7H752.975C746.075 24.7 740.975 24.7 735.975 24.7ZM776.775 25.5C772.275 25.3 767.675 24.9 767.375 24.6H788.175C782.175 24.9 777.975 25.2 776.775 25.5ZM845.775 24.7H852.075C851.175 24.7 850.075 24.7 848.675 24.8C847.575 24.7 846.675 24.7 845.775 24.7ZM874.575 24.7H877.575C877.375 24.7 877.175 24.8 877.075 24.8C875.875 24.7 875.075 24.7 874.575 24.7ZM953.275 25.1C952.675 25 952.775 24.8 953.175 24.7H985.175C978.075 25 959.475 24.5 953.275 25.1ZM1301.97 25.3C1293.88 25.2 1291.28 24.9 1293.28 24.7H1307.57C1306.77 24.9 1305.47 25.2 1301.97 25.3ZM1321.28 24.7H1321.78C1321.88 24.7 1321.97 24.7 1322.07 24.8L1321.28 24.7ZM1408.78 25.6C1401.58 25.3 1388.38 25.6 1390.47 25L1392.78 24.9C1387.08 25 1381.47 24.9 1376.28 24.7H1402.88C1401.78 24.8 1402.38 24.9 1403.57 25L1406.17 24.7H1435.28C1425.18 24.8 1415.07 24.9 1404.97 25.1C1407.47 25.2 1410.47 25.3 1408.78 25.6Z" fill="white"/>
</svg>
