<?xml version="1.0" standalone="no"?>
<!DOCTYPE svg PUBLIC "-//W3C//DTD SVG 1.1//EN" "http://www.w3.org/Graphics/SVG/1.1/DTD/svg11.dtd" >
<svg xmlns="http://www.w3.org/2000/svg" xmlns:xlink="http://www.w3.org/1999/xlink" version="1.1">
<metadata>
Created by FontForge 20170731 at Mon Nov  6 15:35:55 2017
 By Aleksey,,,
Copyright 2017 The Spectral Project Authors (http://github.com/productiontype/spectral)
</metadata>
<defs>
<font id="Spectral-SemiBold" horiz-adv-x="500" >
  <font-face 
    font-family="Spectral SemiBold"
    font-weight="600"
    font-stretch="normal"
    units-per-em="1000"
    panose-1="2 2 7 2 6 0 0 0 0 0"
    ascent="800"
    descent="-200"
    x-height="454"
    cap-height="660"
    bbox="-208 -250 1370 1057"
    underline-thickness="50"
    underline-position="-195"
    unicode-range="U+0020-FB06"
  />
<missing-glyph horiz-adv-x="364" 
d="M33 0v666h265v-666h-265zM66 33h199v600h-199v-600z" />
    <glyph glyph-name="uniFB00" unicode="ff" horiz-adv-x="718" 
d="M44 0v16l65 32v360h-77v46h77v34q0 20 12 52t33.5 68.5t52.5 68.5t69 52.5t81 20.5q11 0 20.5 -2.5t15.5 -4.5q10 -4 13 -7.5t3 -9.5q0 -4 -2 -8.5t-4 -10.5l-24 -54h-8l-17 7q-11 4 -23.5 7.5t-25.5 3.5q-43 0 -62 -36.5t-19 -111.5v-69h244v34q0 20 12 52t34 68.5
t53 68.5t69.5 52.5t82.5 20.5q11 0 21.5 -3t17.5 -7q27 -11 27 -26q0 -7 -5 -19l-24 -52h-8l-22 9q-16 8 -30.5 11.5t-32.5 3.5q-49 0 -64.5 -34t-15.5 -110v-69h124v-46h-124v-361l75 -31v-16h-256v16l66 32v360h-244v-361l75 -31v-16h-255z" />
    <glyph glyph-name="uniFB01" unicode="fi" horiz-adv-x="684" 
d="M44 0v16l65 32v360h-77v46h77v35q0 37 24.5 82t68 85.5t100 67t121.5 26.5q25 0 45 -3.5t34 -8.5q33 -11 33 -28q0 -4 -1 -9t-4 -11l-31 -57h-10l-25 12q-29 16 -52.5 24t-56.5 8q-71 0 -101 -42.5t-30 -117.5v-63h358v-406l60 -32v-16h-241v16l65 32v360h-242v-361
l75 -31v-16h-255z" />
    <glyph glyph-name="uniFB02" unicode="fl" horiz-adv-x="671" 
d="M44 0v16l65 32v360h-77v46h77v35q0 37 24.5 82t68 85.5t100 67t121.5 26.5q25 0 45 -3.5t34 -8.5q8 -3 13 -5l44 17h16v-702l61 -32v-16h-242v16l65 32v608q-23 13 -46.5 18.5t-51.5 5.5q-71 0 -104 -44t-33 -119v-63h125v-46h-125v-361l75 -31v-16h-255z" />
    <glyph glyph-name="uniFB03" unicode="ffi" horiz-adv-x="1042" 
d="M44 0v16l65 32v360h-77v46h77v34q0 20 12 52t33.5 68.5t52.5 68.5t69 52.5t81 20.5q11 0 20.5 -2.5t15.5 -4.5q10 -4 13 -7.5t3 -9.5q0 -4 -2 -8.5t-4 -10.5l-24 -54h-8l-17 7q-11 4 -23.5 7.5t-25.5 3.5q-43 0 -62 -36.5t-19 -111.5v-69h244v35q0 37 24.5 82t68 85.5
t100.5 67t121 26.5q26 0 46 -3.5t33 -8.5q33 -11 33 -28q0 -4 -1 -9t-4 -11l-31 -57h-10l-25 12q-29 16 -52.5 24t-56.5 8q-71 0 -101 -42.5t-30 -117.5v-63h357v-406l61 -32v-16h-242v16l66 32v360h-242v-361l75 -31v-16h-256v16l66 32v360h-244v-361l75 -31v-16h-255z" />
    <glyph glyph-name="uniFB04" unicode="ffl" horiz-adv-x="1030" 
d="M44 0v16l65 32v360h-77v46h77v34q0 20 12 52t33.5 68.5t52.5 68.5t69 52.5t81 20.5q11 0 20.5 -2.5t15.5 -4.5q10 -4 13 -7.5t3 -9.5q0 -4 -2 -8.5t-4 -10.5l-24 -54h-8l-17 7q-11 4 -23.5 7.5t-25.5 3.5q-43 0 -62 -36.5t-19 -111.5v-69h244v35q0 37 24.5 82t68 85.5
t100.5 67t121 26.5q26 0 46 -3.5t33 -8.5q8 -3 13 -5l44 17h16v-702l61 -32v-16h-242v16l65 32v608q-23 12 -46 18t-52 6q-71 0 -104 -44t-33 -119v-63h124v-46h-124v-361l75 -31v-16h-256v16l66 32v360h-244v-361l75 -31v-16h-255z" />
    <glyph glyph-name="uni0066_uni0062.liga" unicode="fb" horiz-adv-x="933" 
d="M44 0v16l65 32v360h-77v46h77v35q0 37 24.5 82t68 85.5t100 67t121.5 26.5q25 0 45 -3.5t34 -8.5q5 -2 9 -3l49 15h10v-348h3q38 32 73 47t75 15q47 0 85.5 -26.5t61.5 -75t23 -115.5q0 -81 -31.5 -138.5t-85 -88t-118.5 -30.5q-82 0 -146 33l-46 -29h-10v665
q-43 21 -93 21q-71 0 -104 -44t-33 -119v-63h125v-46h-125v-361l75 -31v-16h-255zM650 387q-21 0 -40.5 -6t-39.5 -18v-287q38 -36 93 -36q29 0 55 17t42 57t16 109q0 57 -18 93t-46.5 53.5t-61.5 17.5z" />
    <glyph glyph-name="uni0066_uni0066_uni0062.liga" unicode="ffb" horiz-adv-x="1292" 
d="M44 0v16l65 32v360h-77v46h77v34q0 20 12 52t33.5 68.5t52.5 68.5t69 52.5t81 20.5q11 0 20.5 -2.5t15.5 -4.5q10 -4 13 -7.5t3 -9.5q0 -4 -2 -8.5t-4 -10.5l-24 -54h-8l-17 7q-11 4 -23.5 7.5t-25.5 3.5q-43 0 -62 -36.5t-19 -111.5v-69h244v35q0 37 24.5 82t68 85.5
t100.5 67t121 26.5q26 0 46 -3.5t33 -8.5q5 -2 9 -3l49 15h9v-348h4q38 32 73 47t75 15q47 0 85.5 -26.5t61.5 -75t23 -115.5q0 -81 -32 -138.5t-85 -88t-118 -30.5q-43 0 -80 8.5t-67 25.5l-46 -30h-9v665q-42 21 -93 21q-71 0 -104 -44t-33 -119v-63h124v-46h-124v-361
l75 -31v-16h-256v16l66 32v360h-244v-361l75 -31v-16h-255zM1008 387q-39 0 -80 -25v-285q39 -37 94 -37q29 0 54.5 17t41.5 57t16 109q0 85 -38 124.5t-88 39.5z" />
    <glyph glyph-name="uni0066_uni0068.liga" unicode="fh" horiz-adv-x="962" 
d="M44 0v16l65 32v360h-77v46h77v35q0 37 24.5 82t68 85.5t100 67t121.5 26.5q25 0 45 -3.5t34 -8.5q8 -3 14 -6l52 18h10v-360h4q36 36 70.5 55t79.5 19q60 0 98.5 -31t38.5 -90v-295l65 -32v-16h-240v16l59 30v254q0 38 -23.5 58.5t-60.5 20.5q-22 0 -48 -8t-43 -22v-303
l58 -30v-16h-239v16l65 32v607q-24 13 -48 19t-53 6q-71 0 -104 -44t-33 -119v-63h125v-46h-125v-361l75 -31v-16h-255z" />
    <glyph glyph-name="uni0066_uni0066_uni0068.liga" unicode="ffh" horiz-adv-x="1321" 
d="M44 0v16l65 32v360h-77v46h77v34q0 20 12 52t33.5 68.5t52.5 68.5t69 52.5t81 20.5q11 0 20.5 -2.5t15.5 -4.5q10 -4 13 -7.5t3 -9.5q0 -4 -2 -8.5t-4 -10.5l-24 -54h-8l-17 7q-11 4 -23.5 7.5t-25.5 3.5q-43 0 -62 -36.5t-19 -111.5v-69h244v35q0 37 24.5 82t68 85.5
t100.5 67t121 26.5q26 0 46 -3.5t33 -8.5q15 -5 27 -13l52 25h10v-360h4q37 36 71.5 55t78.5 19q60 0 98.5 -31t38.5 -90v-295l65 -32v-16h-240v16l59 30v254q0 38 -23 58.5t-60 20.5q-23 0 -49 -8t-43 -22v-303l59 -30v-16h-240v16l65 32v599l-2 1q-28 16 -53.5 24t-58.5 8
q-71 0 -104 -44t-33 -119v-63h124v-46h-124v-361l75 -31v-16h-256v16l66 32v360h-244v-361l75 -31v-16h-255z" />
    <glyph glyph-name="uni0066_uni006A.liga" unicode="fj" horiz-adv-x="682" 
d="M44 0v16l65 32v360h-77v46h77v35q0 37 24.5 82t68 85.5t100 67t121.5 26.5q25 0 45 -3.5t34 -8.5q33 -11 33 -28q0 -4 -1 -9t-4 -11l-31 -57h-10l-25 12q-29 16 -52.5 24t-56.5 8q-71 0 -101 -42.5t-30 -117.5v-63h356v-440q0 -56 -15.5 -99t-54 -78t-108.5 -67v17
q25 22 38.5 44.5t19 53.5t5.5 78v445h-241v-361l75 -31v-16h-255z" />
    <glyph glyph-name="uni0066_uni0066_uni006A.liga" unicode="ffj" horiz-adv-x="1041" 
d="M44 0v16l65 32v360h-77v46h77v34q0 20 12 52t33.5 68.5t52.5 68.5t69 52.5t81 20.5q11 0 20.5 -2.5t15.5 -4.5q10 -4 13 -7.5t3 -9.5q0 -4 -2 -8.5t-4 -10.5l-24 -54h-8l-17 7q-11 4 -23.5 7.5t-25.5 3.5q-43 0 -62 -36.5t-19 -111.5v-69h244v35q0 37 24.5 82t68 85.5
t100.5 67t121 26.5q26 0 46 -3.5t33 -8.5q33 -11 33 -28q0 -4 -1 -9t-4 -11l-31 -57h-10l-25 12q-29 16 -52.5 24t-56.5 8q-71 0 -101 -42.5t-30 -117.5v-63h356v-440q0 -56 -15.5 -99t-54.5 -78t-109 -67v17q26 22 39.5 44.5t19 53.5t5.5 78v445h-241v-361l75 -31v-16h-256
v16l66 32v360h-244v-361l75 -31v-16h-255z" />
    <glyph glyph-name="uni0066_uni006B.liga" unicode="fk" horiz-adv-x="943" 
d="M44 0v16l65 32v360h-77v46h77v35q0 37 24.5 82t68 85.5t100 67t121.5 26.5q25 0 45 -3.5t34 -8.5q7 -2 12 -5l54 17h10v-491l154 137v6l-49 36v16h203v-16l-64 -35l-148 -116l191 -237l64 -34v-16h-169l-34 52l-148 187v-193l67 -30v-16h-248v16l65 32v607q-24 13 -48 19
t-53 6q-71 0 -104 -44t-33 -119v-63h125v-46h-125v-361l75 -31v-16h-255z" />
    <glyph glyph-name="uni0066_uni0066_uni006B.liga" unicode="ffk" horiz-adv-x="1302" 
d="M44 0v16l65 32v360h-77v46h77v34q0 20 12 52t33.5 68.5t52.5 68.5t69 52.5t81 20.5q11 0 20.5 -2.5t15.5 -4.5q10 -4 13 -7.5t3 -9.5q0 -4 -2 -8.5t-4 -10.5l-24 -54h-8l-17 7q-11 4 -23.5 7.5t-25.5 3.5q-43 0 -62 -36.5t-19 -111.5v-69h244v35q0 37 24.5 82t68 85.5
t100.5 67t121 26.5q26 0 46 -3.5t33 -8.5q7 -2 12 -5l54 17h9v-491l155 137v6l-49 36v16h202v-16l-64 -35l-147 -116l191 -237l64 -34v-16h-170l-33 52l-149 187v-193l68 -30v-16h-248v16l65 32v606q-24 14 -47.5 20t-53.5 6q-71 0 -104 -44t-33 -119v-63h124v-46h-124v-361
l75 -31v-16h-256v16l66 32v360h-244v-361l75 -31v-16h-255z" />
    <glyph glyph-name="uni0066_t.liga" unicode="ft" horiz-adv-x="732" 
d="M44 0v16l65 32v360h-77v46h77v34q0 20 12 52t34.5 68.5t53.5 68.5t69 52.5t82 20.5q10 0 21 -3t19 -7q26 -11 26 -26q0 -10 -5 -19l-24 -52h-8l-22 9q-16 8 -30.5 11.5t-32.5 3.5q-48 0 -64 -34t-16 -110v-69h237l89 110h14v-110h135v-46h-135v-297q0 -25 22 -37.5
t53 -12.5q19 0 34 2t29 5l3 -1v-14q-14 -23 -48.5 -43t-81.5 -20q-55 0 -91 26t-36 73v319h-224v-361l75 -31v-16h-255z" />
    <glyph glyph-name="uni0066_uni0066_t.liga" unicode="fft" horiz-adv-x="1090" 
d="M44 0v16l65 32v360h-77v46h77v34q0 20 12 52t33.5 68.5t52.5 68.5t69 52.5t81 20.5q11 0 20.5 -2.5t15.5 -4.5q10 -4 13 -7.5t3 -9.5q0 -4 -2 -8.5t-4 -10.5l-24 -54h-8l-17 7q-11 4 -23.5 7.5t-25.5 3.5q-43 0 -62 -36.5t-19 -111.5v-69h244v34q0 20 12 52t34 68.5
t53 68.5t69.5 52.5t82.5 20.5q11 0 21.5 -3t17.5 -7q27 -11 27 -26q0 -7 -5 -19l-24 -52h-8l-22 9q-16 8 -30.5 11.5t-32.5 3.5q-49 0 -64.5 -34t-15.5 -110v-69h237l88 110h15v-110h135v-46h-135v-297q0 -25 22 -37.5t53 -12.5q18 0 33.5 2t28.5 5l3 -1v-14
q-13 -23 -48 -43t-82 -20q-54 0 -90 26t-36 73v319h-224v-361l75 -31v-16h-256v16l66 32v360h-244v-361l75 -31v-16h-255z" />
    <glyph glyph-name=".notdef" horiz-adv-x="364" 
d="M33 0v666h265v-666h-265zM66 33h199v600h-199v-600z" />
    <glyph glyph-name="uni0000" horiz-adv-x="0" 
 />
    <glyph glyph-name="uni0000" horiz-adv-x="0" 
 />
    <glyph glyph-name="nonmarkingreturn" horiz-adv-x="333" 
 />
    <glyph glyph-name="uni0020" unicode=" " horiz-adv-x="250" 
 />
    <glyph glyph-name="exclam" unicode="!" horiz-adv-x="261" 
d="M117 211l-55 449h137l-55 -449h-27zM130 -5q-28 0 -48 20.5t-20 48.5t20 48.5t48 20.5t48.5 -20.5t20.5 -48.5t-20.5 -48.5t-48.5 -20.5z" />
    <glyph glyph-name="quotedbl" unicode="&#x22;" horiz-adv-x="450" 
d="M114 490l-38 250h98l-38 -250h-22zM314 490l-38 250h98l-38 -250h-22z" />
    <glyph glyph-name="numbersign" unicode="#" horiz-adv-x="536" 
d="M57 0l59 202h-97v49h111l44 151h-97v49h111l61 209h52l-61 -209h128l61 209h52l-61 -209h97v-49h-111l-44 -151h97v-49h-111l-59 -202h-52l59 202h-128l-59 -202h-52zM182 251h128l44 151h-128z" />
    <glyph glyph-name="dollar" unicode="$" horiz-adv-x="536" 
d="M207 -80v76q-33 7 -60.5 20t-42.5 27q-25 21 -37 47.5t-12 49.5q0 20 13.5 26t25.5 6h37l5 -4v-27q0 -31 18.5 -56t52.5 -37v248q-82 36 -115.5 78t-33.5 105q0 39 20 74.5t54 63t75 41.5v82h37v-73q18 3 35 3q13 0 25 -1v71h37v-76q25 -5 44 -13.5t32 -19.5
q52 -43 52 -89q0 -20 -12.5 -27t-24.5 -7h-39l-5 4v26q0 50 -47 71v-237q79 -37 113.5 -78t34.5 -109q0 -66 -42.5 -114.5t-105.5 -68.5v-82h-37v73q-21 -3 -43 -3q-8 0 -17 1v-71h-37zM297 392q4 -2 7 -3v229q-12 2 -26 2q-18 0 -34 -4v-199q22 -11 53 -25zM163 525
q0 -26 9 -45.5t35 -39.5v161q-44 -27 -44 -76zM261 40q23 0 43 5v205q-24 13 -60 29v-238q8 -1 17 -1zM388 141q0 28 -9.5 48t-37.5 39v-169q22 12 34.5 33t12.5 49z" />
    <glyph glyph-name="percent" unicode="%" horiz-adv-x="775" 
d="M181 345q-70 0 -110.5 55.5t-40.5 147.5q0 57 19.5 103t54 72.5t77.5 26.5q70 0 110.5 -55t40.5 -148q0 -57 -19.5 -102.5t-54 -72.5t-77.5 -27zM188 372q17 0 27 23.5t14.5 60.5t4.5 75q0 50 -6 93.5t-19 70.5t-34 27q-17 0 -27.5 -23.5t-15 -59.5t-4.5 -75q0 -50 6 -94
t19 -71t35 -27zM154 17l468 733l42 -27l-469 -733zM615 -10q-70 0 -110.5 55.5t-40.5 147.5q0 57 19.5 103t54 72.5t77.5 26.5q70 0 110.5 -55t40.5 -148q0 -57 -19.5 -102.5t-54 -72.5t-77.5 -27zM622 17q17 0 27 23.5t14.5 60.5t4.5 75q0 50 -6 93.5t-19 70.5t-34 27
q-17 0 -27.5 -23.5t-15 -59.5t-4.5 -75q0 -50 6 -94t19 -71t35 -27z" />
    <glyph glyph-name="ampersand" unicode="&#x26;" horiz-adv-x="736" 
d="M233 -10q-91 0 -147 45.5t-56 124.5q0 52 33.5 99.5t105.5 87.5q-31 33 -48.5 58t-25.5 48.5t-8 53.5q0 43 26 80.5t71 60t102 22.5q84 0 132.5 -37t48.5 -96q0 -44 -39.5 -80t-124.5 -75q8 -9 17 -17.5t18 -18.5l153 -153q51 76 93 197l-98 39v16h243v-16l-86 -37
q-30 -66 -60.5 -123.5t-63.5 -103.5l112 -113l83 -36v-16h-200l-73 73q-44 -40 -95 -61.5t-113 -21.5zM202 540q0 -34 18.5 -63t56.5 -69q35 29 55 60.5t20 71.5q0 36 -20 60.5t-55 24.5t-55 -23.5t-20 -61.5zM147 194q0 -64 37.5 -99.5t97.5 -35.5q69 0 128 45l-155 156
l-31 31l-27 27q-31 -29 -40.5 -57.5t-9.5 -66.5z" />
    <glyph glyph-name="quotesingle" unicode="'" horiz-adv-x="250" 
d="M114 490l-38 250h98l-38 -250h-22z" />
    <glyph glyph-name="parenleft" unicode="(" horiz-adv-x="257" 
d="M224 -150q-85 99 -129 210t-44 235t44 235t129 210h23v-3q-61 -97 -93 -201t-32 -241q0 -91 14.5 -167t42 -143t68.5 -132v-3h-23z" />
    <glyph glyph-name="parenright" unicode=")" horiz-adv-x="257" 
d="M10 -150v3q40 65 68 132t42.5 143t14.5 167q0 137 -32 241t-93 201v3h23q85 -99 129 -210t44 -235t-44 -235t-129 -210h-23z" />
    <glyph glyph-name="asterisk" unicode="*" horiz-adv-x="379" 
d="M65 471l104 103l-142 21l23 69l128 -65l-24 141h71l-24 -141l127 65l24 -69l-143 -21l105 -103l-60 -41l-65 125l-65 -125z" />
    <glyph glyph-name="plus" unicode="+" horiz-adv-x="536" 
d="M240 62v184h-182v52h182v184h56v-184h182v-52h-182v-184h-56z" />
    <glyph glyph-name="comma" unicode="," horiz-adv-x="261" 
d="M58 -210v27q46 23 64.5 52t18.5 58t-14 48t-37 32l-34 19l-3 11l36 60q7 12 12 17t13 5t25 -9q35 -20 54 -53.5t19 -73.5q0 -55 -35 -106t-119 -87z" />
    <glyph glyph-name="hyphen" unicode="-" horiz-adv-x="371" 
d="M48 222v70h275v-70h-275z" />
    <glyph glyph-name="period" unicode="." horiz-adv-x="261" 
d="M130 -5q-28 0 -48 20.5t-20 48.5t20 48.5t48 20.5t48.5 -20.5t20.5 -48.5t-20.5 -48.5t-48.5 -20.5z" />
    <glyph glyph-name="slash" unicode="/" horiz-adv-x="250" 
d="M0 -120l200 870h50l-200 -870h-50z" />
    <glyph glyph-name="zero" unicode="0" horiz-adv-x="536" 
d="M268 -10q-74 0 -127 41t-80.5 117.5t-27.5 181.5q0 98 30 174.5t82.5 121t122.5 44.5q74 0 127 -41t80.5 -117.5t27.5 -181.5q0 -98 -30 -174.5t-83 -121t-122 -44.5zM286 38q29 0 48.5 34t29.5 93t10 134q0 93 -13 166.5t-39.5 115.5t-68.5 42q-29 0 -49.5 -33
t-31 -91.5t-10.5 -135.5q0 -94 13 -167.5t40.5 -115.5t70.5 -42z" />
    <glyph glyph-name="one" unicode="1" horiz-adv-x="536" 
d="M150 0v16l93 37v499l-170 -80v38l246 150h45v-607l83 -37v-16h-297z" />
    <glyph glyph-name="two" unicode="2" horiz-adv-x="536" 
d="M52 0v32q83 93 137.5 156t86 106t46.5 75t19 62.5t4 68.5q0 53 -26 87t-71 34q-102 0 -102 -113v-46l-6 -8h-59q-20 0 -30 7t-10 35t17.5 56.5t54.5 55.5q26 18 50 32t53.5 22t69.5 8q56 0 99.5 -24t68 -64t24.5 -89q0 -32 -7.5 -59t-26.5 -56t-53.5 -66t-87.5 -88.5
t-130 -123.5h254l55 98h16l-10 -198h-436z" />
    <glyph glyph-name="three" unicode="3" horiz-adv-x="536" 
d="M258 -10q-46 0 -87 11t-75 34q-28 20 -44 42t-16 47q0 23 9 29t28 6h58l9 -9v-34q0 -38 28.5 -58.5t82.5 -20.5q59 0 90.5 38t31.5 97q0 69 -36 108t-125 39h-55v46h40q65 0 103.5 40t38.5 103q0 60 -24 88t-69 28q-39 0 -64.5 -24.5t-25.5 -65.5v-41l-8 -9h-56
q-20 0 -30 6.5t-10 31.5q0 56 69 99q39 25 73 37t83 12q55 0 99.5 -19.5t70 -55t25.5 -82.5q0 -56 -45.5 -97t-116.5 -57q96 -13 146.5 -59t50.5 -121q0 -53 -34.5 -96t-91.5 -68t-123 -25z" />
    <glyph glyph-name="four" unicode="4" horiz-adv-x="536" 
d="M190 0v16l94 37v129h-272v26l347 452h45v-404h119v-74h-119v-129l84 -37v-16h-298zM108 256h176v236z" />
    <glyph glyph-name="five" unicode="5" horiz-adv-x="536" 
d="M215 -10q-54 0 -92.5 13.5t-57.5 39.5q-8 9 -8 20q0 13 18 27l45 35h12l11 -21q16 -31 40 -49t64 -18q54 0 89.5 39.5t35.5 104.5q0 45 -18 79.5t-59.5 54.5t-110.5 20q-23 0 -46 -2.5t-50 -6.5v334h341v-91h-290v-136q16 1 33 2t37 1q97 0 156.5 -29t87 -76t27.5 -103
q0 -70 -34 -124t-94 -84t-137 -30z" />
    <glyph glyph-name="six" unicode="6" horiz-adv-x="536" 
d="M271 -10q-71 0 -123.5 31.5t-82 88t-29.5 130.5q0 108 49.5 194t141 146.5t218.5 89.5v-33q-119 -37 -188 -121t-86 -200q27 36 66.5 56t90.5 20q55 0 94.5 -25t61 -68.5t21.5 -97.5t-26 -102.5t-78 -78.5t-130 -30zM166 243q0 -103 30.5 -154.5t78.5 -51.5q35 0 58 21
t34 53.5t11 64.5q0 68 -26.5 106t-80.5 38q-33 0 -60 -15.5t-45 -41.5v-20z" />
    <glyph glyph-name="seven" unicode="7" horiz-adv-x="536" 
d="M98 0q25 59 52 115t61 118t79 139.5t106 180.5h-341v107h431v-31q-36 -69 -74.5 -147t-75 -159.5t-65 -163t-44.5 -159.5h-129z" />
    <glyph glyph-name="eight" unicode="8" horiz-adv-x="536" 
d="M266 -10q-62 0 -113 19t-81.5 54.5t-30.5 83.5q0 29 11 58t40 57.5t82 57.5q-64 40 -89 79t-25 94q0 48 30 88.5t79 64.5t105 24q54 0 99.5 -21t73 -58t27.5 -84q0 -41 -35 -75.5t-92 -64.5q78 -44 113 -86.5t35 -102.5q0 -58 -32.5 -100t-84.5 -65t-112 -23zM176 535
q0 -26 9 -48t36.5 -45t82.5 -52q31 21 49 49t18 65q0 61 -28.5 90.5t-74.5 29.5q-40 0 -66 -24t-26 -65zM148 165q0 -61 33 -96t86 -35t82.5 28t29.5 74q0 36 -17 60t-54 47t-96 55q-39 -29 -51.5 -59t-12.5 -74z" />
    <glyph glyph-name="nine" unicode="9" horiz-adv-x="536" 
d="M91 -10v33q119 37 188 121t86 199q-27 -35 -66.5 -55t-90.5 -20q-54 0 -94 25t-61.5 68.5t-21.5 97.5t26 102.5t78 78.5t130 30q71 0 124 -31.5t82.5 -88t29.5 -130.5q0 -108 -50 -194t-141.5 -146.5t-218.5 -89.5zM159 484q0 -68 26 -106t80 -38q33 0 60 15.5t45 41.5
v20q0 103 -30 154.5t-78 51.5q-36 0 -59 -21t-33.5 -53.5t-10.5 -64.5z" />
    <glyph glyph-name="colon" unicode=":" horiz-adv-x="261" 
d="M130 -5q-28 0 -48 20.5t-20 48.5t20 48.5t48 20.5t48.5 -20.5t20.5 -48.5t-20.5 -48.5t-48.5 -20.5zM130 324q-28 0 -48 20.5t-20 48.5t20 48.5t48 20.5t48.5 -20.5t20.5 -48.5t-20.5 -48.5t-48.5 -20.5z" />
    <glyph glyph-name="semicolon" unicode=";" horiz-adv-x="261" 
d="M130 324q-28 0 -48 20.5t-20 48.5t20 48.5t48 20.5t48.5 -20.5t20.5 -48.5t-20.5 -48.5t-48.5 -20.5zM58 -210v27q46 23 64.5 52t18.5 58t-14 48t-37 32l-34 19l-3 11l36 60q7 12 12 17t13 5t25 -9q35 -20 54 -53.5t19 -73.5q0 -55 -35 -106t-119 -87z" />
    <glyph glyph-name="less" unicode="&#x3c;" horiz-adv-x="536" 
d="M478 62l-420 185v50l420 185v-59l-342 -151l342 -151v-59z" />
    <glyph glyph-name="equal" unicode="=" horiz-adv-x="536" 
d="M58 348v52h420v-52h-420zM58 144v52h420v-52h-420z" />
    <glyph glyph-name="greater" unicode="&#x3e;" horiz-adv-x="536" 
d="M58 62v59l342 151l-342 151v59l420 -185v-50z" />
    <glyph glyph-name="question" unicode="?" horiz-adv-x="479" 
d="M197 211l-29 153q77 19 117.5 53.5t40.5 86.5q0 62 -29 92t-72 30q-40 0 -63 -27t-23 -80v-37l-9 -11h-61q-17 0 -26 6.5t-9 32.5q0 59 61 103q35 25 68.5 41t82.5 16q57 0 99.5 -23t66 -63t23.5 -91q0 -68 -48.5 -120t-151.5 -85l-11 -77h-27zM210 -5q-28 0 -48.5 20.5
t-20.5 48.5t20.5 48.5t48.5 20.5q27 0 47.5 -20.5t20.5 -48.5t-20.5 -48.5t-47.5 -20.5z" />
    <glyph glyph-name="at" unicode="@" horiz-adv-x="810" 
d="M372 -118q-92 0 -161.5 35.5t-108.5 100t-39 150.5q0 80 30.5 151t85.5 126t127 86t154 31q88 0 152.5 -36t99.5 -99t35 -143q0 -51 -16 -98t-45.5 -84t-70.5 -59t-92 -22q-91 0 -73 104v2q-37 -55 -72.5 -80.5t-73.5 -25.5q-34 0 -57.5 29.5t-23.5 85.5q0 58 20 111
t54 94t76.5 64.5t87.5 23.5q22 0 42 -6t35 -15l38 18h21l-52 -293q-7 -40 -2.5 -53.5t26.5 -13.5q34 0 64 30.5t49 79.5t19 105q0 71 -32.5 128.5t-91.5 91t-139 33.5q-70 0 -126.5 -27t-97 -74.5t-62 -111t-21.5 -135.5q0 -86 34 -147.5t94.5 -94t139.5 -32.5
q65 0 115 15.5t93 45.5l10 -22q-53 -33 -111 -51t-134 -18zM319 177q0 -49 10 -67.5t33 -18.5q21 0 46 19.5t49 54.5l34 196q-11 13 -24 22t-34 9q-32 0 -58 -29.5t-41 -78.5t-15 -107z" />
    <glyph glyph-name="uni0041" unicode="A" horiz-adv-x="764" 
d="M25 0v16l62 34l259 615h70l256 -613l68 -36v-16h-288v16l87 35l-71 174h-240l-70 -174l83 -35v-16h-216zM251 280h194l-97 239z" />
    <glyph glyph-name="uni0042" unicode="B" horiz-adv-x="686" 
d="M52 0v16l84 41v546l-84 41v16h293q69 0 124 -16.5t86.5 -49t31.5 -82.5q0 -51 -36.5 -93.5t-104.5 -60.5q93 -13 146.5 -56t53.5 -110q0 -55 -36 -98.5t-99 -68.5t-143 -25h-316zM306 605h-45v-239h51q68 0 106.5 31t38.5 86q0 122 -151 122zM343 315h-82v-260h89
q75 0 118.5 36.5t43.5 94.5q0 66 -44 97.5t-125 31.5z" />
    <glyph glyph-name="uni0043" unicode="C" horiz-adv-x="717" 
d="M399 -10q-104 0 -180.5 42t-118.5 115.5t-42 166.5q0 73 29 137.5t79 113.5t114 77t135 28q51 0 86.5 -6.5t63 -17t55.5 -24.5l9 -182h-18l-80 140q-31 21 -56 30.5t-58 9.5q-65 0 -117 -36t-82 -101t-30 -150q0 -91 29 -156t78.5 -100t110.5 -35q45 0 77.5 12t60.5 29
l77 123h17l-13 -165q-42 -23 -95.5 -37t-130.5 -14z" />
    <glyph glyph-name="uni0044" unicode="D" horiz-adv-x="791" 
d="M52 0v16l84 41v546l-84 41v16h322q115 0 195.5 -39t123 -107t42.5 -154q0 -78 -27.5 -144t-77 -114t-117 -75t-146.5 -27h-315zM340 605h-79v-550h94q79 0 134.5 33.5t85 95t29.5 145.5q0 126 -67.5 201t-196.5 75z" />
    <glyph glyph-name="uni0045" unicode="E" horiz-adv-x="669" 
d="M52 0v16l84 41v546l-84 41v16h523v-173h-16l-69 118h-229v-237h161l54 85h16v-223h-16l-54 83h-161v-258h254l72 140h16v-195h-551z" />
    <glyph glyph-name="uni0046" unicode="F" horiz-adv-x="624" 
d="M52 0v16l84 41v546l-84 41v16h513v-173h-16l-66 118h-222v-239h151l54 85h16v-219h-16l-54 83h-151v-258l98 -41v-16h-307z" />
    <glyph glyph-name="uni0047" unicode="G" horiz-adv-x="761" 
d="M398 -10q-72 0 -134 24t-108 68t-72 103t-26 129q0 77 29.5 142t80.5 113t117.5 74.5t140.5 26.5q53 0 90.5 -6t67 -17t58.5 -25l8 -171h-17l-82 130q-34 22 -61 31t-62 9q-68 0 -123 -35t-87 -97t-32 -143q0 -94 32.5 -161t87 -103t121.5 -36q23 0 48 2.5t50 9.5v178
l-89 44v16h287v-16l-73 -46v-160q-30 -26 -73 -44.5t-89.5 -29t-89.5 -10.5z" />
    <glyph glyph-name="uni0048" unicode="H" horiz-adv-x="825" 
d="M52 0v16l84 41v546l-84 41v16h288v-16l-79 -41v-235h303v235l-79 41v16h287v-16l-82 -41v-546l82 -41v-16h-287v16l79 41v256h-303v-256l79 -41v-16h-288z" />
    <glyph glyph-name="uni0049" unicode="I" horiz-adv-x="404" 
d="M56 0v16l83 41v546l-83 41v16h292v-16l-83 -41v-546l83 -41v-16h-292z" />
    <glyph glyph-name="uni004A" unicode="J" horiz-adv-x="415" 
d="M53 -173q-13 0 -22.5 6.5t-9.5 21.5q0 7 2.5 20.5t9.5 46.5h7q16 -4 25 -6.5t21 -2.5q20 0 34.5 9t22 38.5t7.5 89.5v553l-83 41v16h292v-16l-83 -41v-360q0 -76 -14 -141t-37 -115t-50 -80q-39 -43 -65 -61.5t-57 -18.5z" />
    <glyph glyph-name="uni004B" unicode="K" horiz-adv-x="752" 
d="M52 0v16l84 41v546l-84 41v16h293v-16l-84 -41v-546l84 -41v-16h-293zM262 335l276 274l-74 35v16h226v-16l-66 -27l-244 -237l293 -336l67 -28v-16h-190z" />
    <glyph glyph-name="uni004C" unicode="L" horiz-adv-x="642" 
d="M52 0v16l84 41v546l-84 41v16h303v-16l-94 -41v-548h230l76 180h16v-235h-531z" />
    <glyph glyph-name="uni004D" unicode="M" horiz-adv-x="980" 
d="M49 0v16l83 41l21 546l-87 41v16h222l213 -494l212 494h213v-16l-85 -34l17 -553l73 -41v-16h-273v16l78 40l-10 482l-232 -543h-52l-232 538l-13 -477l85 -40v-16h-233z" />
    <glyph glyph-name="uni004E" unicode="N" horiz-adv-x="809" 
d="M49 0v16l83 41v545l-82 42v16h172l386 -456v401l-108 39v16h260v-16l-82 -40v-609h-52l-424 498v-437l109 -40v-16h-262z" />
    <glyph glyph-name="uni004F" unicode="O" horiz-adv-x="796" 
d="M398 -10q-73 0 -135 25.5t-108 71t-71.5 107.5t-25.5 136t25.5 136t71.5 107.5t108 71t135 25.5q74 0 136 -25.5t108 -71t71.5 -107.5t25.5 -136t-25.5 -136t-71.5 -107.5t-108 -71t-136 -25.5zM416 41q56 0 98.5 32t66.5 90t24 137q0 97 -29.5 169t-80 111.5
t-112.5 39.5q-55 0 -98.5 -31.5t-68.5 -89.5t-25 -137q0 -97 30 -169t81.5 -112t113.5 -40z" />
    <glyph glyph-name="uni0050" unicode="P" horiz-adv-x="665" 
d="M52 0v16l84 41v546l-84 41v16h311q118 0 189.5 -42.5t71.5 -135.5q0 -56 -37.5 -98.5t-102 -66.5t-145.5 -24h-78v-236l98 -41v-16h-307zM261 605v-261h64q79 0 124 36.5t45 92.5q0 70 -45.5 101t-130.5 31h-57z" />
    <glyph glyph-name="uni0051" unicode="Q" horiz-adv-x="796" 
d="M684 -153q-43 0 -90 11.5t-104 43t-132 90.5q-88 9 -155.5 55t-106 119t-38.5 164q0 74 25.5 136t71.5 107.5t108 71t135 25.5q74 0 136 -25.5t108 -71t71.5 -107.5t25.5 -136q0 -79 -29.5 -144.5t-82 -112t-121.5 -67.5q55 -46 97.5 -72.5t76.5 -37.5t65 -11q22 0 38 3
t27 7v-21q-22 -11 -54 -19t-72 -8zM416 41q56 0 98.5 32t66.5 90t24 137q0 97 -29.5 169t-80 111.5t-112.5 39.5q-55 0 -98.5 -31.5t-68.5 -89.5t-25 -137q0 -97 30 -169t81.5 -112t113.5 -40z" />
    <glyph glyph-name="uni0052" unicode="R" horiz-adv-x="700" 
d="M52 0v16l84 41v546l-84 41v16h308q105 0 165.5 -43.5t60.5 -119.5q0 -56 -37.5 -97.5t-98.5 -64.5l187 -281l70 -38v-16h-187l-189 305h-70v-247l75 -42v-16h-284zM312 605h-51v-249h57q62 0 100.5 35t38.5 91q0 58 -38 90.5t-107 32.5z" />
    <glyph glyph-name="uni0053" unicode="S" horiz-adv-x="555" 
d="M268 -10q-64 0 -111.5 12.5t-94.5 36.5l-10 167h18l61 -115q62 -51 130 -51q56 0 90 27.5t34 78.5q0 38 -17.5 61.5t-53.5 43t-94 45.5q-70 34 -108 73.5t-38 106.5q0 38 19 73t50.5 62t71 43t81.5 16q50 0 93.5 -11.5t83.5 -32.5l10 -160h-17l-61 110q-29 22 -54 33
t-57 11q-42 0 -69.5 -28t-27.5 -71q0 -45 30 -72.5t100 -60.5q61 -28 100 -55t58 -61t19 -84q0 -48 -20.5 -84.5t-55 -62t-76.5 -38.5t-84 -13z" />
    <glyph glyph-name="uni0054" unicode="T" horiz-adv-x="690" 
d="M178 0v16l104 41v548h-151l-75 -157h-16v212h610v-212h-16l-75 157h-151v-548l103 -41v-16h-333z" />
    <glyph glyph-name="uni0055" unicode="U" horiz-adv-x="826" 
d="M416 -10q-82 0 -145 28t-99 90t-36 164v331l-84 41v16h293v-16l-83 -41v-325q0 -82 26 -130.5t69.5 -69t97.5 -20.5q44 0 81.5 18.5t60.5 59t23 107.5v362l-96 39v16h249v-16l-83 -40v-332q0 -102 -35 -164t-97 -90t-142 -28z" />
    <glyph glyph-name="uni0056" unicode="V" horiz-adv-x="754" 
d="M356 -5l-260 612l-70 37v16h286v-16l-84 -39l183 -431h5l182 433l-83 37v16h213v-16l-57 -31l-266 -618h-49z" />
    <glyph glyph-name="uni0057" unicode="W" horiz-adv-x="1017" 
d="M278 -5l-189 611l-76 38v16h290v-16l-84 -38l119 -404h4l174 463h50l175 -463h5l119 404l-85 38v16h224v-16l-67 -35l-192 -614h-49l-180 463h-6l-184 -463h-48z" />
    <glyph glyph-name="uni0058" unicode="X" horiz-adv-x="764" 
d="M30 0v16l77 39l209 263l-208 290l-65 36v16h297v-16l-79 -38v-5l145 -197l157 197v4l-77 39v16h224v-16l-64 -35l-204 -253l221 -300l71 -40v-16h-302v16l72 37v4l-154 213l-166 -212l-1 -4l81 -38v-16h-234z" />
    <glyph glyph-name="uni0059" unicode="Y" horiz-adv-x="739" 
d="M221 0v16l90 41v251l-220 300l-65 36v16h282v-16l-75 -36v-4l176 -239l159 237v4l-76 38v16h221v-16l-64 -33l-212 -302v-252l89 -41v-16h-305z" />
    <glyph glyph-name="uni005A" unicode="Z" horiz-adv-x="678" 
d="M86 0v29l341 576h-243l-70 -140h-16v195h483v-29l-342 -576h265l72 150h16v-205h-506z" />
    <glyph glyph-name="bracketleft" unicode="[" horiz-adv-x="257" 
d="M61 -150v890h184v-25h-116v-840h116v-25h-184z" />
    <glyph glyph-name="backslash" unicode="\" horiz-adv-x="250" 
d="M200 -120l-200 870h50l200 -870h-50z" />
    <glyph glyph-name="bracketright" unicode="]" horiz-adv-x="257" 
d="M12 -150v25h116v840h-116v25h184v-890h-184z" />
    <glyph glyph-name="asciicircum" unicode="^" horiz-adv-x="536" 
d="M58 250l185 420h50l185 -420h-59l-151 344l-152 -344h-58z" />
    <glyph glyph-name="underscore" unicode="_" 
d="M25 -140v50h450v-50h-450z" />
    <glyph glyph-name="grave" unicode="`" 
d="M324 530l-129 110q-22 19 -29.5 34.5t-7.5 32.5h99l84 -177h-17z" />
    <glyph glyph-name="uni0061" unicode="a" horiz-adv-x="504" 
d="M153 -10q-48 0 -81.5 29t-32.5 82q1 52 35 85.5t126 55.5l94 23v66q0 37 -25 60.5t-60 23.5t-49 -16.5t-14 -47.5v-39l-5 -4h-60q-15 0 -21 6t-6 24q0 47 60 83q32 20 63.5 31.5t66.5 11.5q44 0 82 -12t61 -38t23 -70v-273q14 -16 51 -16h33l3 -3v-10q-12 -20 -37 -36
t-64 -16q-38 0 -61.5 17.5t-33.5 47.5h-7q-26 -28 -62 -46.5t-79 -18.5zM149 126q0 -32 18.5 -47.5t51.5 -15.5q19 0 36.5 4t38.5 13v147q-62 -12 -93 -26.5t-41.5 -32.5t-10.5 -42z" />
    <glyph glyph-name="uni0062" unicode="b" horiz-adv-x="573" 
d="M95 -6v642l-62 49v10l168 55h10v-347h5q37 31 71.5 46t74.5 15q47 0 85.5 -26.5t61.5 -75t23 -115.5q0 -81 -31.5 -138.5t-85 -88t-117.5 -30.5q-44 0 -81 8.5t-66 25.5l-46 -30h-10zM291 387q-38 0 -80 -24v-286q38 -37 93 -37q29 0 55 17t42 57t16 109q0 85 -38 124.5
t-88 39.5z" />
    <glyph glyph-name="uni0063" unicode="c" horiz-adv-x="482" 
d="M256 -10q-64 0 -112 27t-74.5 75.5t-26.5 113.5q0 76 31 134t85.5 91t125.5 33q44 0 82.5 -13.5t57.5 -35.5q16 -19 16 -30q0 -14 -13 -24l-43 -37h-7l-35 47q-17 23 -36 36t-49 13q-50 0 -76.5 -45t-26.5 -122q0 -45 15.5 -83.5t50 -62t91.5 -23.5q28 0 60 8t68 27h3
v-14q-24 -48 -72.5 -81.5t-114.5 -33.5z" />
    <glyph glyph-name="uni0064" unicode="d" horiz-adv-x="573" 
d="M208 -10q-48 0 -86.5 25t-61.5 71t-23 108q0 84 31.5 144.5t85.5 93t121 32.5q49 0 84 -9v181l-67 50v9l173 55h9v-705l71 -29v-16h-176l-8 50h-7q-38 -32 -72 -46t-74 -14zM153 222q0 -80 38 -117.5t88 -37.5q40 0 80 24v285q-18 17 -37.5 26.5t-43.5 9.5
q-34 0 -62 -17.5t-45.5 -59t-17.5 -113.5z" />
    <glyph glyph-name="uni0065" unicode="e" horiz-adv-x="491" 
d="M260 -10q-100 0 -158.5 59t-58.5 157q0 76 32 134t84.5 91t116.5 33q80 0 125 -55t46 -155l-4 -5h-288q0 -45 16 -82.5t52 -60t95 -22.5q28 0 60 8t67 27h3v-14q-24 -49 -73 -82t-115 -33zM256 419q-40 0 -66 -33t-33 -92h193q-9 69 -33 97t-61 28z" />
    <glyph glyph-name="uni0066" unicode="f" horiz-adv-x="359" 
d="M44 0v16l65 32v360h-77v46h77v34q0 24 13.5 58t37 69.5t55.5 66t69 49.5t76 19q10 0 21 -3t19 -7q26 -13 26 -26q0 -10 -5 -19l-24 -52h-8l-22 9q-16 8 -30.5 11.5t-32.5 3.5q-48 0 -64 -34t-16 -110v-69h125v-46h-125v-361l75 -31v-16h-255z" />
    <glyph glyph-name="uni0067" unicode="g" horiz-adv-x="543" 
d="M257 148q-46 0 -85 16q-15 -8 -21 -19.5t-6 -23.5q0 -26 18 -37.5t56 -11.5h115q76 0 112 -33.5t36 -98.5q0 -45 -30.5 -86t-86.5 -67.5t-133 -26.5q-97 0 -138.5 32t-41.5 80q0 37 18 63l65 42v4q-77 22 -77 93q0 43 27 70l56 31v6q-32 21 -51 53.5t-19 71.5
q0 44 24.5 80t66.5 56.5t95 20.5q25 0 51 -5.5t45 -14.5l153 10v-58l-98 7l-4 -3q18 -17 28.5 -42t10.5 -51q0 -45 -24.5 -80.5t-66.5 -56.5t-95 -21zM266 190q34 0 53.5 32t19.5 81q0 55 -24.5 87t-61.5 32q-38 0 -57.5 -32.5t-19.5 -80.5q0 -55 25 -87t65 -32zM131 -112
q0 -41 30 -68t81 -27q65 0 104 32.5t39 76.5q0 40 -21.5 56t-76.5 16h-95q-10 0 -19 1q-22 -15 -32 -36t-10 -51z" />
    <glyph glyph-name="uni0068" unicode="h" horiz-adv-x="603" 
d="M38 0v16l65 32v588l-62 49v10l168 55h10v-360h4q37 36 71.5 55t78.5 19q60 0 98.5 -31t38.5 -90v-295l65 -32v-16h-240v16l59 30v254q0 38 -23 58.5t-60 20.5q-23 0 -49 -8t-43 -22v-303l59 -30v-16h-240z" />
    <glyph glyph-name="uni0069" unicode="i" horiz-adv-x="325" 
d="M162 571q-29 0 -48 19.5t-19 48.5t19 48t48 19t48.5 -19t19.5 -48t-19.5 -48.5t-48.5 -19.5zM42 0v16l65 32v302l-62 48v11l168 55h10v-416l61 -32v-16h-242z" />
    <glyph glyph-name="uni006A" unicode="j" horiz-adv-x="324" 
d="M161 571q-29 0 -48 19.5t-19 48.5t19 48t48 19t48.5 -19t19.5 -48t-19.5 -48.5t-48.5 -19.5zM43 -230v17q25 22 38.5 44.5t19 53.5t5.5 78v387l-62 48v11l168 55h10v-450q0 -56 -15.5 -99t-54.5 -78t-109 -67z" />
    <glyph glyph-name="uni006B" unicode="k" horiz-adv-x="584" 
d="M38 0v16l65 32v588l-62 49v10l168 55h10v-491l154 137v6l-49 36v16h203v-16l-64 -35l-148 -115l191 -238l64 -34v-16h-169l-34 52l-148 187v-193l67 -30v-16h-248z" />
    <glyph glyph-name="uni006C" unicode="l" horiz-adv-x="313" 
d="M35 0v16l66 32v588l-63 49v10l169 55h9v-702l61 -32v-16h-242z" />
    <glyph glyph-name="uni006D" unicode="m" horiz-adv-x="884" 
d="M38 0v16l65 32v302l-62 45v10l158 59h10l9 -74h5q36 36 69.5 55t77.5 19q48 0 82.5 -21.5t45.5 -63.5h3q40 41 75.5 63t82.5 22q58 0 95 -31t37 -90v-295l65 -32v-16h-240v16l59 32v252q0 38 -22 58.5t-57 20.5q-27 0 -52 -9.5t-42 -26.5v-295l58 -32v-16h-230v16l56 32
v252q0 38 -22 58.5t-57 20.5q-22 0 -46.5 -8t-41.5 -22v-301l55 -32v-16h-236z" />
    <glyph glyph-name="uni006E" unicode="n" horiz-adv-x="603" 
d="M38 0v16l65 32v302l-62 45v10l158 59h10l9 -74h5q37 36 71.5 55t78.5 19q60 0 98.5 -31t38.5 -90v-295l65 -32v-16h-240v16l59 32v252q0 38 -23 58.5t-60 20.5q-23 0 -49 -8t-43 -22v-301l59 -32v-16h-240z" />
    <glyph glyph-name="uni006F" unicode="o" horiz-adv-x="544" 
d="M272 -10q-68 0 -120.5 32t-81.5 85.5t-29 119.5t29 119.5t81.5 85.5t120.5 32q69 0 121 -32t81 -85.5t29 -119.5t-29 -119.5t-81 -85.5t-121 -32zM284 37q34 0 55.5 24t31.5 63t10 83q0 54 -12.5 102.5t-38.5 78.5t-68 30q-34 0 -56 -24t-32.5 -63t-10.5 -83
q0 -54 12.5 -102t39.5 -78.5t69 -30.5z" />
    <glyph glyph-name="uni0070" unicode="p" horiz-adv-x="580" 
d="M38 -230v16l65 32v528l-62 49v10l158 59h10l8 -61h6q37 32 72 46.5t75 14.5q47 0 85.5 -26.5t61.5 -75t23 -115.5q0 -81 -31.5 -138.5t-84 -88t-114.5 -30.5q-52 0 -91 10v-182l75 -32v-16h-256zM299 387q-38 0 -80 -24v-286q39 -37 99 -37q28 0 52 16t39.5 54.5
t15.5 105.5q0 88 -38 129.5t-88 41.5z" />
    <glyph glyph-name="uni0071" unicode="q" horiz-adv-x="571" 
d="M286 -230v16l75 29v234h-6q-37 -31 -72 -45t-73 -14q-47 0 -85.5 25t-61.5 71t-23 108q0 84 32 144.5t87 93t124 32.5q35 0 62.5 -6t56.5 -18l66 24h9v-647l65 -31v-16h-256zM156 222q0 -80 38 -117.5t87 -37.5q18 0 38 5.5t42 17.5v250q0 28 -1.5 35.5t-8.5 12.5
q-16 14 -35.5 19t-41.5 5q-32 0 -59 -17.5t-43 -59t-16 -113.5z" />
    <glyph glyph-name="uni0072" unicode="r" horiz-adv-x="413" 
d="M41 0v16l65 32v298l-62 49v10l158 59h9l9 -88h5q24 38 43 57t36.5 25t35.5 6q8 0 18 -3t18 -6q30 -10 30 -28q0 -8 -3 -17l-23 -59h-7l-31 12q-14 5 -24.5 6.5t-23.5 1.5q-42 0 -73 -41v-282l77 -32v-16h-257z" />
    <glyph glyph-name="uni0073" unicode="s" horiz-adv-x="435" 
d="M211 -10q-49 0 -84 9t-70 26v115h14l34 -54q35 -55 102 -55q39 0 60 16.5t21 45.5q0 25 -12 39.5t-37.5 26.5t-64.5 29q-54 23 -81 52.5t-27 76.5q0 41 21.5 74.5t58 53t79.5 19.5q35 0 67 -8t64 -24v-115h-15l-32 49q-35 55 -84 55q-31 0 -50.5 -15.5t-19.5 -44.5
t21.5 -46t77.5 -40q28 -13 56 -27t46.5 -40t18.5 -73q0 -46 -24.5 -78.5t-62.5 -49.5t-77 -17z" />
    <glyph glyph-name="t" unicode="t" horiz-adv-x="373" 
d="M216 -10q-54 0 -90.5 26t-36.5 73v319h-76v10l90 36l88 110h14v-110h136v-46h-136v-297q0 -25 22 -37.5t53 -12.5q19 0 34.5 2t28.5 5l3 -1v-14q-14 -23 -49 -43t-81 -20z" />
    <glyph glyph-name="u" unicode="u" horiz-adv-x="578" 
d="M221 -10q-59 0 -97.5 30.5t-38.5 90.5v295l-65 32v16h181v-300q0 -39 23 -59t60 -20q22 0 47.5 8t42.5 22v301l-65 32v16h181v-408l66 -30v-16h-182v63h-4q-37 -36 -71 -54.5t-78 -18.5z" />
    <glyph glyph-name="v" unicode="v" horiz-adv-x="478" 
d="M221 0l-187 409l-64 29v16h264v-16l-74 -30v-4l114 -246h4l101 241v5l-67 34v16h196v-16l-72 -35l-184 -403h-31z" />
    <glyph glyph-name="w" unicode="w" horiz-adv-x="738" 
d="M195 0l-161 409l-64 29v16h264v-16l-74 -30v-4l92 -246h5l126 296h31l129 -294h4l92 239v5l-67 34v16h196v-16l-71 -35l-172 -403h-31l-132 293l-136 -293h-31z" />
    <glyph glyph-name="x" unicode="x" horiz-adv-x="527" 
d="M21 0v16l53 33l135 166l-140 194l-45 29v16h244v-16l-60 -28v-6l82 -115l80 109v6l-53 34v16h173v-16l-53 -33l-122 -150l151 -210l41 -29v-16h-236v16l57 28v6l-94 130l-90 -124v-6l58 -34v-16h-181z" />
    <glyph glyph-name="y" unicode="y" horiz-adv-x="478" 
d="M83 -241q-23 0 -28.5 6.5t-5.5 22.5v61l5 5h45q25 0 40 4t27.5 21t29.5 55l29 68l-192 407l-64 29v16h261v-16l-70 -30v-4l120 -255h6l95 250v5l-66 34v16h193v-16l-72 -34l-199 -483q-9 -23 -15.5 -38.5t-14.5 -30t-23 -35.5q-20 -29 -48 -43.5t-53 -14.5z" />
    <glyph glyph-name="z" unicode="z" horiz-adv-x="494" 
d="M60 0v19l219 389h-152l-51 -106h-17l11 162h5q13 -4 32.5 -7t35.5 -3h280v-20l-219 -388h167l43 112h17v-158h-371z" />
    <glyph glyph-name="braceleft" unicode="{" horiz-adv-x="257" 
d="M222 -150q-83 0 -120.5 37t-37.5 96q0 41 12 77.5t24 70.5t12 68t-18.5 59t-67.5 25h-25v25h25q49 0 67.5 25t18.5 58q0 34 -12 68t-24 70.5t-12 77.5q0 59 37.5 96t120.5 37h23v-25h-27q-44 0 -65 -24.5t-21 -65.5q0 -39 11 -74.5t21.5 -69t10.5 -68.5q0 -37 -20 -67
t-70 -51q50 -20 70 -50.5t20 -67.5q0 -35 -10.5 -68.5t-21.5 -69t-11 -74.5q0 -41 21 -65.5t65 -24.5h27v-25h-23z" />
    <glyph glyph-name="bar" unicode="|" horiz-adv-x="250" 
d="M100 -250v1000h50v-1000h-50z" />
    <glyph glyph-name="braceright" unicode="}" horiz-adv-x="257" 
d="M35 -150h-23v25h27q43 0 64.5 24.5t21.5 65.5q0 39 -10.5 74.5t-21.5 69t-11 68.5q0 37 20 67.5t70 50.5q-50 21 -70 51t-20 67q0 35 11 68.5t21.5 69t10.5 74.5q0 41 -21.5 65.5t-64.5 24.5h-27v25h23q83 0 120.5 -37t37.5 -96q0 -41 -12 -77.5t-24 -70.5t-12 -68
q0 -33 18.5 -58t67.5 -25h25v-25h-25q-49 0 -67.5 -25t-18.5 -59t12 -68t24 -70.5t12 -77.5q0 -59 -37.5 -96t-120.5 -37z" />
    <glyph glyph-name="asciitilde" unicode="~" horiz-adv-x="536" 
d="M58 201q0 67 31 104.5t83 37.5q36 0 61.5 -13.5t46.5 -31.5t41 -31.5t45 -13.5q31 0 44.5 22t13.5 68h54q0 -68 -31 -105t-83 -37q-36 0 -62 13.5t-46.5 31.5t-41 31.5t-44.5 13.5q-58 0 -58 -90h-54z" />
    <glyph glyph-name="uni00A0" unicode="&#xa0;" horiz-adv-x="250" 
 />
    <glyph glyph-name="exclamdown" unicode="&#xa1;" horiz-adv-x="261" 
d="M131 326q-29 0 -49 20t-20 49q0 27 20 48t49 21q27 0 48 -21t21 -48q0 -29 -21 -49t-48 -20zM62 -201l55 449h27l55 -449h-137z" />
    <glyph glyph-name="cent" unicode="&#xa2;" horiz-adv-x="536" 
d="M183 26l19 79q-64 20 -101.5 74t-37.5 131q0 76 31 133.5t85.5 90.5t126.5 33h10l17 68h40l-18 -73q29 -5 52.5 -16.5t37.5 -27.5q16 -19 16 -30q0 -12 -13 -24l-43 -36h-7l-34 45q-6 8 -12 15t-12 13l-74 -300q29 -10 66 -10q58 0 128 40h3v-30q-29 -47 -76.5 -77
t-110.5 -30q-18 0 -36 2l-17 -70h-40zM178 357q0 -96 53 -137l74 299q-12 3 -25 3q-50 0 -76 -44t-26 -121z" />
    <glyph glyph-name="sterling" unicode="&#xa3;" horiz-adv-x="536" 
d="M51 0v51q49 39 75.5 69t37 55t10.5 51q0 19 -8 41.5t-20 46.5h-99v40h80q-15 30 -26.5 61t-11.5 59q0 51 26.5 95.5t73 72.5t107.5 28q58 0 97.5 -18t59.5 -43q16 -19 16 -30q0 -14 -13 -24l-53 -39h-7l-14 26q-19 35 -38.5 57.5t-55.5 22.5q-44 0 -64.5 -27t-20.5 -63
q0 -25 11.5 -54.5t27.5 -61t31 -62.5h147v-40h-130q6 -15 9 -28.5t3 -26.5q0 -47 -33.5 -83.5t-103.5 -75.5h253l30 97h36l-10 -197h-423z" />
    <glyph glyph-name="currency" unicode="&#xa4;" horiz-adv-x="536" 
d="M57 99l78 79q-13 20 -21.5 44t-8.5 50t8.5 50t21.5 44l-78 79l39 38l78 -78q20 13 44 21.5t50 8.5t50 -8.5t43 -21.5l79 78l39 -38l-79 -79q14 -20 22.5 -44t8.5 -50t-8.5 -50t-22.5 -44l79 -79l-39 -38l-79 78q-19 -13 -43 -21.5t-50 -8.5t-50 8.5t-44 21.5l-78 -78z
M268 159q46 0 77 32t31 81t-31 81t-77 32t-77 -32t-31 -81t31 -81t77 -32z" />
    <glyph glyph-name="yen" unicode="&#xa5;" horiz-adv-x="536" 
d="M122 0v16l86 41v181h-133v40h133v110h-133v40h109l-139 194l-43 22v16h252v-16l-62 -24v-2l114 -170l101 166v3l-64 27v16h191v-16l-51 -21l-131 -195h109v-40h-132v-110h132v-40h-132v-181l86 -41v-16h-293z" />
    <glyph glyph-name="brokenbar" unicode="&#xa6;" horiz-adv-x="250" 
d="M100 350v400h50v-400h-50zM100 -250v400h50v-400h-50z" />
    <glyph glyph-name="section" unicode="&#xa7;" horiz-adv-x="520" 
d="M207 -121q-41 0 -73 13.5t-48 28.5q-16 18 -15 30q1 4 3.5 10t9.5 11l41 39l7 -1l18 -19q16 -18 41 -38.5t61 -20.5t58.5 20t22.5 51q0 37 -22 57t-56 31.5t-73 21t-73 25.5t-56 44.5t-22 78.5q0 49 29 84.5t78 55.5q-18 16 -28.5 39.5t-10.5 58.5q0 47 27.5 85.5
t76.5 62t112 23.5q40 0 66.5 -12t42.5 -27q15 -15 14 -28q0 -8 -12 -20l-40 -37l-6 1l-17 18q-16 17 -37.5 36t-54.5 19q-34 0 -57 -20t-23 -51q0 -37 21.5 -57t55 -32t71.5 -21.5t71.5 -25t55 -42.5t21.5 -75q0 -52 -29 -88t-79 -56q21 -16 33.5 -41t12.5 -62
q0 -44 -31 -83t-81 -63t-106 -24zM124 304q0 -36 20 -55.5t52.5 -30.5t69 -19.5t70.5 -21.5q25 7 43.5 26t18.5 45q0 38 -22.5 57t-57.5 29t-74 18.5t-72 25.5q-48 -20 -48 -74z" />
    <glyph glyph-name="dieresis" unicode="&#xa8;" 
d="M154 563q-24 0 -39.5 15.5t-15.5 38.5t15.5 38.5t39.5 15.5q23 0 38.5 -15.5t15.5 -38.5t-15.5 -38.5t-38.5 -15.5zM346 563q-24 0 -39 15.5t-15 38.5t15 38.5t39 15.5t39 -15.5t15 -38.5t-15 -38.5t-39 -15.5z" />
    <glyph glyph-name="copyright" unicode="&#xa9;" horiz-adv-x="806" 
d="M403 -10q-72 0 -132.5 25.5t-105.5 71t-70 107.5t-25 136t25 136t70 107.5t105.5 71t132.5 25.5t132.5 -25.5t105.5 -71t70 -107.5t25 -136t-25 -136t-70 -107.5t-105.5 -71t-132.5 -25.5zM403 28q84 0 150 39t104.5 107.5t38.5 155.5t-38.5 155.5t-104.5 107.5t-150 39
t-150.5 -39t-104.5 -107.5t-38 -155.5t38 -155.5t104.5 -107.5t150.5 -39zM416 129q-64 0 -110.5 25t-71.5 69t-25 101q0 59 29.5 108t79 78.5t108.5 29.5q46 0 72.5 -9t53.5 -22l4 -115h-29l-39 80q-17 10 -30.5 15.5t-30.5 5.5q-57 0 -93.5 -43.5t-36.5 -110.5
q0 -78 35.5 -122t87.5 -44q22 0 39.5 5t32.5 13l42 73h29l-8 -104q-29 -14 -61 -23.5t-78 -9.5z" />
    <glyph glyph-name="ordfeminine" unicode="&#xaa;" horiz-adv-x="408" 
d="M144 417q-26 0 -44 15.5t-18 44.5t18 45.5t68 29.5l50 13v34q0 19 -11 31t-29 12q-29 0 -29 -28v-26l-2 -2h-42q-14 0 -14 16q0 24 33 44q36 23 75 23q43 0 69.5 -16.5t26.5 -50.5v-138q8 -10 27 -10h15l2 -2v-7q-7 -11 -20.5 -19.5t-38.5 -8.5q-44 0 -59 35h-3
q-14 -15 -33 -25t-41 -10zM156 492q0 -15 9.5 -23.5t24.5 -8.5q14 0 28 6v77q-37 -8 -49.5 -20t-12.5 -31zM85 291v52h241v-52h-241z" />
    <glyph glyph-name="guillemotleft" unicode="&#xab;" horiz-adv-x="451" 
d="M225 70l-201 177l201 177h16l-108 -177l108 -177h-16zM412 70l-201 177l201 177h16l-108 -177l108 -177h-16z" />
    <glyph glyph-name="logicalnot" unicode="&#xac;" horiz-adv-x="536" 
d="M424 62v184h-366v52h420v-236h-54z" />
    <glyph glyph-name="uni00AD" unicode="&#xad;" horiz-adv-x="371" 
d="M48 222v70h275v-70h-275z" />
    <glyph glyph-name="registered" unicode="&#xae;" horiz-adv-x="547" 
d="M274 232q-62 0 -111 28.5t-77 78t-28 112.5t28 112.5t77 78t111 28.5t110.5 -28.5t76.5 -78t28 -112.5t-28 -112.5t-76.5 -78t-110.5 -28.5zM274 263q53 0 93.5 24.5t63 67.5t22.5 96t-22.5 95.5t-63 67t-93.5 24.5q-54 0 -94.5 -24.5t-63 -67t-22.5 -95.5t22.5 -96
t63 -67.5t94.5 -24.5zM162 325v7l31 16v210l-31 16v6h114q40 0 63.5 -17t23.5 -46q0 -22 -15 -39.5t-39 -26.5l55 -106l26 -13v-7h-72l-56 117h-20v-94l30 -16v-7h-110zM257 557h-15v-92h17q22 0 37 12t15 35t-15.5 34t-38.5 11z" />
    <glyph glyph-name="macron" unicode="&#xaf;" 
d="M110 589v56h280v-56h-280z" />
    <glyph glyph-name="degree" unicode="&#xb0;" 
d="M250 410q-38 0 -67 18t-46 47.5t-17 64.5t17 64.5t46 47.5t67 18t67 -18t46 -47.5t17 -64.5t-17 -64.5t-46 -47.5t-67 -18zM250 452q35 0 59.5 23.5t24.5 64.5t-24.5 64.5t-59.5 23.5t-59.5 -23.5t-24.5 -64.5t24.5 -64.5t59.5 -23.5z" />
    <glyph glyph-name="plusminus" unicode="&#xb1;" horiz-adv-x="536" 
d="M240 152v134h-182v52h182v144h56v-144h182v-52h-182v-134h-56zM58 61v52h420v-52h-420z" />
    <glyph glyph-name="uni00B2" unicode="&#xb2;" horiz-adv-x="331" 
d="M27 505v22q57 63 91.5 106.5t51.5 73.5t22.5 52.5t5.5 43.5q0 26 -12 44.5t-40 18.5q-26 0 -40 -17.5t-14 -48.5v-28l-5 -5h-46q-11 0 -16 4t-5 19q0 39 46 73q21 16 44 26.5t65 10.5q55 0 88 -29.5t33 -76.5q0 -23 -7 -43t-27.5 -44t-59.5 -57.5t-104 -83.5h168l30 59
h15l-6 -120h-278z" />
    <glyph glyph-name="uni00B3" unicode="&#xb3;" horiz-adv-x="333" 
d="M159 495q-29 0 -54.5 6.5t-46.5 20.5q-16 11 -27 24t-11 29t5.5 19.5t16.5 3.5h44l6 -6v-14q0 -24 16 -36.5t42 -12.5q33 0 49 20.5t16 52.5q0 41 -20 63t-72 22h-33v30h14q40 0 65.5 22.5t25.5 65.5q0 28 -12.5 44.5t-37.5 16.5q-20 0 -33 -12.5t-13 -37.5v-26l-5 -5
h-44q-11 0 -16.5 4t-5.5 21q0 31 38 57q26 16 47.5 24.5t55.5 8.5q55 0 89.5 -24.5t34.5 -67.5q0 -37 -31 -61t-78 -34q129 -13 129 -103q0 -50 -43.5 -82.5t-110.5 -32.5z" />
    <glyph glyph-name="acute" unicode="&#xb4;" 
d="M158 530l85 177h98q0 -17 -7.5 -32.5t-29.5 -34.5l-128 -110h-18z" />
    <glyph glyph-name="mu" unicode="&#xb5;" horiz-adv-x="561" 
d="M232 -10q-25 0 -46 7t-40 25l35 -232l-103 -20h-2v684h116v-300q0 -39 23 -59t59 -20q23 0 48.5 8t42.5 22v349h116v-383q14 -16 51 -16h32l4 -3v-10q-12 -20 -37.5 -36t-63.5 -16q-40 0 -64 19.5t-34 53.5h-7q-32 -35 -61.5 -54t-68.5 -19z" />
    <glyph glyph-name="paragraph" unicode="&#xb6;" horiz-adv-x="507" 
d="M265 -110v469h-42q-54 0 -96.5 20t-67 55.5t-24.5 79.5q0 76 47.5 111t124.5 35h113v-770h-55zM376 -110v770h138v-16l-83 -41v-713h-55z" />
    <glyph glyph-name="periodcentered" unicode="&#xb7;" horiz-adv-x="250" 
d="M125 202q-28 0 -48.5 20.5t-20.5 48.5q0 29 20.5 49t48.5 20t48.5 -20t20.5 -49q0 -28 -20.5 -48.5t-48.5 -20.5z" />
    <glyph glyph-name="cedilla" unicode="&#xb8;" 
d="M240 -240q-55 0 -82 26v16h4q12 -6 27 -8.5t32 -2.5q29 0 42 10.5t13 27.5q0 22 -20.5 36.5t-79.5 31.5l58 125h37l-32 -69q57 -18 80 -41t23 -63q0 -38 -27 -63.5t-75 -25.5z" />
    <glyph glyph-name="uni00B9" unicode="&#xb9;" horiz-adv-x="283" 
d="M59 505v15l56 22v277l-100 -49v32l145 88h48v-348l50 -22v-15h-199z" />
    <glyph glyph-name="ordmasculine" unicode="&#xba;" horiz-adv-x="408" 
d="M204 417q-58 0 -93.5 36.5t-35.5 89.5q0 52 35.5 89t93.5 37t93.5 -37t35.5 -89q0 -53 -36 -89.5t-93 -36.5zM210 443q21 0 32 25.5t11 63.5q0 46 -14 78.5t-40 32.5q-22 0 -32.5 -26t-10.5 -63q0 -48 14 -79.5t40 -31.5zM85 291v52h241v-52h-241z" />
    <glyph glyph-name="guillemotright" unicode="&#xbb;" horiz-adv-x="451" 
d="M24 70l108 177l-108 177h15l202 -177l-202 -177h-15zM211 70l108 177l-108 177h15l202 -177l-202 -177h-15z" />
    <glyph glyph-name="onequarter" unicode="&#xbc;" horiz-adv-x="775" 
d="M59 355v15l56 22v277l-100 -49v32l145 88h48v-348l50 -22v-15h-199zM75 17l468 733l42 -27l-469 -733zM513 0v15l56 25v61h-164v18l192 266h65v-239h70v-45h-70v-61l50 -25v-15h-199zM466 146h103v148z" />
    <glyph glyph-name="onehalf" unicode="&#xbd;" horiz-adv-x="775" 
d="M59 355v15l56 22v277l-100 -49v32l145 88h48v-348l50 -22v-15h-199zM75 17l468 733l42 -27l-469 -733zM437 0v22q57 63 91.5 106.5t51.5 73.5t22.5 52.5t5.5 43.5q0 26 -12 44.5t-40 18.5q-26 0 -40 -17.5t-14 -48.5v-28l-5 -5h-46q-11 0 -16 4t-5 19q0 39 46 73
q21 16 44 26.5t65 10.5q55 0 88 -29.5t33 -76.5q0 -23 -7 -43t-27.5 -44t-59.5 -57.5t-104 -83.5h168l30 59h15l-6 -120h-278z" />
    <glyph glyph-name="threequarters" unicode="&#xbe;" horiz-adv-x="775" 
d="M159 345q-29 0 -54.5 6.5t-46.5 20.5q-16 11 -27 24t-11 29t5.5 19.5t16.5 3.5h44l6 -6v-14q0 -24 16 -36.5t42 -12.5q33 0 49 20.5t16 52.5q0 41 -20 63t-72 22h-33v30h14q40 0 65.5 22.5t25.5 65.5q0 28 -12.5 44.5t-37.5 16.5q-20 0 -33 -12.5t-13 -37.5v-26l-5 -5
h-44q-11 0 -16.5 4t-5.5 21q0 31 38 57q26 16 47.5 24.5t55.5 8.5q55 0 89.5 -24.5t34.5 -67.5q0 -37 -31 -61t-78 -34q129 -13 129 -103q0 -50 -43.5 -82.5t-110.5 -32.5zM125 17l468 733l42 -27l-469 -733zM538 0v15l56 25v61h-164v18l192 266h65v-239h70v-45h-70v-61
l50 -25v-15h-199zM491 146h103v148z" />
    <glyph glyph-name="questiondown" unicode="&#xbf;" horiz-adv-x="479" 
d="M269 326q-27 0 -48 20t-21 49q0 27 21 48t48 21q29 0 49 -21t20 -48q0 -29 -20 -49t-49 -20zM233 -211q-57 0 -99.5 23t-66 63t-23.5 91q0 67 48.5 119.5t151.5 84.5l11 78h27l29 -154q-77 -18 -117.5 -52.5t-40.5 -86.5q0 -63 29 -93t72 -30q40 0 63 27t23 81v37l9 11
h61q18 0 26.5 -7t8.5 -32q0 -60 -61 -103q-35 -26 -68.5 -41.5t-82.5 -15.5z" />
    <glyph glyph-name="uni00C0" unicode="&#xc0;" horiz-adv-x="764" 
d="M25 0v16l62 34l259 615h70l256 -613l68 -36v-16h-288v16l87 35l-71 174h-240l-70 -174l83 -35v-16h-216zM251 280h194l-97 239zM373 710l-129 85q-23 16 -30 33t-7 34h99l84 -152h-17z" />
    <glyph glyph-name="uni00C1" unicode="&#xc1;" horiz-adv-x="764" 
d="M25 0v16l62 34l259 615h70l256 -613l68 -36v-16h-288v16l87 35l-71 174h-240l-70 -174l83 -35v-16h-216zM251 280h194l-97 239zM373 710l85 152h98q0 -17 -7 -34t-30 -33l-128 -85h-18z" />
    <glyph glyph-name="uni00C2" unicode="&#xc2;" horiz-adv-x="764" 
d="M25 0v16l62 34l259 615h70l256 -613l68 -36v-16h-288v16l87 35l-71 174h-240l-70 -174l83 -35v-16h-216zM251 280h194l-97 239zM228 710l134 152h40l134 -152h-17l-137 68l-137 -68h-17z" />
    <glyph glyph-name="uni00C3" unicode="&#xc3;" horiz-adv-x="764" 
d="M25 0v16l62 34l259 615h70l256 -613l68 -36v-16h-288v16l87 35l-71 174h-240l-70 -174l83 -35v-16h-216zM251 280h194l-97 239zM222 724q16 50 31.5 76t32 35.5t37.5 9.5q28 0 51.5 -13.5t45.5 -26.5t44 -13q18 0 32 10t27 43h19q-16 -51 -31.5 -77t-32 -35t-37.5 -9
q-28 0 -51.5 13t-45.5 26t-44 13q-18 0 -32 -9.5t-27 -42.5h-19z" />
    <glyph glyph-name="uni00C4" unicode="&#xc4;" horiz-adv-x="764" 
d="M25 0v16l62 34l259 615h70l256 -613l68 -36v-16h-288v16l87 35l-71 174h-240l-70 -174l83 -35v-16h-216zM251 280h194l-97 239zM286 731q-24 0 -39.5 16t-15.5 39q0 22 15.5 38t39.5 16q23 0 38.5 -16t15.5 -38q0 -23 -15.5 -39t-38.5 -16zM478 731q-24 0 -39 16t-15 39
q0 22 15 38t39 16t39 -16t15 -38q0 -23 -15 -39t-39 -16z" />
    <glyph glyph-name="uni00C5" unicode="&#xc5;" horiz-adv-x="764" 
d="M25 0v16l62 34l259 615h70l256 -613l68 -36v-16h-288v16l87 35l-71 174h-240l-70 -174l83 -35v-16h-216zM251 280h194l-97 239zM382 710q-39 0 -63.5 23.5t-24.5 60.5q0 36 24.5 60t63.5 24t63.5 -24t24.5 -60t-24 -60t-64 -24zM387 734q31 0 31 53q0 67 -40 67
q-31 0 -31 -53q0 -67 40 -67z" />
    <glyph glyph-name="uni00C6" unicode="&#xc6;" horiz-adv-x="1010" 
d="M464 660h451v-173h-16l-69 118h-228v-237h160l54 85h16v-223h-16l-54 83h-160v-258h253l72 140h16v-195h-550v16l83 41v175h-208l-110 -181l79 -35v-16h-215v16l64 34zM302 287h174v285z" />
    <glyph glyph-name="uni00C7" unicode="&#xc7;" horiz-adv-x="717" 
d="M378 -209q28 0 41.5 10.5t13.5 27.5q0 22 -20.5 36.5t-78.5 31.5l43 94q-98 4 -169.5 47.5t-110.5 114.5t-39 161q0 73 29 137.5t79 113.5t114 77t135 28q51 0 86.5 -6.5t63 -17t55.5 -24.5l9 -182h-18l-80 140q-31 21 -56 30.5t-58 9.5q-65 0 -117 -36t-82 -101
t-30 -150q0 -91 29 -156t78.5 -100t110.5 -35q45 0 77.5 12t60.5 29l77 123h17l-13 -165q-40 -22 -90.5 -36t-121.5 -15l-17 -37q57 -18 80 -41t23 -63q0 -38 -27 -63.5t-74 -25.5q-55 0 -82 26v16h3q23 -11 59 -11z" />
    <glyph glyph-name="uni00C8" unicode="&#xc8;" horiz-adv-x="669" 
d="M52 0v16l84 41v546l-84 41v16h523v-173h-16l-69 118h-229v-237h161l54 85h16v-223h-16l-54 83h-161v-258h254l72 140h16v-195h-551zM337 710l-129 85q-23 16 -30 33t-7 34h99l84 -152h-17z" />
    <glyph glyph-name="uni00C9" unicode="&#xc9;" horiz-adv-x="669" 
d="M52 0v16l84 41v546l-84 41v16h523v-173h-16l-69 118h-229v-237h161l54 85h16v-223h-16l-54 83h-161v-258h254l72 140h16v-195h-551zM337 710l85 152h98q0 -17 -7 -34t-30 -33l-128 -85h-18z" />
    <glyph glyph-name="uni00CA" unicode="&#xca;" horiz-adv-x="669" 
d="M52 0v16l84 41v546l-84 41v16h523v-173h-16l-69 118h-229v-237h161l54 85h16v-223h-16l-54 83h-161v-258h254l72 140h16v-195h-551zM192 710l134 152h40l134 -152h-17l-137 68l-137 -68h-17z" />
    <glyph glyph-name="uni00CB" unicode="&#xcb;" horiz-adv-x="669" 
d="M52 0v16l84 41v546l-84 41v16h523v-173h-16l-69 118h-229v-237h161l54 85h16v-223h-16l-54 83h-161v-258h254l72 140h16v-195h-551zM250 731q-24 0 -39.5 16t-15.5 39q0 22 15.5 38t39.5 16q23 0 38.5 -16t15.5 -38q0 -23 -15.5 -39t-38.5 -16zM442 731q-24 0 -39 16
t-15 39q0 22 15 38t39 16t39 -16t15 -38q0 -23 -15 -39t-39 -16z" />
    <glyph glyph-name="uni00CC" unicode="&#xcc;" horiz-adv-x="404" 
d="M56 0v16l83 41v546l-83 41v16h292v-16l-83 -41v-546l83 -41v-16h-292zM193 710l-129 85q-23 16 -30 33t-7 34h99l84 -152h-17z" />
    <glyph glyph-name="uni00CD" unicode="&#xcd;" horiz-adv-x="404" 
d="M56 0v16l83 41v546l-83 41v16h292v-16l-83 -41v-546l83 -41v-16h-292zM193 710l85 152h98q0 -17 -7 -34t-30 -33l-128 -85h-18z" />
    <glyph glyph-name="uni00CE" unicode="&#xce;" horiz-adv-x="404" 
d="M56 0v16l83 41v546l-83 41v16h292v-16l-83 -41v-546l83 -41v-16h-292zM48 710l134 152h40l134 -152h-17l-137 68l-137 -68h-17z" />
    <glyph glyph-name="uni00CF" unicode="&#xcf;" horiz-adv-x="404" 
d="M56 0v16l83 41v546l-83 41v16h292v-16l-83 -41v-546l83 -41v-16h-292zM106 731q-24 0 -39.5 16t-15.5 39q0 22 15.5 38t39.5 16q23 0 38.5 -16t15.5 -38q0 -23 -15.5 -39t-38.5 -16zM298 731q-24 0 -39 16t-15 39q0 22 15 38t39 16t39 -16t15 -38q0 -23 -15 -39t-39 -16z
" />
    <glyph glyph-name="uni00D0" unicode="&#xd0;" horiz-adv-x="791" 
d="M52 0v16l84 41v259h-84v52h84v235l-84 41v16h322q115 0 195.5 -39t123 -107t42.5 -154q0 -78 -27.5 -144t-77 -114t-117 -75t-146.5 -27h-315zM422 316h-161v-261h94q79 0 134.5 33.5t85 95t29.5 145.5q0 126 -67.5 201t-196.5 75h-79v-237h161v-52z" />
    <glyph glyph-name="uni00D1" unicode="&#xd1;" horiz-adv-x="809" 
d="M49 0v16l83 41v545l-82 42v16h172l386 -456v401l-108 39v16h260v-16l-82 -40v-609h-52l-424 498v-437l109 -40v-16h-262zM252 724q16 50 31.5 76t32 35.5t37.5 9.5q28 0 51.5 -13.5t45.5 -26.5t44 -13q18 0 32 10t27 43h19q-16 -51 -31.5 -77t-32 -35t-37.5 -9
q-28 0 -51.5 13t-45.5 26t-44 13q-18 0 -32 -9.5t-27 -42.5h-19z" />
    <glyph glyph-name="uni00D2" unicode="&#xd2;" horiz-adv-x="796" 
d="M398 -10q-73 0 -135 25.5t-108 71t-71.5 107.5t-25.5 136t25.5 136t71.5 107.5t108 71t135 25.5q74 0 136 -25.5t108 -71t71.5 -107.5t25.5 -136t-25.5 -136t-71.5 -107.5t-108 -71t-136 -25.5zM416 41q56 0 98.5 32t66.5 90t24 137q0 97 -29.5 169t-80 111.5
t-112.5 39.5q-55 0 -98.5 -31.5t-68.5 -89.5t-25 -137q0 -97 30 -169t81.5 -112t113.5 -40zM381 710l-129 85q-23 16 -30 33t-7 34h99l84 -152h-17z" />
    <glyph glyph-name="uni00D3" unicode="&#xd3;" horiz-adv-x="796" 
d="M398 -10q-73 0 -135 25.5t-108 71t-71.5 107.5t-25.5 136t25.5 136t71.5 107.5t108 71t135 25.5q74 0 136 -25.5t108 -71t71.5 -107.5t25.5 -136t-25.5 -136t-71.5 -107.5t-108 -71t-136 -25.5zM416 41q56 0 98.5 32t66.5 90t24 137q0 97 -29.5 169t-80 111.5
t-112.5 39.5q-55 0 -98.5 -31.5t-68.5 -89.5t-25 -137q0 -97 30 -169t81.5 -112t113.5 -40zM382 710l85 152h98q0 -17 -7 -34t-30 -33l-128 -85h-18z" />
    <glyph glyph-name="uni00D4" unicode="&#xd4;" horiz-adv-x="796" 
d="M398 -10q-73 0 -135 25.5t-108 71t-71.5 107.5t-25.5 136t25.5 136t71.5 107.5t108 71t135 25.5q74 0 136 -25.5t108 -71t71.5 -107.5t25.5 -136t-25.5 -136t-71.5 -107.5t-108 -71t-136 -25.5zM416 41q56 0 98.5 32t66.5 90t24 137q0 97 -29.5 169t-80 111.5
t-112.5 39.5q-55 0 -98.5 -31.5t-68.5 -89.5t-25 -137q0 -97 30 -169t81.5 -112t113.5 -40zM236 710l134 152h40l134 -152h-17l-137 68l-137 -68h-17z" />
    <glyph glyph-name="uni00D5" unicode="&#xd5;" horiz-adv-x="796" 
d="M398 -10q-73 0 -135 25.5t-108 71t-71.5 107.5t-25.5 136t25.5 136t71.5 107.5t108 71t135 25.5q74 0 136 -25.5t108 -71t71.5 -107.5t25.5 -136t-25.5 -136t-71.5 -107.5t-108 -71t-136 -25.5zM416 41q56 0 98.5 32t66.5 90t24 137q0 97 -29.5 169t-80 111.5
t-112.5 39.5q-55 0 -98.5 -31.5t-68.5 -89.5t-25 -137q0 -97 30 -169t81.5 -112t113.5 -40zM230 724q16 50 31.5 76t32 35.5t37.5 9.5q28 0 51.5 -13.5t45.5 -26.5t44 -13q18 0 32 10t27 43h19q-16 -51 -31.5 -77t-32 -35t-37.5 -9q-28 0 -51.5 13t-45.5 26t-44 13
q-18 0 -32 -9.5t-27 -42.5h-19z" />
    <glyph glyph-name="uni00D6" unicode="&#xd6;" horiz-adv-x="796" 
d="M398 -10q-73 0 -135 25.5t-108 71t-71.5 107.5t-25.5 136t25.5 136t71.5 107.5t108 71t135 25.5q74 0 136 -25.5t108 -71t71.5 -107.5t25.5 -136t-25.5 -136t-71.5 -107.5t-108 -71t-136 -25.5zM416 41q56 0 98.5 32t66.5 90t24 137q0 97 -29.5 169t-80 111.5
t-112.5 39.5q-55 0 -98.5 -31.5t-68.5 -89.5t-25 -137q0 -97 30 -169t81.5 -112t113.5 -40zM295 731q-24 0 -39.5 16t-15.5 39q0 22 15.5 38t39.5 16q23 0 38.5 -16t15.5 -38q0 -23 -15.5 -39t-38.5 -16zM487 731q-24 0 -39 16t-15 39q0 22 15 38t39 16t39 -16t15 -38
q0 -23 -15 -39t-39 -16z" />
    <glyph glyph-name="multiply" unicode="&#xd7;" horiz-adv-x="536" 
d="M121 87l-39 39l147 146l-147 147l39 39l147 -147l147 147l38 -39l-147 -147l147 -146l-38 -39l-147 147z" />
    <glyph glyph-name="uni00D8" unicode="&#xd8;" horiz-adv-x="796" 
d="M58 -10l91 102q-43 45 -67 106t-24 132q0 74 25.5 136t71.5 107.5t108 71t135 25.5q60 0 113 -17.5t96 -48.5l59 66h73l-91 -102q43 -45 67 -106t24 -132q0 -74 -25.5 -136t-71.5 -107.5t-108 -71t-136 -25.5q-60 0 -113 17.5t-95 49.5l-60 -67h-72zM191 362
q0 -53 9.5 -99t26.5 -84l315 352q-30 43 -71 66t-88 23q-55 0 -98.5 -31.5t-68.5 -89.5t-25 -137zM416 41q56 0 98.5 32t66.5 90t24 137q0 53 -9 98.5t-26 82.5l-314 -351q30 -42 71.5 -65.5t88.5 -23.5z" />
    <glyph glyph-name="uni00D9" unicode="&#xd9;" horiz-adv-x="826" 
d="M416 -10q-82 0 -145 28t-99 90t-36 164v331l-84 41v16h293v-16l-83 -41v-325q0 -82 26 -130.5t69.5 -69t97.5 -20.5q44 0 81.5 18.5t60.5 59t23 107.5v362l-96 39v16h249v-16l-83 -40v-332q0 -102 -35 -164t-97 -90t-142 -28zM430 710l-129 85q-23 16 -30 33t-7 34h99
l84 -152h-17z" />
    <glyph glyph-name="uni00DA" unicode="&#xda;" horiz-adv-x="826" 
d="M416 -10q-82 0 -145 28t-99 90t-36 164v331l-84 41v16h293v-16l-83 -41v-325q0 -82 26 -130.5t69.5 -69t97.5 -20.5q44 0 81.5 18.5t60.5 59t23 107.5v362l-96 39v16h249v-16l-83 -40v-332q0 -102 -35 -164t-97 -90t-142 -28zM430 710l85 152h98q0 -17 -7 -34t-30 -33
l-128 -85h-18z" />
    <glyph glyph-name="uni00DB" unicode="&#xdb;" horiz-adv-x="826" 
d="M416 -10q-82 0 -145 28t-99 90t-36 164v331l-84 41v16h293v-16l-83 -41v-325q0 -82 26 -130.5t69.5 -69t97.5 -20.5q44 0 81.5 18.5t60.5 59t23 107.5v362l-96 39v16h249v-16l-83 -40v-332q0 -102 -35 -164t-97 -90t-142 -28zM285 710l134 152h40l134 -152h-17l-137 68
l-137 -68h-17z" />
    <glyph glyph-name="uni00DC" unicode="&#xdc;" horiz-adv-x="826" 
d="M416 -10q-82 0 -145 28t-99 90t-36 164v331l-84 41v16h293v-16l-83 -41v-325q0 -82 26 -130.5t69.5 -69t97.5 -20.5q44 0 81.5 18.5t60.5 59t23 107.5v362l-96 39v16h249v-16l-83 -40v-332q0 -102 -35 -164t-97 -90t-142 -28zM344 731q-24 0 -39.5 16t-15.5 39
q0 22 15.5 38t39.5 16q23 0 38.5 -16t15.5 -38q0 -23 -15.5 -39t-38.5 -16zM536 731q-24 0 -39 16t-15 39q0 22 15 38t39 16t39 -16t15 -38q0 -23 -15 -39t-39 -16z" />
    <glyph glyph-name="uni00DD" unicode="&#xdd;" horiz-adv-x="739" 
d="M221 0v16l90 41v251l-220 300l-65 36v16h282v-16l-75 -36v-4l176 -239l159 237v4l-76 38v16h221v-16l-64 -33l-212 -302v-252l89 -41v-16h-305zM390 710l85 152h98q0 -17 -7 -34t-30 -33l-128 -85h-18z" />
    <glyph glyph-name="uni00DE" unicode="&#xde;" horiz-adv-x="665" 
d="M52 0v16l84 41v546l-84 41v16h293v-16l-84 -41v-68h102q118 0 189.5 -42.5t71.5 -135.5q0 -55 -37.5 -98t-102 -67t-145.5 -24h-78v-111l84 -41v-16h-293zM318 480h-57v-261h64q79 0 124 36.5t45 92.5q0 70 -45.5 101t-130.5 31z" />
    <glyph glyph-name="germandbls" unicode="&#xdf;" horiz-adv-x="644" 
d="M52 0v16l63 32v359h-78v47h78v26q0 51 17 99t50 87t80.5 61.5t107.5 22.5q90 0 136.5 -38.5t46.5 -91.5q0 -33 -13.5 -57t-33 -44t-39 -39.5t-33 -42t-13.5 -52.5q0 -23 13.5 -39t37.5 -32.5t57 -40.5q52 -37 70 -69t18 -72t-22.5 -72t-59.5 -51t-81 -19q-49 0 -83.5 9
t-68.5 26v115h15l33 -54q16 -26 39.5 -40.5t54.5 -14.5q35 0 57 18.5t22 50.5q0 26 -14.5 44.5t-39.5 35t-57 37.5q-34 23 -57.5 50t-23.5 74q0 31 12 53t29 42t34.5 42t29.5 51.5t12 72.5q0 44 -25.5 74t-74.5 30q-65 0 -91 -43.5t-26 -116.5v-546h-179z" />
    <glyph glyph-name="agrave" unicode="&#xe0;" horiz-adv-x="504" 
d="M153 -10q-48 0 -81.5 29t-32.5 82q1 52 35 85.5t126 55.5l94 23v66q0 37 -25 60.5t-60 23.5t-49 -16.5t-14 -47.5v-39l-5 -4h-60q-15 0 -21 6t-6 24q0 47 60 83q32 20 63.5 31.5t66.5 11.5q44 0 82 -12t61 -38t23 -70v-273q14 -16 51 -16h33l3 -3v-10q-12 -20 -37 -36
t-64 -16q-38 0 -61.5 17.5t-33.5 47.5h-7q-26 -28 -62 -46.5t-79 -18.5zM149 126q0 -32 18.5 -47.5t51.5 -15.5q19 0 36.5 4t38.5 13v147q-62 -12 -93 -26.5t-41.5 -32.5t-10.5 -42zM228 530l-129 110q-22 19 -29.5 34.5t-7.5 32.5h99l84 -177h-17z" />
    <glyph glyph-name="aacute" unicode="&#xe1;" horiz-adv-x="504" 
d="M153 -10q-48 0 -81.5 29t-32.5 82q1 52 35 85.5t126 55.5l94 23v66q0 37 -25 60.5t-60 23.5t-49 -16.5t-14 -47.5v-39l-5 -4h-60q-15 0 -21 6t-6 24q0 47 60 83q32 20 63.5 31.5t66.5 11.5q44 0 82 -12t61 -38t23 -70v-273q14 -16 51 -16h33l3 -3v-10q-12 -20 -37 -36
t-64 -16q-38 0 -61.5 17.5t-33.5 47.5h-7q-26 -28 -62 -46.5t-79 -18.5zM149 126q0 -32 18.5 -47.5t51.5 -15.5q19 0 36.5 4t38.5 13v147q-62 -12 -93 -26.5t-41.5 -32.5t-10.5 -42zM231 530l85 177h98q0 -17 -7.5 -32.5t-29.5 -34.5l-128 -110h-18z" />
    <glyph glyph-name="acircumflex" unicode="&#xe2;" horiz-adv-x="504" 
d="M153 -10q-48 0 -81.5 29t-32.5 82q1 52 35 85.5t126 55.5l94 23v66q0 37 -25 60.5t-60 23.5t-49 -16.5t-14 -47.5v-39l-5 -4h-60q-15 0 -21 6t-6 24q0 47 60 83q32 20 63.5 31.5t66.5 11.5q44 0 82 -12t61 -38t23 -70v-273q14 -16 51 -16h33l3 -3v-10q-12 -20 -37 -36
t-64 -16q-38 0 -61.5 17.5t-33.5 47.5h-7q-26 -28 -62 -46.5t-79 -18.5zM149 126q0 -32 18.5 -47.5t51.5 -15.5q19 0 36.5 4t38.5 13v147q-62 -12 -93 -26.5t-41.5 -32.5t-10.5 -42zM83 530l134 177h40l134 -177h-17l-137 88l-137 -88h-17z" />
    <glyph glyph-name="atilde" unicode="&#xe3;" horiz-adv-x="504" 
d="M153 -10q-48 0 -81.5 29t-32.5 82q1 52 35 85.5t126 55.5l94 23v66q0 37 -25 60.5t-60 23.5t-49 -16.5t-14 -47.5v-39l-5 -4h-60q-15 0 -21 6t-6 24q0 47 60 83q32 20 63.5 31.5t66.5 11.5q44 0 82 -12t61 -38t23 -70v-273q14 -16 51 -16h33l3 -3v-10q-12 -20 -37 -36
t-64 -16q-38 0 -61.5 17.5t-33.5 47.5h-7q-26 -28 -62 -46.5t-79 -18.5zM149 126q0 -32 18.5 -47.5t51.5 -15.5q19 0 36.5 4t38.5 13v147q-62 -12 -93 -26.5t-41.5 -32.5t-10.5 -42zM77 552q19 58 34.5 86t31.5 37t36 9t38.5 -9.5t35.5 -22.5t33 -22.5t32 -9.5q18 0 31 12.5
t29 51.5h19q-19 -58 -34.5 -86t-31.5 -37t-36 -9t-38.5 9.5t-35.5 22.5t-33 22.5t-32 9.5q-18 0 -31 -12.5t-29 -51.5h-19z" />
    <glyph glyph-name="adieresis" unicode="&#xe4;" horiz-adv-x="504" 
d="M153 -10q-48 0 -81.5 29t-32.5 82q1 52 35 85.5t126 55.5l94 23v66q0 37 -25 60.5t-60 23.5t-49 -16.5t-14 -47.5v-39l-5 -4h-60q-15 0 -21 6t-6 24q0 47 60 83q32 20 63.5 31.5t66.5 11.5q44 0 82 -12t61 -38t23 -70v-273q14 -16 51 -16h33l3 -3v-10q-12 -20 -37 -36
t-64 -16q-38 0 -61.5 17.5t-33.5 47.5h-7q-26 -28 -62 -46.5t-79 -18.5zM149 126q0 -32 18.5 -47.5t51.5 -15.5q19 0 36.5 4t38.5 13v147q-62 -12 -93 -26.5t-41.5 -32.5t-10.5 -42zM141 563q-24 0 -39.5 15.5t-15.5 38.5t15.5 38.5t39.5 15.5q23 0 38.5 -15.5t15.5 -38.5
t-15.5 -38.5t-38.5 -15.5zM333 563q-24 0 -39 15.5t-15 38.5t15 38.5t39 15.5t39 -15.5t15 -38.5t-15 -38.5t-39 -15.5z" />
    <glyph glyph-name="aring" unicode="&#xe5;" horiz-adv-x="504" 
d="M153 -10q-48 0 -81.5 29t-32.5 82q1 52 35 85.5t126 55.5l94 23v66q0 37 -25 60.5t-60 23.5t-49 -16.5t-14 -47.5v-39l-5 -4h-60q-15 0 -21 6t-6 24q0 47 60 83q32 20 63.5 31.5t66.5 11.5q44 0 82 -12t61 -38t23 -70v-273q14 -16 51 -16h33l3 -3v-10q-12 -20 -37 -36
t-64 -16q-38 0 -61.5 17.5t-33.5 47.5h-7q-26 -28 -62 -46.5t-79 -18.5zM149 126q0 -32 18.5 -47.5t51.5 -15.5q19 0 36.5 4t38.5 13v147q-62 -12 -93 -26.5t-41.5 -32.5t-10.5 -42zM237 702q39 0 63.5 -24t24.5 -60t-24 -60t-64 -24q-39 0 -63.5 23.5t-24.5 60.5
q0 36 24.5 60t63.5 24zM233 678q-31 0 -31 -53q0 -67 40 -67q31 0 31 53q0 67 -40 67z" />
    <glyph glyph-name="ae" unicode="&#xe6;" horiz-adv-x="743" 
d="M154 -10q-48 0 -81 29t-33 82q0 52 34 85.5t126 55.5l95 23v66q0 37 -25 60.5t-60 23.5t-49.5 -16.5t-14.5 -47.5v-39l-4 -4h-61q-15 0 -20.5 6t-5.5 24q0 47 59 83q32 20 63.5 31.5t67.5 11.5q43 0 81.5 -12t59.5 -41q30 25 66.5 39t75.5 14q80 0 125.5 -55t46.5 -155
l-5 -5h-287q0 -45 16 -82.5t51.5 -60t94.5 -22.5q28 0 60 8t68 27h3v-14q-25 -49 -74 -82t-115 -33q-59 0 -104.5 21.5t-73.5 61.5h-7q-29 -35 -72.5 -59t-100.5 -24zM508 419q-40 0 -65.5 -33t-32.5 -92h193q-9 69 -33 97t-62 28zM150 126q0 -32 18.5 -47.5t51.5 -15.5
q28 0 52.5 8.5t49.5 21.5q-27 49 -27 115v19q-62 -12 -93 -26.5t-41.5 -32.5t-10.5 -42z" />
    <glyph glyph-name="ccedilla" unicode="&#xe7;" horiz-adv-x="482" 
d="M244 -209q28 0 41.5 10.5t13.5 27.5q0 22 -20 36.5t-79 31.5l43 93q-91 5 -145.5 63.5t-54.5 152.5q0 76 31 134t85.5 91t125.5 33q44 0 82.5 -13.5t57.5 -35.5q16 -19 16 -30q0 -14 -13 -24l-43 -37h-7l-34 46q-16 22 -35 36t-51 14q-50 0 -76.5 -45t-26.5 -122
q0 -45 15.5 -83.5t50 -62t91.5 -23.5q28 0 60 8t68 27h3v-14q-22 -44 -64 -76t-99 -38l-18 -38q57 -18 80 -41t23 -63q0 -38 -27 -63.5t-74 -25.5q-55 0 -82 26v16h3q23 -11 59 -11z" />
    <glyph glyph-name="egrave" unicode="&#xe8;" horiz-adv-x="491" 
d="M260 -10q-100 0 -158.5 59t-58.5 157q0 76 32 134t84.5 91t116.5 33q80 0 125 -55t46 -155l-4 -5h-288q0 -45 16 -82.5t52 -60t95 -22.5q28 0 60 8t67 27h3v-14q-24 -49 -73 -82t-115 -33zM256 419q-40 0 -66 -33t-33 -92h193q-9 69 -33 97t-61 28zM255 530l-129 110
q-22 19 -29.5 34.5t-7.5 32.5h99l84 -177h-17z" />
    <glyph glyph-name="eacute" unicode="&#xe9;" horiz-adv-x="491" 
d="M260 -10q-100 0 -158.5 59t-58.5 157q0 76 32 134t84.5 91t116.5 33q80 0 125 -55t46 -155l-4 -5h-288q0 -45 16 -82.5t52 -60t95 -22.5q28 0 60 8t67 27h3v-14q-24 -49 -73 -82t-115 -33zM256 419q-40 0 -66 -33t-33 -92h193q-9 69 -33 97t-61 28zM258 530l85 177h98
q0 -17 -7.5 -32.5t-29.5 -34.5l-128 -110h-18z" />
    <glyph glyph-name="ecircumflex" unicode="&#xea;" horiz-adv-x="491" 
d="M260 -10q-100 0 -158.5 59t-58.5 157q0 76 32 134t84.5 91t116.5 33q80 0 125 -55t46 -155l-4 -5h-288q0 -45 16 -82.5t52 -60t95 -22.5q28 0 60 8t67 27h3v-14q-24 -49 -73 -82t-115 -33zM256 419q-40 0 -66 -33t-33 -92h193q-9 69 -33 97t-61 28zM110 530l134 177h40
l134 -177h-17l-137 88l-137 -88h-17z" />
    <glyph glyph-name="edieresis" unicode="&#xeb;" horiz-adv-x="491" 
d="M260 -10q-100 0 -158.5 59t-58.5 157q0 76 32 134t84.5 91t116.5 33q80 0 125 -55t46 -155l-4 -5h-288q0 -45 16 -82.5t52 -60t95 -22.5q28 0 60 8t67 27h3v-14q-24 -49 -73 -82t-115 -33zM256 419q-40 0 -66 -33t-33 -92h193q-9 69 -33 97t-61 28zM168 563
q-24 0 -39.5 15.5t-15.5 38.5t15.5 38.5t39.5 15.5q23 0 38.5 -15.5t15.5 -38.5t-15.5 -38.5t-38.5 -15.5zM360 563q-24 0 -39 15.5t-15 38.5t15 38.5t39 15.5t39 -15.5t15 -38.5t-15 -38.5t-39 -15.5z" />
    <glyph glyph-name="igrave" unicode="&#xec;" horiz-adv-x="325" 
d="M42 0v16l65 32v302l-62 48v11l168 55h10v-416l61 -32v-16h-242zM154 530l-129 110q-22 19 -29.5 34.5t-7.5 32.5h99l84 -177h-17z" />
    <glyph glyph-name="iacute" unicode="&#xed;" horiz-adv-x="325" 
d="M42 0v16l65 32v302l-62 48v11l168 55h10v-416l61 -32v-16h-242zM157 530l85 177h98q0 -17 -7.5 -32.5t-29.5 -34.5l-128 -110h-18z" />
    <glyph glyph-name="icircumflex" unicode="&#xee;" horiz-adv-x="325" 
d="M42 0v16l65 32v302l-62 48v11l168 55h10v-416l61 -32v-16h-242zM9 530l134 177h40l134 -177h-17l-137 88l-137 -88h-17z" />
    <glyph glyph-name="idieresis" unicode="&#xef;" horiz-adv-x="325" 
d="M42 0v16l65 32v302l-62 48v11l168 55h10v-416l61 -32v-16h-242zM67 563q-24 0 -39.5 15.5t-15.5 38.5t15.5 38.5t39.5 15.5q23 0 38.5 -15.5t15.5 -38.5t-15.5 -38.5t-38.5 -15.5zM259 563q-24 0 -39 15.5t-15 38.5t15 38.5t39 15.5t39 -15.5t15 -38.5t-15 -38.5
t-39 -15.5z" />
    <glyph glyph-name="eth" unicode="&#xf0;" horiz-adv-x="549" 
d="M272 -10q-68 0 -120 31t-81.5 83t-29.5 116q0 77 32.5 131.5t87 83.5t120.5 29q22 0 39.5 -2t31.5 -5q-27 78 -78 135l-73 -69h-72l110 104q-61 53 -145 83v39q103 -27 187 -82l78 74h72l-110 -104q88 -70 137.5 -166.5t49.5 -209.5q0 -81 -30 -142t-83.5 -95t-122.5 -34
zM163 229q0 -50 12.5 -94t38.5 -71t65 -27q46 0 74.5 54t28.5 175q0 49 -6 93q-22 26 -45 40.5t-55 14.5q-51 0 -82 -44t-31 -141z" />
    <glyph glyph-name="ntilde" unicode="&#xf1;" horiz-adv-x="603" 
d="M38 0v16l65 32v302l-62 45v10l158 59h10l9 -74h5q37 36 71.5 55t78.5 19q60 0 98.5 -31t38.5 -90v-295l65 -32v-16h-240v16l59 32v252q0 38 -23 58.5t-60 20.5q-23 0 -49 -8t-43 -22v-301l59 -32v-16h-240zM147 552q19 58 34.5 86t31.5 37t36 9t38.5 -9.5t35.5 -22.5
t33 -22.5t32 -9.5q18 0 31 12.5t29 51.5h19q-19 -58 -34.5 -86t-31.5 -37t-36 -9t-38.5 9.5t-35.5 22.5t-33 22.5t-32 9.5q-18 0 -31 -12.5t-29 -51.5h-19z" />
    <glyph glyph-name="ograve" unicode="&#xf2;" horiz-adv-x="544" 
d="M272 -10q-68 0 -120.5 32t-81.5 85.5t-29 119.5t29 119.5t81.5 85.5t120.5 32q69 0 121 -32t81 -85.5t29 -119.5t-29 -119.5t-81 -85.5t-121 -32zM284 37q34 0 55.5 24t31.5 63t10 83q0 54 -12.5 102.5t-38.5 78.5t-68 30q-34 0 -56 -24t-32.5 -63t-10.5 -83
q0 -54 12.5 -102t39.5 -78.5t69 -30.5zM262 530l-129 110q-22 19 -29.5 34.5t-7.5 32.5h99l84 -177h-17z" />
    <glyph glyph-name="oacute" unicode="&#xf3;" horiz-adv-x="544" 
d="M272 -10q-68 0 -120.5 32t-81.5 85.5t-29 119.5t29 119.5t81.5 85.5t120.5 32q69 0 121 -32t81 -85.5t29 -119.5t-29 -119.5t-81 -85.5t-121 -32zM284 37q34 0 55.5 24t31.5 63t10 83q0 54 -12.5 102.5t-38.5 78.5t-68 30q-34 0 -56 -24t-32.5 -63t-10.5 -83
q0 -54 12.5 -102t39.5 -78.5t69 -30.5zM265 530l85 177h98q0 -17 -7.5 -32.5t-29.5 -34.5l-128 -110h-18z" />
    <glyph glyph-name="ocircumflex" unicode="&#xf4;" horiz-adv-x="544" 
d="M272 -10q-68 0 -120.5 32t-81.5 85.5t-29 119.5t29 119.5t81.5 85.5t120.5 32q69 0 121 -32t81 -85.5t29 -119.5t-29 -119.5t-81 -85.5t-121 -32zM284 37q34 0 55.5 24t31.5 63t10 83q0 54 -12.5 102.5t-38.5 78.5t-68 30q-34 0 -56 -24t-32.5 -63t-10.5 -83
q0 -54 12.5 -102t39.5 -78.5t69 -30.5zM116 530l134 177h40l134 -177h-17l-137 88l-137 -88h-17z" />
    <glyph glyph-name="otilde" unicode="&#xf5;" horiz-adv-x="544" 
d="M272 -10q-68 0 -120.5 32t-81.5 85.5t-29 119.5t29 119.5t81.5 85.5t120.5 32q69 0 121 -32t81 -85.5t29 -119.5t-29 -119.5t-81 -85.5t-121 -32zM284 37q34 0 55.5 24t31.5 63t10 83q0 54 -12.5 102.5t-38.5 78.5t-68 30q-34 0 -56 -24t-32.5 -63t-10.5 -83
q0 -54 12.5 -102t39.5 -78.5t69 -30.5zM110 552q19 58 34.5 86t31.5 37t36 9t38.5 -9.5t35.5 -22.5t33 -22.5t32 -9.5q18 0 31 12.5t29 51.5h19q-19 -58 -34.5 -86t-31.5 -37t-36 -9t-38.5 9.5t-35.5 22.5t-33 22.5t-32 9.5q-18 0 -31 -12.5t-29 -51.5h-19z" />
    <glyph glyph-name="odieresis" unicode="&#xf6;" horiz-adv-x="544" 
d="M272 -10q-68 0 -120.5 32t-81.5 85.5t-29 119.5t29 119.5t81.5 85.5t120.5 32q69 0 121 -32t81 -85.5t29 -119.5t-29 -119.5t-81 -85.5t-121 -32zM284 37q34 0 55.5 24t31.5 63t10 83q0 54 -12.5 102.5t-38.5 78.5t-68 30q-34 0 -56 -24t-32.5 -63t-10.5 -83
q0 -54 12.5 -102t39.5 -78.5t69 -30.5zM174 563q-24 0 -39.5 15.5t-15.5 38.5t15.5 38.5t39.5 15.5q23 0 38.5 -15.5t15.5 -38.5t-15.5 -38.5t-38.5 -15.5zM366 563q-24 0 -39 15.5t-15 38.5t15 38.5t39 15.5t39 -15.5t15 -38.5t-15 -38.5t-39 -15.5z" />
    <glyph glyph-name="divide" unicode="&#xf7;" horiz-adv-x="536" 
d="M234 415v67h68v-67h-68zM58 246v52h420v-52h-420zM234 62v67h68v-67h-68z" />
    <glyph glyph-name="oslash" unicode="&#xf8;" horiz-adv-x="544" 
d="M41 -10l61 73q-29 32 -45 74t-16 90q0 66 29 119.5t81.5 85.5t120.5 32q38 0 71 -10t60 -28l32 38h68l-60 -73q28 -31 44 -73.5t16 -90.5q0 -66 -29 -119.5t-81 -85.5t-121 -32q-38 0 -71 10t-60 29l-32 -39h-68zM163 248q0 -54 11 -98l175 211q-14 26 -36 41.5t-51 15.5
q-34 0 -56 -24t-32.5 -62.5t-10.5 -83.5zM284 37q34 0 55.5 24t31.5 63t10 83q0 53 -11 97l-174 -210q14 -26 36 -41.5t52 -15.5z" />
    <glyph glyph-name="ugrave" unicode="&#xf9;" horiz-adv-x="578" 
d="M221 -10q-59 0 -97.5 30.5t-38.5 90.5v295l-65 32v16h181v-300q0 -39 23 -59t60 -20q22 0 47.5 8t42.5 22v301l-65 32v16h181v-408l66 -30v-16h-182v63h-4q-37 -36 -71 -54.5t-78 -18.5zM276 530l-129 110q-22 19 -29.5 34.5t-7.5 32.5h99l84 -177h-17z" />
    <glyph glyph-name="uacute" unicode="&#xfa;" horiz-adv-x="578" 
d="M221 -10q-59 0 -97.5 30.5t-38.5 90.5v295l-65 32v16h181v-300q0 -39 23 -59t60 -20q22 0 47.5 8t42.5 22v301l-65 32v16h181v-408l66 -30v-16h-182v63h-4q-37 -36 -71 -54.5t-78 -18.5zM278 530l85 177h98q0 -17 -7.5 -32.5t-29.5 -34.5l-128 -110h-18z" />
    <glyph glyph-name="ucircumflex" unicode="&#xfb;" horiz-adv-x="578" 
d="M221 -10q-59 0 -97.5 30.5t-38.5 90.5v295l-65 32v16h181v-300q0 -39 23 -59t60 -20q22 0 47.5 8t42.5 22v301l-65 32v16h181v-408l66 -30v-16h-182v63h-4q-37 -36 -71 -54.5t-78 -18.5zM130 530l134 177h40l134 -177h-17l-137 88l-137 -88h-17z" />
    <glyph glyph-name="udieresis" unicode="&#xfc;" horiz-adv-x="578" 
d="M221 -10q-59 0 -97.5 30.5t-38.5 90.5v295l-65 32v16h181v-300q0 -39 23 -59t60 -20q22 0 47.5 8t42.5 22v301l-65 32v16h181v-408l66 -30v-16h-182v63h-4q-37 -36 -71 -54.5t-78 -18.5zM188 563q-24 0 -39.5 15.5t-15.5 38.5t15.5 38.5t39.5 15.5q23 0 38.5 -15.5
t15.5 -38.5t-15.5 -38.5t-38.5 -15.5zM380 563q-24 0 -39 15.5t-15 38.5t15 38.5t39 15.5t39 -15.5t15 -38.5t-15 -38.5t-39 -15.5z" />
    <glyph glyph-name="yacute" unicode="&#xfd;" horiz-adv-x="478" 
d="M83 -241q-23 0 -28.5 6.5t-5.5 22.5v61l5 5h45q25 0 40 4t27.5 21t29.5 55l29 68l-192 407l-64 29v16h261v-16l-70 -30v-4l120 -255h6l95 250v5l-66 34v16h193v-16l-72 -34l-199 -483q-9 -23 -15.5 -38.5t-14.5 -30t-23 -35.5q-20 -29 -48 -43.5t-53 -14.5zM268 530
l85 177h98q0 -17 -7.5 -32.5t-29.5 -34.5l-128 -110h-18z" />
    <glyph glyph-name="thorn" unicode="&#xfe;" horiz-adv-x="578" 
d="M38 -230v16l65 32v818l-62 49v10l162 55h16v-346h6q37 32 71 46t74 14q47 0 85.5 -26.5t61.5 -75t23 -115.5q0 -81 -31.5 -138.5t-84 -88t-114.5 -30.5q-52 0 -91 10v-182l75 -32v-16h-256zM299 387q-38 0 -80 -24v-286q39 -37 99 -37q28 0 52 16t39.5 54.5t15.5 105.5
q0 88 -38 129.5t-88 41.5z" />
    <glyph glyph-name="ydieresis" unicode="&#xff;" horiz-adv-x="478" 
d="M83 -241q-23 0 -28.5 6.5t-5.5 22.5v61l5 5h45q25 0 40 4t27.5 21t29.5 55l29 68l-192 407l-64 29v16h261v-16l-70 -30v-4l120 -255h6l95 250v5l-66 34v16h193v-16l-72 -34l-199 -483q-9 -23 -15.5 -38.5t-14.5 -30t-23 -35.5q-20 -29 -48 -43.5t-53 -14.5zM178 563
q-24 0 -39.5 15.5t-15.5 38.5t15.5 38.5t39.5 15.5q23 0 38.5 -15.5t15.5 -38.5t-15.5 -38.5t-38.5 -15.5zM370 563q-24 0 -39 15.5t-15 38.5t15 38.5t39 15.5t39 -15.5t15 -38.5t-15 -38.5t-39 -15.5z" />
    <glyph glyph-name="uni0100" unicode="&#x100;" horiz-adv-x="764" 
d="M25 0v16l62 34l259 615h70l256 -613l68 -36v-16h-288v16l87 35l-71 174h-240l-70 -174l83 -35v-16h-216zM251 280h194l-97 239zM242 760v55h280v-55h-280z" />
    <glyph glyph-name="amacron" unicode="&#x101;" horiz-adv-x="504" 
d="M153 -10q-48 0 -81.5 29t-32.5 82q1 52 35 85.5t126 55.5l94 23v66q0 37 -25 60.5t-60 23.5t-49 -16.5t-14 -47.5v-39l-5 -4h-60q-15 0 -21 6t-6 24q0 47 60 83q32 20 63.5 31.5t66.5 11.5q44 0 82 -12t61 -38t23 -70v-273q14 -16 51 -16h33l3 -3v-10q-12 -20 -37 -36
t-64 -16q-38 0 -61.5 17.5t-33.5 47.5h-7q-26 -28 -62 -46.5t-79 -18.5zM149 126q0 -32 18.5 -47.5t51.5 -15.5q19 0 36.5 4t38.5 13v147q-62 -12 -93 -26.5t-41.5 -32.5t-10.5 -42zM97 589v56h280v-56h-280z" />
    <glyph glyph-name="uni0102" unicode="&#x102;" horiz-adv-x="764" 
d="M25 0v16l62 34l259 615h70l256 -613l68 -36v-16h-288v16l87 35l-71 174h-240l-70 -174l83 -35v-16h-216zM251 280h194l-97 239zM382 710q-69 0 -103 39.5t-51 112.5h17q25 -50 56 -64.5t81 -14.5t80.5 14.5t56.5 64.5h17q-18 -73 -53.5 -112.5t-100.5 -39.5z" />
    <glyph glyph-name="abreve" unicode="&#x103;" horiz-adv-x="504" 
d="M153 -10q-48 0 -81.5 29t-32.5 82q1 52 35 85.5t126 55.5l94 23v66q0 37 -25 60.5t-60 23.5t-49 -16.5t-14 -47.5v-39l-5 -4h-60q-15 0 -21 6t-6 24q0 47 60 83q32 20 63.5 31.5t66.5 11.5q44 0 82 -12t61 -38t23 -70v-273q14 -16 51 -16h33l3 -3v-10q-12 -20 -37 -36
t-64 -16q-38 0 -61.5 17.5t-33.5 47.5h-7q-26 -28 -62 -46.5t-79 -18.5zM149 126q0 -32 18.5 -47.5t51.5 -15.5q19 0 36.5 4t38.5 13v147q-62 -12 -93 -26.5t-41.5 -32.5t-10.5 -42zM237 540q-69 0 -102 41.5t-52 125.5h17q19 -42 39.5 -62t44 -26t53.5 -6t53.5 6t43.5 26
t40 62h17q-20 -84 -54.5 -125.5t-99.5 -41.5z" />
    <glyph glyph-name="uni0104" unicode="&#x104;" horiz-adv-x="764" 
d="M588 -128q0 -63 60 -63q12 0 25 3.5t24 10.5h3v-15q-13 -22 -35 -35t-52 -13q-45 0 -72.5 24t-27.5 65q0 36 23.5 72.5t62.5 78.5h-147v16l87 35l-71 174h-240l-70 -174l83 -35v-16h-216v16l62 34l259 615h70l256 -612l68 -37v-16h-109q-43 -70 -43 -128zM251 280h194
l-97 239z" />
    <glyph glyph-name="aogonek" unicode="&#x105;" horiz-adv-x="504" 
d="M153 -10q-48 0 -81.5 29t-32.5 82q1 52 35 85.5t126 55.5l94 23v66q0 37 -25 60.5t-60 23.5t-49 -16.5t-14 -47.5v-39l-5 -4h-60q-15 0 -21 6t-6 24q0 47 60 83q32 20 63.5 31.5t66.5 11.5q44 0 82 -12t61 -38t23 -70v-273q14 -16 51 -16h33l3 -3v-10q-10 -16 -29 -30.5
t-47 -19.5q-38 -65 -38 -120q0 -63 61 -63q11 0 24 3.5t25 10.5h3v-15q-27 -48 -88 -48q-44 0 -72 24t-28 65q0 34 21.5 68t56.5 73q-33 3 -54 20t-31 45h-7q-26 -28 -62 -46.5t-79 -18.5zM149 126q0 -32 18.5 -47.5t51.5 -15.5q19 0 36.5 4t38.5 13v147q-62 -12 -93 -26.5
t-41.5 -32.5t-10.5 -42z" />
    <glyph glyph-name="uni0106" unicode="&#x106;" horiz-adv-x="717" 
d="M399 -10q-104 0 -180.5 42t-118.5 115.5t-42 166.5q0 73 29 137.5t79 113.5t114 77t135 28q51 0 86.5 -6.5t63 -17t55.5 -24.5l9 -182h-18l-80 140q-31 21 -56 30.5t-58 9.5q-65 0 -117 -36t-82 -101t-30 -150q0 -91 29 -156t78.5 -100t110.5 -35q45 0 77.5 12t60.5 29
l77 123h17l-13 -165q-42 -23 -95.5 -37t-130.5 -14zM382 710l85 152h98q0 -17 -7 -34t-30 -33l-128 -85h-18z" />
    <glyph glyph-name="cacute" unicode="&#x107;" horiz-adv-x="482" 
d="M256 -10q-64 0 -112 27t-74.5 75.5t-26.5 113.5q0 76 31 134t85.5 91t125.5 33q44 0 82.5 -13.5t57.5 -35.5q16 -19 16 -30q0 -14 -13 -24l-43 -37h-7l-35 47q-17 23 -36 36t-49 13q-50 0 -76.5 -45t-26.5 -122q0 -45 15.5 -83.5t50 -62t91.5 -23.5q28 0 60 8t68 27h3
v-14q-24 -48 -72.5 -81.5t-114.5 -33.5zM262 530l85 177h98q0 -17 -7.5 -32.5t-29.5 -34.5l-128 -110h-18z" />
    <glyph glyph-name="uni0108" unicode="&#x108;" horiz-adv-x="717" 
d="M399 -10q-104 0 -180.5 42t-118.5 115.5t-42 166.5q0 73 29 137.5t79 113.5t114 77t135 28q51 0 86.5 -6.5t63 -17t55.5 -24.5l9 -182h-18l-80 140q-31 21 -56 30.5t-58 9.5q-65 0 -117 -36t-82 -101t-30 -150q0 -91 29 -156t78.5 -100t110.5 -35q45 0 77.5 12t60.5 29
l77 123h17l-13 -165q-42 -23 -95.5 -37t-130.5 -14zM236 710l134 152h40l134 -152h-17l-137 68l-137 -68h-17z" />
    <glyph glyph-name="ccircumflex" unicode="&#x109;" horiz-adv-x="482" 
d="M256 -10q-64 0 -112 27t-74.5 75.5t-26.5 113.5q0 76 31 134t85.5 91t125.5 33q44 0 82.5 -13.5t57.5 -35.5q16 -19 16 -30q0 -14 -13 -24l-43 -37h-7l-35 47q-17 23 -36 36t-49 13q-50 0 -76.5 -45t-26.5 -122q0 -45 15.5 -83.5t50 -62t91.5 -23.5q28 0 60 8t68 27h3
v-14q-24 -48 -72.5 -81.5t-114.5 -33.5zM114 530l134 177h40l134 -177h-17l-137 88l-137 -88h-17z" />
    <glyph glyph-name="uni010A" unicode="&#x10a;" horiz-adv-x="717" 
d="M399 -10q-104 0 -180.5 42t-118.5 115.5t-42 166.5q0 73 29 137.5t79 113.5t114 77t135 28q51 0 86.5 -6.5t63 -17t55.5 -24.5l9 -182h-18l-80 140q-31 21 -56 30.5t-58 9.5q-65 0 -117 -36t-82 -101t-30 -150q0 -91 29 -156t78.5 -100t110.5 -35q45 0 77.5 12t60.5 29
l77 123h17l-13 -165q-42 -23 -95.5 -37t-130.5 -14zM390 723q-28 0 -48 19.5t-20 48.5t20 48t48 19t48 -19t20 -48t-20 -48.5t-48 -19.5z" />
    <glyph glyph-name="cdotaccent" unicode="&#x10b;" horiz-adv-x="482" 
d="M256 -10q-64 0 -112 27t-74.5 75.5t-26.5 113.5q0 76 31 134t85.5 91t125.5 33q44 0 82.5 -13.5t57.5 -35.5q16 -19 16 -30q0 -14 -13 -24l-43 -37h-7l-35 47q-17 23 -36 36t-49 13q-50 0 -76.5 -45t-26.5 -122q0 -45 15.5 -83.5t50 -62t91.5 -23.5q28 0 60 8t68 27h3
v-14q-24 -48 -72.5 -81.5t-114.5 -33.5zM267 550q-28 0 -48 20t-20 48t20 48t48 20t48 -20t20 -48t-20 -48t-48 -20z" />
    <glyph glyph-name="uni010C" unicode="&#x10c;" horiz-adv-x="717" 
d="M399 -10q-104 0 -180.5 42t-118.5 115.5t-42 166.5q0 73 29 137.5t79 113.5t114 77t135 28q51 0 86.5 -6.5t63 -17t55.5 -24.5l9 -182h-18l-80 140q-31 21 -56 30.5t-58 9.5q-65 0 -117 -36t-82 -101t-30 -150q0 -91 29 -156t78.5 -100t110.5 -35q45 0 77.5 12t60.5 29
l77 123h17l-13 -165q-42 -23 -95.5 -37t-130.5 -14zM370 710l-134 152h17l137 -68l137 68h17l-134 -152h-40z" />
    <glyph glyph-name="ccaron" unicode="&#x10d;" horiz-adv-x="482" 
d="M256 -10q-64 0 -112 27t-74.5 75.5t-26.5 113.5q0 76 31 134t85.5 91t125.5 33q44 0 82.5 -13.5t57.5 -35.5q16 -19 16 -30q0 -14 -13 -24l-43 -37h-7l-35 47q-17 23 -36 36t-49 13q-50 0 -76.5 -45t-26.5 -122q0 -45 15.5 -83.5t50 -62t91.5 -23.5q28 0 60 8t68 27h3
v-14q-24 -48 -72.5 -81.5t-114.5 -33.5zM248 530l-134 177h17l137 -88l137 88h17l-134 -177h-40z" />
    <glyph glyph-name="uni010E" unicode="&#x10e;" horiz-adv-x="791" 
d="M52 0v16l84 41v546l-84 41v16h322q115 0 195.5 -39t123 -107t42.5 -154q0 -78 -27.5 -144t-77 -114t-117 -75t-146.5 -27h-315zM340 605h-79v-550h94q79 0 134.5 33.5t85 95t29.5 145.5q0 126 -67.5 201t-196.5 75zM370 710l-134 152h17l137 -68l137 68h17l-134 -152h-40
z" />
    <glyph glyph-name="dcaron" unicode="&#x10f;" horiz-adv-x="573" 
d="M208 -10q-48 0 -86.5 25t-61.5 71t-23 108q0 84 31.5 144.5t85.5 93t121 32.5q49 0 84 -9v181l-67 50v9l173 55h9v-705l71 -29v-16h-176l-8 50h-7q-38 -32 -72 -46t-74 -14zM153 222q0 -80 38 -117.5t88 -37.5q40 0 80 24v285q-18 17 -37.5 26.5t-43.5 9.5
q-34 0 -62 -17.5t-45.5 -59t-17.5 -113.5zM535 553l18 187h89q3 -14 2.5 -29.5t-13.5 -35.5l-79 -122h-17z" />
    <glyph glyph-name="uni0110" unicode="&#x110;" horiz-adv-x="791" 
d="M52 0v16l84 41v259h-84v52h84v235l-84 41v16h322q115 0 195.5 -39t123 -107t42.5 -154q0 -78 -27.5 -144t-77 -114t-117 -75t-146.5 -27h-315zM422 316h-161v-261h94q79 0 134.5 33.5t85 95t29.5 145.5q0 126 -67.5 201t-196.5 75h-79v-237h161v-52z" />
    <glyph glyph-name="dcroat" unicode="&#x111;" horiz-adv-x="584" 
d="M210 -10q-47 0 -85.5 25t-61.5 71t-23 108q0 84 31.5 144.5t85 93t120.5 32.5q48 0 84 -9v82h-129v48h129v51l-67 50v9l174 55h9v-165h70v-48h-70v-492l70 -29v-16h-176l-8 50h-7q-38 -32 -72 -46t-74 -14zM156 222q0 -80 38 -117.5t87 -37.5q40 0 80 24v286
q-18 17 -37 26t-43 9q-34 0 -62.5 -17.5t-45.5 -59t-17 -113.5z" />
    <glyph glyph-name="uni0112" unicode="&#x112;" horiz-adv-x="669" 
d="M52 0v16l84 41v546l-84 41v16h523v-173h-16l-69 118h-229v-237h161l54 85h16v-223h-16l-54 83h-161v-258h254l72 140h16v-195h-551zM206 760v55h280v-55h-280z" />
    <glyph glyph-name="emacron" unicode="&#x113;" horiz-adv-x="491" 
d="M260 -10q-100 0 -158.5 59t-58.5 157q0 76 32 134t84.5 91t116.5 33q80 0 125 -55t46 -155l-4 -5h-288q0 -45 16 -82.5t52 -60t95 -22.5q28 0 60 8t67 27h3v-14q-24 -49 -73 -82t-115 -33zM256 419q-40 0 -66 -33t-33 -92h193q-9 69 -33 97t-61 28zM124 589v56h280v-56
h-280z" />
    <glyph glyph-name="uni0114" unicode="&#x114;" horiz-adv-x="669" 
d="M52 0v16l84 41v546l-84 41v16h523v-173h-16l-69 118h-229v-237h161l54 85h16v-223h-16l-54 83h-161v-258h254l72 140h16v-195h-551zM346 710q-69 0 -103 39.5t-51 112.5h17q25 -50 56 -64.5t81 -14.5t80.5 14.5t56.5 64.5h17q-18 -73 -53.5 -112.5t-100.5 -39.5z" />
    <glyph glyph-name="ebreve" unicode="&#x115;" horiz-adv-x="491" 
d="M260 -10q-100 0 -158.5 59t-58.5 157q0 76 32 134t84.5 91t116.5 33q80 0 125 -55t46 -155l-4 -5h-288q0 -45 16 -82.5t52 -60t95 -22.5q28 0 60 8t67 27h3v-14q-24 -49 -73 -82t-115 -33zM256 419q-40 0 -66 -33t-33 -92h193q-9 69 -33 97t-61 28zM264 540
q-69 0 -102 41.5t-52 125.5h17q19 -42 39.5 -62t44 -26t53.5 -6t53.5 6t43.5 26t40 62h17q-20 -84 -54.5 -125.5t-99.5 -41.5z" />
    <glyph glyph-name="uni0116" unicode="&#x116;" horiz-adv-x="669" 
d="M52 0v16l84 41v546l-84 41v16h523v-173h-16l-69 118h-229v-237h161l54 85h16v-223h-16l-54 83h-161v-258h254l72 140h16v-195h-551zM346 723q-28 0 -48 19.5t-20 48.5t20 48t48 19t48 -19t20 -48t-20 -48.5t-48 -19.5z" />
    <glyph glyph-name="edotaccent" unicode="&#x117;" horiz-adv-x="491" 
d="M260 -10q-100 0 -158.5 59t-58.5 157q0 76 32 134t84.5 91t116.5 33q80 0 125 -55t46 -155l-4 -5h-288q0 -45 16 -82.5t52 -60t95 -22.5q28 0 60 8t67 27h3v-14q-24 -49 -73 -82t-115 -33zM256 419q-40 0 -66 -33t-33 -92h193q-9 69 -33 97t-61 28zM263 550q-28 0 -48 20
t-20 48t20 48t48 20t48 -20t20 -48t-20 -48t-48 -20z" />
    <glyph glyph-name="uni0118" unicode="&#x118;" horiz-adv-x="669" 
d="M52 0v16l84 41v546l-84 41v16h523v-173h-16l-69 118h-229v-237h161l54 85h16v-223h-16l-54 83h-161v-258h254l72 140h16v-195h-71q-43 -70 -43 -128q0 -63 61 -63q11 0 24 3.5t24 10.5h3v-15q-13 -22 -35 -35t-52 -13q-45 0 -72.5 24t-27.5 65q0 36 24 72.5t62 78.5h-448
z" />
    <glyph glyph-name="eogonek" unicode="&#x119;" horiz-adv-x="491" 
d="M260 -10q-100 0 -158.5 59t-58.5 157q0 76 32 134t84.5 91t116.5 33q80 0 125 -55t46 -155l-4 -5h-288q0 -45 16 -82.5t52 -60t95 -22.5q28 0 60 8t67 27h3v-14q-14 -27 -40 -53q-34 -47 -54 -91.5t-20 -88.5q0 -63 60 -63q12 0 24.5 3.5t24.5 10.5h3v-15
q-13 -22 -35 -35t-53 -13q-44 0 -71.5 24t-27.5 65q0 39 27.5 79t70.5 86q-43 -24 -97 -24zM256 419q-40 0 -66 -33t-33 -92h193q-9 69 -33 97t-61 28z" />
    <glyph glyph-name="uni011A" unicode="&#x11a;" horiz-adv-x="669" 
d="M52 0v16l84 41v546l-84 41v16h523v-173h-16l-69 118h-229v-237h161l54 85h16v-223h-16l-54 83h-161v-258h254l72 140h16v-195h-551zM326 710l-134 152h17l137 -68l137 68h17l-134 -152h-40z" />
    <glyph glyph-name="ecaron" unicode="&#x11b;" horiz-adv-x="491" 
d="M260 -10q-100 0 -158.5 59t-58.5 157q0 76 32 134t84.5 91t116.5 33q80 0 125 -55t46 -155l-4 -5h-288q0 -45 16 -82.5t52 -60t95 -22.5q28 0 60 8t67 27h3v-14q-24 -49 -73 -82t-115 -33zM256 419q-40 0 -66 -33t-33 -92h193q-9 69 -33 97t-61 28zM244 530l-134 177h17
l137 -88l137 88h17l-134 -177h-40z" />
    <glyph glyph-name="uni011C" unicode="&#x11c;" horiz-adv-x="761" 
d="M398 -10q-72 0 -134 24t-108 68t-72 103t-26 129q0 77 29.5 142t80.5 113t117.5 74.5t140.5 26.5q53 0 90.5 -6t67 -17t58.5 -25l8 -171h-17l-82 130q-34 22 -61 31t-62 9q-68 0 -123 -35t-87 -97t-32 -143q0 -94 32.5 -161t87 -103t121.5 -36q23 0 48 2.5t50 9.5v178
l-89 44v16h287v-16l-73 -46v-160q-30 -26 -73 -44.5t-89.5 -29t-89.5 -10.5zM248 710l134 152h40l134 -152h-17l-137 68l-137 -68h-17z" />
    <glyph glyph-name="gcircumflex" unicode="&#x11d;" horiz-adv-x="543" 
d="M257 148q-46 0 -85 16q-15 -8 -21 -19.5t-6 -23.5q0 -26 18 -37.5t56 -11.5h115q76 0 112 -33.5t36 -98.5q0 -45 -30.5 -86t-86.5 -67.5t-133 -26.5q-97 0 -138.5 32t-41.5 80q0 37 18 63l65 42v4q-77 22 -77 93q0 43 27 70l56 31v6q-32 21 -51 53.5t-19 71.5
q0 44 24.5 80t66.5 56.5t95 20.5q25 0 51 -5.5t45 -14.5l153 10v-58l-98 7l-4 -3q18 -17 28.5 -42t10.5 -51q0 -45 -24.5 -80.5t-66.5 -56.5t-95 -21zM266 190q34 0 53.5 32t19.5 81q0 55 -24.5 87t-61.5 32q-38 0 -57.5 -32.5t-19.5 -80.5q0 -55 25 -87t65 -32zM131 -112
q0 -41 30 -68t81 -27q65 0 104 32.5t39 76.5q0 40 -21.5 56t-76.5 16h-95q-10 0 -19 1q-22 -15 -32 -36t-10 -51zM106 530l134 177h40l134 -177h-17l-137 88l-137 -88h-17z" />
    <glyph glyph-name="uni011E" unicode="&#x11e;" horiz-adv-x="761" 
d="M398 -10q-72 0 -134 24t-108 68t-72 103t-26 129q0 77 29.5 142t80.5 113t117.5 74.5t140.5 26.5q53 0 90.5 -6t67 -17t58.5 -25l8 -171h-17l-82 130q-34 22 -61 31t-62 9q-68 0 -123 -35t-87 -97t-32 -143q0 -94 32.5 -161t87 -103t121.5 -36q23 0 48 2.5t50 9.5v178
l-89 44v16h287v-16l-73 -46v-160q-30 -26 -73 -44.5t-89.5 -29t-89.5 -10.5zM402 710q-69 0 -103 39.5t-51 112.5h17q25 -50 56 -64.5t81 -14.5t80.5 14.5t56.5 64.5h17q-18 -73 -53.5 -112.5t-100.5 -39.5z" />
    <glyph glyph-name="gbreve" unicode="&#x11f;" horiz-adv-x="543" 
d="M257 148q-46 0 -85 16q-15 -8 -21 -19.5t-6 -23.5q0 -26 18 -37.5t56 -11.5h115q76 0 112 -33.5t36 -98.5q0 -45 -30.5 -86t-86.5 -67.5t-133 -26.5q-97 0 -138.5 32t-41.5 80q0 37 18 63l65 42v4q-77 22 -77 93q0 43 27 70l56 31v6q-32 21 -51 53.5t-19 71.5
q0 44 24.5 80t66.5 56.5t95 20.5q25 0 51 -5.5t45 -14.5l153 10v-58l-98 7l-4 -3q18 -17 28.5 -42t10.5 -51q0 -45 -24.5 -80.5t-66.5 -56.5t-95 -21zM266 190q34 0 53.5 32t19.5 81q0 55 -24.5 87t-61.5 32q-38 0 -57.5 -32.5t-19.5 -80.5q0 -55 25 -87t65 -32zM131 -112
q0 -41 30 -68t81 -27q65 0 104 32.5t39 76.5q0 40 -21.5 56t-76.5 16h-95q-10 0 -19 1q-22 -15 -32 -36t-10 -51zM260 540q-69 0 -102 41.5t-52 125.5h17q19 -42 39.5 -62t44 -26t53.5 -6t53.5 6t43.5 26t40 62h17q-20 -84 -54.5 -125.5t-99.5 -41.5z" />
    <glyph glyph-name="uni0120" unicode="&#x120;" horiz-adv-x="761" 
d="M398 -10q-72 0 -134 24t-108 68t-72 103t-26 129q0 77 29.5 142t80.5 113t117.5 74.5t140.5 26.5q53 0 90.5 -6t67 -17t58.5 -25l8 -171h-17l-82 130q-34 22 -61 31t-62 9q-68 0 -123 -35t-87 -97t-32 -143q0 -94 32.5 -161t87 -103t121.5 -36q23 0 48 2.5t50 9.5v178
l-89 44v16h287v-16l-73 -46v-160q-30 -26 -73 -44.5t-89.5 -29t-89.5 -10.5zM402 723q-28 0 -48 19.5t-20 48.5t20 48t48 19t48 -19t20 -48t-20 -48.5t-48 -19.5z" />
    <glyph glyph-name="gdotaccent" unicode="&#x121;" horiz-adv-x="543" 
d="M257 148q-46 0 -85 16q-15 -8 -21 -19.5t-6 -23.5q0 -26 18 -37.5t56 -11.5h115q76 0 112 -33.5t36 -98.5q0 -45 -30.5 -86t-86.5 -67.5t-133 -26.5q-97 0 -138.5 32t-41.5 80q0 37 18 63l65 42v4q-77 22 -77 93q0 43 27 70l56 31v6q-32 21 -51 53.5t-19 71.5
q0 44 24.5 80t66.5 56.5t95 20.5q25 0 51 -5.5t45 -14.5l153 10v-58l-98 7l-4 -3q18 -17 28.5 -42t10.5 -51q0 -45 -24.5 -80.5t-66.5 -56.5t-95 -21zM266 190q34 0 53.5 32t19.5 81q0 55 -24.5 87t-61.5 32q-38 0 -57.5 -32.5t-19.5 -80.5q0 -55 25 -87t65 -32zM131 -112
q0 -41 30 -68t81 -27q65 0 104 32.5t39 76.5q0 40 -21.5 56t-76.5 16h-95q-10 0 -19 1q-22 -15 -32 -36t-10 -51zM260 550q-28 0 -48 20t-20 48t20 48t48 20t48 -20t20 -48t-20 -48t-48 -20z" />
    <glyph glyph-name="uni0122" unicode="&#x122;" horiz-adv-x="761" 
d="M398 -10q-72 0 -134 24t-108 68t-72 103t-26 129q0 77 29.5 142t80.5 113t117.5 74.5t140.5 26.5q53 0 90.5 -6t67 -17t58.5 -25l8 -171h-17l-82 130q-34 22 -61 31t-62 9q-68 0 -123 -35t-87 -97t-32 -143q0 -94 32.5 -161t87 -103t121.5 -36q23 0 48 2.5t50 9.5v178
l-89 44v16h287v-16l-73 -46v-160q-30 -26 -73 -44.5t-89.5 -29t-89.5 -10.5zM426 710q-52 0 -78.5 21t-26.5 58q0 41 31 62t80 21q8 0 17 -1t17 -2v-17q-7 2 -14.5 2.5t-12.5 0.5q-25 0 -39 -9t-14 -27q0 -23 19.5 -31t60.5 -8v-49q0 -9 -8.5 -15t-31.5 -6z" />
    <glyph glyph-name="uni0123" unicode="&#x123;" horiz-adv-x="543" 
d="M257 148q-46 0 -85 16q-15 -8 -21 -19.5t-6 -23.5q0 -26 18 -37.5t56 -11.5h115q76 0 112 -33.5t36 -98.5q0 -45 -30.5 -86t-86.5 -67.5t-133 -26.5q-97 0 -138.5 32t-41.5 80q0 37 18 63l65 42v4q-77 22 -77 93q0 43 27 70l56 31v6q-32 21 -51 53.5t-19 71.5
q0 44 24.5 80t66.5 56.5t95 20.5q25 0 51 -5.5t45 -14.5l153 10v-58l-98 7l-4 -3q18 -17 28.5 -42t10.5 -51q0 -45 -24.5 -80.5t-66.5 -56.5t-95 -21zM266 190q34 0 53.5 32t19.5 81q0 55 -24.5 87t-61.5 32q-38 0 -57.5 -32.5t-19.5 -80.5q0 -55 25 -87t65 -32zM131 -112
q0 -41 30 -68t81 -27q65 0 104 32.5t39 76.5q0 40 -21.5 56t-76.5 16h-95q-10 0 -19 1q-22 -15 -32 -36t-10 -51zM284 537q-52 0 -78.5 21t-26.5 59q0 40 31 61.5t80 21.5q8 0 17 -1t17 -3v-17q-7 1 -14.5 2t-12.5 1q-25 0 -39 -9t-14 -27q0 -22 19.5 -30.5t60.5 -8.5v-49
q0 -9 -8.5 -15t-31.5 -6z" />
    <glyph glyph-name="uni0124" unicode="&#x124;" horiz-adv-x="825" 
d="M52 0v16l84 41v546l-84 41v16h288v-16l-79 -41v-235h303v235l-79 41v16h287v-16l-82 -41v-546l82 -41v-16h-287v16l79 41v256h-303v-256l79 -41v-16h-288zM258 710l134 152h40l134 -152h-17l-137 68l-137 -68h-17z" />
    <glyph glyph-name="hcircumflex" unicode="&#x125;" horiz-adv-x="603" 
d="M38 0v16l65 32v588l-62 49v10l168 55h10v-360h4q37 36 71.5 55t78.5 19q60 0 98.5 -31t38.5 -90v-295l65 -32v-16h-240v16l59 30v254q0 38 -23 58.5t-60 20.5q-23 0 -49 -8t-43 -22v-303l59 -30v-16h-240zM153 765l134 152h40l134 -152h-17l-137 68l-137 -68h-17z" />
    <glyph glyph-name="uni0126" unicode="&#x126;" horiz-adv-x="825" 
d="M52 0v16l84 41v413h-84v51h84v82l-84 41v16h288v-16l-79 -41v-82h303v82l-79 41v16h287v-16l-82 -41v-82h82v-51h-82v-413l82 -41v-16h-287v16l79 41v256h-303v-256l79 -41v-16h-288zM261 368h303v102h-303v-102z" />
    <glyph glyph-name="hbar" unicode="&#x127;" horiz-adv-x="603" 
d="M219 46l59 -30v-16h-240v16l65 32v483h-64v49h64v52l-62 49v10l168 59h10v-170h134v-49h-134v-141h4q37 36 71.5 55t78.5 19q60 0 98.5 -31t38.5 -90v-295l65 -32v-16h-240v16l59 30v254q0 38 -23 58.5t-60 20.5q-23 0 -49 -8t-43 -22v-303z" />
    <glyph glyph-name="uni0128" unicode="&#x128;" horiz-adv-x="404" 
d="M56 0v16l83 41v546l-83 41v16h292v-16l-83 -41v-546l83 -41v-16h-292zM42 724q16 50 31.5 76t32 35.5t37.5 9.5q28 0 51.5 -13.5t45.5 -26.5t44 -13q18 0 32 10t27 43h19q-16 -51 -31.5 -77t-32 -35t-37.5 -9q-28 0 -51.5 13t-45.5 26t-44 13q-18 0 -32 -9.5t-27 -42.5
h-19z" />
    <glyph glyph-name="itilde" unicode="&#x129;" horiz-adv-x="325" 
d="M42 0v16l65 32v302l-62 48v11l168 55h10v-416l61 -32v-16h-242zM3 552q19 58 34.5 86t31.5 37t36 9t38.5 -9.5t35.5 -22.5t33 -22.5t32 -9.5q18 0 31 12.5t29 51.5h19q-19 -58 -34.5 -86t-31.5 -37t-36 -9t-38.5 9.5t-35.5 22.5t-33 22.5t-32 9.5q-18 0 -31 -12.5
t-29 -51.5h-19z" />
    <glyph glyph-name="uni012A" unicode="&#x12a;" horiz-adv-x="404" 
d="M56 0v16l83 41v546l-83 41v16h292v-16l-83 -41v-546l83 -41v-16h-292zM62 760v55h280v-55h-280z" />
    <glyph glyph-name="imacron" unicode="&#x12b;" horiz-adv-x="325" 
d="M42 0v16l65 32v302l-62 48v11l168 55h10v-416l61 -32v-16h-242zM23 589v56h280v-56h-280z" />
    <glyph glyph-name="uni012C" unicode="&#x12c;" horiz-adv-x="404" 
d="M56 0v16l83 41v546l-83 41v16h292v-16l-83 -41v-546l83 -41v-16h-292zM202 710q-69 0 -103 39.5t-51 112.5h17q25 -50 56 -64.5t81 -14.5t80.5 14.5t56.5 64.5h17q-18 -73 -53.5 -112.5t-100.5 -39.5z" />
    <glyph glyph-name="ibreve" unicode="&#x12d;" horiz-adv-x="325" 
d="M42 0v16l65 32v302l-62 48v11l168 55h10v-416l61 -32v-16h-242zM163 540q-69 0 -102 41.5t-52 125.5h17q19 -42 39.5 -62t44 -26t53.5 -6t53.5 6t43.5 26t40 62h17q-20 -84 -54.5 -125.5t-99.5 -41.5z" />
    <glyph glyph-name="uni012E" unicode="&#x12e;" horiz-adv-x="404" 
d="M56 0v16l83 41v546l-83 41v16h292v-16l-83 -41v-546l83 -41v-16h-122q-43 -70 -43 -128q0 -63 61 -63q11 0 24 3.5t25 10.5h3v-15q-27 -48 -88 -48q-44 0 -72 24t-28 65q0 36 24 72.5t63 78.5h-139z" />
    <glyph glyph-name="iogonek" unicode="&#x12f;" horiz-adv-x="325" 
d="M162 571q-29 0 -48 19.5t-19 48.5t19 48t48 19t48.5 -19t19.5 -48t-19.5 -48.5t-48.5 -19.5zM42 0v16l65 32v302l-62 48v11l168 55h10v-416l61 -32v-16h-93q-43 -70 -43 -128q0 -63 61 -63q11 0 24 3.5t25 10.5h3v-15q-13 -22 -35 -35t-53 -13q-44 0 -71.5 24t-27.5 65
q0 36 23.5 72.5t62.5 78.5h-118z" />
    <glyph glyph-name="uni0130" unicode="&#x130;" horiz-adv-x="404" 
d="M56 0v16l83 41v546l-83 41v16h292v-16l-83 -41v-546l83 -41v-16h-292zM202 723q-28 0 -48 19.5t-20 48.5t20 48t48 19t48 -19t20 -48t-20 -48.5t-48 -19.5z" />
    <glyph glyph-name="dotlessi" unicode="&#x131;" horiz-adv-x="325" 
d="M42 0v16l65 32v302l-62 48v11l168 55h10v-416l61 -32v-16h-242z" />
    <glyph glyph-name="uni0132" unicode="&#x132;" horiz-adv-x="818" 
d="M56 0v16l83 41v546l-83 41v16h292v-16l-83 -41v-546l83 -41v-16h-292zM457 -173q-13 0 -22.5 6.5t-9.5 21.5q0 7 2.5 20.5t9.5 46.5h7q16 -4 25 -6.5t21 -2.5q20 0 34.5 9t22 38.5t7.5 89.5v553l-83 41v16h292v-16l-83 -41v-360q0 -76 -14 -141t-37 -115t-50 -80
q-39 -43 -65 -61.5t-57 -18.5z" />
    <glyph glyph-name="ij" unicode="&#x133;" horiz-adv-x="648" 
d="M162 571q-29 0 -48 19.5t-19 48.5t19 48t48 19t48.5 -19t19.5 -48t-19.5 -48.5t-48.5 -19.5zM42 0v16l65 32v302l-62 48v11l168 55h10v-416l61 -32v-16h-242zM486 571q-29 0 -48 19.5t-19 48.5t19 48t48 19t48.5 -19t19.5 -48t-19.5 -48.5t-48.5 -19.5zM368 -230v17
q25 22 38.5 44.5t19 53.5t5.5 78v387l-62 48v11l168 55h10v-450q0 -56 -15.5 -99t-54.5 -78t-109 -67z" />
    <glyph glyph-name="uni0134" unicode="&#x134;" horiz-adv-x="415" 
d="M53 -173q-13 0 -22.5 6.5t-9.5 21.5q0 7 2.5 20.5t9.5 46.5h7q16 -4 25 -6.5t21 -2.5q20 0 34.5 9t22 38.5t7.5 89.5v553l-83 41v16h292v-16l-83 -41v-360q0 -76 -14 -141t-37 -115t-50 -80q-39 -43 -65 -61.5t-57 -18.5zM59 710l134 152h40l134 -152h-17l-137 68
l-137 -68h-17z" />
    <glyph glyph-name="jcircumflex" unicode="&#x135;" horiz-adv-x="324" 
d="M222 14q0 -56 -15.5 -99t-54.5 -78t-109 -67v17q25 22 38.5 44.5t19 53.5t5.5 78v387l-62 48v11l168 55h10v-450zM1 530l134 177h40l134 -177h-17l-137 88l-137 -88h-17z" />
    <glyph glyph-name="uni0136" unicode="&#x136;" horiz-adv-x="752" 
d="M52 0v16l84 41v546l-84 41v16h293v-16l-84 -41v-546l84 -41v-16h-293zM262 335l276 274l-74 35v16h226v-16l-66 -27l-244 -237l293 -336l67 -28v-16h-190zM372 -239q-8 0 -17.5 0.5t-16.5 2.5v18q7 -2 14.5 -3t12.5 -1q25 0 39 9t14 27q0 23 -19.5 31t-61.5 8v49
q0 9 8.5 15t32.5 6q52 0 78.5 -20.5t26.5 -58.5q0 -40 -31 -61.5t-80 -21.5z" />
    <glyph glyph-name="uni0137" unicode="&#x137;" horiz-adv-x="584" 
d="M38 0v16l65 32v588l-62 49v10l168 55h10v-491l154 137v6l-49 36v16h203v-16l-64 -35l-148 -115l191 -238l64 -34v-16h-169l-34 52l-148 187v-193l67 -30v-16h-248zM284 -239q-8 0 -17.5 0.5t-16.5 2.5v18q7 -2 14.5 -3t12.5 -1q25 0 39 9t14 27q0 23 -19.5 31t-61.5 8v49
q0 9 8.5 15t32.5 6q52 0 78.5 -20.5t26.5 -58.5q0 -40 -31 -61.5t-80 -21.5z" />
    <glyph glyph-name="kgreenlandic" unicode="&#x138;" horiz-adv-x="584" 
d="M38 0v16l65 32v302l-62 48v11l168 55h10v-205l154 137v6l-49 36v16h203v-16l-64 -35l-148 -116l191 -237l64 -34v-16h-169l-34 52l-148 187v-193l67 -30v-16h-248z" />
    <glyph glyph-name="uni0139" unicode="&#x139;" horiz-adv-x="642" 
d="M52 0v16l84 41v546l-84 41v16h303v-16l-94 -41v-548h230l76 180h16v-235h-531zM190 710l85 152h98q0 -17 -7 -34t-30 -33l-128 -85h-18z" />
    <glyph glyph-name="lacute" unicode="&#x13a;" horiz-adv-x="313" 
d="M35 0v16l66 32v588l-63 49v10l169 55h9v-702l61 -32v-16h-242zM150 765l85 152h98q0 -17 -7 -34t-30 -33l-128 -85h-18z" />
    <glyph glyph-name="uni013B" unicode="&#x13b;" horiz-adv-x="642" 
d="M52 0v16l84 41v546l-84 41v16h303v-16l-94 -41v-548h230l76 180h16v-235h-531zM320 -239q-8 0 -17.5 0.5t-16.5 2.5v18q7 -2 14.5 -3t12.5 -1q25 0 39 9t14 27q0 23 -19.5 31t-61.5 8v49q0 9 8.5 15t32.5 6q52 0 78.5 -20.5t26.5 -58.5q0 -40 -31 -61.5t-80 -21.5z" />
    <glyph glyph-name="uni013C" unicode="&#x13c;" horiz-adv-x="313" 
d="M35 0v16l66 32v588l-63 49v10l169 55h9v-702l61 -32v-16h-242zM121 -239q-8 0 -17.5 0.5t-16.5 2.5v18q7 -2 14.5 -3t12.5 -1q25 0 39 9t14 27q0 23 -19.5 31t-61.5 8v49q0 9 8.5 15t32.5 6q52 0 78.5 -20.5t26.5 -58.5q0 -40 -31 -61.5t-80 -21.5z" />
    <glyph glyph-name="uni013D" unicode="&#x13d;" horiz-adv-x="642" 
d="M52 0v16l84 41v546l-84 41v16h303v-16l-94 -41v-548h230l76 180h16v-235h-531zM429 473l18 187h89q3 -14 2.5 -29.5t-13.5 -35.5l-79 -122h-17z" />
    <glyph glyph-name="lcaron" unicode="&#x13e;" horiz-adv-x="313" 
d="M35 0v16l66 32v588l-63 49v10l169 55h9v-702l61 -32v-16h-242zM278 553l18 187h89q3 -14 2.5 -29.5t-13.5 -35.5l-79 -122h-17z" />
    <glyph glyph-name="uni013F" unicode="&#x13f;" horiz-adv-x="642" 
d="M52 0v16l84 41v546l-84 41v16h303v-16l-94 -41v-548h230l76 180h16v-235h-531zM508 282q-28 0 -48 19.5t-20 48.5t20 48t48 19t48 -19t20 -48t-20 -48.5t-48 -19.5z" />
    <glyph glyph-name="ldot" unicode="&#x140;" horiz-adv-x="313" 
d="M35 0v16l66 32v588l-63 49v10l169 55h9v-702l61 -32v-16h-242zM331 232q-28 0 -48 20t-20 48t20 48t48 20t48 -20t20 -48t-20 -48t-48 -20z" />
    <glyph glyph-name="uni0141" unicode="&#x141;" horiz-adv-x="642" 
d="M52 0v16l84 41v175l-83 -58v62l83 59v308l-84 41v16h303v-16l-94 -41v-238l145 99v-63l-145 -99v-247h230l76 180h16v-235h-531z" />
    <glyph glyph-name="lslash" unicode="&#x142;" horiz-adv-x="313" 
d="M35 0v16l66 32v250l-66 -39v57l66 39v281l-63 49v10l162 55h16v-336l72 43v-57l-72 -43v-309l61 -32v-16h-242z" />
    <glyph glyph-name="uni0143" unicode="&#x143;" horiz-adv-x="809" 
d="M49 0v16l83 41v545l-82 42v16h172l386 -456v401l-108 39v16h260v-16l-82 -40v-609h-52l-424 498v-437l109 -40v-16h-262zM403 710l85 152h98q0 -17 -7 -34t-30 -33l-128 -85h-18z" />
    <glyph glyph-name="nacute" unicode="&#x144;" horiz-adv-x="603" 
d="M38 0v16l65 32v302l-62 45v10l158 59h10l9 -74h5q37 36 71.5 55t78.5 19q60 0 98.5 -31t38.5 -90v-295l65 -32v-16h-240v16l59 32v252q0 38 -23 58.5t-60 20.5q-23 0 -49 -8t-43 -22v-301l59 -32v-16h-240zM301 530l85 177h98q0 -17 -7.5 -32.5t-29.5 -34.5l-128 -110
h-18z" />
    <glyph glyph-name="uni0145" unicode="&#x145;" horiz-adv-x="809" 
d="M49 0v16l83 41v545l-82 42v16h172l386 -456v401l-108 39v16h260v-16l-82 -40v-609h-52l-424 498v-437l109 -40v-16h-262zM381 -239q-8 0 -17.5 0.5t-16.5 2.5v18q7 -2 14.5 -3t12.5 -1q25 0 39 9t14 27q0 23 -19.5 31t-61.5 8v49q0 9 8.5 15t32.5 6q52 0 78.5 -20.5
t26.5 -58.5q0 -40 -31 -61.5t-80 -21.5z" />
    <glyph glyph-name="uni0146" unicode="&#x146;" horiz-adv-x="603" 
d="M38 0v16l65 32v302l-62 45v10l158 59h10l9 -74h5q37 36 71.5 55t78.5 19q60 0 98.5 -31t38.5 -90v-295l65 -32v-16h-240v16l59 32v252q0 38 -23 58.5t-60 20.5q-23 0 -49 -8t-43 -22v-301l59 -32v-16h-240zM270 -239q-8 0 -17.5 0.5t-16.5 2.5v18q7 -2 14.5 -3t12.5 -1
q25 0 39 9t14 27q0 23 -19.5 31t-61.5 8v49q0 9 8.5 15t32.5 6q52 0 78.5 -20.5t26.5 -58.5q0 -40 -31 -61.5t-80 -21.5z" />
    <glyph glyph-name="uni0147" unicode="&#x147;" horiz-adv-x="809" 
d="M49 0v16l83 41v545l-82 42v16h172l386 -456v401l-108 39v16h260v-16l-82 -40v-609h-52l-424 498v-437l109 -40v-16h-262zM392 710l-134 152h17l137 -68l137 68h17l-134 -152h-40z" />
    <glyph glyph-name="ncaron" unicode="&#x148;" horiz-adv-x="603" 
d="M38 0v16l65 32v302l-62 45v10l158 59h10l9 -74h5q37 36 71.5 55t78.5 19q60 0 98.5 -31t38.5 -90v-295l65 -32v-16h-240v16l59 32v252q0 38 -23 58.5t-60 20.5q-23 0 -49 -8t-43 -22v-301l59 -32v-16h-240zM287 530l-134 177h17l137 -88l137 88h17l-134 -177h-40z" />
    <glyph glyph-name="uni014A" unicode="&#x14a;" horiz-adv-x="809" 
d="M49 0v16l83 41v545l-82 42v16h172l386 -456v401l-108 39v16h260v-16l-82 -40v-616q0 -76 -18.5 -119t-48.5 -68q-24 -20 -58 -30.5t-71 -10.5q-28 0 -37.5 6t-9.5 23v61l5 4h55q65 0 89 25t24 89v49l-406 473v-434l109 -40v-16h-262z" />
    <glyph glyph-name="eng" unicode="&#x14b;" horiz-adv-x="602" 
d="M38 0v16l65 32v302l-62 45v10l158 59h10l9 -74h5q37 36 71.5 55t78.5 19q60 0 98.5 -31t38.5 -90v-323q0 -66 -19.5 -111.5t-64.5 -78t-122 -60.5v17q34 23 53.5 46t28 57t8.5 91v319q0 38 -23 58.5t-60 20.5q-23 0 -49 -8t-43 -22v-301l59 -32v-16h-240z" />
    <glyph glyph-name="uni014C" unicode="&#x14c;" horiz-adv-x="796" 
d="M398 -10q-73 0 -135 25.5t-108 71t-71.5 107.5t-25.5 136t25.5 136t71.5 107.5t108 71t135 25.5q74 0 136 -25.5t108 -71t71.5 -107.5t25.5 -136t-25.5 -136t-71.5 -107.5t-108 -71t-136 -25.5zM416 41q56 0 98.5 32t66.5 90t24 137q0 97 -29.5 169t-80 111.5
t-112.5 39.5q-55 0 -98.5 -31.5t-68.5 -89.5t-25 -137q0 -97 30 -169t81.5 -112t113.5 -40zM250 760v55h280v-55h-280z" />
    <glyph glyph-name="omacron" unicode="&#x14d;" horiz-adv-x="544" 
d="M272 -10q-68 0 -120.5 32t-81.5 85.5t-29 119.5t29 119.5t81.5 85.5t120.5 32q69 0 121 -32t81 -85.5t29 -119.5t-29 -119.5t-81 -85.5t-121 -32zM284 37q34 0 55.5 24t31.5 63t10 83q0 54 -12.5 102.5t-38.5 78.5t-68 30q-34 0 -56 -24t-32.5 -63t-10.5 -83
q0 -54 12.5 -102t39.5 -78.5t69 -30.5zM130 589v56h280v-56h-280z" />
    <glyph glyph-name="uni014E" unicode="&#x14e;" horiz-adv-x="796" 
d="M398 -10q-73 0 -135 25.5t-108 71t-71.5 107.5t-25.5 136t25.5 136t71.5 107.5t108 71t135 25.5q74 0 136 -25.5t108 -71t71.5 -107.5t25.5 -136t-25.5 -136t-71.5 -107.5t-108 -71t-136 -25.5zM416 41q56 0 98.5 32t66.5 90t24 137q0 97 -29.5 169t-80 111.5
t-112.5 39.5q-55 0 -98.5 -31.5t-68.5 -89.5t-25 -137q0 -97 30 -169t81.5 -112t113.5 -40zM390 710q-69 0 -103 39.5t-51 112.5h17q25 -50 56 -64.5t81 -14.5t80.5 14.5t56.5 64.5h17q-18 -73 -53.5 -112.5t-100.5 -39.5z" />
    <glyph glyph-name="obreve" unicode="&#x14f;" horiz-adv-x="544" 
d="M272 -10q-68 0 -120.5 32t-81.5 85.5t-29 119.5t29 119.5t81.5 85.5t120.5 32q69 0 121 -32t81 -85.5t29 -119.5t-29 -119.5t-81 -85.5t-121 -32zM284 37q34 0 55.5 24t31.5 63t10 83q0 54 -12.5 102.5t-38.5 78.5t-68 30q-34 0 -56 -24t-32.5 -63t-10.5 -83
q0 -54 12.5 -102t39.5 -78.5t69 -30.5zM270 540q-69 0 -102 41.5t-52 125.5h17q19 -42 39.5 -62t44 -26t53.5 -6t53.5 6t43.5 26t40 62h17q-20 -84 -54.5 -125.5t-99.5 -41.5z" />
    <glyph glyph-name="uni0150" unicode="&#x150;" horiz-adv-x="796" 
d="M398 -10q-73 0 -135 25.5t-108 71t-71.5 107.5t-25.5 136t25.5 136t71.5 107.5t108 71t135 25.5q74 0 136 -25.5t108 -71t71.5 -107.5t25.5 -136t-25.5 -136t-71.5 -107.5t-108 -71t-136 -25.5zM416 41q56 0 98.5 32t66.5 90t24 137q0 97 -29.5 169t-80 111.5
t-112.5 39.5q-55 0 -98.5 -31.5t-68.5 -89.5t-25 -137q0 -97 30 -169t81.5 -112t113.5 -40zM317 710l45 152h74q5 -15 4.5 -31t-16.5 -32l-90 -89h-17zM444 710l59 152h75q4 -15 4.5 -31.5t-16.5 -31.5l-104 -89h-18z" />
    <glyph glyph-name="ohungarumlaut" unicode="&#x151;" horiz-adv-x="544" 
d="M272 -10q-68 0 -120.5 32t-81.5 85.5t-29 119.5t29 119.5t81.5 85.5t120.5 32q69 0 121 -32t81 -85.5t29 -119.5t-29 -119.5t-81 -85.5t-121 -32zM284 37q34 0 55.5 24t31.5 63t10 83q0 54 -12.5 102.5t-38.5 78.5t-68 30q-34 0 -56 -24t-32.5 -63t-10.5 -83
q0 -54 12.5 -102t39.5 -78.5t69 -30.5zM191 530l46 177h74q5 -15 3 -30t-15 -33l-90 -114h-18zM319 530l59 177h74q5 -15 4.5 -30.5t-16.5 -32.5l-104 -114h-17z" />
    <glyph glyph-name="uni0152" unicode="&#x152;" horiz-adv-x="1029" 
d="M419 0q-114 0 -195 40t-123.5 112t-42.5 170q0 101 48 177t131 118.5t189 42.5h516v-173h-16l-69 118h-228v-237h161l53 85h16v-223h-16l-53 83h-161v-258h253l72 140h16v-195h-551zM448 55h55v550h-68q-116 0 -181 -73.5t-65 -197.5q0 -127 66 -203t193 -76z" />
    <glyph glyph-name="oe" unicode="&#x153;" horiz-adv-x="839" 
d="M272 -10q-68 0 -120.5 32t-81.5 85.5t-29 119.5t29 119.5t81.5 85.5t120.5 32q57 0 102.5 -22.5t76.5 -60.5q32 39 77 61t96 22q80 0 125 -55t46 -155l-4 -5h-288q0 -45 16.5 -82.5t52 -60t94.5 -22.5q28 0 60 8t67 27h3v-14q-24 -49 -73 -82t-115 -33q-55 0 -97.5 18.5
t-70.5 51.5q-31 -32 -73.5 -51t-94.5 -19zM604 419q-40 0 -66 -33t-33 -92h193q-8 69 -32 97t-62 28zM284 37q34 0 55.5 24t31.5 63t10 83q0 54 -12.5 102.5t-38.5 78.5t-68 30q-34 0 -56 -24t-32.5 -63t-10.5 -83q0 -54 12.5 -102t39.5 -78.5t69 -30.5z" />
    <glyph glyph-name="uni0154" unicode="&#x154;" horiz-adv-x="700" 
d="M52 0v16l84 41v546l-84 41v16h308q105 0 165.5 -43.5t60.5 -119.5q0 -56 -37.5 -97.5t-98.5 -64.5l187 -281l70 -38v-16h-187l-189 305h-70v-247l75 -42v-16h-284zM312 605h-51v-249h57q62 0 100.5 35t38.5 91q0 58 -38 90.5t-107 32.5zM322 710l85 152h98q0 -17 -7 -34
t-30 -33l-128 -85h-18z" />
    <glyph glyph-name="racute" unicode="&#x155;" horiz-adv-x="413" 
d="M41 0v16l65 32v298l-62 49v10l158 59h9l9 -88h5q24 38 43 57t36.5 25t35.5 6q8 0 18 -3t18 -6q30 -10 30 -28q0 -8 -3 -17l-23 -59h-7l-31 12q-14 5 -24.5 6.5t-23.5 1.5q-42 0 -73 -41v-282l77 -32v-16h-257zM231 530l85 177h98q0 -17 -7.5 -32.5t-29.5 -34.5l-128 -110
h-18z" />
    <glyph glyph-name="uni0156" unicode="&#x156;" horiz-adv-x="700" 
d="M52 0v16l84 41v546l-84 41v16h308q105 0 165.5 -43.5t60.5 -119.5q0 -56 -37.5 -97.5t-98.5 -64.5l187 -281l70 -38v-16h-187l-189 305h-70v-247l75 -42v-16h-284zM312 605h-51v-249h57q62 0 100.5 35t38.5 91q0 58 -38 90.5t-107 32.5zM352 -239q-8 0 -17.5 0.5
t-16.5 2.5v18q7 -2 14.5 -3t12.5 -1q25 0 39 9t14 27q0 23 -19.5 31t-61.5 8v49q0 9 8.5 15t32.5 6q52 0 78.5 -20.5t26.5 -58.5q0 -40 -31 -61.5t-80 -21.5z" />
    <glyph glyph-name="uni0157" unicode="&#x157;" horiz-adv-x="413" 
d="M41 0v16l65 32v298l-62 49v10l158 59h9l9 -88h5q24 38 43 57t36.5 25t35.5 6q8 0 18 -3t18 -6q30 -10 30 -28q0 -8 -3 -17l-23 -59h-7l-31 12q-14 5 -24.5 6.5t-23.5 1.5q-42 0 -73 -41v-282l77 -32v-16h-257zM126 -239q-8 0 -17.5 0.5t-16.5 2.5v18q7 -2 14.5 -3
t12.5 -1q25 0 39 9t14 27q0 23 -19.5 31t-61.5 8v49q0 9 8.5 15t32.5 6q52 0 78.5 -20.5t26.5 -58.5q0 -40 -31 -61.5t-80 -21.5z" />
    <glyph glyph-name="uni0158" unicode="&#x158;" horiz-adv-x="700" 
d="M52 0v16l84 41v546l-84 41v16h308q105 0 165.5 -43.5t60.5 -119.5q0 -56 -37.5 -97.5t-98.5 -64.5l187 -281l70 -38v-16h-187l-189 305h-70v-247l75 -42v-16h-284zM312 605h-51v-249h57q62 0 100.5 35t38.5 91q0 58 -38 90.5t-107 32.5zM311 710l-134 152h17l137 -68
l137 68h17l-134 -152h-40z" />
    <glyph glyph-name="rcaron" unicode="&#x159;" horiz-adv-x="413" 
d="M41 0v16l65 32v298l-62 49v10l158 59h9l9 -88h5q24 38 43 57t36.5 25t35.5 6q8 0 18 -3t18 -6q30 -10 30 -28q0 -8 -3 -17l-23 -59h-7l-31 12q-14 5 -24.5 6.5t-23.5 1.5q-42 0 -73 -41v-282l77 -32v-16h-257zM217 530l-134 177h17l137 -88l137 88h17l-134 -177h-40z" />
    <glyph glyph-name="uni015A" unicode="&#x15a;" horiz-adv-x="555" 
d="M268 -10q-64 0 -111.5 12.5t-94.5 36.5l-10 167h18l61 -115q62 -51 130 -51q56 0 90 27.5t34 78.5q0 38 -17.5 61.5t-53.5 43t-94 45.5q-70 34 -108 73.5t-38 106.5q0 38 19 73t50.5 62t71 43t81.5 16q50 0 93.5 -11.5t83.5 -32.5l10 -160h-17l-61 110q-29 22 -54 33
t-57 11q-42 0 -69.5 -28t-27.5 -71q0 -45 30 -72.5t100 -60.5q61 -28 100 -55t58 -61t19 -84q0 -48 -20.5 -84.5t-55 -62t-76.5 -38.5t-84 -13zM280 710l85 152h98q0 -17 -7 -34t-30 -33l-128 -85h-18z" />
    <glyph glyph-name="sacute" unicode="&#x15b;" horiz-adv-x="435" 
d="M211 -10q-49 0 -84 9t-70 26v115h14l34 -54q35 -55 102 -55q39 0 60 16.5t21 45.5q0 25 -12 39.5t-37.5 26.5t-64.5 29q-54 23 -81 52.5t-27 76.5q0 41 21.5 74.5t58 53t79.5 19.5q35 0 67 -8t64 -24v-115h-15l-32 49q-35 55 -84 55q-31 0 -50.5 -15.5t-19.5 -44.5
t21.5 -46t77.5 -40q28 -13 56 -27t46.5 -40t18.5 -73q0 -46 -24.5 -78.5t-62.5 -49.5t-77 -17zM212 530l85 177h98q0 -17 -7.5 -32.5t-29.5 -34.5l-128 -110h-18z" />
    <glyph glyph-name="uni015C" unicode="&#x15c;" horiz-adv-x="555" 
d="M268 -10q-64 0 -111.5 12.5t-94.5 36.5l-10 167h18l61 -115q62 -51 130 -51q56 0 90 27.5t34 78.5q0 38 -17.5 61.5t-53.5 43t-94 45.5q-70 34 -108 73.5t-38 106.5q0 38 19 73t50.5 62t71 43t81.5 16q50 0 93.5 -11.5t83.5 -32.5l10 -160h-17l-61 110q-29 22 -54 33
t-57 11q-42 0 -69.5 -28t-27.5 -71q0 -45 30 -72.5t100 -60.5q61 -28 100 -55t58 -61t19 -84q0 -48 -20.5 -84.5t-55 -62t-76.5 -38.5t-84 -13zM134 710l134 152h40l134 -152h-17l-137 68l-137 -68h-17z" />
    <glyph glyph-name="scircumflex" unicode="&#x15d;" horiz-adv-x="435" 
d="M211 -10q-49 0 -84 9t-70 26v115h14l34 -54q35 -55 102 -55q39 0 60 16.5t21 45.5q0 25 -12 39.5t-37.5 26.5t-64.5 29q-54 23 -81 52.5t-27 76.5q0 41 21.5 74.5t58 53t79.5 19.5q35 0 67 -8t64 -24v-115h-15l-32 49q-35 55 -84 55q-31 0 -50.5 -15.5t-19.5 -44.5
t21.5 -46t77.5 -40q28 -13 56 -27t46.5 -40t18.5 -73q0 -46 -24.5 -78.5t-62.5 -49.5t-77 -17zM64 530l134 177h40l134 -177h-17l-137 88l-137 -88h-17z" />
    <glyph glyph-name="uni015E" unicode="&#x15e;" horiz-adv-x="555" 
d="M280 -240q-55 0 -82 26v16h3q13 -6 28 -8.5t32 -2.5q29 0 41.5 10.5t12.5 27.5q0 22 -20 36.5t-79 31.5l43 93q-60 1 -105.5 13.5t-91.5 35.5l-10 167h18l61 -115q62 -51 130 -51q56 0 90 27.5t34 78.5q0 38 -17.5 61.5t-53.5 43t-94 45.5q-70 34 -108 73.5t-38 106.5
q0 38 19 73t50.5 62t71 43t81.5 16q50 0 93.5 -11.5t83.5 -32.5l10 -160h-17l-58 108q-30 23 -55.5 34.5t-58.5 11.5q-42 0 -69.5 -28t-27.5 -71q0 -45 30 -72.5t100 -60.5q61 -28 100 -55t58 -61t19 -84q0 -58 -30 -100t-78 -66.5t-100 -30.5l-18 -39q58 -17 81 -40t23 -63
q0 -38 -27 -63.5t-75 -25.5z" />
    <glyph glyph-name="scedilla" unicode="&#x15f;" horiz-adv-x="435" 
d="M216 -240q-55 0 -82 26v16h4q12 -6 27 -8.5t32 -2.5q29 0 42 10.5t13 27.5q0 22 -20.5 36.5t-79.5 31.5l43 93q-42 2 -74 10.5t-64 24.5v115h14l34 -54q35 -55 102 -55q39 0 60 16.5t21 45.5q0 25 -12 39.5t-37.5 26.5t-64.5 29q-54 23 -81 52.5t-27 76.5q0 41 21.5 74.5
t58 53t79.5 19.5q35 0 67 -8t64 -24v-115h-15l-32 49q-35 55 -84 55q-31 0 -50.5 -15.5t-19.5 -44.5t21.5 -46t77.5 -40q28 -13 56 -27t46.5 -40t18.5 -73q0 -42 -20.5 -72.5t-53 -48.5t-68.5 -23l-18 -38q57 -18 80 -41t23 -63q0 -38 -27 -63.5t-75 -25.5z" />
    <glyph glyph-name="uni0160" unicode="&#x160;" horiz-adv-x="555" 
d="M268 -10q-64 0 -111.5 12.5t-94.5 36.5l-10 167h18l61 -115q62 -51 130 -51q56 0 90 27.5t34 78.5q0 38 -17.5 61.5t-53.5 43t-94 45.5q-70 34 -108 73.5t-38 106.5q0 38 19 73t50.5 62t71 43t81.5 16q50 0 93.5 -11.5t83.5 -32.5l10 -160h-17l-61 110q-29 22 -54 33
t-57 11q-42 0 -69.5 -28t-27.5 -71q0 -45 30 -72.5t100 -60.5q61 -28 100 -55t58 -61t19 -84q0 -48 -20.5 -84.5t-55 -62t-76.5 -38.5t-84 -13zM268 710l-134 152h17l137 -68l137 68h17l-134 -152h-40z" />
    <glyph glyph-name="scaron" unicode="&#x161;" horiz-adv-x="435" 
d="M211 -10q-49 0 -84 9t-70 26v115h14l34 -54q35 -55 102 -55q39 0 60 16.5t21 45.5q0 25 -12 39.5t-37.5 26.5t-64.5 29q-54 23 -81 52.5t-27 76.5q0 41 21.5 74.5t58 53t79.5 19.5q35 0 67 -8t64 -24v-115h-15l-32 49q-35 55 -84 55q-31 0 -50.5 -15.5t-19.5 -44.5
t21.5 -46t77.5 -40q28 -13 56 -27t46.5 -40t18.5 -73q0 -46 -24.5 -78.5t-62.5 -49.5t-77 -17zM198 530l-134 177h17l137 -88l137 88h17l-134 -177h-40z" />
    <glyph glyph-name="uni0162" unicode="&#x162;" horiz-adv-x="690" 
d="M178 0v16l104 41v548h-151l-75 -157h-16v212h610v-212h-16l-75 157h-151v-548l103 -41v-16h-147l-22 -48q57 -17 80 -40t23 -63q0 -38 -26.5 -63.5t-74.5 -25.5q-55 0 -82 26v16h3q13 -6 28 -8.5t32 -2.5q28 0 41 10.5t13 27.5q0 22 -20 36.5t-79 31.5l48 103h-150z" />
    <glyph glyph-name="uni0163" unicode="&#x163;" horiz-adv-x="373" 
d="M204 -240q-55 0 -82 26v16h4q12 -6 27 -8.5t32 -2.5q29 0 42 10.5t13 27.5q0 22 -20.5 36.5t-79.5 31.5l44 96q-42 6 -68.5 31t-26.5 65v319h-76v10l90 36l88 110h14v-110h136v-46h-136v-297q0 -25 22 -37.5t53 -12.5q19 0 34.5 2t28.5 5l3 -1v-14q-14 -23 -48 -43
t-78 -20l-17 -37q57 -18 80 -41t23 -63q0 -38 -27 -63.5t-75 -25.5z" />
    <glyph glyph-name="uni0164" unicode="&#x164;" horiz-adv-x="690" 
d="M178 0v16l104 41v548h-151l-75 -157h-16v212h610v-212h-16l-75 157h-151v-548l103 -41v-16h-333zM325 710l-134 152h17l137 -68l137 68h17l-134 -152h-40z" />
    <glyph glyph-name="tcaron" unicode="&#x165;" horiz-adv-x="373" 
d="M216 -10q-54 0 -90.5 26t-36.5 73v319h-76v10l90 36l88 110h14v-110h136v-46h-136v-297q0 -25 22 -37.5t53 -12.5q19 0 34.5 2t28.5 5l3 -1v-14q-14 -23 -49 -43t-81 -20zM273 553l18 187h89q3 -14 2.5 -29.5t-13.5 -35.5l-79 -122h-17z" />
    <glyph glyph-name="uni0166" unicode="&#x166;" horiz-adv-x="690" 
d="M178 0v16l104 41v259h-125v52h125v237h-151l-75 -157h-16v212h610v-212h-16l-75 157h-151v-237h124v-52h-124v-259l103 -41v-16h-333z" />
    <glyph glyph-name="tbar" unicode="&#x167;" horiz-adv-x="373" 
d="M216 -10q-54 0 -90.5 26t-36.5 73v148h-72v48h72v123h-76v10l90 36l88 110h14v-110h136v-46h-136v-123h126v-48h-126v-126q0 -25 22 -37.5t53 -12.5q19 0 34.5 2t28.5 5l3 -1v-14q-14 -23 -49 -43t-81 -20z" />
    <glyph glyph-name="uni0168" unicode="&#x168;" horiz-adv-x="826" 
d="M416 -10q-82 0 -145 28t-99 90t-36 164v331l-84 41v16h293v-16l-83 -41v-325q0 -82 26 -130.5t69.5 -69t97.5 -20.5q44 0 81.5 18.5t60.5 59t23 107.5v362l-96 39v16h249v-16l-83 -40v-332q0 -102 -35 -164t-97 -90t-142 -28zM279 724q16 50 31.5 76t32 35.5t37.5 9.5
q28 0 51.5 -13.5t45.5 -26.5t44 -13q18 0 32 10t27 43h19q-16 -51 -31.5 -77t-32 -35t-37.5 -9q-28 0 -51.5 13t-45.5 26t-44 13q-18 0 -32 -9.5t-27 -42.5h-19z" />
    <glyph glyph-name="utilde" unicode="&#x169;" horiz-adv-x="578" 
d="M221 -10q-59 0 -97.5 30.5t-38.5 90.5v295l-65 32v16h181v-300q0 -39 23 -59t60 -20q22 0 47.5 8t42.5 22v301l-65 32v16h181v-408l66 -30v-16h-182v63h-4q-37 -36 -71 -54.5t-78 -18.5zM124 552q19 58 34.5 86t31.5 37t36 9t38.5 -9.5t35.5 -22.5t33 -22.5t32 -9.5
q18 0 31 12.5t29 51.5h19q-19 -58 -34.5 -86t-31.5 -37t-36 -9t-38.5 9.5t-35.5 22.5t-33 22.5t-32 9.5q-18 0 -31 -12.5t-29 -51.5h-19z" />
    <glyph glyph-name="uni016A" unicode="&#x16a;" horiz-adv-x="826" 
d="M416 -10q-82 0 -145 28t-99 90t-36 164v331l-84 41v16h293v-16l-83 -41v-325q0 -82 26 -130.5t69.5 -69t97.5 -20.5q44 0 81.5 18.5t60.5 59t23 107.5v362l-96 39v16h249v-16l-83 -40v-332q0 -102 -35 -164t-97 -90t-142 -28zM299 760v55h280v-55h-280z" />
    <glyph glyph-name="umacron" unicode="&#x16b;" horiz-adv-x="578" 
d="M221 -10q-59 0 -97.5 30.5t-38.5 90.5v295l-65 32v16h181v-300q0 -39 23 -59t60 -20q22 0 47.5 8t42.5 22v301l-65 32v16h181v-408l66 -30v-16h-182v63h-4q-37 -36 -71 -54.5t-78 -18.5zM144 589v56h280v-56h-280z" />
    <glyph glyph-name="uni016C" unicode="&#x16c;" horiz-adv-x="826" 
d="M416 -10q-82 0 -145 28t-99 90t-36 164v331l-84 41v16h293v-16l-83 -41v-325q0 -82 26 -130.5t69.5 -69t97.5 -20.5q44 0 81.5 18.5t60.5 59t23 107.5v362l-96 39v16h249v-16l-83 -40v-332q0 -102 -35 -164t-97 -90t-142 -28zM439 710q-69 0 -103 39.5t-51 112.5h17
q25 -50 56 -64.5t81 -14.5t80.5 14.5t56.5 64.5h17q-18 -73 -53.5 -112.5t-100.5 -39.5z" />
    <glyph glyph-name="ubreve" unicode="&#x16d;" horiz-adv-x="578" 
d="M221 -10q-59 0 -97.5 30.5t-38.5 90.5v295l-65 32v16h181v-300q0 -39 23 -59t60 -20q22 0 47.5 8t42.5 22v301l-65 32v16h181v-408l66 -30v-16h-182v63h-4q-37 -36 -71 -54.5t-78 -18.5zM284 540q-69 0 -102 41.5t-52 125.5h17q19 -42 39.5 -62t44 -26t53.5 -6t53.5 6
t43.5 26t40 62h17q-20 -84 -54.5 -125.5t-99.5 -41.5z" />
    <glyph glyph-name="uni016E" unicode="&#x16e;" horiz-adv-x="826" 
d="M416 -10q-82 0 -145 28t-99 90t-36 164v331l-84 41v16h293v-16l-83 -41v-325q0 -82 26 -130.5t69.5 -69t97.5 -20.5q44 0 81.5 18.5t60.5 59t23 107.5v362l-96 39v16h249v-16l-83 -40v-332q0 -102 -35 -164t-97 -90t-142 -28zM439 710q-39 0 -63.5 23.5t-24.5 60.5
q0 36 24.5 60t63.5 24t63.5 -24t24.5 -60t-24 -60t-64 -24zM444 734q31 0 31 53q0 67 -40 67q-31 0 -31 -53q0 -67 40 -67z" />
    <glyph glyph-name="uring" unicode="&#x16f;" horiz-adv-x="578" 
d="M221 -10q-59 0 -97.5 30.5t-38.5 90.5v295l-65 32v16h181v-300q0 -39 23 -59t60 -20q22 0 47.5 8t42.5 22v301l-65 32v16h181v-408l66 -30v-16h-182v63h-4q-37 -36 -71 -54.5t-78 -18.5zM284 702q39 0 63.5 -24t24.5 -60t-24 -60t-64 -24q-39 0 -63.5 23.5t-24.5 60.5
q0 36 24.5 60t63.5 24zM280 678q-31 0 -31 -53q0 -67 40 -67q31 0 31 53q0 67 -40 67z" />
    <glyph glyph-name="uni0170" unicode="&#x170;" horiz-adv-x="826" 
d="M416 -10q-82 0 -145 28t-99 90t-36 164v331l-84 41v16h293v-16l-83 -41v-325q0 -82 26 -130.5t69.5 -69t97.5 -20.5q44 0 81.5 18.5t60.5 59t23 107.5v362l-96 39v16h249v-16l-83 -40v-332q0 -102 -35 -164t-97 -90t-142 -28zM367 710l45 152h74q5 -15 4.5 -31t-16.5 -32
l-90 -89h-17zM494 710l59 152h75q4 -15 4.5 -31.5t-16.5 -31.5l-104 -89h-18z" />
    <glyph glyph-name="uhungarumlaut" unicode="&#x171;" horiz-adv-x="578" 
d="M221 -10q-59 0 -97.5 30.5t-38.5 90.5v295l-65 32v16h181v-300q0 -39 23 -59t60 -20q22 0 47.5 8t42.5 22v301l-65 32v16h181v-408l66 -30v-16h-182v63h-4q-37 -36 -71 -54.5t-78 -18.5zM205 530l46 177h74q5 -15 3 -30t-15 -33l-90 -114h-18zM333 530l59 177h74
q5 -15 4.5 -30.5t-16.5 -32.5l-104 -114h-17z" />
    <glyph glyph-name="uni0172" unicode="&#x172;" horiz-adv-x="826" 
d="M434 -240q-45 0 -72.5 24t-27.5 65q0 34 21 68t56 73q-81 1 -143 29.5t-97 90t-35 162.5v331l-84 41v16h293v-16l-83 -41v-325q0 -82 26 -130.5t69.5 -69t97.5 -20.5q44 0 81.5 18.5t60.5 59t23 107.5v362l-96 39v16h249v-16l-83 -40v-332q0 -95 -31 -155.5t-85.5 -90.5
t-127.5 -35q-37 -64 -37 -119q0 -63 61 -63q11 0 24 3.5t24 10.5h4v-15q-14 -22 -36 -35t-52 -13z" />
    <glyph glyph-name="uogonek" unicode="&#x173;" horiz-adv-x="578" 
d="M221 -10q-59 0 -97.5 30.5t-38.5 90.5v295l-65 32v16h181v-300q0 -39 23 -59t60 -20q22 0 47.5 8t42.5 22v301l-65 32v16h181v-408l66 -30v-16h-92q-43 -70 -43 -128q0 -63 61 -63q11 0 24 3.5t24 10.5h3v-15q-13 -22 -35 -35t-52 -13q-45 0 -72.5 24t-27.5 65
q0 36 24 72.5t62 78.5h-58v63h-4q-37 -36 -71 -54.5t-78 -18.5z" />
    <glyph glyph-name="uni0174" unicode="&#x174;" horiz-adv-x="1017" 
d="M278 -5l-189 611l-76 38v16h290v-16l-84 -38l119 -404h4l174 463h50l175 -463h5l119 404l-85 38v16h224v-16l-67 -35l-192 -614h-49l-180 463h-6l-184 -463h-48zM388 710l134 152h40l134 -152h-17l-137 68l-137 -68h-17z" />
    <glyph glyph-name="wcircumflex" unicode="&#x175;" horiz-adv-x="738" 
d="M195 0l-161 409l-64 29v16h264v-16l-74 -30v-4l92 -246h5l126 296h31l129 -294h4l92 239v5l-67 34v16h196v-16l-71 -35l-172 -403h-31l-132 293l-136 -293h-31zM245 530l134 177h40l134 -177h-17l-137 88l-137 -88h-17z" />
    <glyph glyph-name="uni0176" unicode="&#x176;" horiz-adv-x="739" 
d="M221 0v16l90 41v251l-220 300l-65 36v16h282v-16l-75 -36v-4l176 -239l159 237v4l-76 38v16h221v-16l-64 -33l-212 -302v-252l89 -41v-16h-305zM244 710l134 152h40l134 -152h-17l-137 68l-137 -68h-17z" />
    <glyph glyph-name="ycircumflex" unicode="&#x177;" horiz-adv-x="478" 
d="M83 -241q-23 0 -28.5 6.5t-5.5 22.5v61l5 5h45q25 0 40 4t27.5 21t29.5 55l29 68l-192 407l-64 29v16h261v-16l-70 -30v-4l120 -255h6l95 250v5l-66 34v16h193v-16l-72 -34l-199 -483q-9 -23 -15.5 -38.5t-14.5 -30t-23 -35.5q-20 -29 -48 -43.5t-53 -14.5zM120 530
l134 177h40l134 -177h-17l-137 88l-137 -88h-17z" />
    <glyph glyph-name="uni0178" unicode="&#x178;" horiz-adv-x="739" 
d="M221 0v16l90 41v251l-220 300l-65 36v16h282v-16l-75 -36v-4l176 -239l159 237v4l-76 38v16h221v-16l-64 -33l-212 -302v-252l89 -41v-16h-305zM303 731q-24 0 -39.5 16t-15.5 39q0 22 15.5 38t39.5 16q23 0 38.5 -16t15.5 -38q0 -23 -15.5 -39t-38.5 -16zM495 731
q-24 0 -39 16t-15 39q0 22 15 38t39 16t39 -16t15 -38q0 -23 -15 -39t-39 -16z" />
    <glyph glyph-name="uni0179" unicode="&#x179;" horiz-adv-x="678" 
d="M86 0v29l341 576h-243l-70 -140h-16v195h483v-29l-342 -576h265l72 150h16v-205h-506zM337 710l85 152h98q0 -17 -7 -34t-30 -33l-128 -85h-18z" />
    <glyph glyph-name="zacute" unicode="&#x17a;" horiz-adv-x="494" 
d="M60 0v19l219 389h-152l-51 -106h-17l11 162h5q13 -4 32.5 -7t35.5 -3h280v-20l-219 -388h167l43 112h17v-158h-371zM246 530l85 177h98q0 -17 -7.5 -32.5t-29.5 -34.5l-128 -110h-18z" />
    <glyph glyph-name="uni017B" unicode="&#x17b;" horiz-adv-x="678" 
d="M86 0v29l341 576h-243l-70 -140h-16v195h483v-29l-342 -576h265l72 150h16v-205h-506zM346 723q-28 0 -48 19.5t-20 48.5t20 48t48 19t48 -19t20 -48t-20 -48.5t-48 -19.5z" />
    <glyph glyph-name="zdotaccent" unicode="&#x17c;" horiz-adv-x="494" 
d="M60 0v19l219 389h-152l-51 -106h-17l11 162h5q13 -4 32.5 -7t35.5 -3h280v-20l-219 -388h167l43 112h17v-158h-371zM251 550q-28 0 -48 20t-20 48t20 48t48 20t48 -20t20 -48t-20 -48t-48 -20z" />
    <glyph glyph-name="uni017D" unicode="&#x17d;" horiz-adv-x="678" 
d="M86 0v29l341 576h-243l-70 -140h-16v195h483v-29l-342 -576h265l72 150h16v-205h-506zM326 710l-134 152h17l137 -68l137 68h17l-134 -152h-40z" />
    <glyph glyph-name="zcaron" unicode="&#x17e;" horiz-adv-x="494" 
d="M60 0v19l219 389h-152l-51 -106h-17l11 162h5q13 -4 32.5 -7t35.5 -3h280v-20l-219 -388h167l43 112h17v-158h-371zM232 530l-134 177h17l137 -88l137 88h17l-134 -177h-40z" />
    <glyph glyph-name="longs" unicode="&#x17f;" horiz-adv-x="359" 
d="M44 0v16l65 32v360h-77v46h77v34q0 20 12 52t34.5 68.5t53.5 68.5t69 52.5t82 20.5q10 0 21 -3t19 -7q26 -11 26 -26q0 -10 -5 -19l-24 -52h-8l-22 9q-16 8 -30.5 11.5t-32.5 3.5q-48 0 -64 -34t-16 -110v-476l75 -31v-16h-255z" />
    <glyph glyph-name="uni018F" unicode="&#x18f;" horiz-adv-x="689" 
d="M312 -10q-118 0 -185.5 79.5t-68.5 222.5l7 7h438v10q0 119 -53.5 186.5t-172.5 67.5q-58 0 -111 -18.5t-104 -52.5h-4v27q34 65 104.5 108t164.5 43q95 0 163 -38.5t105 -108.5t37 -164q0 -108 -41.5 -191.5t-114 -130.5t-164.5 -47zM332 48q75 0 117 51t51 149h-322
q9 -95 48.5 -147.5t105.5 -52.5z" />
    <glyph glyph-name="florin" unicode="&#x192;" horiz-adv-x="536" 
d="M2 -151q-15 0 -28 3t-22 7q-28 10 -28 25q0 4 1 8t3 9l26 51h6l24 -15q13 -7 26.5 -13t31.5 -6q22 0 35 9t22 37t20 84l54 266h-104l4 40h109l11 56q7 33 27.5 77t53 86t76 69.5t95.5 27.5q11 0 24 -3t22 -6q33 -11 33 -28q0 -8 -4 -17l-23 -48h-7l-24 12
q-18 10 -32.5 15t-34.5 5q-23 0 -38.5 -12.5t-27.5 -45t-24 -92.5l-19 -96h169l-4 -40h-173l-47 -230q-8 -38 -29.5 -79t-53 -76.5t-70 -57.5t-80.5 -22z" />
    <glyph glyph-name="uni01A0" unicode="&#x1a0;" horiz-adv-x="796" 
d="M398 -10q-73 0 -135 25.5t-108 71t-71.5 107.5t-25.5 136t25.5 136t71.5 107.5t108 71t135 25.5q45 0 87 -10v0v0q25 -6 48 -15q15 -3 29 -3q34 0 48 15t14 41v49l6 6h49q16 0 21.5 -5.5t5.5 -25.5q0 -48 -33 -75.5t-85 -27.5h-4q71 -44 113 -119.5t42 -169.5
q0 -74 -25.5 -136t-71.5 -107.5t-108 -71t-136 -25.5zM416 41q56 0 98.5 32t66.5 90t24 137q0 97 -29.5 169t-80 111.5t-112.5 39.5q-55 0 -98.5 -31.5t-68.5 -89.5t-25 -137q0 -97 30 -169t81.5 -112t113.5 -40z" />
    <glyph glyph-name="ohorn" unicode="&#x1a1;" horiz-adv-x="544" 
d="M272 -10q-68 0 -120.5 32t-81.5 85.5t-29 119.5t29 119.5t81.5 85.5t120.5 32q58 0 107 -24q12 -4 23 -5.5t20 -1.5q30 0 42 14.5t12 40.5v49l6 6h49q16 0 21.5 -5.5t5.5 -25.5q0 -45 -31 -74t-80 -29q-13 0 -23 1q37 -33 58 -80t21 -103q0 -66 -29 -119.5t-81 -85.5
t-121 -32zM284 37q34 0 55.5 24t31.5 63t10 83q0 54 -12.5 102.5t-38.5 78.5t-68 30q-34 0 -56 -24t-32.5 -63t-10.5 -83q0 -54 12.5 -102t39.5 -78.5t69 -30.5z" />
    <glyph glyph-name="uni01AF" unicode="&#x1af;" horiz-adv-x="826" 
d="M416 -10q-82 0 -145 28t-99 90t-36 164v331l-84 41v16h293v-16l-83 -41v-325q0 -82 26 -130.5t69.5 -69t97.5 -20.5q44 0 81.5 18.5t60.5 59t23 107.5v362l-96 39v16h249q34 0 47.5 12t13.5 37v38l6 6h49q16 0 21.5 -5.5t5.5 -25.5q0 -45 -32.5 -65t-85.5 -20h-40
l-68 -33v-332q0 -102 -35 -164t-97 -90t-142 -28z" />
    <glyph glyph-name="uhorn" unicode="&#x1b0;" horiz-adv-x="578" 
d="M221 -10q-59 0 -97.5 30.5t-38.5 90.5v295l-65 32v16h181v-300q0 -39 23 -59t60 -20q22 0 47.5 8t42.5 22v301l-65 32v16h181v-18q15 -3 29 -3q31 0 43 14.5t12 40.5v49l6 6h49q16 0 21.5 -5.5t5.5 -25.5q0 -45 -31 -74t-80 -29q-15 0 -28.5 1.5t-26.5 4.5v-369l66 -30
v-16h-182v63h-4q-37 -36 -71 -54.5t-78 -18.5z" />
    <glyph glyph-name="uni01C4" unicode="&#x1c4;" horiz-adv-x="1456" 
d="M52 0v16l84 41v546l-84 41v16h322q115 0 195.5 -39t123 -107t42.5 -154q0 -78 -27.5 -144t-77 -114t-117 -75t-146.5 -27h-315zM340 605h-79v-550h94q79 0 134.5 33.5t85 95t29.5 145.5q0 126 -67.5 201t-196.5 75zM864 0v29l341 576h-243l-70 -140h-16v195h483v-29
l-342 -576h265l72 150h16v-205h-506zM1104 710l-134 152h17l137 -68l137 68h17l-134 -152h-40z" />
    <glyph glyph-name="uni01C5" unicode="&#x1c5;" horiz-adv-x="1285" 
d="M52 0v16l84 41v546l-84 41v16h322q115 0 195.5 -39t123 -107t42.5 -154q0 -78 -27.5 -144t-77 -114t-117 -75t-146.5 -27h-315zM340 605h-79v-550h94q79 0 134.5 33.5t85 95t29.5 145.5q0 126 -67.5 201t-196.5 75zM851 0v19l219 389h-152l-51 -106h-17l11 162h5
q13 -4 32.5 -7t35.5 -3h280v-20l-219 -388h167l43 112h17v-158h-371zM1023 530l-134 177h17l137 -88l137 88h17l-134 -177h-40z" />
    <glyph glyph-name="uni01C6" unicode="&#x1c6;" horiz-adv-x="1067" 
d="M208 -10q-48 0 -86.5 25t-61.5 71t-23 108q0 84 31.5 144.5t85.5 93t121 32.5q49 0 84 -9v181l-67 50v9l173 55h9v-705l71 -29v-16h-176l-8 50h-7q-38 -32 -72 -46t-74 -14zM153 222q0 -80 38 -117.5t88 -37.5q40 0 80 24v285q-18 17 -37.5 26.5t-43.5 9.5
q-34 0 -62 -17.5t-45.5 -59t-17.5 -113.5zM633 0v19l219 389h-152l-51 -106h-17l11 162h5q13 -4 32.5 -7t35.5 -3h280v-20l-219 -388h167l43 112h17v-158h-371zM805 530l-134 177h17l137 -88l137 88h17l-134 -177h-40z" />
    <glyph glyph-name="uni01C7" unicode="&#x1c7;" horiz-adv-x="1053" 
d="M52 0v16l84 41v546l-84 41v16h303v-16l-94 -41v-548h230l76 180h16v-235h-531zM691 -173q-13 0 -22.5 6.5t-9.5 21.5q0 7 2.5 20.5t9.5 46.5h7q16 -4 25 -6.5t21 -2.5q20 0 34.5 9t22 38.5t7.5 89.5v553l-83 41v16h292v-16l-83 -41v-360q0 -76 -14 -141t-37 -115t-50 -80
q-39 -43 -65 -61.5t-57 -18.5z" />
    <glyph glyph-name="uni01C8" unicode="&#x1c8;" horiz-adv-x="966" 
d="M52 0v16l84 41v546l-84 41v16h303v-16l-94 -41v-548h230l76 180h16v-235h-531zM803 571q-29 0 -48 19.5t-19 48.5t19 48t48 19t48.5 -19t19.5 -48t-19.5 -48.5t-48.5 -19.5zM685 -230v17q25 22 38.5 44.5t19 53.5t5.5 78v387l-62 48v11l168 55h10v-450q0 -56 -15.5 -99
t-54.5 -78t-109 -67z" />
    <glyph glyph-name="uni01C9" unicode="&#x1c9;" horiz-adv-x="636" 
d="M35 0v16l66 32v588l-63 49v10l169 55h9v-702l61 -32v-16h-242zM474 571q-29 0 -48 19.5t-19 48.5t19 48t48 19t48.5 -19t19.5 -48t-19.5 -48.5t-48.5 -19.5zM356 -230v17q25 22 38.5 44.5t19 53.5t5.5 78v387l-62 48v11l168 55h10v-450q0 -56 -15.5 -99t-54.5 -78
t-109 -67z" />
    <glyph glyph-name="uni01CA" unicode="&#x1ca;" horiz-adv-x="1216" 
d="M49 0v16l83 41v545l-82 42v16h172l386 -456v401l-108 39v16h260v-16l-82 -40v-609h-52l-424 498v-437l109 -40v-16h-262zM855 -173q-13 0 -22.5 6.5t-9.5 21.5q0 7 2.5 20.5t9.5 46.5h7q16 -4 25 -6.5t21 -2.5q20 0 34.5 9t22 38.5t7.5 89.5v553l-83 41v16h292v-16
l-83 -41v-360q0 -76 -14 -141t-37 -115t-50 -80q-39 -43 -65 -61.5t-57 -18.5z" />
    <glyph glyph-name="uni01CB" unicode="&#x1cb;" horiz-adv-x="1133" 
d="M49 0v16l83 41v545l-82 42v16h172l386 -456v401l-108 39v16h260v-16l-82 -40v-609h-52l-424 498v-437l109 -40v-16h-262zM970 571q-29 0 -48 19.5t-19 48.5t19 48t48 19t48.5 -19t19.5 -48t-19.5 -48.5t-48.5 -19.5zM852 -230v17q25 22 38.5 44.5t19 53.5t5.5 78v387
l-62 48v11l168 55h10v-450q0 -56 -15.5 -99t-54.5 -78t-109 -67z" />
    <glyph glyph-name="uni01CC" unicode="&#x1cc;" horiz-adv-x="924" 
d="M38 0v16l65 32v302l-62 45v10l158 59h10l9 -74h5q37 36 71.5 55t78.5 19q60 0 98.5 -31t38.5 -90v-295l65 -32v-16h-240v16l59 32v252q0 38 -23 58.5t-60 20.5q-23 0 -49 -8t-43 -22v-301l59 -32v-16h-240zM761 571q-29 0 -48 19.5t-19 48.5t19 48t48 19t48.5 -19
t19.5 -48t-19.5 -48.5t-48.5 -19.5zM643 -230v17q25 22 38.5 44.5t19 53.5t5.5 78v387l-62 48v11l168 55h10v-450q0 -56 -15.5 -99t-54.5 -78t-109 -67z" />
    <glyph glyph-name="uni01E6" unicode="&#x1e6;" horiz-adv-x="761" 
d="M398 -10q-72 0 -134 24t-108 68t-72 103t-26 129q0 77 29.5 142t80.5 113t117.5 74.5t140.5 26.5q53 0 90.5 -6t67 -17t58.5 -25l8 -171h-17l-82 130q-34 22 -61 31t-62 9q-68 0 -123 -35t-87 -97t-32 -143q0 -94 32.5 -161t87 -103t121.5 -36q23 0 48 2.5t50 9.5v178
l-89 44v16h287v-16l-73 -46v-160q-30 -26 -73 -44.5t-89.5 -29t-89.5 -10.5zM382 710l-134 152h17l137 -68l137 68h17l-134 -152h-40z" />
    <glyph glyph-name="gcaron" unicode="&#x1e7;" horiz-adv-x="543" 
d="M257 148q-46 0 -85 16q-15 -8 -21 -19.5t-6 -23.5q0 -26 18 -37.5t56 -11.5h115q76 0 112 -33.5t36 -98.5q0 -45 -30.5 -86t-86.5 -67.5t-133 -26.5q-97 0 -138.5 32t-41.5 80q0 37 18 63l65 42v4q-77 22 -77 93q0 43 27 70l56 31v6q-32 21 -51 53.5t-19 71.5
q0 44 24.5 80t66.5 56.5t95 20.5q25 0 51 -5.5t45 -14.5l153 10v-58l-98 7l-4 -3q18 -17 28.5 -42t10.5 -51q0 -45 -24.5 -80.5t-66.5 -56.5t-95 -21zM266 190q34 0 53.5 32t19.5 81q0 55 -24.5 87t-61.5 32q-38 0 -57.5 -32.5t-19.5 -80.5q0 -55 25 -87t65 -32zM131 -112
q0 -41 30 -68t81 -27q65 0 104 32.5t39 76.5q0 40 -21.5 56t-76.5 16h-95q-10 0 -19 1q-22 -15 -32 -36t-10 -51zM240 530l-134 177h17l137 -88l137 88h17l-134 -177h-40z" />
    <glyph glyph-name="uni01EA" unicode="&#x1ea;" horiz-adv-x="796" 
d="M414 -240q-45 0 -72.5 24t-27.5 65q0 34 21 68t56 73q-96 2 -171 46.5t-118.5 120.5t-43.5 173q0 74 25.5 136t71.5 107.5t108 71t135 25.5q74 0 136 -25.5t108 -71t71.5 -107.5t25.5 -136q0 -93 -40.5 -167.5t-111 -119.5t-161.5 -52q-37 -64 -37 -119q0 -63 61 -63
q11 0 24 3.5t24 10.5h4v-15q-14 -22 -36 -35t-52 -13zM416 41q56 0 98.5 32t66.5 90t24 137q0 97 -29.5 169t-80 111.5t-112.5 39.5q-55 0 -98.5 -31.5t-68.5 -89.5t-25 -137q0 -97 30 -169t81.5 -112t113.5 -40z" />
    <glyph glyph-name="uni01EB" unicode="&#x1eb;" horiz-adv-x="544" 
d="M291 -240q-45 0 -72.5 24t-27.5 65q0 34 21 68t56 73q-67 1 -118.5 33t-80 85.5t-28.5 118.5q0 66 29 119.5t81.5 85.5t120.5 32q69 0 121 -32t81 -85.5t29 -119.5q0 -61 -24.5 -111.5t-69.5 -83.5t-105 -40q-38 -65 -38 -120q0 -63 61 -63q11 0 24 3.5t24 10.5h3v-15
q-13 -22 -35 -35t-52 -13zM284 37q34 0 55.5 24t31.5 63t10 83q0 54 -12.5 102.5t-38.5 78.5t-68 30q-34 0 -56 -24t-32.5 -63t-10.5 -83q0 -54 12.5 -102t39.5 -78.5t69 -30.5z" />
    <glyph glyph-name="uni01FA" unicode="&#x1fa;" horiz-adv-x="764" 
d="M25 0v16l62 34l259 615h70l256 -613l68 -36v-16h-288v16l87 35l-71 174h-240l-70 -174l83 -35v-16h-216zM251 280h194l-97 239zM382 710q-39 0 -63.5 23.5t-24.5 60.5q0 36 24.5 60t63.5 24t63.5 -24t24.5 -60t-24 -60t-64 -24zM387 734q31 0 31 53q0 67 -40 67
q-31 0 -31 -53q0 -67 40 -67zM373 905l85 152h98q0 -17 -7 -34t-30 -33l-128 -85h-18z" />
    <glyph glyph-name="aringacute" unicode="&#x1fb;" horiz-adv-x="504" 
d="M153 -10q-48 0 -81.5 29t-32.5 82q1 52 35 85.5t126 55.5l94 23v66q0 37 -25 60.5t-60 23.5t-49 -16.5t-14 -47.5v-39l-5 -4h-60q-15 0 -21 6t-6 24q0 47 60 83q32 20 63.5 31.5t66.5 11.5q44 0 82 -12t61 -38t23 -70v-273q14 -16 51 -16h33l3 -3v-10q-12 -20 -37 -36
t-64 -16q-38 0 -61.5 17.5t-33.5 47.5h-7q-26 -28 -62 -46.5t-79 -18.5zM149 126q0 -32 18.5 -47.5t51.5 -15.5q19 0 36.5 4t38.5 13v147q-62 -12 -93 -26.5t-41.5 -32.5t-10.5 -42zM237 702q39 0 63.5 -24t24.5 -60t-24 -60t-64 -24q-39 0 -63.5 23.5t-24.5 60.5
q0 36 24.5 60t63.5 24zM233 678q-31 0 -31 -53q0 -67 40 -67q31 0 31 53q0 67 -40 67zM231 753l85 177h98q0 -17 -7.5 -32.5t-29.5 -34.5l-128 -110h-18z" />
    <glyph glyph-name="uni01FC" unicode="&#x1fc;" horiz-adv-x="1010" 
d="M464 660h451v-173h-16l-69 118h-228v-237h160l54 85h16v-223h-16l-54 83h-160v-258h253l72 140h16v-195h-550v16l83 41v175h-208l-110 -181l79 -35v-16h-215v16l64 34zM302 287h174v285zM542 710l85 152h98q0 -17 -7 -34t-30 -33l-128 -85h-18z" />
    <glyph glyph-name="aeacute" unicode="&#x1fd;" horiz-adv-x="743" 
d="M154 -10q-48 0 -81 29t-33 82q0 52 34 85.5t126 55.5l95 23v66q0 37 -25 60.5t-60 23.5t-49.5 -16.5t-14.5 -47.5v-39l-4 -4h-61q-15 0 -20.5 6t-5.5 24q0 47 59 83q32 20 63.5 31.5t67.5 11.5q43 0 81.5 -12t59.5 -41q30 25 66.5 39t75.5 14q80 0 125.5 -55t46.5 -155
l-5 -5h-287q0 -45 16 -82.5t51.5 -60t94.5 -22.5q28 0 60 8t68 27h3v-14q-25 -49 -74 -82t-115 -33q-59 0 -104.5 21.5t-73.5 61.5h-7q-29 -35 -72.5 -59t-100.5 -24zM508 419q-40 0 -65.5 -33t-32.5 -92h193q-9 69 -33 97t-62 28zM150 126q0 -32 18.5 -47.5t51.5 -15.5
q28 0 52.5 8.5t49.5 21.5q-27 49 -27 115v19q-62 -12 -93 -26.5t-41.5 -32.5t-10.5 -42zM375 530l85 177h98q0 -17 -7.5 -32.5t-29.5 -34.5l-128 -110h-18z" />
    <glyph glyph-name="uni01FE" unicode="&#x1fe;" horiz-adv-x="796" 
d="M58 -10l91 102q-43 45 -67 106t-24 132q0 74 25.5 136t71.5 107.5t108 71t135 25.5q60 0 113 -17.5t96 -48.5l59 66h73l-91 -102q43 -45 67 -106t24 -132q0 -74 -25.5 -136t-71.5 -107.5t-108 -71t-136 -25.5q-60 0 -113 17.5t-95 49.5l-60 -67h-72zM191 362
q0 -53 9.5 -99t26.5 -84l315 352q-30 43 -71 66t-88 23q-55 0 -98.5 -31.5t-68.5 -89.5t-25 -137zM416 41q56 0 98.5 32t66.5 90t24 137q0 53 -9 98.5t-26 82.5l-314 -351q30 -42 71.5 -65.5t88.5 -23.5zM382 710l85 152h98q0 -17 -7 -34t-30 -33l-128 -85h-18z" />
    <glyph glyph-name="oslashacute" unicode="&#x1ff;" horiz-adv-x="544" 
d="M41 -10l61 73q-29 32 -45 74t-16 90q0 66 29 119.5t81.5 85.5t120.5 32q38 0 71 -10t60 -28l32 38h68l-60 -73q28 -31 44 -73.5t16 -90.5q0 -66 -29 -119.5t-81 -85.5t-121 -32q-38 0 -71 10t-60 29l-32 -39h-68zM163 248q0 -54 11 -98l175 211q-14 26 -36 41.5t-51 15.5
q-34 0 -56 -24t-32.5 -62.5t-10.5 -83.5zM284 37q34 0 55.5 24t31.5 63t10 83q0 53 -11 97l-174 -210q14 -26 36 -41.5t52 -15.5zM265 530l85 177h98q0 -17 -7.5 -32.5t-29.5 -34.5l-128 -110h-18z" />
    <glyph glyph-name="uni0200" unicode="&#x200;" horiz-adv-x="764" 
d="M25 0v16l62 34l259 615h70l256 -613l68 -36v-16h-288v16l87 35l-71 174h-240l-70 -174l83 -35v-16h-216zM251 280h194l-97 239zM308 710l-108 89q-18 14 -17.5 31t5.5 32h74l63 -152h-17zM436 710l-95 89q-17 16 -17 32t5 31h74l51 -152h-18z" />
    <glyph glyph-name="uni0201" unicode="&#x201;" horiz-adv-x="504" 
d="M153 -10q-48 0 -81.5 29t-32.5 82q1 52 35 85.5t126 55.5l94 23v66q0 37 -25 60.5t-60 23.5t-49 -16.5t-14 -47.5v-39l-5 -4h-60q-15 0 -21 6t-6 24q0 47 60 83q32 20 63.5 31.5t66.5 11.5q44 0 82 -12t61 -38t23 -70v-273q14 -16 51 -16h33l3 -3v-10q-12 -20 -37 -36
t-64 -16q-38 0 -61.5 17.5t-33.5 47.5h-7q-26 -28 -62 -46.5t-79 -18.5zM149 126q0 -32 18.5 -47.5t51.5 -15.5q19 0 36.5 4t38.5 13v147q-62 -12 -93 -26.5t-41.5 -32.5t-10.5 -42zM164 530l-108 114q-16 16 -17 32t5 31h74l63 -177h-17zM291 530l-95 114q-14 18 -15.5 33
t3.5 30h74l51 -177h-18z" />
    <glyph glyph-name="uni0202" unicode="&#x202;" horiz-adv-x="764" 
d="M25 0v16l62 34l259 615h70l256 -613l68 -36v-16h-288v16l87 35l-71 174h-240l-70 -174l83 -35v-16h-216zM251 280h194l-97 239zM228 710q18 73 53.5 112.5t100.5 39.5q69 0 103 -39.5t51 -112.5h-17q-25 50 -56 64.5t-81 14.5t-80.5 -14.5t-56.5 -64.5h-17z" />
    <glyph glyph-name="uni0203" unicode="&#x203;" horiz-adv-x="504" 
d="M153 -10q-48 0 -81.5 29t-32.5 82q1 52 35 85.5t126 55.5l94 23v66q0 37 -25 60.5t-60 23.5t-49 -16.5t-14 -47.5v-39l-5 -4h-60q-15 0 -21 6t-6 24q0 47 60 83q32 20 63.5 31.5t66.5 11.5q44 0 82 -12t61 -38t23 -70v-273q14 -16 51 -16h33l3 -3v-10q-12 -20 -37 -36
t-64 -16q-38 0 -61.5 17.5t-33.5 47.5h-7q-26 -28 -62 -46.5t-79 -18.5zM149 126q0 -32 18.5 -47.5t51.5 -15.5q19 0 36.5 4t38.5 13v147q-62 -12 -93 -26.5t-41.5 -32.5t-10.5 -42zM83 540q20 84 54.5 125.5t99.5 41.5q69 0 102 -41.5t52 -125.5h-17q-19 42 -39.5 62
t-44 26t-53.5 6t-53.5 -6t-43.5 -26t-40 -62h-17z" />
    <glyph glyph-name="uni0204" unicode="&#x204;" horiz-adv-x="669" 
d="M52 0v16l84 41v546l-84 41v16h523v-173h-16l-69 118h-229v-237h161l54 85h16v-223h-16l-54 83h-161v-258h254l72 140h16v-195h-551zM273 710l-108 89q-18 14 -17.5 31t5.5 32h74l63 -152h-17zM401 710l-95 89q-17 16 -17 32t5 31h74l51 -152h-18z" />
    <glyph glyph-name="uni0205" unicode="&#x205;" horiz-adv-x="491" 
d="M260 -10q-100 0 -158.5 59t-58.5 157q0 76 32 134t84.5 91t116.5 33q80 0 125 -55t46 -155l-4 -5h-288q0 -45 16 -82.5t52 -60t95 -22.5q28 0 60 8t67 27h3v-14q-24 -49 -73 -82t-115 -33zM256 419q-40 0 -66 -33t-33 -92h193q-9 69 -33 97t-61 28zM191 530l-108 114
q-16 16 -17 32t5 31h74l63 -177h-17zM318 530l-95 114q-14 18 -15.5 33t3.5 30h74l51 -177h-18z" />
    <glyph glyph-name="uni0206" unicode="&#x206;" horiz-adv-x="669" 
d="M52 0v16l84 41v546l-84 41v16h523v-173h-16l-69 118h-229v-237h161l54 85h16v-223h-16l-54 83h-161v-258h254l72 140h16v-195h-551zM192 710q18 73 53.5 112.5t100.5 39.5q69 0 103 -39.5t51 -112.5h-17q-25 50 -56 64.5t-81 14.5t-80.5 -14.5t-56.5 -64.5h-17z" />
    <glyph glyph-name="uni0207" unicode="&#x207;" horiz-adv-x="491" 
d="M260 -10q-100 0 -158.5 59t-58.5 157q0 76 32 134t84.5 91t116.5 33q80 0 125 -55t46 -155l-4 -5h-288q0 -45 16 -82.5t52 -60t95 -22.5q28 0 60 8t67 27h3v-14q-24 -49 -73 -82t-115 -33zM256 419q-40 0 -66 -33t-33 -92h193q-9 69 -33 97t-61 28zM110 540
q20 84 54.5 125.5t99.5 41.5q69 0 102 -41.5t52 -125.5h-17q-19 42 -39.5 62t-44 26t-53.5 6t-53.5 -6t-43.5 -26t-40 -62h-17z" />
    <glyph glyph-name="uni0208" unicode="&#x208;" horiz-adv-x="404" 
d="M56 0v16l83 41v546l-83 41v16h292v-16l-83 -41v-546l83 -41v-16h-292zM128 710l-108 89q-18 14 -17.5 31t5.5 32h74l63 -152h-17zM256 710l-95 89q-17 16 -17 32t5 31h74l51 -152h-18z" />
    <glyph glyph-name="uni0209" unicode="&#x209;" horiz-adv-x="325" 
d="M42 0v16l65 32v302l-62 48v11l168 55h10v-416l61 -32v-16h-242zM90 530l-108 114q-16 16 -17 32t5 31h74l63 -177h-17zM217 530l-95 114q-14 18 -15.5 33t3.5 30h74l51 -177h-18z" />
    <glyph glyph-name="uni020A" unicode="&#x20a;" horiz-adv-x="404" 
d="M56 0v16l83 41v546l-83 41v16h292v-16l-83 -41v-546l83 -41v-16h-292zM48 710q18 73 53.5 112.5t100.5 39.5q69 0 103 -39.5t51 -112.5h-17q-25 50 -56 64.5t-81 14.5t-80.5 -14.5t-56.5 -64.5h-17z" />
    <glyph glyph-name="uni020B" unicode="&#x20b;" horiz-adv-x="325" 
d="M42 0v16l65 32v302l-62 48v11l168 55h10v-416l61 -32v-16h-242zM9 540q20 84 54.5 125.5t99.5 41.5q69 0 102 -41.5t52 -125.5h-17q-19 42 -39.5 62t-44 26t-53.5 6t-53.5 -6t-43.5 -26t-40 -62h-17z" />
    <glyph glyph-name="uni020C" unicode="&#x20c;" horiz-adv-x="796" 
d="M398 -10q-73 0 -135 25.5t-108 71t-71.5 107.5t-25.5 136t25.5 136t71.5 107.5t108 71t135 25.5q74 0 136 -25.5t108 -71t71.5 -107.5t25.5 -136t-25.5 -136t-71.5 -107.5t-108 -71t-136 -25.5zM416 41q56 0 98.5 32t66.5 90t24 137q0 97 -29.5 169t-80 111.5
t-112.5 39.5q-55 0 -98.5 -31.5t-68.5 -89.5t-25 -137q0 -97 30 -169t81.5 -112t113.5 -40zM317 710l-108 89q-18 14 -17.5 31t5.5 32h74l63 -152h-17zM445 710l-95 89q-17 16 -17 32t5 31h74l51 -152h-18z" />
    <glyph glyph-name="uni020D" unicode="&#x20d;" horiz-adv-x="544" 
d="M272 -10q-68 0 -120.5 32t-81.5 85.5t-29 119.5t29 119.5t81.5 85.5t120.5 32q69 0 121 -32t81 -85.5t29 -119.5t-29 -119.5t-81 -85.5t-121 -32zM284 37q34 0 55.5 24t31.5 63t10 83q0 54 -12.5 102.5t-38.5 78.5t-68 30q-34 0 -56 -24t-32.5 -63t-10.5 -83
q0 -54 12.5 -102t39.5 -78.5t69 -30.5zM197 530l-108 114q-16 16 -17 32t5 31h74l63 -177h-17zM324 530l-95 114q-14 18 -15.5 33t3.5 30h74l51 -177h-18z" />
    <glyph glyph-name="uni020E" unicode="&#x20e;" horiz-adv-x="796" 
d="M398 -10q-73 0 -135 25.5t-108 71t-71.5 107.5t-25.5 136t25.5 136t71.5 107.5t108 71t135 25.5q74 0 136 -25.5t108 -71t71.5 -107.5t25.5 -136t-25.5 -136t-71.5 -107.5t-108 -71t-136 -25.5zM416 41q56 0 98.5 32t66.5 90t24 137q0 97 -29.5 169t-80 111.5
t-112.5 39.5q-55 0 -98.5 -31.5t-68.5 -89.5t-25 -137q0 -97 30 -169t81.5 -112t113.5 -40zM236 710q18 73 53.5 112.5t100.5 39.5q69 0 103 -39.5t51 -112.5h-17q-25 50 -56 64.5t-81 14.5t-80.5 -14.5t-56.5 -64.5h-17z" />
    <glyph glyph-name="uni020F" unicode="&#x20f;" horiz-adv-x="544" 
d="M272 -10q-68 0 -120.5 32t-81.5 85.5t-29 119.5t29 119.5t81.5 85.5t120.5 32q69 0 121 -32t81 -85.5t29 -119.5t-29 -119.5t-81 -85.5t-121 -32zM284 37q34 0 55.5 24t31.5 63t10 83q0 54 -12.5 102.5t-38.5 78.5t-68 30q-34 0 -56 -24t-32.5 -63t-10.5 -83
q0 -54 12.5 -102t39.5 -78.5t69 -30.5zM116 540q20 84 54.5 125.5t99.5 41.5q69 0 102 -41.5t52 -125.5h-17q-19 42 -39.5 62t-44 26t-53.5 6t-53.5 -6t-43.5 -26t-40 -62h-17z" />
    <glyph glyph-name="uni0210" unicode="&#x210;" horiz-adv-x="700" 
d="M52 0v16l84 41v546l-84 41v16h308q105 0 165.5 -43.5t60.5 -119.5q0 -56 -37.5 -97.5t-98.5 -64.5l187 -281l70 -38v-16h-187l-189 305h-70v-247l75 -42v-16h-284zM312 605h-51v-249h57q62 0 100.5 35t38.5 91q0 58 -38 90.5t-107 32.5zM258 710l-108 89q-18 14 -17.5 31
t5.5 32h74l63 -152h-17zM386 710l-95 89q-17 16 -17 32t5 31h74l51 -152h-18z" />
    <glyph glyph-name="uni0211" unicode="&#x211;" horiz-adv-x="413" 
d="M41 0v16l65 32v298l-62 49v10l158 59h9l9 -88h5q24 38 43 57t36.5 25t35.5 6q8 0 18 -3t18 -6q30 -10 30 -28q0 -8 -3 -17l-23 -59h-7l-31 12q-14 5 -24.5 6.5t-23.5 1.5q-42 0 -73 -41v-282l77 -32v-16h-257zM164 530l-108 114q-16 16 -17 32t5 31h74l63 -177h-17z
M291 530l-95 114q-14 18 -15.5 33t3.5 30h74l51 -177h-18z" />
    <glyph glyph-name="uni0212" unicode="&#x212;" horiz-adv-x="700" 
d="M52 0v16l84 41v546l-84 41v16h308q105 0 165.5 -43.5t60.5 -119.5q0 -56 -37.5 -97.5t-98.5 -64.5l187 -281l70 -38v-16h-187l-189 305h-70v-247l75 -42v-16h-284zM312 605h-51v-249h57q62 0 100.5 35t38.5 91q0 58 -38 90.5t-107 32.5zM177 710q18 73 53.5 112.5
t100.5 39.5q69 0 103 -39.5t51 -112.5h-17q-25 50 -56 64.5t-81 14.5t-80.5 -14.5t-56.5 -64.5h-17z" />
    <glyph glyph-name="uni0213" unicode="&#x213;" horiz-adv-x="413" 
d="M41 0v16l65 32v298l-62 49v10l158 59h9l9 -88h5q24 38 43 57t36.5 25t35.5 6q8 0 18 -3t18 -6q30 -10 30 -28q0 -8 -3 -17l-23 -59h-7l-31 12q-14 5 -24.5 6.5t-23.5 1.5q-42 0 -73 -41v-282l77 -32v-16h-257zM83 540q20 84 54.5 125.5t99.5 41.5q69 0 102 -41.5
t52 -125.5h-17q-19 42 -39.5 62t-44 26t-53.5 6t-53.5 -6t-43.5 -26t-40 -62h-17z" />
    <glyph glyph-name="uni0214" unicode="&#x214;" horiz-adv-x="826" 
d="M416 -10q-82 0 -145 28t-99 90t-36 164v331l-84 41v16h293v-16l-83 -41v-325q0 -82 26 -130.5t69.5 -69t97.5 -20.5q44 0 81.5 18.5t60.5 59t23 107.5v362l-96 39v16h249v-16l-83 -40v-332q0 -102 -35 -164t-97 -90t-142 -28zM366 710l-108 89q-18 14 -17.5 31t5.5 32h74
l63 -152h-17zM494 710l-95 89q-17 16 -17 32t5 31h74l51 -152h-18z" />
    <glyph glyph-name="uni0215" unicode="&#x215;" horiz-adv-x="578" 
d="M221 -10q-59 0 -97.5 30.5t-38.5 90.5v295l-65 32v16h181v-300q0 -39 23 -59t60 -20q22 0 47.5 8t42.5 22v301l-65 32v16h181v-408l66 -30v-16h-182v63h-4q-37 -36 -71 -54.5t-78 -18.5zM211 530l-108 114q-16 16 -17 32t5 31h74l63 -177h-17zM338 530l-95 114
q-14 18 -15.5 33t3.5 30h74l51 -177h-18z" />
    <glyph glyph-name="uni0216" unicode="&#x216;" horiz-adv-x="826" 
d="M416 -10q-82 0 -145 28t-99 90t-36 164v331l-84 41v16h293v-16l-83 -41v-325q0 -82 26 -130.5t69.5 -69t97.5 -20.5q44 0 81.5 18.5t60.5 59t23 107.5v362l-96 39v16h249v-16l-83 -40v-332q0 -102 -35 -164t-97 -90t-142 -28zM285 710q18 73 53.5 112.5t100.5 39.5
q69 0 103 -39.5t51 -112.5h-17q-25 50 -56 64.5t-81 14.5t-80.5 -14.5t-56.5 -64.5h-17z" />
    <glyph glyph-name="uni0217" unicode="&#x217;" horiz-adv-x="578" 
d="M221 -10q-59 0 -97.5 30.5t-38.5 90.5v295l-65 32v16h181v-300q0 -39 23 -59t60 -20q22 0 47.5 8t42.5 22v301l-65 32v16h181v-408l66 -30v-16h-182v63h-4q-37 -36 -71 -54.5t-78 -18.5zM130 540q20 84 54.5 125.5t99.5 41.5q69 0 102 -41.5t52 -125.5h-17
q-19 42 -39.5 62t-44 26t-53.5 6t-53.5 -6t-43.5 -26t-40 -62h-17z" />
    <glyph glyph-name="uni0218" unicode="&#x218;" horiz-adv-x="555" 
d="M268 -10q-64 0 -111.5 12.5t-94.5 36.5l-10 167h18l61 -115q62 -51 130 -51q56 0 90 27.5t34 78.5q0 38 -17.5 61.5t-53.5 43t-94 45.5q-70 34 -108 73.5t-38 106.5q0 38 19 73t50.5 62t71 43t81.5 16q50 0 93.5 -11.5t83.5 -32.5l10 -160h-17l-61 110q-29 22 -54 33
t-57 11q-42 0 -69.5 -28t-27.5 -71q0 -45 30 -72.5t100 -60.5q61 -28 100 -55t58 -61t19 -84q0 -48 -20.5 -84.5t-55 -62t-76.5 -38.5t-84 -13zM244 -239q-8 0 -17.5 0.5t-16.5 2.5v18q7 -2 14.5 -3t12.5 -1q25 0 39 9t14 27q0 23 -19.5 31t-61.5 8v49q0 9 8.5 15t32.5 6
q52 0 78.5 -20.5t26.5 -58.5q0 -40 -31 -61.5t-80 -21.5z" />
    <glyph glyph-name="uni0219" unicode="&#x219;" horiz-adv-x="435" 
d="M211 -10q-49 0 -84 9t-70 26v115h14l34 -54q35 -55 102 -55q39 0 60 16.5t21 45.5q0 25 -12 39.5t-37.5 26.5t-64.5 29q-54 23 -81 52.5t-27 76.5q0 41 21.5 74.5t58 53t79.5 19.5q35 0 67 -8t64 -24v-115h-15l-32 49q-35 55 -84 55q-31 0 -50.5 -15.5t-19.5 -44.5
t21.5 -46t77.5 -40q28 -13 56 -27t46.5 -40t18.5 -73q0 -46 -24.5 -78.5t-62.5 -49.5t-77 -17zM180 -239q-8 0 -17.5 0.5t-16.5 2.5v18q7 -2 14.5 -3t12.5 -1q25 0 39 9t14 27q0 23 -19.5 31t-61.5 8v49q0 9 8.5 15t32.5 6q52 0 78.5 -20.5t26.5 -58.5q0 -40 -31 -61.5
t-80 -21.5z" />
    <glyph glyph-name="uni021A" unicode="&#x21a;" horiz-adv-x="690" 
d="M178 0v16l104 41v548h-151l-75 -157h-16v212h610v-212h-16l-75 157h-151v-548l103 -41v-16h-333zM308 -239q-8 0 -17.5 0.5t-16.5 2.5v18q7 -2 14.5 -3t12.5 -1q25 0 39 9t14 27q0 23 -19.5 31t-61.5 8v49q0 9 8.5 15t32.5 6q52 0 78.5 -20.5t26.5 -58.5q0 -40 -31 -61.5
t-80 -21.5z" />
    <glyph glyph-name="uni021B" unicode="&#x21b;" horiz-adv-x="373" 
d="M216 -10q-54 0 -90.5 26t-36.5 73v319h-76v10l90 36l88 110h14v-110h136v-46h-136v-297q0 -25 22 -37.5t53 -12.5q19 0 34.5 2t28.5 5l3 -1v-14q-14 -23 -49 -43t-81 -20zM181 -239q-8 0 -17.5 0.5t-16.5 2.5v18q7 -2 14.5 -3t12.5 -1q25 0 39 9t14 27q0 23 -19.5 31
t-61.5 8v49q0 9 8.5 15t32.5 6q52 0 78.5 -20.5t26.5 -58.5q0 -40 -31 -61.5t-80 -21.5z" />
    <glyph glyph-name="uni022A" unicode="&#x22a;" horiz-adv-x="796" 
d="M398 -10q-73 0 -135 25.5t-108 71t-71.5 107.5t-25.5 136t25.5 136t71.5 107.5t108 71t135 25.5q74 0 136 -25.5t108 -71t71.5 -107.5t25.5 -136t-25.5 -136t-71.5 -107.5t-108 -71t-136 -25.5zM416 41q56 0 98.5 32t66.5 90t24 137q0 97 -29.5 169t-80 111.5
t-112.5 39.5q-55 0 -98.5 -31.5t-68.5 -89.5t-25 -137q0 -97 30 -169t81.5 -112t113.5 -40zM250 925v56h280v-56h-280zM294 731q-24 0 -39.5 16t-15.5 39q0 22 15.5 38t39.5 16q23 0 38.5 -16t15.5 -38q0 -23 -15.5 -39t-38.5 -16zM486 731q-24 0 -39 16t-15 39q0 22 15 38
t39 16t39 -16t15 -38q0 -23 -15 -39t-39 -16z" />
    <glyph glyph-name="uni022B" unicode="&#x22b;" horiz-adv-x="544" 
d="M272 -10q-68 0 -120.5 32t-81.5 85.5t-29 119.5t29 119.5t81.5 85.5t120.5 32q69 0 121 -32t81 -85.5t29 -119.5t-29 -119.5t-81 -85.5t-121 -32zM284 37q34 0 55.5 24t31.5 63t10 83q0 54 -12.5 102.5t-38.5 78.5t-68 30q-34 0 -56 -24t-32.5 -63t-10.5 -83
q0 -54 12.5 -102t39.5 -78.5t69 -30.5zM174 563q-24 0 -39.5 15.5t-15.5 38.5t15.5 38.5t39.5 15.5q23 0 38.5 -15.5t15.5 -38.5t-15.5 -38.5t-38.5 -15.5zM366 563q-24 0 -39 15.5t-15 38.5t15 38.5t39 15.5t39 -15.5t15 -38.5t-15 -38.5t-39 -15.5zM130 760v55h280v-55
h-280z" />
    <glyph glyph-name="uni022C" unicode="&#x22c;" horiz-adv-x="796" 
d="M398 -10q-73 0 -135 25.5t-108 71t-71.5 107.5t-25.5 136t25.5 136t71.5 107.5t108 71t135 25.5q74 0 136 -25.5t108 -71t71.5 -107.5t25.5 -136t-25.5 -136t-71.5 -107.5t-108 -71t-136 -25.5zM416 41q56 0 98.5 32t66.5 90t24 137q0 97 -29.5 169t-80 111.5
t-112.5 39.5q-55 0 -98.5 -31.5t-68.5 -89.5t-25 -137q0 -97 30 -169t81.5 -112t113.5 -40zM230 724q16 50 31.5 76t32 35.5t37.5 9.5q28 0 51.5 -13.5t45.5 -26.5t44 -13q18 0 32 10t27 43h19q-16 -51 -31.5 -77t-32 -35t-37.5 -9q-28 0 -51.5 13t-45.5 26t-44 13
q-18 0 -32 -9.5t-27 -42.5h-19zM250 925v55h280v-55h-280z" />
    <glyph glyph-name="uni022D" unicode="&#x22d;" horiz-adv-x="544" 
d="M272 -10q-68 0 -120.5 32t-81.5 85.5t-29 119.5t29 119.5t81.5 85.5t120.5 32q69 0 121 -32t81 -85.5t29 -119.5t-29 -119.5t-81 -85.5t-121 -32zM284 37q34 0 55.5 24t31.5 63t10 83q0 54 -12.5 102.5t-38.5 78.5t-68 30q-34 0 -56 -24t-32.5 -63t-10.5 -83
q0 -54 12.5 -102t39.5 -78.5t69 -30.5zM110 552q19 58 34.5 86t31.5 37t36 9t38.5 -9.5t35.5 -22.5t33 -22.5t32 -9.5q18 0 31 12.5t29 51.5h19q-19 -58 -34.5 -86t-31.5 -37t-36 -9t-38.5 9.5t-35.5 22.5t-33 22.5t-32 9.5q-18 0 -31 -12.5t-29 -51.5h-19zM130 760v55h280
v-55h-280z" />
    <glyph glyph-name="uni0230" unicode="&#x230;" horiz-adv-x="796" 
d="M398 -10q-73 0 -135 25.5t-108 71t-71.5 107.5t-25.5 136t25.5 136t71.5 107.5t108 71t135 25.5q74 0 136 -25.5t108 -71t71.5 -107.5t25.5 -136t-25.5 -136t-71.5 -107.5t-108 -71t-136 -25.5zM416 41q56 0 98.5 32t66.5 90t24 137q0 97 -29.5 169t-80 111.5
t-112.5 39.5q-55 0 -98.5 -31.5t-68.5 -89.5t-25 -137q0 -97 30 -169t81.5 -112t113.5 -40zM390 723q-28 0 -48 19.5t-20 48.5t20 48t48 19t48 -19t20 -48t-20 -48.5t-48 -19.5zM250 925v55h280v-55h-280z" />
    <glyph glyph-name="uni0231" unicode="&#x231;" horiz-adv-x="544" 
d="M272 -10q-68 0 -120.5 32t-81.5 85.5t-29 119.5t29 119.5t81.5 85.5t120.5 32q69 0 121 -32t81 -85.5t29 -119.5t-29 -119.5t-81 -85.5t-121 -32zM284 37q34 0 55.5 24t31.5 63t10 83q0 54 -12.5 102.5t-38.5 78.5t-68 30q-34 0 -56 -24t-32.5 -63t-10.5 -83
q0 -54 12.5 -102t39.5 -78.5t69 -30.5zM270 550q-28 0 -48 20t-20 48t20 48t48 20t48 -20t20 -48t-20 -48t-48 -20zM130 760v55h280v-55h-280z" />
    <glyph glyph-name="uni0232" unicode="&#x232;" horiz-adv-x="739" 
d="M221 0v16l90 41v251l-220 300l-65 36v16h282v-16l-75 -36v-4l176 -239l159 237v4l-76 38v16h221v-16l-64 -33l-212 -302v-252l89 -41v-16h-305zM258 760v55h280v-55h-280z" />
    <glyph glyph-name="uni0233" unicode="&#x233;" horiz-adv-x="478" 
d="M83 -241q-23 0 -28.5 6.5t-5.5 22.5v61l5 5h45q25 0 40 4t27.5 21t29.5 55l29 68l-192 407l-64 29v16h261v-16l-70 -30v-4l120 -255h6l95 250v5l-66 34v16h193v-16l-72 -34l-199 -483q-9 -23 -15.5 -38.5t-14.5 -30t-23 -35.5q-20 -29 -48 -43.5t-53 -14.5zM134 589v56
h280v-56h-280z" />
    <glyph glyph-name="uni0237" unicode="&#x237;" horiz-adv-x="324" 
d="M222 14q0 -56 -15.5 -99t-54.5 -78t-109 -67v17q25 22 38.5 44.5t19 53.5t5.5 78v387l-62 48v11l168 55h10v-450z" />
    <glyph glyph-name="uni0259" unicode="&#x259;" horiz-adv-x="491" 
d="M215 -10q-80 0 -125 55t-46 155l4 5h288q0 44 -16 81t-50.5 60t-91.5 23q-28 0 -62.5 -10t-69.5 -30h-3v22q25 47 74 80t114 33q101 0 159 -59t58 -157q0 -76 -32 -134t-85 -91t-116 -33zM235 35q40 0 66 33t33 92h-193q8 -69 32 -97t62 -28z" />
    <glyph glyph-name="uni02B9" unicode="&#x2b9;" horiz-adv-x="250" 
d="M76 490v250h98l-75 -250h-23z" />
    <glyph glyph-name="uni02BA" unicode="&#x2ba;" horiz-adv-x="450" 
d="M82 490v250h98l-75 -250h-23zM270 490v250h98l-75 -250h-23z" />
    <glyph glyph-name="uni02BB" unicode="&#x2bb;" horiz-adv-x="245" 
d="M146 478q-4 0 -10.5 1t-14.5 6q-36 20 -55.5 48t-19.5 65q0 28 16 58.5t48.5 55.5t83.5 38v-23q-37 -12 -60 -33.5t-23 -48.5q0 -19 10.5 -35t38.5 -30l34 -18l1 -11l-25 -53q-9 -20 -24 -20z" />
    <glyph glyph-name="uni02BC" unicode="&#x2bc;" horiz-adv-x="245" 
d="M51 478v24q37 11 60 32.5t23 48.5q0 19 -10.5 35.5t-38.5 30.5l-34 17l-1 12l25 52q9 20 24 20q5 0 11 -1t14 -6q36 -20 55.5 -48t19.5 -65q0 -26 -15 -56.5t-47.5 -56.5t-85.5 -39z" />
    <glyph glyph-name="uni02BE" unicode="&#x2be;" 
d="M250 534q-39 0 -63.5 23.5t-24.5 60.5q0 36 24.5 60t63.5 24v-24q-15 0 -25 -13t-10 -42q0 -31 7.5 -48t27.5 -17v-24z" />
    <glyph glyph-name="uni02BF" unicode="&#x2bf;" 
d="M250 534v24q15 0 25.5 13t10.5 42q0 65 -36 65v24q40 0 64 -24t24 -60t-24 -60t-64 -24z" />
    <glyph glyph-name="circumflex" unicode="&#x2c6;" 
d="M96 530l134 177h40l134 -177h-17l-137 88l-137 -88h-17z" />
    <glyph glyph-name="caron" unicode="&#x2c7;" 
d="M230 530l-134 177h17l137 -88l137 88h17l-134 -177h-40z" />
    <glyph glyph-name="uni02C8" unicode="&#x2c8;" 
d="M230 535v166h40v-166h-40z" />
    <glyph glyph-name="uni02C9" unicode="&#x2c9;" 
d="M110 589v56h280v-56h-280z" />
    <glyph glyph-name="uni02CA" unicode="&#x2ca;" 
d="M158 530l85 177h98q0 -17 -7.5 -32.5t-29.5 -34.5l-128 -110h-18z" />
    <glyph glyph-name="uni02CB" unicode="&#x2cb;" 
d="M324 530l-129 110q-22 19 -29.5 34.5t-7.5 32.5h99l84 -177h-17z" />
    <glyph glyph-name="uni02CC" unicode="&#x2cc;" 
d="M230 -233v166h40v-166h-40z" />
    <glyph glyph-name="breve" unicode="&#x2d8;" 
d="M250 540q-69 0 -102 41.5t-52 125.5h17q19 -42 39.5 -62t44 -26t53.5 -6t53.5 6t43.5 26t40 62h17q-20 -84 -54.5 -125.5t-99.5 -41.5z" />
    <glyph glyph-name="dotaccent" unicode="&#x2d9;" 
d="M250 550q-28 0 -48 20t-20 48t20 48t48 20t48 -20t20 -48t-20 -48t-48 -20z" />
    <glyph glyph-name="ring" unicode="&#x2da;" 
d="M250 702q39 0 63.5 -24t24.5 -60t-24 -60t-64 -24q-39 0 -63.5 23.5t-24.5 60.5q0 36 24.5 60t63.5 24zM246 678q-31 0 -31 -53q0 -67 40 -67q31 0 31 53q0 67 -40 67z" />
    <glyph glyph-name="ogonek" unicode="&#x2db;" 
d="M256 -240q-45 0 -72.5 24t-27.5 65t30 82t77 91h25q-57 -83 -57 -150q0 -63 61 -63q11 0 24 3.5t24 10.5h4v-15q-14 -22 -36 -35t-52 -13z" />
    <glyph glyph-name="tilde" unicode="&#x2dc;" 
d="M90 552q19 58 34.5 86t31.5 37t36 9t38.5 -9.5t35.5 -22.5t33 -22.5t32 -9.5q18 0 31 12.5t29 51.5h19q-19 -58 -34.5 -86t-31.5 -37t-36 -9t-38.5 9.5t-35.5 22.5t-33 22.5t-32 9.5q-18 0 -31 -12.5t-29 -51.5h-19z" />
    <glyph glyph-name="hungarumlaut" unicode="&#x2dd;" 
d="M117 530l46 177h74q5 -15 3 -30t-15 -33l-90 -114h-18zM245 530l59 177h74q5 -15 4.5 -30.5t-16.5 -32.5l-104 -114h-17z" />
    <glyph glyph-name="gravecomb" unicode="&#x300;" horiz-adv-x="0" 
d="M74 530l-129 110q-22 19 -29.5 34.5t-7.5 32.5h99l84 -177h-17z" />
    <glyph glyph-name="acutecomb" unicode="&#x301;" horiz-adv-x="0" 
d="M-92 530l85 177h98q0 -17 -7.5 -32.5t-29.5 -34.5l-128 -110h-18z" />
    <glyph glyph-name="uni0302" unicode="&#x302;" horiz-adv-x="0" 
d="M-154 530l134 177h40l134 -177h-17l-137 88l-137 -88h-17z" />
    <glyph glyph-name="tildecomb" unicode="&#x303;" horiz-adv-x="0" 
d="M-160 552q19 58 34.5 86t31.5 37t36 9t38.5 -9.5t35.5 -22.5t33 -22.5t32 -9.5q18 0 31 12.5t29 51.5h19q-19 -58 -34.5 -86t-31.5 -37t-36 -9t-38.5 9.5t-35.5 22.5t-33 22.5t-32 9.5q-18 0 -31 -12.5t-29 -51.5h-19z" />
    <glyph glyph-name="uni0304" unicode="&#x304;" horiz-adv-x="0" 
d="M-140 589v56h280v-56h-280z" />
    <glyph glyph-name="uni0306" unicode="&#x306;" horiz-adv-x="0" 
d="M0 540q-69 0 -102 41.5t-52 125.5h17q19 -42 39.5 -62t44 -26t53.5 -6t53.5 6t43.5 26t40 62h17q-20 -84 -54.5 -125.5t-99.5 -41.5z" />
    <glyph glyph-name="uni0307" unicode="&#x307;" horiz-adv-x="0" 
d="M0 550q-28 0 -48 20t-20 48t20 48t48 20t48 -20t20 -48t-20 -48t-48 -20z" />
    <glyph glyph-name="uni0308" unicode="&#x308;" horiz-adv-x="0" 
d="M-96 563q-24 0 -39.5 15.5t-15.5 38.5t15.5 38.5t39.5 15.5q23 0 38.5 -15.5t15.5 -38.5t-15.5 -38.5t-38.5 -15.5zM96 563q-24 0 -39 15.5t-15 38.5t15 38.5t39 15.5t39 -15.5t15 -38.5t-15 -38.5t-39 -15.5z" />
    <glyph glyph-name="hookabovecomb" unicode="&#x309;" horiz-adv-x="0" 
d="M-58 542v1q32 12 48.5 23t16.5 32q0 16 -16.5 27t-58.5 18l13 64q68 -6 95 -30.5t27 -50.5q0 -40 -29.5 -62t-87.5 -30z" />
    <glyph glyph-name="uni030A" unicode="&#x30a;" horiz-adv-x="0" 
d="M0 702q39 0 63.5 -24t24.5 -60t-24 -60t-64 -24q-39 0 -63.5 23.5t-24.5 60.5q0 36 24.5 60t63.5 24zM-4 678q-31 0 -31 -53q0 -67 40 -67q31 0 31 53q0 67 -40 67z" />
    <glyph glyph-name="uni030B" unicode="&#x30b;" horiz-adv-x="0" 
d="M-133 530l46 177h74q5 -15 3 -30t-15 -33l-90 -114h-18zM-5 530l59 177h74q5 -15 4.5 -30.5t-16.5 -32.5l-104 -114h-17z" />
    <glyph glyph-name="uni030C" unicode="&#x30c;" horiz-adv-x="0" 
d="M-20 530l-134 177h17l137 -88l137 88h17l-134 -177h-40z" />
    <glyph glyph-name="uni030F" unicode="&#x30f;" horiz-adv-x="0" 
d="M-10 530l-108 114q-16 16 -17 32t5 31h74l63 -177h-17zM117 530l-95 114q-14 18 -15.5 33t3.5 30h74l51 -177h-18z" />
    <glyph glyph-name="uni0311" unicode="&#x311;" horiz-adv-x="0" 
d="M-154 540q20 84 54.5 125.5t99.5 41.5q69 0 102 -41.5t52 -125.5h-17q-19 42 -39.5 62t-44 26t-53.5 6t-53.5 -6t-43.5 -26t-40 -62h-17z" />
    <glyph glyph-name="uni0312" unicode="&#x312;" horiz-adv-x="0" 
d="M32 537q-52 0 -78.5 21t-26.5 59q0 40 31 61.5t80 21.5q8 0 17 -1t17 -3v-17q-7 1 -14.5 2t-12.5 1q-25 0 -39 -9t-14 -27q0 -22 19.5 -30.5t60.5 -8.5v-49q0 -9 -8.5 -15t-31.5 -6z" />
    <glyph glyph-name="uni031B" unicode="&#x31b;" horiz-adv-x="0" 
d="M107 512q0 -45 -30.5 -74t-80.5 -29q-27 0 -50.5 5t-52.5 21l7 15q22 -10 39 -13.5t31 -3.5q31 0 43 14.5t12 40.5v49l6 6h49q16 0 21.5 -5.5t5.5 -25.5z" />
    <glyph glyph-name="dotbelowcomb" unicode="&#x323;" horiz-adv-x="0" 
d="M0 -220q-28 0 -48 20t-20 48t20 48t48 20t48 -20t20 -48t-20 -48t-48 -20z" />
    <glyph glyph-name="uni0324" unicode="&#x324;" horiz-adv-x="0" 
d="M-96 -206q-24 0 -39 16t-15 38t15 38t39 16t39 -16t15 -38t-15 -38t-39 -16zM96 -206q-24 0 -39 16t-15 38t15 38t39 16t39 -16t15 -38t-15 -38t-39 -16z" />
    <glyph glyph-name="uni0326" unicode="&#x326;" horiz-adv-x="0" 
d="M-38 -239q-8 0 -17.5 0.5t-16.5 2.5v18q7 -2 14.5 -3t12.5 -1q25 0 39 9t14 27q0 23 -19.5 31t-61.5 8v49q0 9 8.5 15t32.5 6q52 0 78.5 -20.5t26.5 -58.5q0 -40 -31 -61.5t-80 -21.5z" />
    <glyph glyph-name="uni0327" unicode="&#x327;" horiz-adv-x="0" 
d="M-10 -240q-55 0 -82 26v16h4q12 -6 27 -8.5t32 -2.5q29 0 42 10.5t13 27.5q0 22 -20.5 36.5t-79.5 31.5l58 125h37l-32 -69q57 -18 80 -41t23 -63q0 -38 -27 -63.5t-75 -25.5z" />
    <glyph glyph-name="uni0328" unicode="&#x328;" horiz-adv-x="0" 
d="M6 -240q-45 0 -72.5 24t-27.5 65t30 82t77 91h25q-57 -83 -57 -150q0 -63 61 -63q11 0 24 3.5t24 10.5h4v-15q-14 -22 -36 -35t-52 -13z" />
    <glyph glyph-name="uni032E" unicode="&#x32e;" horiz-adv-x="0" 
d="M0 -240q-69 0 -102 41.5t-52 125.5h17q19 -42 39.5 -62t44 -26t53.5 -6t53.5 6t43.5 26t40 62h17q-20 -84 -54.5 -125.5t-99.5 -41.5z" />
    <glyph glyph-name="uni0331" unicode="&#x331;" horiz-adv-x="0" 
d="M-140 -177v56h280v-56h-280z" />
    <glyph glyph-name="uni0394" unicode="&#x394;" horiz-adv-x="681" 
d="M41 0v34l266 631h70l263 -631v-34h-599zM134 90h349l-174 428z" />
    <glyph glyph-name="uni03BC" unicode="&#x3bc;" horiz-adv-x="561" 
d="M232 -10q-25 0 -46 7t-40 25l35 -232l-103 -20h-2v684h116v-300q0 -39 23 -59t59 -20q23 0 48.5 8t42.5 22v349h116v-383q14 -16 51 -16h32l4 -3v-10q-12 -20 -37.5 -36t-63.5 -16q-40 0 -64 19.5t-34 53.5h-7q-32 -35 -61.5 -54t-68.5 -19z" />
    <glyph glyph-name="pi" unicode="&#x3c0;" horiz-adv-x="593" 
d="M123 4q7 29 12.5 55.5t10 58.5t7 75.5t2.5 106.5v83q-42 -2 -69 -10t-44 -22h-3v55q22 18 53.5 33t81.5 15h367v-71h-76v-241q0 -40 9.5 -56t28.5 -16q32 0 56 59l16 -5q-19 -70 -50 -102t-72 -32q-50 0 -75.5 31.5t-25.5 87.5v274h-143v-383h-86v4z" />
    <glyph glyph-name="uni0401" unicode="&#x401;" horiz-adv-x="669" 
d="M52 0v16l84 41v546l-84 41v16h523v-173h-16l-69 118h-229v-237h161l54 85h16v-223h-16l-54 83h-161v-258h254l72 140h16v-195h-551zM250 731q-24 0 -39.5 16t-15.5 39q0 22 15.5 38t39.5 16q23 0 38.5 -16t15.5 -38q0 -23 -15.5 -39t-38.5 -16zM442 731q-24 0 -39 16
t-15 39q0 22 15 38t39 16t39 -16t15 -38q0 -23 -15 -39t-39 -16z" />
    <glyph glyph-name="uni0402" unicode="&#x402;" horiz-adv-x="806" 
d="M158 0v16l104 41v548h-135l-75 -147h-16v202h604v-188h-16l-75 133h-161v-277q32 30 79.5 49.5t105.5 19.5q81 0 127.5 -45t46.5 -151q0 -61 -14 -118t-36.5 -103t-46.5 -74q-39 -44 -66 -61.5t-60 -17.5q-14 0 -23 6.5t-9 21.5q0 7 2 20.5t10 46.5h7q16 -4 25 -6.5
t21 -2.5q19 0 33.5 9t22.5 38.5t8 89.5v123q0 73 -27.5 106t-94.5 33q-65 0 -111 -34v-221l95 -41v-16h-325z" />
    <glyph glyph-name="uni0403" unicode="&#x403;" horiz-adv-x="608" 
d="M52 0v16l84 41v546l-84 41v16h513v-173h-16l-69 118h-219v-548l98 -41v-16h-307zM318 710l85 152h98q0 -17 -7 -34t-30 -33l-128 -85h-18z" />
    <glyph glyph-name="uni0404" unicode="&#x404;" horiz-adv-x="717" 
d="M399 -10q-104 0 -180.5 42t-118.5 115.5t-42 166.5q0 73 29 137.5t79 113.5t114 77t135 28q51 0 86.5 -6.5t63 -17t55.5 -24.5l9 -182h-18l-80 140q-31 21 -56 30.5t-58 9.5q-61 0 -110 -31.5t-80 -88t-38 -132.5h206l53 85h16v-223h-16l-53 83h-207q4 -85 33.5 -145.5
t77.5 -93t107 -32.5q45 0 77.5 12t60.5 29l77 123h17l-13 -165q-42 -23 -95.5 -37t-130.5 -14z" />
    <glyph glyph-name="uni0405" unicode="&#x405;" horiz-adv-x="555" 
d="M268 -10q-64 0 -111.5 12.5t-94.5 36.5l-10 167h18l61 -115q62 -51 130 -51q56 0 90 27.5t34 78.5q0 38 -17.5 61.5t-53.5 43t-94 45.5q-70 34 -108 73.5t-38 106.5q0 38 19 73t50.5 62t71 43t81.5 16q50 0 93.5 -11.5t83.5 -32.5l10 -160h-17l-61 110q-29 22 -54 33
t-57 11q-42 0 -69.5 -28t-27.5 -71q0 -45 30 -72.5t100 -60.5q61 -28 100 -55t58 -61t19 -84q0 -48 -20.5 -84.5t-55 -62t-76.5 -38.5t-84 -13z" />
    <glyph glyph-name="uni0406" unicode="&#x406;" horiz-adv-x="404" 
d="M56 0v16l83 41v546l-83 41v16h292v-16l-83 -41v-546l83 -41v-16h-292z" />
    <glyph glyph-name="uni0407" unicode="&#x407;" horiz-adv-x="404" 
d="M56 0v16l83 41v546l-83 41v16h292v-16l-83 -41v-546l83 -41v-16h-292zM106 731q-24 0 -39.5 16t-15.5 39q0 22 15.5 38t39.5 16q23 0 38.5 -16t15.5 -38q0 -23 -15.5 -39t-38.5 -16zM298 731q-24 0 -39 16t-15 39q0 22 15 38t39 16t39 -16t15 -38q0 -23 -15 -39t-39 -16z
" />
    <glyph glyph-name="uni0408" unicode="&#x408;" horiz-adv-x="415" 
d="M53 -173q-13 0 -22.5 6.5t-9.5 21.5q0 7 2.5 20.5t9.5 46.5h7q16 -4 25 -6.5t21 -2.5q20 0 34.5 9t22 38.5t7.5 89.5v553l-83 41v16h292v-16l-83 -41v-360q0 -76 -14 -141t-37 -115t-50 -80q-39 -43 -65 -61.5t-57 -18.5z" />
    <glyph glyph-name="uni0409" unicode="&#x409;" horiz-adv-x="977" 
d="M245 544q0 -120 -6 -206t-17.5 -145t-28.5 -98q-19 -45 -42.5 -67.5t-47 -30t-43.5 -7.5q-22 0 -28 6t-6 23v68l4 5h10q77 0 109 113t32 338v60l-82 41v16h570v-16l-104 -41v-212h101q84 0 148 -23t99.5 -65t35.5 -100q0 -60 -35.5 -105.5t-99.5 -71.5t-149 -26h-309v16
l84 41v548h-195v-61zM643 336h-78v-281h85q83 0 125.5 39.5t42.5 101.5q0 72 -43 106t-132 34z" />
    <glyph glyph-name="uni040A" unicode="&#x40a;" horiz-adv-x="1076" 
d="M52 0v16l84 41v546l-84 41v16h288v-16l-79 -41v-225h278v225l-84 41v16h313v-16l-104 -41v-225h101q85 0 148.5 -22t99 -63t35.5 -98q0 -59 -35.5 -103t-99.5 -68t-149 -24h-309v16l84 41v266h-278v-266l79 -41v-16h-288zM742 323h-78v-268h85q83 0 125.5 36.5t42.5 97.5
q0 71 -43 102.5t-132 31.5z" />
    <glyph glyph-name="uni040B" unicode="&#x40b;" horiz-adv-x="849" 
d="M158 0v16l104 41v548h-135l-75 -147h-16v202h604v-192h-16l-75 137h-161v-277q32 30 79 49.5t103 19.5q86 0 131.5 -47.5t45.5 -144.5v-148l82 -41v-16h-208v173q0 71 -27.5 105t-94.5 34q-65 0 -111 -34v-221l95 -41v-16h-325z" />
    <glyph glyph-name="uni040C" unicode="&#x40c;" horiz-adv-x="752" 
d="M52 0v16l84 41v546l-84 41v16h293v-16l-84 -41v-546l84 -41v-16h-293zM262 335l276 274l-74 35v16h226v-16l-66 -27l-244 -237l293 -336l67 -28v-16h-190zM400 710l85 152h98q0 -17 -7 -34t-30 -33l-128 -85h-18z" />
    <glyph glyph-name="uni040E" unicode="&#x40e;" horiz-adv-x="726" 
d="M343 55q-35 -43 -66.5 -54t-60.5 -11q-22 0 -28 6t-6 23v68l5 5h16q50 0 80.5 14.5t56.5 49.5l-240 449l-74 39v16h286v-16l-83 -38l172 -323h14l169 325l-82 36v16h213v-16l-61 -33l-212 -400q-22 -43 -49 -86.5t-50 -69.5zM406 711q-86 0 -130.5 43.5t-44.5 107.5h93
q0 -49 19 -80.5t63 -31.5t63 31.5t19 80.5h93q0 -64 -44.5 -107.5t-130.5 -43.5z" />
    <glyph glyph-name="uni040F" unicode="&#x40f;" horiz-adv-x="799" 
d="M340 0h-288v16l83 41v546l-83 41v16h287v-16l-78 -41v-548h276v548l-77 41v16h286v-16l-83 -41v-546l83 -41v-16h-287l-52 -170h-16z" />
    <glyph glyph-name="uni0410" unicode="&#x410;" horiz-adv-x="764" 
d="M25 0v16l62 34l259 615h70l256 -613l68 -36v-16h-288v16l87 35l-71 174h-240l-70 -174l83 -35v-16h-216zM251 280h194l-97 239z" />
    <glyph glyph-name="uni0411" unicode="&#x411;" horiz-adv-x="686" 
d="M361 0h-309v16l84 41v546l-84 41v16h529v-192h-16l-73 137h-231v-221h101q84 0 148 -21.5t99.5 -62.5t35.5 -99q0 -60 -35.5 -105.5t-99.5 -70.5t-149 -25zM339 333h-78v-278h85q83 0 125.5 39t42.5 101q0 72 -43 105t-132 33z" />
    <glyph glyph-name="uni0412" unicode="&#x412;" horiz-adv-x="686" 
d="M52 0v16l84 41v546l-84 41v16h293q69 0 124 -16.5t86.5 -49t31.5 -82.5q0 -51 -36.5 -93.5t-104.5 -60.5q93 -13 146.5 -56t53.5 -110q0 -55 -36 -98.5t-99 -68.5t-143 -25h-316zM306 605h-45v-239h51q68 0 106.5 31t38.5 86q0 122 -151 122zM343 315h-82v-260h89
q75 0 118.5 36.5t43.5 94.5q0 66 -44 97.5t-125 31.5z" />
    <glyph glyph-name="uni0413" unicode="&#x413;" horiz-adv-x="608" 
d="M52 0v16l84 41v546l-84 41v16h513v-173h-16l-69 118h-219v-548l98 -41v-16h-307z" />
    <glyph glyph-name="uni0414" unicode="&#x414;" horiz-adv-x="731" 
d="M92 644v16h578v-16l-82 -41v-548h97v-225h-16l-89 170h-456l-88 -170h-16v225h79q30 76 46.5 154.5t23 166.5t6.5 192v35zM462 55v550h-224v-36q0 -107 -6 -195t-21.5 -165.5t-42.5 -153.5h294z" />
    <glyph glyph-name="uni0415" unicode="&#x415;" horiz-adv-x="669" 
d="M52 0v16l84 41v546l-84 41v16h523v-173h-16l-69 118h-229v-237h161l54 85h16v-223h-16l-54 83h-161v-258h254l72 140h16v-195h-551z" />
    <glyph glyph-name="uni0416" unicode="&#x416;" horiz-adv-x="1059" 
d="M384 0v16l80 41v546l-80 41v16h285v-16l-80 -41v-546l80 -41v-16h-285zM590 335l262 273l-73 36v16h231v-16l-78 -30l-226 -233l277 -337l65 -28v-16h-188zM463 335l-270 -335h-182v16l71 30l266 327l-237 242l-74 29v16h237v-16l-73 -36z" />
    <glyph glyph-name="uni0417" unicode="&#x417;" horiz-adv-x="649" 
d="M319 670q65 0 119 -17.5t85.5 -51t31.5 -83.5q0 -54 -38 -99.5t-110 -63.5q88 -14 138 -57t50 -106q0 -58 -35.5 -103.5t-99 -72t-146.5 -26.5q-74 0 -128 14t-95 37l-13 165h17l84 -127q24 -15 53 -24.5t74 -9.5q75 0 115 38t40 100q0 130 -170 130h-81v55h67
q70 0 108.5 33.5t38.5 90.5q0 59 -29 93.5t-92 34.5q-32 0 -56 -7t-48 -25l-83 -146h-18l9 182q42 21 88.5 33.5t123.5 12.5z" />
    <glyph glyph-name="uni0418" unicode="&#x418;" horiz-adv-x="835" 
d="M52 0v16l84 41v546l-84 41v16h288v-16l-79 -41v-432l313 389v43l-79 41v16h287v-16l-82 -41v-546l82 -41v-16h-287v16l79 41v426l-313 -389v-37l79 -41v-16h-288z" />
    <glyph glyph-name="uni0419" unicode="&#x419;" horiz-adv-x="835" 
d="M52 0v16l84 41v546l-84 41v16h288v-16l-79 -41v-432l313 389v43l-79 41v16h287v-16l-82 -41v-546l82 -41v-16h-287v16l79 41v426l-313 -389v-37l79 -41v-16h-288zM420 711q-86 0 -130.5 43.5t-44.5 107.5h93q0 -49 19 -80.5t63 -31.5t63 31.5t19 80.5h93
q0 -64 -44.5 -107.5t-130.5 -43.5z" />
    <glyph glyph-name="uni041A" unicode="&#x41a;" horiz-adv-x="752" 
d="M52 0v16l84 41v546l-84 41v16h293v-16l-84 -41v-546l84 -41v-16h-293zM262 335l276 274l-74 35v16h226v-16l-66 -27l-244 -237l293 -336l67 -28v-16h-190z" />
    <glyph glyph-name="uni041B" unicode="&#x41b;" horiz-adv-x="723" 
d="M380 0v16l82 41v548h-217v-61q0 -120 -6 -206t-17.5 -145t-28.5 -98q-19 -45 -42.5 -67.5t-47 -30t-43.5 -7.5q-22 0 -28 6t-6 23v68l4 5h10q77 0 109 113t32 338v60l-82 41v16h572v-16l-83 -41v-546l83 -41v-16h-291z" />
    <glyph glyph-name="uni041C" unicode="&#x41c;" horiz-adv-x="980" 
d="M49 0v16l83 41l21 546l-87 41v16h222l213 -494l212 494h213v-16l-85 -34l17 -553l73 -41v-16h-273v16l78 40l-10 482l-232 -543h-52l-232 538l-13 -477l85 -40v-16h-233z" />
    <glyph glyph-name="uni041D" unicode="&#x41d;" horiz-adv-x="825" 
d="M52 0v16l84 41v546l-84 41v16h288v-16l-79 -41v-235h303v235l-79 41v16h287v-16l-82 -41v-546l82 -41v-16h-287v16l79 41v256h-303v-256l79 -41v-16h-288z" />
    <glyph glyph-name="uni041E" unicode="&#x41e;" horiz-adv-x="796" 
d="M398 -10q-73 0 -135 25.5t-108 71t-71.5 107.5t-25.5 136t25.5 136t71.5 107.5t108 71t135 25.5q74 0 136 -25.5t108 -71t71.5 -107.5t25.5 -136t-25.5 -136t-71.5 -107.5t-108 -71t-136 -25.5zM416 41q56 0 98.5 32t66.5 90t24 137q0 97 -29.5 169t-80 111.5
t-112.5 39.5q-55 0 -98.5 -31.5t-68.5 -89.5t-25 -137q0 -97 30 -169t81.5 -112t113.5 -40z" />
    <glyph glyph-name="uni041F" unicode="&#x41f;" horiz-adv-x="799" 
d="M52 0v16l84 41v546l-84 41v16h694v-16l-82 -41v-546l82 -41v-16h-285v16l77 41v548h-277v-548l78 -41v-16h-287z" />
    <glyph glyph-name="uni0420" unicode="&#x420;" horiz-adv-x="665" 
d="M52 0v16l84 41v546l-84 41v16h311q118 0 189.5 -42.5t71.5 -135.5q0 -56 -37.5 -98.5t-102 -66.5t-145.5 -24h-78v-236l98 -41v-16h-307zM261 605v-261h64q79 0 124 36.5t45 92.5q0 70 -45.5 101t-130.5 31h-57z" />
    <glyph glyph-name="uni0421" unicode="&#x421;" horiz-adv-x="717" 
d="M399 -10q-104 0 -180.5 42t-118.5 115.5t-42 166.5q0 73 29 137.5t79 113.5t114 77t135 28q51 0 86.5 -6.5t63 -17t55.5 -24.5l9 -182h-18l-80 140q-31 21 -56 30.5t-58 9.5q-65 0 -117 -36t-82 -101t-30 -150q0 -91 29 -156t78.5 -100t110.5 -35q45 0 77.5 12t60.5 29
l77 123h17l-13 -165q-42 -23 -95.5 -37t-130.5 -14z" />
    <glyph glyph-name="uni0422" unicode="&#x422;" horiz-adv-x="690" 
d="M178 0v16l104 41v548h-151l-75 -157h-16v212h610v-212h-16l-75 157h-151v-548l103 -41v-16h-333z" />
    <glyph glyph-name="uni0423" unicode="&#x423;" horiz-adv-x="726" 
d="M343 55q-35 -43 -66.5 -54t-60.5 -11q-22 0 -28 6t-6 23v68l5 5h16q50 0 80.5 14.5t56.5 49.5l-240 449l-74 39v16h286v-16l-83 -38l172 -323h14l169 325l-82 36v16h213v-16l-61 -33l-212 -400q-22 -43 -49 -86.5t-50 -69.5z" />
    <glyph glyph-name="uni0424" unicode="&#x424;" horiz-adv-x="872" 
d="M291 -20v16l84 41v43q-110 2 -188 33.5t-119.5 84.5t-41.5 122q0 71 41.5 129t119.5 93.5t188 37.5v43l-84 41v16h293v-16l-84 -41v-43q112 -3 189 -34.5t116.5 -84.5t39.5 -121q0 -71 -39.5 -128.5t-116.5 -93t-189 -38.5v-43l84 -41v-16h-293zM375 530
q-104 0 -159.5 -49.5t-55.5 -128.5q0 -95 57.5 -153t157.5 -67v398zM712 310q0 95 -54.5 152.5t-157.5 66.5v-398q111 0 161.5 50t50.5 129z" />
    <glyph glyph-name="uni0425" unicode="&#x425;" horiz-adv-x="764" 
d="M30 0v16l77 39l209 263l-208 290l-65 36v16h297v-16l-79 -38v-5l145 -197l157 197v4l-77 39v16h224v-16l-64 -35l-204 -253l221 -300l71 -40v-16h-302v16l72 37v4l-154 213l-166 -212l-1 -4l81 -38v-16h-234z" />
    <glyph glyph-name="uni0426" unicode="&#x426;" horiz-adv-x="806" 
d="M655 0h-603v16l83 41v546l-83 41v16h286v-16l-77 -41v-548h276v548l-77 41v16h286v-16l-83 -41v-548h97v-225h-16z" />
    <glyph glyph-name="uni0427" unicode="&#x427;" horiz-adv-x="759" 
d="M404 0v16l95 41v246q-34 -13 -78 -22.5t-97 -9.5q-69 0 -119.5 19t-78 67.5t-27.5 135.5v109l-85 42v16h290v-16l-79 -42v-115q0 -88 34 -121t115 -33q31 0 63.5 4.5t61.5 18.5v246l-80 42v16h288v-16l-83 -42v-545l83 -41v-16h-303z" />
    <glyph glyph-name="uni0428" unicode="&#x428;" horiz-adv-x="1084" 
d="M334 660v-16l-73 -41v-548h218v548l-74 41v16h273v-16l-74 -41v-548h218v548l-71 41v16h280v-16l-83 -41v-546l83 -41v-16h-979v16l83 41v546l-83 41v16h282z" />
    <glyph glyph-name="uni0429" unicode="&#x429;" horiz-adv-x="1091" 
d="M334 660v-16l-73 -41v-548h218v548l-74 41v16h273v-16l-74 -41v-548h218v548l-71 41v16h280v-16l-83 -41v-548h97v-225h-16l-89 170h-888v16l83 41v546l-83 41v16h282z" />
    <glyph glyph-name="uni042A" unicode="&#x42a;" horiz-adv-x="760" 
d="M448 0h-308v16l83 41v548h-105l-75 -157h-16v212h425v-16l-103 -41v-212h100q85 0 148.5 -23t99 -65t35.5 -100q0 -60 -35.5 -105.5t-99.5 -71.5t-149 -26zM426 336h-77v-281h84q83 0 126 39.5t43 101.5q0 72 -43.5 106t-132.5 34z" />
    <glyph glyph-name="uni042B" unicode="&#x42b;" horiz-adv-x="1076" 
d="M361 0h-309v16l84 41v546l-84 41v16h313v-16l-104 -41v-212h101q84 0 148 -23t99.5 -65t35.5 -100q0 -60 -35.5 -105.5t-99.5 -71.5t-149 -26zM339 336h-78v-281h85q83 0 125.5 39.5t42.5 101.5q0 72 -43 106t-132 34zM729 0v16l83 41v546l-83 41v16h292v-16l-83 -41
v-546l83 -41v-16h-292z" />
    <glyph glyph-name="uni042C" unicode="&#x42c;" horiz-adv-x="673" 
d="M361 0h-309v16l84 41v546l-84 41v16h313v-16l-104 -41v-212h101q84 0 148 -23t99.5 -65t35.5 -100q0 -60 -35.5 -105.5t-99.5 -71.5t-149 -26zM339 336h-78v-281h85q83 0 125.5 39.5t42.5 101.5q0 72 -43 106t-132 34z" />
    <glyph glyph-name="uni042D" unicode="&#x42d;" horiz-adv-x="724" 
d="M323 42q63 0 110 31.5t73 89.5t26 137v14h-218l-53 -84h-16v223h16l53 -84h214q-11 77 -42 133t-78 86.5t-103 30.5q-33 0 -58.5 -6.5t-51.5 -24.5l-83 -146h-18l8 182q42 20 94 33t129 13q73 0 135.5 -25.5t108.5 -71t71.5 -107.5t25.5 -136q0 -98 -43 -175t-120 -121
t-178 -44q-77 0 -134.5 14t-99.5 37l-13 165h17l77 -123q28 -17 64 -29t87 -12z" />
    <glyph glyph-name="uni042E" unicode="&#x42e;" horiz-adv-x="1081" 
d="M52 0v16l84 41v546l-84 41v16h288v-16l-79 -41v-235h103q8 88 53 156t116.5 107t159.5 39q71 0 131.5 -25.5t105 -71t69.5 -107.5t25 -136t-25 -136t-69.5 -107.5t-105 -71t-131.5 -25.5q-92 0 -165 41.5t-117.5 114.5t-48.5 167h-101v-256l79 -41v-16h-288zM711 41
q53 0 93.5 32t63 90t22.5 137q0 97 -28.5 169t-76.5 111.5t-107 39.5q-52 0 -93.5 -31.5t-65 -89.5t-23.5 -137q0 -97 29 -169t78 -112t108 -40z" />
    <glyph glyph-name="uni042F" unicode="&#x42f;" horiz-adv-x="731" 
d="M208 0h-180v16l69 38l180 253q-83 19 -123 64t-40 101q0 91 70 139.5t209 48.5h286v-16l-83 -41v-546l83 -41v-16h-287v16l78 42v229h-72zM411 339h59v266h-54q-86 0 -129.5 -34.5t-43.5 -96.5q0 -59 42.5 -97t125.5 -38z" />
    <glyph glyph-name="uni0430" unicode="&#x430;" horiz-adv-x="504" 
d="M153 -10q-48 0 -81.5 29t-32.5 82q1 52 35 85.5t126 55.5l94 23v66q0 37 -25 60.5t-60 23.5t-49 -16.5t-14 -47.5v-39l-5 -4h-60q-15 0 -21 6t-6 24q0 47 60 83q32 20 63.5 31.5t66.5 11.5q44 0 82 -12t61 -38t23 -70v-273q14 -16 51 -16h33l3 -3v-10q-12 -20 -37 -36
t-64 -16q-38 0 -61.5 17.5t-33.5 47.5h-7q-26 -28 -62 -46.5t-79 -18.5zM149 126q0 -32 18.5 -47.5t51.5 -15.5q19 0 36.5 4t38.5 13v147q-62 -12 -93 -26.5t-41.5 -32.5t-10.5 -42z" />
    <glyph glyph-name="uni0431" unicode="&#x431;" horiz-adv-x="544" 
d="M463 745h21l4 -4v-25q0 -62 -28.5 -96t-105.5 -38q-52 -3 -81 -6t-45.5 -7.5t-28.5 -9.5q-33 -17 -39 -79q-2 -16 -0.5 -36t2.5 -48q22 21 54.5 34.5t78.5 13.5q57 0 104.5 -27t75.5 -77t28 -119q0 -71 -31.5 -123t-83.5 -80t-115 -28q-77 0 -129 35t-77.5 95t-25.5 134
q0 73 15.5 139.5t53 123.5t103 100.5t166.5 70.5q35 10 53.5 17t24.5 16t6 24zM163 255q0 -111 33.5 -164.5t87.5 -53.5q40 0 68.5 37t28.5 125q0 55 -11 100.5t-37.5 72t-70.5 26.5q-30 0 -55 -13.5t-44 -36.5v-93z" />
    <glyph glyph-name="uni0432" unicode="&#x432;" horiz-adv-x="528" 
d="M103 406l-65 32v16h224q60 0 108 -9t75.5 -32t27.5 -63t-31 -67.5t-95 -37.5q87 -8 122.5 -39.5t35.5 -70.5q0 -135 -251 -135h-216v16l65 32v358zM270 410h-51v-150h48q47 0 68 20t21 55q0 32 -20 53.5t-66 21.5zM266 221h-47v-177h43q64 0 92.5 22t28.5 64t-27.5 66.5
t-89.5 24.5z" />
    <glyph glyph-name="uni0433" unicode="&#x433;" horiz-adv-x="462" 
d="M103 406l-65 32v16h401v-171h-17l-70 123h-133v-358l84 -32v-16h-265v16l65 32v358z" />
    <glyph glyph-name="uni0434" unicode="&#x434;" horiz-adv-x="540" 
d="M73 48q25 52 38 115t17.5 124t4.5 105v14l-66 32v16h432v-16l-66 -32v-358h71v-174h-18l-73 126h-304l-73 -126h-18v174h55zM318 48v358h-134v-14q0 -45 -4.5 -106t-16 -124t-33.5 -114h188z" />
    <glyph glyph-name="uni0435" unicode="&#x435;" horiz-adv-x="491" 
d="M260 -10q-100 0 -158.5 59t-58.5 157q0 76 32 134t84.5 91t116.5 33q80 0 125 -55t46 -155l-4 -5h-288q0 -45 16 -82.5t52 -60t95 -22.5q28 0 60 8t67 27h3v-14q-24 -49 -73 -82t-115 -33zM256 419q-40 0 -66 -33t-33 -92h193q-9 69 -33 97t-61 28z" />
    <glyph glyph-name="uni0436" unicode="&#x436;" horiz-adv-x="814" 
d="M173 0h-164v16l67 34l175 215l-162 138l-68 35v16h199v-16l-36 -36v-6l164 -149v159l-62 32v16h240v-16l-62 -32v-159l165 149v6l-37 36v16h194v-16l-68 -35l-156 -131l183 -222l60 -34v-16h-165l-34 52l-142 176v-180l60 -32v-16h-236v16l60 32v180l-142 -176z" />
    <glyph glyph-name="uni0437" unicode="&#x437;" horiz-adv-x="454" 
d="M204 32q44 0 69 24t25 70q0 43 -26 67.5t-80 24.5h-54v42h55q46 0 66.5 23.5t20.5 59.5q0 35 -19 56.5t-62 21.5q-32 0 -51 -13.5t-38 -41.5l-32 -49h-14v115q30 14 69.5 23t86.5 9q43 0 83.5 -9t67 -32.5t26.5 -66.5q0 -42 -31.5 -72t-96.5 -41q75 -8 113 -38.5
t38 -77.5q0 -68 -58 -102.5t-150 -34.5q-57 0 -91.5 9t-67.5 26v115h16l27 -45q21 -33 44.5 -48t63.5 -15z" />
    <glyph glyph-name="uni0438" unicode="&#x438;" horiz-adv-x="623" 
d="M103 406l-65 32v16h235v-16l-54 -32v-250l185 214v36l-54 32v16h235v-16l-65 -32v-358l65 -32v-16h-235v16l54 32v252l-185 -214v-38l54 -32v-16h-235v16l65 32v358z" />
    <glyph glyph-name="uni0439" unicode="&#x439;" horiz-adv-x="623" 
d="M103 406l-65 32v16h235v-16l-54 -32v-250l185 214v36l-54 32v16h235v-16l-65 -32v-358l65 -32v-16h-235v16l54 32v252l-185 -214v-38l54 -32v-16h-235v16l65 32v358zM134 707h93q0 -58 19 -93.5t61 -35.5t61.5 35.5t19.5 93.5h93q0 -73 -44.5 -120t-129.5 -47
q-84 0 -128.5 47t-44.5 120z" />
    <glyph glyph-name="uni043A" unicode="&#x43a;" horiz-adv-x="584" 
d="M401 0l-34 52l-148 176v-180l62 -32v-16h-243v16l65 32v358l-65 32v16h243v-16l-62 -32v-159l174 149v6l-36 36v16h194v-16l-68 -35l-164 -132l187 -221l64 -34v-16h-169z" />
    <glyph glyph-name="uni043B" unicode="&#x43b;" horiz-adv-x="546" 
d="M199 378q0 -116 -10.5 -198.5t-36.5 -127.5q-17 -33 -42.5 -47.5t-55.5 -14.5q-21 0 -27 6t-6 23v61l5 5h14q46 0 69 33.5t30.5 99t7.5 160.5v28l-69 32v16h430v-16l-66 -32v-358l66 -32v-16h-246v16l65 32v358h-128v-28z" />
    <glyph glyph-name="uni043C" unicode="&#x43c;" horiz-adv-x="727" 
d="M106 406l-65 32v16h193l128 -288h7l126 288h182v-16l-65 -32l19 -358l65 -32v-16h-238v16l57 32l-15 299l-150 -347h-34l-159 348l-8 -300l57 -32v-16h-175v16l65 32z" />
    <glyph glyph-name="uni043D" unicode="&#x43d;" horiz-adv-x="613" 
d="M103 406l-65 32v16h235v-16l-54 -32v-147h175v147l-54 32v16h235v-16l-65 -32v-358l65 -32v-16h-235v16l54 32v163h-175v-163l54 -32v-16h-235v16l65 32v358z" />
    <glyph glyph-name="uni043E" unicode="&#x43e;" horiz-adv-x="544" 
d="M272 -10q-68 0 -120.5 32t-81.5 85.5t-29 119.5t29 119.5t81.5 85.5t120.5 32q69 0 121 -32t81 -85.5t29 -119.5t-29 -119.5t-81 -85.5t-121 -32zM284 37q34 0 55.5 24t31.5 63t10 83q0 54 -12.5 102.5t-38.5 78.5t-68 30q-34 0 -56 -24t-32.5 -63t-10.5 -83
q0 -54 12.5 -102t39.5 -78.5t69 -30.5z" />
    <glyph glyph-name="uni043F" unicode="&#x43f;" horiz-adv-x="603" 
d="M103 406l-65 32v16h527v-16l-65 -32v-358l65 -32v-16h-235v16l54 32v358h-165v-358l54 -32v-16h-235v16l65 32v358z" />
    <glyph glyph-name="uni0440" unicode="&#x440;" horiz-adv-x="580" 
d="M38 -230v16l65 32v528l-62 49v10l158 59h10l8 -61h6q37 32 72 46.5t75 14.5q47 0 85.5 -26.5t61.5 -75t23 -115.5q0 -81 -31.5 -138.5t-84 -88t-114.5 -30.5q-52 0 -91 10v-182l75 -32v-16h-256zM299 387q-38 0 -80 -24v-286q39 -37 99 -37q28 0 52 16t39.5 54.5
t15.5 105.5q0 88 -38 129.5t-88 41.5z" />
    <glyph glyph-name="uni0441" unicode="&#x441;" horiz-adv-x="482" 
d="M256 -10q-64 0 -112 27t-74.5 75.5t-26.5 113.5q0 76 31 134t85.5 91t125.5 33q44 0 82.5 -13.5t57.5 -35.5q16 -19 16 -30q0 -14 -13 -24l-43 -37h-7l-35 47q-17 23 -36 36t-49 13q-50 0 -76.5 -45t-26.5 -122q0 -45 15.5 -83.5t50 -62t91.5 -23.5q28 0 60 8t68 27h3
v-14q-24 -48 -72.5 -81.5t-114.5 -33.5z" />
    <glyph glyph-name="uni0442" unicode="&#x442;" horiz-adv-x="499" 
d="M23 283v171h453v-171h-18l-69 123h-82v-358l81 -32v-16h-277v16l81 32v358h-82l-69 -123h-18z" />
    <glyph glyph-name="uni0443" unicode="&#x443;" horiz-adv-x="478" 
d="M83 -241q-23 0 -28.5 6.5t-5.5 22.5v61l5 5h45q25 0 40 4t27.5 21t29.5 55l29 68l-192 407l-64 29v16h261v-16l-70 -30v-4l120 -255h6l95 250v5l-66 34v16h193v-16l-72 -34l-199 -483q-9 -23 -15.5 -38.5t-14.5 -30t-23 -35.5q-20 -29 -48 -43.5t-53 -14.5z" />
    <glyph glyph-name="uni0444" unicode="&#x444;" horiz-adv-x="710" 
d="M233 -230v16l65 32v173q-76 5 -134 36t-90.5 82t-32.5 114q0 65 32.5 118t90.5 85t134 37v173l-62 49v10l168 55h10v-287q76 -5 133 -36.5t89.5 -82.5t32.5 -114q0 -65 -32.5 -117t-89.5 -84.5t-133 -37.5v-173l61 -32v-16h-242zM163 244q0 -50 14.5 -93.5t44.5 -73.5
t76 -39v381q-69 -5 -102 -54.5t-33 -120.5zM547 210q0 51 -14 94.5t-43.5 73t-75.5 39.5v-382q45 3 74.5 27.5t44 63t14.5 84.5z" />
    <glyph glyph-name="uni0445" unicode="&#x445;" horiz-adv-x="527" 
d="M21 0v16l53 33l135 166l-140 194l-45 29v16h244v-16l-60 -28v-6l82 -115l80 109v6l-53 34v16h173v-16l-53 -33l-122 -150l151 -210l41 -29v-16h-236v16l57 28v6l-94 130l-90 -124v-6l58 -34v-16h-181z" />
    <glyph glyph-name="uni0446" unicode="&#x446;" horiz-adv-x="607" 
d="M103 48v358l-65 32v16h235v-16l-54 -32v-358h165v358l-54 32v16h235v-16l-65 -32v-358h71v-174h-18l-74 126h-441v16z" />
    <glyph glyph-name="uni0447" unicode="&#x447;" horiz-adv-x="571" 
d="M75 337v69l-58 32v16h226v-16l-52 -32v-81q0 -54 22.5 -74.5t66.5 -20.5q22 0 39 2.5t33 6.5v167l-52 32v16h233v-16l-65 -32v-358l65 -32v-16h-254v16l73 32v151q-48 -13 -102 -13q-91 0 -133 33.5t-42 117.5z" />
    <glyph glyph-name="uni0448" unicode="&#x448;" horiz-adv-x="858" 
d="M103 48v358l-65 32v16h238v-16l-57 -32v-358h158v358l-57 32v16h230v-16l-57 -32v-358h159v358l-58 32v16h239v-16l-66 -32v-358l66 -32v-16h-795v16z" />
    <glyph glyph-name="uni0449" unicode="&#x449;" horiz-adv-x="878" 
d="M103 48v358l-65 32v16h238v-16l-57 -32v-358h158v358l-57 32v16h230v-16l-57 -32v-358h159v358l-58 32v16h239v-16l-66 -32v-358h71v-174h-18l-73 126h-709v16z" />
    <glyph glyph-name="uni044A" unicode="&#x44a;" horiz-adv-x="599" 
d="M330 280q90 0 144 -18.5t78 -49t24 -65.5q0 -147 -251 -147h-209v16l66 32v358h-72l-69 -123h-18v171h356v-16l-82 -32v-126h33zM343 233h-46v-187h43q58 0 86 24t28 67q0 44 -27.5 70t-83.5 26z" />
    <glyph glyph-name="uni044B" unicode="&#x44b;" horiz-adv-x="781" 
d="M678 406v-358l65 -32v-16h-246v16l65 32v358l-65 32v16h246v-16zM252 280q90 0 144 -18.5t78 -49t24 -65.5q0 -147 -251 -147h-209v16l65 32v358l-65 32v16h262v-16l-81 -32v-126h33zM265 233h-46v-187h43q58 0 86 24t28 67q0 44 -27.5 70t-83.5 26z" />
    <glyph glyph-name="uni044C" unicode="&#x44c;" horiz-adv-x="521" 
d="M252 280q90 0 144 -18.5t78 -49t24 -65.5q0 -147 -251 -147h-209v16l65 32v358l-65 32v16h262v-16l-81 -32v-126h33zM265 233h-46v-187h43q58 0 86 24t28 67q0 44 -27.5 70t-83.5 26z" />
    <glyph glyph-name="uni044D" unicode="&#x44d;" horiz-adv-x="505" 
d="M155 208v48h184q-8 70 -40 117.5t-90 47.5q-31 0 -52.5 -13.5t-39.5 -41.5l-32 -49h-15v115q32 16 73 24t83 8q74 0 127.5 -32t82 -85.5t28.5 -119.5t-29 -119.5t-81 -85.5t-121 -32q-63 0 -101 9t-73 26v115h17l27 -45q21 -33 48 -48t72 -15q39 0 65.5 25.5t40 65.5
t13.5 84v1h-187z" />
    <glyph glyph-name="uni044E" unicode="&#x44e;" horiz-adv-x="780" 
d="M103 406l-65 32v16h246v-16l-65 -32v-147h77q6 58 35.5 104.5t76.5 73.5t108 27q66 0 116.5 -32t78.5 -85.5t28 -119.5t-28 -120t-78.5 -85.5t-116.5 -31.5q-63 0 -112 29.5t-77.5 79.5t-32.5 112h-75v-163l65 -32v-16h-246v16l65 32v358zM529 37q31 0 50 24t28.5 63
t9.5 83q0 54 -11.5 102.5t-35.5 78.5t-64 30q-32 0 -51.5 -24t-29 -63t-9.5 -83q0 -54 12 -102t37 -78.5t64 -30.5z" />
    <glyph glyph-name="uni044F" unicode="&#x44f;" horiz-adv-x="566" 
d="M299 0v16l49 32v148h-43l-96 -144l-26 -52h-162v16l59 34l114 162q-51 10 -80 38.5t-29 70.5q0 49 26.5 78t72.5 42t104 13h240v-16l-65 -32v-358l65 -32v-16h-229zM296 234h52v176h-46q-51 0 -76.5 -25t-25.5 -62q0 -36 24 -62.5t72 -26.5z" />
    <glyph glyph-name="uni0451" unicode="&#x451;" horiz-adv-x="491" 
d="M260 -10q-100 0 -158.5 59t-58.5 157q0 76 32 134t84.5 91t116.5 33q80 0 125 -55t46 -155l-4 -5h-288q0 -45 16 -82.5t52 -60t95 -22.5q28 0 60 8t67 27h3v-14q-24 -49 -73 -82t-115 -33zM256 419q-40 0 -66 -33t-33 -92h193q-9 69 -33 97t-61 28zM168 563
q-24 0 -39.5 15.5t-15.5 38.5t15.5 38.5t39.5 15.5q23 0 38.5 -15.5t15.5 -38.5t-15.5 -38.5t-38.5 -15.5zM360 563q-24 0 -39 15.5t-15 38.5t15 38.5t39 15.5t39 -15.5t15 -38.5t-15 -38.5t-39 -15.5z" />
    <glyph glyph-name="uni0452" unicode="&#x452;" horiz-adv-x="601" 
d="M219 46l66 -30v-16h-247v16l65 32v483h-64v49h64v52l-62 49v10l168 59h10v-170h134v-49h-134v-141h4q37 36 71.5 55t78.5 19q60 0 98.5 -31t38.5 -90v-329q0 -56 -15.5 -99t-54.5 -78t-109 -67v17q25 22 39 44.5t19 53.5t5 78v337q0 38 -23 58.5t-60 20.5q-23 0 -49 -8
t-43 -22v-303z" />
    <glyph glyph-name="uni0453" unicode="&#x453;" horiz-adv-x="462" 
d="M103 406l-65 32v16h401v-171h-17l-70 123h-133v-358l84 -32v-16h-265v16l65 32v358zM295 522l85 177h98q0 -17 -7.5 -32.5t-29.5 -34.5l-128 -110h-18z" />
    <glyph glyph-name="uni0454" unicode="&#x454;" horiz-adv-x="482" 
d="M256 -10q-64 0 -112 27t-74.5 75.5t-26.5 113.5q0 76 31 134t85.5 91t125.5 33q44 0 82.5 -13.5t57.5 -35.5q16 -19 16 -30q0 -14 -13 -24l-43 -37h-7l-35 47q-17 23 -36 36t-49 13q-47 0 -74 -42t-29 -113h168v-48h-166q8 -56 44 -94.5t111 -38.5q28 0 60 8t68 27h3v-14
q-24 -48 -72.5 -81.5t-114.5 -33.5z" />
    <glyph glyph-name="uni0455" unicode="&#x455;" horiz-adv-x="435" 
d="M211 -10q-49 0 -84 9t-70 26v115h14l34 -54q35 -55 102 -55q39 0 60 16.5t21 45.5q0 25 -12 39.5t-37.5 26.5t-64.5 29q-54 23 -81 52.5t-27 76.5q0 41 21.5 74.5t58 53t79.5 19.5q35 0 67 -8t64 -24v-115h-15l-32 49q-35 55 -84 55q-31 0 -50.5 -15.5t-19.5 -44.5
t21.5 -46t77.5 -40q28 -13 56 -27t46.5 -40t18.5 -73q0 -46 -24.5 -78.5t-62.5 -49.5t-77 -17z" />
    <glyph glyph-name="uni0456" unicode="&#x456;" horiz-adv-x="325" 
d="M162 571q-29 0 -48 19.5t-19 48.5t19 48t48 19t48.5 -19t19.5 -48t-19.5 -48.5t-48.5 -19.5zM42 0v16l65 32v302l-62 48v11l168 55h10v-416l61 -32v-16h-242z" />
    <glyph glyph-name="uni0457" unicode="&#x457;" horiz-adv-x="326" 
d="M78 571q-28 0 -46 19.5t-18 48.5q0 30 18 48.5t46 18.5t46 -18.5t18 -48.5q0 -29 -18 -48.5t-46 -19.5zM244 571q-28 0 -46 19.5t-18 48.5q0 30 18 48.5t46 18.5q27 0 45.5 -18.5t18.5 -48.5q0 -29 -18.5 -48.5t-45.5 -19.5zM42 0v16l65 32v302l-62 48v11l168 55h10v-416
l61 -32v-16h-242z" />
    <glyph glyph-name="uni0458" unicode="&#x458;" horiz-adv-x="324" 
d="M161 571q-29 0 -48 19.5t-19 48.5t19 48t48 19t48.5 -19t19.5 -48t-19.5 -48.5t-48.5 -19.5zM43 -230v17q25 22 38.5 44.5t19 53.5t5.5 78v387l-62 48v11l168 55h10v-450q0 -56 -15.5 -99t-54.5 -78t-109 -67z" />
    <glyph glyph-name="uni0459" unicode="&#x459;" horiz-adv-x="741" 
d="M199 378q0 -118 -10.5 -199.5t-36.5 -126.5q-17 -33 -42.5 -47.5t-55.5 -14.5q-21 0 -27 6t-6 23v61l5 5h14q44 0 66.5 33t30.5 98t8 162v28l-69 32v16h445v-16l-82 -32v-128h33q90 0 144 -18t78 -48t24 -66q0 -146 -251 -146h-205v16l62 32v358h-125v-28zM484 231h-45
v-185h42q59 0 87 24t28 66q0 44 -27.5 69.5t-84.5 25.5z" />
    <glyph glyph-name="uni045A" unicode="&#x45a;" horiz-adv-x="799" 
d="M103 406l-65 32v16h228v-16l-47 -32v-138h162v138l-47 32v16h245v-16l-82 -32v-138h33q90 0 144 -17.5t78 -46.5t24 -63q0 -141 -251 -141h-191v16l47 32v172h-162v-172l47 -32v-16h-228v16l65 32v358zM541 221h-44v-175h42q59 0 87 22.5t28 62.5q0 42 -27.5 66t-85.5 24
z" />
    <glyph glyph-name="uni045B" unicode="&#x45b;" horiz-adv-x="603" 
d="M219 46l59 -30v-16h-240v16l65 32v483h-64v49h64v52l-62 49v10l168 59h10v-170h134v-49h-134v-141h4q37 36 71.5 55t78.5 19q60 0 98.5 -31t38.5 -90v-295l65 -32v-16h-240v16l59 30v254q0 38 -23 58.5t-60 20.5q-23 0 -49 -8t-43 -22v-303z" />
    <glyph glyph-name="uni045C" unicode="&#x45c;" horiz-adv-x="584" 
d="M293 530l85 177h98q0 -17 -7.5 -32.5t-29.5 -34.5l-128 -110h-18zM401 0l-34 52l-148 176v-180l62 -32v-16h-243v16l65 32v358l-65 32v16h243v-16l-62 -32v-159l174 149v6l-36 36v16h194v-16l-68 -35l-164 -132l187 -221l64 -34v-16h-169z" />
    <glyph glyph-name="uni045E" unicode="&#x45e;" horiz-adv-x="478" 
d="M83 -241q-23 0 -28.5 6.5t-5.5 22.5v61l5 5h45q25 0 40 4t27.5 21t29.5 55l29 68l-192 407l-64 29v16h261v-16l-70 -30v-4l120 -255h6l95 250v5l-66 34v16h193v-16l-72 -34l-199 -483q-9 -23 -15.5 -38.5t-14.5 -30t-23 -35.5q-20 -29 -48 -43.5t-53 -14.5zM101 715h93
q0 -58 19 -93.5t61 -35.5t61.5 35.5t19.5 93.5h93q0 -73 -44.5 -120t-129.5 -47q-84 0 -128.5 47t-44.5 120z" />
    <glyph glyph-name="uni045F" unicode="&#x45f;" horiz-adv-x="603" 
d="M103 48v358l-65 32v16h235v-16l-54 -32v-358h165v358l-54 32v16h235v-16l-65 -32v-358l65 -32v-16h-213l-42 -126h-17l-42 126h-213v16z" />
    <glyph glyph-name="uni0462" unicode="&#x462;" horiz-adv-x="749" 
d="M441 0h-309v16l84 41v434h-102l-75 -114h-16v169h193v57l-84 41v16h300v-16l-91 -41v-57h223v-169h-16l-76 114h-131v-147h101q84 0 146.5 -20t97.5 -57t35 -88q0 -53 -35 -93.5t-98.5 -63t-146.5 -22.5zM419 289h-78v-234h85q81 0 123 33t42 85q0 60 -42.5 88t-129.5 28
z" />
    <glyph glyph-name="uni0463" unicode="&#x463;" horiz-adv-x="592" 
d="M174 48v358h-69l-68 -107h-17v155h154v182l-62 49v10l168 55h10v-296h167v-155h-18l-67 107h-82v-146h33q90 0 144 -16.5t78 -45t24 -62.5q0 -70 -63.5 -103t-187.5 -33h-209v16zM334 213h-44v-167h42q115 0 115 80q0 87 -113 87z" />
    <glyph glyph-name="uni0472" unicode="&#x472;" horiz-adv-x="796" 
d="M398 -10q-73 0 -135 25.5t-108 71t-71.5 107.5t-25.5 136t25.5 136t71.5 107.5t108 71t135 25.5q74 0 136 -25.5t108 -71t71.5 -107.5t25.5 -136t-25.5 -136t-71.5 -107.5t-108 -71t-136 -25.5zM191 362v-15q55 33 104 39.5t93 -1t82.5 -19t71 -16t60.5 9.5
q-9 80 -40 138t-77.5 90t-101.5 32t-98.5 -31.5t-68.5 -89.5t-25 -137zM416 41q56 0 98.5 32t66.5 90t24 137v17q-50 -34 -95 -40.5t-87 2t-80.5 20.5t-75.5 16.5t-73 -10.5q9 -81 40.5 -140t78.5 -91.5t103 -32.5z" />
    <glyph glyph-name="uni0473" unicode="&#x473;" horiz-adv-x="544" 
d="M272 -10q-68 0 -120.5 32t-81.5 85.5t-29 119.5t29 119.5t81.5 85.5t120.5 32q69 0 121 -32t81 -85.5t29 -119.5t-29 -119.5t-81 -85.5t-121 -32zM163 248v-2q41 24 74 25.5t59.5 -6.5t47 -15t35.5 -1q-4 45 -17.5 83.5t-38 62t-61.5 23.5q-34 0 -56 -24t-32.5 -63
t-10.5 -83zM284 37q34 0 55.5 24t31.5 63t10 83v13q-36 -27 -66.5 -29.5t-57.5 6t-50 16.5t-43 3q3 -48 17 -88.5t39.5 -65.5t63.5 -25z" />
    <glyph glyph-name="uni0474" unicode="&#x474;" horiz-adv-x="748" 
d="M523 450q19 46 40 91t45 74q31 35 57.5 45t49.5 10t28.5 -6t5.5 -23v-68l-4 -5h-16q-39 0 -62.5 -11t-41 -37.5t-35.5 -71.5l-185 -453h-49l-260 612l-70 37v16h286v-16l-84 -39l181 -427h6z" />
    <glyph glyph-name="uni0475" unicode="&#x475;" horiz-adv-x="487" 
d="M221 0l-187 409l-64 29v16h264v-16l-74 -30v-4l111 -240h5l64 170q29 77 59.5 103t60.5 26q20 0 25 -6.5t5 -22.5v-61l-4 -5h-15q-27 0 -45 -8.5t-31 -28.5t-29 -56l-114 -275h-31z" />
    <glyph glyph-name="uni0490" unicode="&#x490;" horiz-adv-x="578" 
d="M52 0v16l84 41v546l-84 41v16h408l89 170h16v-225h-304v-548l98 -41v-16h-307z" />
    <glyph glyph-name="uni0491" unicode="&#x491;" horiz-adv-x="455" 
d="M103 406l-65 32v16h310l70 122h18v-170h-217v-358l84 -32v-16h-265v16l65 32v358z" />
    <glyph glyph-name="uni0492" unicode="&#x492;" horiz-adv-x="608" 
d="M52 0v16l84 41v259h-84v52h84v235l-84 41v16h513v-173h-16l-69 118h-219v-237h171v-52h-171v-259l98 -41v-16h-307z" />
    <glyph glyph-name="uni0493" unicode="&#x493;" horiz-adv-x="462" 
d="M29 203v48h74v155l-65 32v16h401v-171h-17l-70 123h-133v-155h113v-48h-113v-155l84 -32v-16h-265v16l65 32v155h-74z" />
    <glyph glyph-name="uni0496" unicode="&#x496;" horiz-adv-x="1066" 
d="M384 0v16l80 41v546l-80 41v16h285v-16l-80 -41v-546l80 -41v-16h-285zM590 335l262 273l-73 36v16h231v-16l-78 -30l-226 -233l268 -326h88v-225h-16l-89 170h-97zM463 335l-270 -335h-182v16l71 30l266 327l-237 242l-74 29v16h237v-16l-73 -36z" />
    <glyph glyph-name="uni0497" unicode="&#x497;" horiz-adv-x="824" 
d="M173 0h-164v16l64 34l177 216l-161 137l-68 35v16h199v-16l-36 -36v-6l164 -149v159l-62 32v16h240v-16l-62 -32v-159l165 149v6l-37 36v16h194v-16l-68 -35l-156 -131l185 -224h71v-174h-18l-70 126h-90l-34 52l-142 176v-180l60 -32v-16h-236v16l60 32v180l-142 -176z
" />
    <glyph glyph-name="uni049A" unicode="&#x49a;" horiz-adv-x="758" 
d="M52 0v16l84 41v546l-84 41v16h293v-16l-84 -41v-546l84 -41v-16h-293zM262 335l276 274l-74 35v16h226v-16l-66 -27l-244 -237l284 -325h89v-225h-16l-88 170h-99z" />
    <glyph glyph-name="uni049B" unicode="&#x49b;" horiz-adv-x="587" 
d="M401 0l-34 52l-148 176v-180l62 -32v-16h-243v16l65 32v358l-65 32v16h243v-16l-62 -32v-159l174 149v6l-36 36v16h194v-16l-68 -35l-164 -132l190 -223h72v-171h-18l-74 123h-88z" />
    <glyph glyph-name="uni04A2" unicode="&#x4a2;" horiz-adv-x="833" 
d="M52 0v16l84 41v546l-84 41v16h288v-16l-79 -41v-235h303v235l-79 41v16h287v-16l-82 -41v-548h97v-225h-16l-89 170h-197v16l79 41v256h-303v-256l79 -41v-16h-288z" />
    <glyph glyph-name="uni04A3" unicode="&#x4a3;" horiz-adv-x="617" 
d="M103 406l-65 32v16h235v-16l-54 -32v-147h175v147l-54 32v16h235v-16l-65 -32v-357h71v-175h-18l-74 126h-149v16l54 32v163h-175v-163l54 -32v-16h-235v16l65 32v358z" />
    <glyph glyph-name="uni04AE" unicode="&#x4ae;" horiz-adv-x="739" 
d="M221 0v16l90 41v251l-220 300l-65 36v16h282v-16l-75 -36v-4l176 -239l159 237v4l-76 38v16h221v-16l-64 -33l-212 -302v-252l89 -41v-16h-305z" />
    <glyph glyph-name="uni04AF" unicode="&#x4af;" horiz-adv-x="478" 
d="M116 -231v16l65 32v181l-147 411l-64 29v16h264v-16l-74 -30v-4l108 -337h10l101 332v5l-67 34v16h196v-16l-72 -35l-139 -410v-176l65 -32v-16h-246z" />
    <glyph glyph-name="uni04B0" unicode="&#x4b0;" horiz-adv-x="739" 
d="M221 0v16l90 41v200h-145v52h144l-219 299l-65 36v16h282v-16l-75 -36v-4l176 -239l159 237v4l-76 38v16h221v-16l-64 -33l-212 -302v0h144v-52h-144v-200l89 -41v-16h-305z" />
    <glyph glyph-name="uni04B1" unicode="&#x4b1;" horiz-adv-x="478" 
d="M69 -48v48h111l-146 409l-64 29v16h264v-16l-74 -30v-4l108 -337h10l101 332v5l-67 34v16h196v-16l-72 -35l-137 -403h111v-48h-113v-135l65 -32v-16h-246v16l65 32v135h-112z" />
    <glyph glyph-name="uni04B2" unicode="&#x4b2;" horiz-adv-x="759" 
d="M30 0v16l77 39l209 263l-208 290l-65 36v16h297v-16l-79 -38v-5l145 -197l157 197v4l-77 39v16h224v-16l-64 -35l-204 -253l222 -301h85v-225h-16l-89 170h-212v16l72 37v4l-154 213l-166 -212l-1 -4l81 -38v-16h-234z" />
    <glyph glyph-name="uni04B3" unicode="&#x4b3;" horiz-adv-x="543" 
d="M21 0v16l53 33l135 166l-140 194l-45 29v16h244v-16l-60 -28v-6l82 -115l80 109v6l-53 34v16h173v-16l-53 -33l-122 -150l149 -207v0h73v-174h-18l-74 126h-174v16l57 28v6l-94 130l-90 -124v-6l58 -34v-16h-181z" />
    <glyph glyph-name="uni04B6" unicode="&#x4b6;" horiz-adv-x="767" 
d="M99 493v109l-85 42v16h290v-16l-79 -42v-115q0 -88 34 -121t115 -33q31 0 63.5 4.5t61.5 18.5v246l-80 42v16h288v-16l-83 -42v-547h97v-225h-16l-89 170h-212v16l95 41v246q-34 -13 -78 -22.5t-97 -9.5q-69 0 -119.5 19t-78 67.5t-27.5 135.5z" />
    <glyph glyph-name="uni04B7" unicode="&#x4b7;" horiz-adv-x="575" 
d="M75 337v69l-58 32v16h226v-16l-52 -32v-81q0 -54 22.5 -74.5t66.5 -20.5q22 0 39 2.5t33 6.5v167l-52 32v16h233v-16l-65 -32v-357h71v-175h-18l-74 126h-168v16l73 32v151q-48 -13 -102 -13q-91 0 -133 33.5t-42 117.5z" />
    <glyph glyph-name="uni04BA" unicode="&#x4ba;" horiz-adv-x="759" 
d="M355 660v-16l-95 -41v-246q34 13 78 22.5t97 9.5q69 0 119.5 -19t78 -67.5t27.5 -135.5v-109l85 -42v-16h-290v16l79 42v115q0 88 -34 121t-115 33q-31 0 -63.5 -4.5t-61.5 -18.5v-246l80 -42v-16h-288v16l83 42v545l-83 41v16h303z" />
    <glyph glyph-name="uni04BB" unicode="&#x4bb;" horiz-adv-x="603" 
d="M38 0v16l65 32v588l-62 49v10l168 55h10v-360h4q37 36 71.5 55t78.5 19q60 0 98.5 -31t38.5 -90v-295l65 -32v-16h-240v16l59 30v254q0 38 -23 58.5t-60 20.5q-23 0 -49 -8t-43 -22v-303l59 -30v-16h-240z" />
    <glyph glyph-name="uni04C0" unicode="&#x4c0;" horiz-adv-x="404" 
d="M56 0v16l83 41v546l-83 41v16h292v-16l-83 -41v-546l83 -41v-16h-292z" />
    <glyph glyph-name="uni04CF" unicode="&#x4cf;" horiz-adv-x="317" 
d="M101 692l-66 32v16h246v-16l-65 -32v-644l65 -32v-16h-246v16l66 32v644z" />
    <glyph glyph-name="uni04D8" unicode="&#x4d8;" horiz-adv-x="689" 
d="M312 -10q-118 0 -185.5 79.5t-68.5 222.5l7 7h438v10q0 119 -53.5 186.5t-172.5 67.5q-58 0 -111 -18.5t-104 -52.5h-4v27q34 65 104.5 108t164.5 43q95 0 163 -38.5t105 -108.5t37 -164q0 -108 -41.5 -191.5t-114 -130.5t-164.5 -47zM332 48q75 0 117 51t51 149h-322
q9 -95 48.5 -147.5t105.5 -52.5z" />
    <glyph glyph-name="uni04D9" unicode="&#x4d9;" horiz-adv-x="491" 
d="M215 -10q-80 0 -125 55t-46 155l4 5h288q0 44 -16 81t-50.5 60t-91.5 23q-28 0 -62.5 -10t-69.5 -30h-3v22q25 47 74 80t114 33q101 0 159 -59t58 -157q0 -76 -32 -134t-85 -91t-116 -33zM235 35q40 0 66 33t33 92h-193q8 -69 32 -97t62 -28z" />
    <glyph glyph-name="uni04E2" unicode="&#x4e2;" horiz-adv-x="835" 
d="M52 0v16l84 41v546l-84 41v16h288v-16l-79 -41v-432l313 389v43l-79 41v16h287v-16l-82 -41v-546l82 -41v-16h-287v16l79 41v426l-313 -389v-37l79 -41v-16h-288zM280 760v55h280v-55h-280z" />
    <glyph glyph-name="uni04E3" unicode="&#x4e3;" horiz-adv-x="623" 
d="M103 406l-65 32v16h235v-16l-54 -32v-250l185 214v36l-54 32v16h235v-16l-65 -32v-358l65 -32v-16h-235v16l54 32v252l-185 -214v-38l54 -32v-16h-235v16l65 32v358zM171 589v56h280v-56h-280z" />
    <glyph glyph-name="uni04E8" unicode="&#x4e8;" horiz-adv-x="796" 
d="M398 -10q-73 0 -135 25.5t-108 71t-71.5 107.5t-25.5 136t25.5 136t71.5 107.5t108 71t135 25.5q74 0 136 -25.5t108 -71t71.5 -107.5t25.5 -136t-25.5 -136t-71.5 -107.5t-108 -71t-136 -25.5zM383 620q-55 0 -98.5 -31.5t-68.5 -88t-25 -133.5h410q-10 78 -41 134.5
t-76.5 87.5t-100.5 31zM416 41q56 0 98.5 32t66.5 90t24 137v15h-412q7 -84 38.5 -145.5t79.5 -95t105 -33.5z" />
    <glyph glyph-name="uni04E9" unicode="&#x4e9;" horiz-adv-x="544" 
d="M272 -10q-68 0 -120.5 32t-81.5 85.5t-29 119.5t29 119.5t81.5 85.5t120.5 32q69 0 121 -32t81 -85.5t29 -119.5t-29 -119.5t-81 -85.5t-121 -32zM262 418q-33 0 -54.5 -22t-32.5 -58.5t-12 -78.5h215q-5 43 -19 79.5t-38 58t-59 21.5zM284 37q34 0 55.5 24t31.5 63
t10 83v0.5v3.5h-217q4 -47 18 -86.5t39 -63.5t63 -24z" />
    <glyph glyph-name="uni04EE" unicode="&#x4ee;" horiz-adv-x="726" 
d="M343 55q-35 -43 -66.5 -54t-60.5 -11q-22 0 -28 6t-6 23v68l5 5h16q50 0 80.5 14.5t56.5 49.5l-240 449l-74 39v16h286v-16l-83 -38l172 -323h14l169 325l-82 36v16h213v-16l-61 -33l-212 -400q-22 -43 -49 -86.5t-50 -69.5zM260 760v55h280v-55h-280z" />
    <glyph glyph-name="uni04EF" unicode="&#x4ef;" horiz-adv-x="478" 
d="M83 -241q-23 0 -28.5 6.5t-5.5 22.5v61l5 5h45q25 0 40 4t27.5 21t29.5 55l29 68l-192 407l-64 29v16h261v-16l-70 -30v-4l120 -255h6l95 250v5l-66 34v16h193v-16l-72 -34l-199 -483q-9 -23 -15.5 -38.5t-14.5 -30t-23 -35.5q-20 -29 -48 -43.5t-53 -14.5zM134 589v56
h280v-56h-280z" />
    <glyph glyph-name="uni1E08" unicode="&#x1e08;" horiz-adv-x="717" 
d="M382 710l84 152h99q0 -17 -7 -34t-30 -33l-129 -85h-17zM398 -240q-55 0 -82 26v16h3q23 -11 59 -11q28 0 41.5 10.5t13.5 27.5q0 22 -20.5 36.5t-78.5 31.5l43 94q-98 4 -169.5 47.5t-110.5 114.5t-39 161q0 73 29 137.5t79 113.5t114 77t135 28q51 0 86.5 -6.5t63 -17
t55.5 -24.5l9 -182h-18l-80 140q-31 21 -56 30.5t-58 9.5q-65 0 -117 -36t-82 -101t-30 -150q0 -91 29 -156t78.5 -100t110.5 -35q45 0 77.5 12t60.5 29l77 123h17l-13 -165q-40 -22 -90.5 -36t-121.5 -15l-17 -37q57 -18 80 -41t23 -63q0 -38 -27 -63.5t-74 -25.5z" />
    <glyph glyph-name="uni1E09" unicode="&#x1e09;" horiz-adv-x="482" 
d="M262 530l85 177h98q0 -17 -7.5 -32.5t-29.5 -34.5l-128 -110h-18zM264 -240q-55 0 -82 26v16h3q23 -11 59 -11q28 0 41.5 10.5t13.5 27.5q0 22 -20 36.5t-79 31.5l43 93q-91 5 -145.5 63.5t-54.5 152.5q0 76 31 134t85.5 91t125.5 33q44 0 82.5 -13.5t57.5 -35.5
q16 -19 16 -30q0 -14 -13 -24l-43 -37h-7l-35 47q-17 23 -36 36t-49 13q-50 0 -76.5 -45t-26.5 -122q0 -45 15.5 -83.5t50 -62t91.5 -23.5q28 0 60 8t68 27h3v-14q-22 -44 -64 -76t-99 -38l-18 -38q57 -18 80 -41t23 -63q0 -38 -27 -63.5t-74 -25.5z" />
    <glyph glyph-name="uni1E0C" unicode="&#x1e0c;" horiz-adv-x="791" 
d="M52 0v16l84 41v546l-84 41v16h322q115 0 195.5 -39t123 -107t42.5 -154q0 -78 -27.5 -144t-77 -114t-117 -75t-146.5 -27h-315zM340 605h-79v-550h94q79 0 134.5 33.5t85 95t29.5 145.5q0 126 -67.5 201t-196.5 75zM397 -220q-28 0 -48 20t-20 48t20 48t48 20t48 -20
t20 -48t-20 -48t-48 -20z" />
    <glyph glyph-name="uni1E0D" unicode="&#x1e0d;" horiz-adv-x="573" 
d="M208 -10q-48 0 -86.5 25t-61.5 71t-23 108q0 84 31.5 144.5t85.5 93t121 32.5q49 0 84 -9v181l-67 50v9l173 55h9v-705l71 -29v-16h-176l-8 50h-7q-38 -32 -72 -46t-74 -14zM153 222q0 -80 38 -117.5t88 -37.5q40 0 80 24v285q-18 17 -37.5 26.5t-43.5 9.5
q-34 0 -62 -17.5t-45.5 -59t-17.5 -113.5zM282 -220q-28 0 -48 20t-20 48t20 48t48 20t48 -20t20 -48t-20 -48t-48 -20z" />
    <glyph glyph-name="uni1E0E" unicode="&#x1e0e;" horiz-adv-x="791" 
d="M52 0v16l84 41v546l-84 41v16h322q115 0 195.5 -39t123 -107t42.5 -154q0 -78 -27.5 -144t-77 -114t-117 -75t-146.5 -27h-315zM340 605h-79v-550h94q79 0 134.5 33.5t85 95t29.5 145.5q0 126 -67.5 201t-196.5 75zM257 -177v56h280v-56h-280z" />
    <glyph glyph-name="uni1E0F" unicode="&#x1e0f;" horiz-adv-x="573" 
d="M208 -10q-48 0 -86.5 25t-61.5 71t-23 108q0 84 31.5 144.5t85.5 93t121 32.5q49 0 84 -9v181l-67 50v9l173 55h9v-705l71 -29v-16h-176l-8 50h-7q-38 -32 -72 -46t-74 -14zM153 222q0 -80 38 -117.5t88 -37.5q40 0 80 24v285q-18 17 -37.5 26.5t-43.5 9.5
q-34 0 -62 -17.5t-45.5 -59t-17.5 -113.5zM142 -177v56h280v-56h-280z" />
    <glyph glyph-name="uni1E14" unicode="&#x1e14;" horiz-adv-x="669" 
d="M52 0v16l84 41v546l-84 41v16h523v-173h-16l-69 118h-229v-237h161l54 85h16v-223h-16l-54 83h-161v-258h254l72 140h16v-195h-551zM206 760v55h280v-55h-280zM338 862l-129 85q-23 16 -30 33t-7 34h99l84 -152h-17z" />
    <glyph glyph-name="uni1E15" unicode="&#x1e15;" horiz-adv-x="491" 
d="M260 -10q-100 0 -158.5 59t-58.5 157q0 76 32 134t84.5 91t116.5 33q80 0 125 -55t46 -155l-4 -5h-288q0 -45 16 -82.5t52 -60t95 -22.5q28 0 60 8t67 27h3v-14q-24 -49 -73 -82t-115 -33zM256 419q-40 0 -66 -33t-33 -92h193q-9 69 -33 97t-61 28zM124 589v56h280v-56
h-280zM256 710l-129 85q-23 16 -30 33t-7 34h99l84 -152h-17z" />
    <glyph glyph-name="uni1E16" unicode="&#x1e16;" horiz-adv-x="669" 
d="M52 0v16l84 41v546l-84 41v16h523v-173h-16l-69 118h-229v-237h161l54 85h16v-223h-16l-54 83h-161v-258h254l72 140h16v-195h-551zM206 760v55h280v-55h-280zM336 862l85 152h98q0 -17 -7 -34t-30 -33l-128 -85h-18z" />
    <glyph glyph-name="uni1E17" unicode="&#x1e17;" horiz-adv-x="491" 
d="M260 -10q-100 0 -158.5 59t-58.5 157q0 76 32 134t84.5 91t116.5 33q80 0 125 -55t46 -155l-4 -5h-288q0 -45 16 -82.5t52 -60t95 -22.5q28 0 60 8t67 27h3v-14q-24 -49 -73 -82t-115 -33zM256 419q-40 0 -66 -33t-33 -92h193q-9 69 -33 97t-61 28zM124 589v56h280v-56
h-280zM254 710l85 152h98q0 -17 -7 -34t-30 -33l-128 -85h-18z" />
    <glyph glyph-name="uni1E1C" unicode="&#x1e1c;" horiz-adv-x="669" 
d="M346 710q-69 0 -103 39.5t-51 112.5h17q25 -50 56 -64.5t81 -14.5t80.5 14.5t56.5 64.5h17q-18 -73 -53.5 -112.5t-100.5 -39.5zM52 0v16l84 41v546l-84 41v16h523v-173h-16l-69 118h-229v-237h161l54 85h16v-223h-16l-54 83h-161v-258h254l72 140h16v-195h-228l-22 -47
q57 -18 80 -41t23 -63q0 -38 -27 -63.5t-74 -25.5q-55 0 -82 26v16h3q23 -11 60 -11q28 0 41 10.5t13 27.5q0 22 -20 36.5t-79 31.5l47 103h-286z" />
    <glyph glyph-name="uni1E1D" unicode="&#x1e1d;" horiz-adv-x="491" 
d="M264 540q-69 0 -102 41.5t-52 125.5h17q19 -42 39 -62t44 -26t54 -6t53 6t43 26t40 62h17q-19 -84 -53.5 -125.5t-99.5 -41.5zM268 -240q-55 0 -82 26v16h4q23 -11 59 -11q29 0 42 10.5t13 27.5q0 22 -20.5 36.5t-79.5 31.5l43 93q-95 4 -149.5 63t-54.5 153q0 76 32 134
t84.5 91t116.5 33q80 0 125 -55t46 -155l-4 -5h-288q0 -45 16 -82.5t52 -60t95 -22.5q28 0 60 8t67 27h3v-14q-22 -44 -64 -75.5t-99 -38.5l-18 -38q57 -18 80 -41t23 -63q0 -38 -27 -63.5t-75 -25.5zM256 419q-40 0 -66 -33t-33 -92h193q-9 69 -33 97t-61 28z" />
    <glyph glyph-name="uni1E20" unicode="&#x1e20;" horiz-adv-x="761" 
d="M398 -10q-72 0 -134 24t-108 68t-72 103t-26 129q0 77 29.5 142t80.5 113t117.5 74.5t140.5 26.5q53 0 90.5 -6t67 -17t58.5 -25l8 -171h-17l-82 130q-34 22 -61 31t-62 9q-68 0 -123 -35t-87 -97t-32 -143q0 -94 32.5 -161t87 -103t121.5 -36q23 0 48 2.5t50 9.5v178
l-89 44v16h287v-16l-73 -46v-160q-30 -26 -73 -44.5t-89.5 -29t-89.5 -10.5zM262 760v55h280v-55h-280z" />
    <glyph glyph-name="uni1E21" unicode="&#x1e21;" horiz-adv-x="543" 
d="M257 148q-46 0 -85 16q-15 -8 -21 -19.5t-6 -23.5q0 -26 18 -37.5t56 -11.5h115q76 0 112 -33.5t36 -98.5q0 -45 -30.5 -86t-86.5 -67.5t-133 -26.5q-97 0 -138.5 32t-41.5 80q0 37 18 63l65 42v4q-77 22 -77 93q0 43 27 70l56 31v6q-32 21 -51 53.5t-19 71.5
q0 44 24.5 80t66.5 56.5t95 20.5q25 0 51 -5.5t45 -14.5l153 10v-58l-98 7l-4 -3q18 -17 28.5 -42t10.5 -51q0 -45 -24.5 -80.5t-66.5 -56.5t-95 -21zM266 190q34 0 53.5 32t19.5 81q0 55 -24.5 87t-61.5 32q-38 0 -57.5 -32.5t-19.5 -80.5q0 -55 25 -87t65 -32zM131 -112
q0 -41 30 -68t81 -27q65 0 104 32.5t39 76.5q0 40 -21.5 56t-76.5 16h-95q-10 0 -19 1q-22 -15 -32 -36t-10 -51zM120 589v56h280v-56h-280z" />
    <glyph glyph-name="uni1E24" unicode="&#x1e24;" horiz-adv-x="825" 
d="M52 0v16l84 41v546l-84 41v16h288v-16l-79 -41v-235h303v235l-79 41v16h287v-16l-82 -41v-546l82 -41v-16h-287v16l79 41v256h-303v-256l79 -41v-16h-288zM412 -220q-28 0 -48 20t-20 48t20 48t48 20t48 -20t20 -48t-20 -48t-48 -20z" />
    <glyph glyph-name="uni1E25" unicode="&#x1e25;" horiz-adv-x="603" 
d="M38 0v16l65 32v588l-62 49v10l168 55h10v-360h4q37 36 71.5 55t78.5 19q60 0 98.5 -31t38.5 -90v-295l65 -32v-16h-240v16l59 30v254q0 38 -23 58.5t-60 20.5q-23 0 -49 -8t-43 -22v-303l59 -30v-16h-240zM307 -220q-28 0 -48 20t-20 48t20 48t48 20t48 -20t20 -48
t-20 -48t-48 -20z" />
    <glyph glyph-name="uni1E2A" unicode="&#x1e2a;" horiz-adv-x="825" 
d="M52 0v16l84 41v546l-84 41v16h288v-16l-79 -41v-235h303v235l-79 41v16h287v-16l-82 -41v-546l82 -41v-16h-287v16l79 41v256h-303v-256l79 -41v-16h-288zM412 -240q-69 0 -102 41.5t-52 125.5h17q19 -42 39.5 -62t44 -26t53.5 -6t53.5 6t43.5 26t40 62h17
q-20 -84 -54.5 -125.5t-99.5 -41.5z" />
    <glyph glyph-name="uni1E2B" unicode="&#x1e2b;" horiz-adv-x="603" 
d="M38 0v16l65 32v588l-62 49v10l168 55h10v-360h4q37 36 71.5 55t78.5 19q60 0 98.5 -31t38.5 -90v-295l65 -32v-16h-240v16l59 30v254q0 38 -23 58.5t-60 20.5q-23 0 -49 -8t-43 -22v-303l59 -30v-16h-240zM307 -240q-69 0 -102 41.5t-52 125.5h17q19 -42 39.5 -62t44 -26
t53.5 -6t53.5 6t43.5 26t40 62h17q-20 -84 -54.5 -125.5t-99.5 -41.5z" />
    <glyph glyph-name="uni1E2E" unicode="&#x1e2e;" horiz-adv-x="404" 
d="M56 0v16l83 41v546l-83 41v16h292v-16l-83 -41v-546l83 -41v-16h-292zM106 732q-24 0 -39.5 15.5t-15.5 38.5t15.5 38.5t39.5 15.5q23 0 38.5 -15.5t15.5 -38.5t-15.5 -38.5t-38.5 -15.5zM298 732q-24 0 -39 15.5t-15 38.5t15 38.5t39 15.5t39 -15.5t15 -38.5t-15 -38.5
t-39 -15.5zM192 879l85 152h98q0 -17 -7 -34t-30 -33l-128 -85h-18z" />
    <glyph glyph-name="uni1E2F" unicode="&#x1e2f;" horiz-adv-x="325" 
d="M42 0v16l65 32v302l-62 48v11l168 55h10v-416l61 -32v-16h-242zM67 563q-24 0 -39.5 15.5t-15.5 38.5t15.5 38.5t39.5 15.5q23 0 38.5 -15.5t15.5 -38.5t-15.5 -38.5t-38.5 -15.5zM259 563q-24 0 -39 15.5t-15 38.5t15 38.5t39 15.5t39 -15.5t15 -38.5t-15 -38.5
t-39 -15.5zM153 710l85 152h98q0 -17 -7 -34t-30 -33l-128 -85h-18z" />
    <glyph glyph-name="uni1E36" unicode="&#x1e36;" horiz-adv-x="642" 
d="M52 0v16l84 41v546l-84 41v16h303v-16l-94 -41v-548h230l76 180h16v-235h-531zM357 -220q-28 0 -48 20t-20 48t20 48t48 20t48 -20t20 -48t-20 -48t-48 -20z" />
    <glyph glyph-name="uni1E37" unicode="&#x1e37;" horiz-adv-x="313" 
d="M35 0v16l66 32v588l-63 49v10l169 55h9v-702l61 -32v-16h-242zM158 -220q-28 0 -48 20t-20 48t20 48t48 20t48 -20t20 -48t-20 -48t-48 -20z" />
    <glyph glyph-name="uni1E3A" unicode="&#x1e3a;" horiz-adv-x="642" 
d="M52 0v16l84 41v546l-84 41v16h303v-16l-94 -41v-548h230l76 180h16v-235h-531zM217 -177v56h280v-56h-280z" />
    <glyph glyph-name="uni1E3B" unicode="&#x1e3b;" horiz-adv-x="313" 
d="M35 0v16l66 32v588l-63 49v10l169 55h9v-702l61 -32v-16h-242zM18 -177v56h280v-56h-280z" />
    <glyph glyph-name="uni1E42" unicode="&#x1e42;" horiz-adv-x="980" 
d="M49 0v16l83 41l21 546l-87 41v16h222l213 -494l212 494h213v-16l-85 -34l17 -553l73 -41v-16h-273v16l78 40l-10 482l-232 -543h-52l-232 538l-13 -477l85 -40v-16h-233zM468 -220q-28 0 -48 20t-20 48t20 48t48 20t48 -20t20 -48t-20 -48t-48 -20z" />
    <glyph glyph-name="uni1E43" unicode="&#x1e43;" horiz-adv-x="884" 
d="M38 0v16l65 32v302l-62 45v10l158 59h10l9 -74h5q36 36 69.5 55t77.5 19q48 0 82.5 -21.5t45.5 -63.5h3q40 41 75.5 63t82.5 22q58 0 95 -31t37 -90v-295l65 -32v-16h-240v16l59 32v252q0 38 -22 58.5t-57 20.5q-27 0 -52 -9.5t-42 -26.5v-295l58 -32v-16h-230v16l56 32
v252q0 38 -22 58.5t-57 20.5q-22 0 -46.5 -8t-41.5 -22v-301l55 -32v-16h-236zM444 -220q-28 0 -48 20t-20 48t20 48t48 20t48 -20t20 -48t-20 -48t-48 -20z" />
    <glyph glyph-name="uni1E44" unicode="&#x1e44;" horiz-adv-x="809" 
d="M49 0v16l83 41v545l-82 42v16h172l386 -456v401l-108 39v16h260v-16l-82 -40v-609h-52l-424 498v-437l109 -40v-16h-262zM412 723q-28 0 -48 19.5t-20 48.5t20 48t48 19t48 -19t20 -48t-20 -48.5t-48 -19.5z" />
    <glyph glyph-name="uni1E45" unicode="&#x1e45;" horiz-adv-x="603" 
d="M38 0v16l65 32v302l-62 45v10l158 59h10l9 -74h5q37 36 71.5 55t78.5 19q60 0 98.5 -31t38.5 -90v-295l65 -32v-16h-240v16l59 32v252q0 38 -23 58.5t-60 20.5q-23 0 -49 -8t-43 -22v-301l59 -32v-16h-240zM306 550q-28 0 -48 20t-20 48t20 48t48 20t48 -20t20 -48
t-20 -48t-48 -20z" />
    </font>
</defs>
</svg>
