<svg width="753" height="7" viewBox="0 0 753 7" fill="none" xmlns="http://www.w3.org/2000/svg">
<path d="M1024.88 6.2C987.875 5.8 951.175 6.2 914.175 6.4H1026.17C1025.37 6.3 1024.97 6.2 1024.88 6.2C1029.88 6.3 1034.88 6.3 1039.78 6.4C1039.68 6.4 1039.57 6.4 1039.57 6.4H1664.98V31H-894.925V7.3C-895.025 7.3 -895.025 7.3 -894.925 7.2V6.4H-857.225C-863.625 6.1 -869.025 5.6 -874.625 4.8C-867.525 4.4 -848.325 4.5 -849.125 4C-843.425 4.7 -829.725 5 -811.425 5C-809.325 4.2 -830.025 4.6 -824.825 4.4L-820.925 4.3C-823.025 3.9 -826.525 3.6 -832.825 3.6C-810.025 2.4 -767.225 2.6 -751.025 4.2C-732.425 3.4 -763.725 2.9 -773.225 2.3C-707.925 1.7 -663.725 1.8 -597.725 1.7C-596.625 3.2 -591.025 2.6 -581.925 3.6L-576.325 3.1C-579.025 3.4 -570.625 4.3 -581.625 4.6C-553.425 3.8 -542.625 5.4 -527.425 6.5H-513.725H-513.825C-512.225 6.5 -510.625 6.5 -509.225 6.5H-457.725C-452.925 5.9 -496.125 6.5 -488.225 5L-478.425 5.3C-484.025 4.6 -490.425 3.3 -501.325 2.8C-468.325 4 -454.025 2.3 -418.125 3.3C-422.325 2.5 -454.625 1.8 -463.425 1.7C-451.325 1.6 -429.625 2.2 -428.625 1.4L-426.225 2.5C-404.825 2.6 -429.025 1.5 -422.025 0.9C-371.425 1.1 -415.325 4.3 -372.825 4.9C-368.625 3.3 -352.825 5.2 -338.425 4.7C-352.125 4.5 -348.625 3.5 -346.925 3C-330.025 5.1 -326.225 2.6 -295.025 3C-294.325 2.3 -309.425 2.2 -311.225 1.4C-294.025 1.9 -267.725 2.2 -263.825 3.4C-234.625 3.4 -213.925 3 -196.425 3.2C-217.525 2.7 -200.325 2 -215.725 1C-194.325 2.4 -146.525 4 -115.225 5.7C-111.425 4.4 -110.025 4.3 -113.925 3.1C-78.8251 2.2 -103.725 4.3 -70.425 3.9L-85.725 4C-70.825 4.4 -69.225 5.5 -64.825 6.4H-49.225C-51.1251 6.3 -52.325 6.1 -52.025 5.8C-42.225 6.1 -34.825 6.3 -30.225 5.6C-38.325 4.8 -50.525 5.7 -54.525 4.5L-39.725 5C-30.225 4.4 -43.325 3.5 -34.525 3.6C-22.225 5.2 7.87494 3 21.575 3.2L16.675 3L37.775 2.2C37.975 2.2 37.775 2.1 37.875 2.1C38.275 2.2 38.575 2.3 38.875 2.4C47.275 1.6 62.975 1 80.575 1.2C87.275 2.1 136.075 1.5 144.175 2.3C136.775 2.1 130.575 2.1 121.375 2.3L122.775 3.4C139.275 3.4 123.775 2.4 139.675 3C136.875 4.5 116.875 3 105.275 3.2C109.475 3.5 115.275 3.8 122.475 4C99.175 4 76.975 4.5 60.875 3C55.275 3.3 56.675 3.8 60.275 4C45.8749 3.4 49.475 4.9 35.675 4.2C40.575 5.6 70.375 4.9 84.875 5.7C106.275 4.6 134.375 5.6 158.275 5.8C159.275 4.8 142.375 3.9 151.875 3.3C175.375 2.6 175.375 3.9 188.775 4.4C205.575 4 190.475 2.7 217.175 2.6L201.375 1.9C216.675 0.4 216.075 2.5 227.675 2.2C223.875 2.6 223.875 3 210.475 2.9C209.075 3.4 219.275 3.7 224.175 3.7H221.075C226.675 4.4 228.475 5.2 245.275 4.8C234.675 3.9 258.575 4.1 262.775 3.7L258.375 3.5C270.675 3.8 283.375 3.7 291.175 3.8L290.475 3.6C299.775 4 303.175 5 316.675 4.8C315.275 4.4 299.275 3.2 314.075 3.4C311.975 2.8 295.575 2.7 282.075 2.9C295.475 2.7 302.275 1.6 285.775 1.5C290.275 0.700001 301.275 1.9 309.975 1.5C308.575 1.7 310.775 2 310.675 2.2C312.375 1.2 342.775 2.2 343.275 2.9L327.075 2.3C325.975 3.1 341.875 3.6 340.775 4.1C350.275 3 382.875 4.9 390.775 3.8L384.975 4.5C416.175 4.1 442.375 5.5 473.375 6H477.675C469.075 5.6 466.475 4.5 453.675 4.5C473.775 4.1 456.375 3 465.175 2.3C489.775 1.7 477.975 3.7 485.575 4.2L468.475 3.9C490.475 5.7 532.275 3.5 566.275 4.6C568.775 4.1 559.275 4.3 554.675 4.2C569.975 3.3 569.475 4.4 578.775 4.7C594.575 4.6 613.575 4.1 603.875 3C621.275 2.7 601.975 3.7 611.275 4L614.475 3.7L632.875 5C647.975 4.6 666.275 4 672.975 3C706.675 3.2 687.075 5.3 707.975 5.9H712.375C724.075 5.4 708.175 5.1 706.775 4.7L729.475 4.8C721.375 3.5 703.075 4.2 704.475 2.7C723.475 4.2 730.175 3.1 755.675 4.1L754.075 4.2C765.375 5.2 791.575 4.5 806.475 4.7C800.475 4.1 783.975 4 773.075 3.8C789.775 3.3 831.875 3.8 846.275 5.1C855.775 4.9 876.375 4.4 862.475 3.8C896.375 3.6 876.575 5.7 905.775 5.3L904.575 4.3C936.575 2.9 967.675 5.6 997.975 4.3L999.875 5.5C1006.38 5 1019.88 4.8 1022.38 4.3L1006.88 3.9C1019.88 2.9 1022.17 4.9 1038.17 4.2C1038.07 4.9 1024.88 5.8 1024.88 6.2ZM-336.025 4.6C-338.125 5.4 -321.925 5.7 -314.925 6.3C-306.125 6.4 -299.925 6.4 -299.125 5.7C-289.225 5.8 -285.025 6.1 -283.525 6.3H-248.425C-248.225 6.2 -247.525 6 -246.125 5.9C-263.325 2.9 -306.825 5.8 -336.025 4.6ZM-207.125 3.8L-246.825 4.2C-244.425 4.9 -241.025 5.7 -234.925 6.4H-189.525C-205.125 5.5 -226.125 4.8 -207.125 3.8ZM-103.225 6.3L-91.125 6.4L-103.225 6.3ZM129.775 6.3C129.375 6.3 128.975 6.3 128.475 6.3C128.675 6.3 128.875 6.3 128.975 6.3H129.775ZM160.975 6.3H177.975C171.075 6.3 165.975 6.3 160.975 6.3ZM201.775 5.5C197.275 5.7 192.675 6.1 192.375 6.4H213.175C207.175 6.1 202.975 5.8 201.775 5.5ZM270.775 6.3H277.075C276.175 6.3 275.075 6.3 273.675 6.2C272.575 6.3 271.675 6.3 270.775 6.3ZM299.575 6.3H302.575C302.375 6.3 302.175 6.2 302.075 6.2C300.875 6.3 300.075 6.3 299.575 6.3ZM378.275 5.9C377.675 6 377.775 6.2 378.175 6.3H410.175C403.075 6 384.475 6.5 378.275 5.9ZM726.975 5.7C718.875 5.8 716.275 6.1 718.275 6.3H732.575C731.775 6.1 730.475 5.8 726.975 5.7ZM746.275 6.3H746.775C746.875 6.3 746.975 6.3 747.075 6.2L746.275 6.3ZM833.775 5.4C826.575 5.7 813.375 5.4 815.475 6L817.775 6.1C812.075 6 806.475 6.1 801.275 6.3H827.875C826.775 6.2 827.375 6.1 828.575 6L831.175 6.3H860.275C850.175 6.2 840.075 6.1 829.975 5.9C832.475 5.8 835.475 5.7 833.775 5.4Z" fill="white"/>
</svg>
