<svg width="20" height="19" viewBox="0 0 20 19" fill="none" xmlns="http://www.w3.org/2000/svg">
<path d="M18.9474 13.4926C19.4395 13.74 19.8086 13.8637 19.9316 14.1111C20.0547 14.3585 20.0547 15.348 19.5625 16.4612C19.1934 17.5745 17.1018 18.6877 16.2406 18.8114C15.3794 18.9351 15.3794 19.5535 10.3349 17.5745C5.41353 15.5954 2.21463 10.524 1.96856 10.1529C1.72249 9.78186 0 7.5554 0 5.08156C0 2.73141 1.23035 1.49448 1.72249 1.12341C2.21463 0.628639 2.70677 0.504948 3.07587 0.504948H4.06015C4.30622 0.504948 4.79836 0.381257 5.16746 1.37079C5.53657 2.23664 6.52085 4.71048 6.64388 4.95786C6.76692 5.20525 6.76692 5.45263 6.64388 5.82371C6.52085 6.19479 6.39781 6.44217 6.15174 6.68955C5.90567 6.93694 5.6596 7.30802 5.41353 7.5554C5.16746 7.80278 4.92139 8.05017 5.16746 8.54494C5.41353 9.0397 6.39781 10.524 7.87423 11.8846C9.71975 13.6163 11.3192 14.1111 11.8113 14.3585C12.3035 14.6059 12.6726 14.6059 12.9187 14.2348C13.2878 13.8637 14.149 12.7505 14.5181 12.2557C14.7642 11.7609 15.1333 11.7609 15.6254 11.8846C15.9945 12.0083 18.4552 13.2452 18.9474 13.4926Z" fill="#281812"/>
</svg>
