<svg width="8" height="108" viewBox="0 0 8 108" fill="none" xmlns="http://www.w3.org/2000/svg">
<path d="M32 0.0602965L11.8 0.0602955L11.8 60.7603C11.5 61.0603 11.3 58.0603 11.5 44.4603L10.3 67.9603C9.8 61.8603 8.8 65.7603 9.2 49.8603C9.9 44.8603 10.8 35.0603 10.9 26.4603C9.5 60.7603 8.8 -3.5397 7 28.3603L7.1 16.4603C7 17.9603 6.8 18.3603 6.7 17.5603L6.6 1.7603C6.2 11.4603 6 34.6603 4.7 23.8603L4.3 1.0603C3.3 7.1603 2.8 -1.2397 2 0.160295L-2.74318e-06 67.4603C0.599998 64.8603 0.999998 55.1603 1.6 58.7603C2.1 76.7603 0.499997 73.4603 1.3 90.2603L2.1 82.7603C1.8 84.0603 1.7 86.4603 1.6 82.7603C1.1 76.8603 1.7 74.2603 2.2 74.1603C3.2 80.0603 2.5 97.0603 1.8 102.16C1.89999 124.06 3.7 106.66 4 111.46C2.2 122.76 3.99999 147.96 3.19999 161.46L4.29999 152.76C5.69999 169.36 4.49999 184.26 4.09999 194.06L4.99999 190.26C4.79999 213.46 7.99999 224.86 4.69999 242.56L5.29999 240.16C5.59999 249.66 6.29999 264.06 5.29999 273.16C5.69999 273.36 6.19999 274.96 6.29999 278.86C4.99999 283.96 5.99999 293.86 6.19999 307.86C6.49999 298.56 8.19999 301.56 8.59999 291.76C10.3 313.36 6.79999 311.56 6.79999 329.66C7.59998 340.56 7.69999 319.86 8.29999 317.26C7.39999 345.26 12.1 374.86 8.79998 392.46L7.69999 380.46C6.99998 391.56 6.99998 397.66 7.29998 396.26C7.19998 392.66 7.49998 391.46 7.79998 390.16C9.49998 423.76 5.39998 442.76 5.99998 476.76C6.59998 474.26 6.79998 469.36 7.29998 469.16C7.89998 484.76 4.09998 484.36 5.39998 509.66L6.09998 504.66C6.49998 511.96 5.69998 517.56 5.39998 518.26C7.99998 520.46 5.19998 571.86 8.79998 589.26C7.29997 601.66 6.09997 637.06 6.89997 647.86C8.59997 663.36 8.79997 634.16 10.3 639.86C10.3 652.06 8.79997 658.46 9.29997 676.56C7.69997 676.86 6.09997 640.76 5.19997 674.86L5.99997 679.66C5.89997 676.16 5.59997 671.26 5.79997 666.36C6.69997 656.46 6.79997 672.26 7.29997 674.56L6.79997 711.16C5.09997 713.86 5.49997 691.96 5.09997 689.66C5.39997 718.66 7.89997 753.46 6.79997 780.36L7.39997 777.76C5.99997 812.06 10.4 797.76 7.79997 825.16C8.19996 839.56 9.59997 819.96 9.69997 841.76C9.69997 847.96 9.09997 844.26 8.89997 843.16C8.29996 869.96 10.5 854.96 8.89996 879.66L10.7 874.36C9.49996 903.76 6.39996 934.66 7.19996 960.06C8.59996 958.56 8.39996 942.76 9.49996 936.56C7.09996 971.06 9.19996 1019.26 7.89996 1051.06C6.69996 1041.56 5.19996 1066.16 4.29996 1045.76C6.09996 1040.46 4.89996 1030.96 5.09996 1019.96C1.29996 1037.66 6.99996 1093.76 3.59996 1099.16L4.99996 1103.86C4.79995 1108.76 3.79995 1121.16 3.29995 1112.56L4.19995 1147.66C5.19995 1135.36 7.59996 1109.26 6.09996 1101.16C7.49996 1091.16 7.09996 1115.56 8.69996 1106.66C6.39996 1130.16 9.69996 1121.16 9.19995 1145.46C7.19995 1134.46 6.49995 1169.66 5.59995 1168.56C5.99995 1176.56 5.09995 1194.26 4.39995 1201.06C4.19995 1215.16 5.79995 1247.46 5.09995 1270.06C5.69995 1261.46 6.49995 1247.96 7.79995 1248.96C7.09995 1260.06 7.09995 1272.26 8.59995 1274.36C11.3 1234.96 5.29995 1261.66 6.99995 1226.06C8.69995 1217.26 9.09995 1207.46 9.49995 1189.16C10.3 1196.26 10.7 1194.66 11.5 1196.16L11.5 1200.86C8.79995 1223.46 11.5999 1257.16 9.89995 1285.06C8.89995 1297.46 6.69995 1288.16 6.29995 1316.16L5.19995 1292.06C6.19995 1318.56 4.19995 1298.26 3.79995 1320.16L4.89995 1311.46C5.09995 1324.86 4.89995 1329.76 4.09995 1337.16L5.89995 1325.86C6.09995 1333.06 6.29994 1346.46 5.29994 1346.56C5.69994 1348.46 6.09995 1349.06 6.39994 1349.06C6.09995 1350.46 5.89994 1353.86 5.99994 1362.36C6.19995 1357.46 6.09995 1353.86 6.59995 1353.76C6.19994 1385.96 8.49994 1361.26 8.29994 1381.26C8.69994 1378.06 9.19994 1383.76 9.39994 1390.96C6.59994 1390.46 6.29994 1430.06 4.69994 1440.46L4.69994 1440.36L3.59994 1467.26C3.79994 1461.76 4.59994 1467.66 4.89994 1475.56L4.89994 1474.26C5.29994 1482.86 7.89994 1464.06 7.09994 1489.76L6.29994 1502.76C6.39994 1501.16 6.79994 1503.16 6.99994 1504.36L6.29994 1518.26C8.89994 1539.56 4.79994 1558.36 6.09994 1583.36C5.89994 1576.16 6.09994 1565.16 6.89994 1569.86C7.19993 1574.66 6.89994 1582.06 6.49994 1585.76L6.79993 1584.46L5.09993 1632.16C5.99993 1628.26 6.09994 1601.66 7.19994 1613.56C8.49993 1620.56 7.09993 1634.26 6.99993 1642.86C6.29993 1641.76 5.59993 1625.96 5.19993 1641.96C5.59993 1643.96 6.29993 1659.06 6.79993 1651.96C6.09993 1668.26 5.59993 1691.96 4.29993 1706.56C4.59993 1711.16 4.89993 1703.86 4.99993 1701.46L4.79993 1700.26C5.19993 1690.46 6.69993 1698.76 5.89993 1679.46C8.29993 1677.86 6.59993 1707.26 6.89993 1724.26L8.49993 1697.26C11.7999 1742.76 8.19993 1804.16 8.19993 1849.26C7.49993 1836.06 8.19992 1824.96 6.29992 1826.56C5.39992 1854.56 5.79992 1850.86 5.39992 1878.86L5.49992 1876.46C6.49992 1890.86 4.59992 1910.66 6.29992 1920.06C7.29992 1913.86 5.29992 1899.56 7.39992 1899.26L7.19992 1934.46C8.39992 1923.36 7.39992 1899.26 7.69992 1885.76C7.59992 1876.06 7.39992 1905.26 6.09992 1900.66C6.19992 1867.76 7.49992 1860.26 9.49993 1844.06C10.8999 1834.16 10.9999 1858.46 10.9999 1864.56C8.79992 1885.46 7.79992 1916.06 8.79992 1948.66L10.3999 1966.56C8.99992 1982.66 6.19992 1975.86 6.49992 2004.96L7.59992 1996.26C7.99992 2002.66 8.19992 2006.86 8.19992 2009.96C9.09992 1997.46 9.99992 1983.86 10.8999 1972.56C11.0999 1973.96 11.2999 1975.36 11.3999 1976.96L11.3999 2000.96C10.7999 2015.16 9.49992 2030.96 9.29992 2044.66C9.59992 2043.36 9.69992 2034.86 10.2999 2032.36C10.8999 2068.76 7.99991 2106.86 7.59991 2134.96C8.69991 2146.86 8.29991 2111.66 9.89991 2117.36C9.29991 2132.16 10.6999 2148.86 9.19991 2152.76C11.2999 2146.26 9.39991 2186.76 11.2999 2158.46C11.3999 2161.66 11.3999 2164.86 11.3999 2168.06L11.3999 2209.86C11.0999 2248.06 9.89991 2287.26 9.09991 2324.16C9.69991 2321.56 10.1999 2321.56 10.6999 2323.86C10.6999 2312.36 10.8999 2297.46 11.3999 2285.56L11.3999 2325.46C10.0999 2341.86 8.69991 2336.76 9.1999 2366.66C10.3999 2378.76 10.2999 2368.56 11.3999 2366.66L11.3999 2409.96C11.2999 2410.46 11.2999 2410.96 11.1999 2411.46L11.0999 2389.46C10.6999 2404.86 10.6999 2419.46 10.0999 2430.06C10.3999 2428.96 10.7999 2428.06 10.8999 2424.76C10.3999 2436.96 10.4999 2452.66 9.4999 2458.96L11.1999 2462.36C10.4999 2455.06 10.2999 2433.26 11.2999 2429.56C11.3999 2429.66 11.3999 2429.86 11.4999 2430.06L11.4999 2495.66L11.2999 2498.86L11.4999 2499.16L11.4999 2559.86L31.9999 2559.86L32 0.0602965ZM8.79996 943.06L8.19996 957.86L7.99996 956.66L8.59996 941.96L8.79996 943.06ZM10.7999 1683.96C10.6999 1686.26 10.4999 1688.66 10.4999 1691.16C10.5999 1686.96 10.6999 1684.96 10.7999 1683.96C10.9999 1679.96 11.3999 1676.76 11.7999 1676.26L11.7999 1682.56C11.3999 1685.56 11.0999 1681.66 10.7999 1683.96ZM10.3999 1693.66C10.3999 1692.96 10.3999 1692.36 10.3999 1691.86C10.4999 1692.46 10.3999 1693.06 10.3999 1693.66ZM11.6 129.76L11.3 137.06C10.9 140.76 10.5 138.46 10.2 139.76C10.3 131.16 11 120.06 11.6 129.76ZM6.49999 242.26C6.79999 235.06 7.79999 228.76 7.19999 219.16C6.89999 220.46 6.69999 219.26 6.69999 225.26L6.49999 211.96C7.99999 196.76 8.39999 211.26 8.89999 225.46C9.09999 225.96 9.39999 226.96 9.59999 229.66C9.79999 231.96 9.49999 234.06 9.29999 236.26C9.39999 239.16 9.59999 241.76 9.79999 242.86L9.49999 244.16C8.99999 241.16 9.09999 238.56 9.29999 236.16C9.09999 232.96 8.99999 229.16 8.89999 225.36C7.79999 223.06 7.09999 238.26 6.49999 242.26ZM9.19998 408.36C10.1 404.56 9.49998 413.16 10.1 416.76L9.39998 439.96C7.49998 435.46 9.49998 419.16 9.19998 408.36ZM9.19998 577.26C10.2 576.96 10.1 555.16 10.2 552.76C11.5 549.16 11.1 556.26 11.8 564.06L11.8 564.76C11.3 564.16 10.5 573.76 10.8 583.06L9.19998 577.26ZM9.09998 604.06C9.29998 617.46 9.19997 632.06 9.89997 635.46C9.09997 636.86 7.59998 610.36 9.09998 604.06ZM7.89996 1085.46L8.69996 1077.96L8.89996 1091.26L7.89996 1085.46ZM11.8 1071.76L11.8 1073.16C10.1 1078.66 11.2 1104.56 10.7 1110.36C10.3 1096.46 9.89996 1065.36 11.8 1071.76ZM11.7 1143.06C11.3 1135.46 11.5 1132.06 11.8 1129.36L11.8 1141.66C11.8 1142.16 11.7 1142.66 11.7 1143.06ZM11.7999 1579.66L11.7999 1586.16L11.4999 1585.26C11.5999 1583.26 11.6999 1581.36 11.7999 1579.66ZM9.09993 1650.16L9.69993 1617.26L9.29993 1649.26L10.2999 1645.26L9.29993 1651.46L9.29993 1649.36L9.09993 1650.16ZM10.1999 1656.06L9.39993 1675.56L10.2999 1665.76L8.59993 1695.16C7.69993 1678.36 8.99993 1658.66 10.1999 1656.06ZM11.3999 1906.36C11.1999 1905.66 10.9999 1904.26 10.9999 1901.46C11.0999 1902.26 11.1999 1904.16 11.3999 1906.36C11.4999 1906.76 11.6999 1906.86 11.7999 1906.66L11.7999 1916.36C11.6999 1912.46 11.4999 1908.96 11.3999 1906.36ZM11.3999 2064.16L11.7999 2066.26L11.7999 2072.26L11.3999 2064.16Z" fill="white"/>
</svg>
