<svg width="24" height="20" viewBox="0 0 24 20" fill="none" xmlns="http://www.w3.org/2000/svg">
<path d="M12.5601 15.3614C11.7101 16.2114 10.8101 17.0114 9.96007 17.8614C9.66007 18.1614 9.31007 18.3114 8.91007 18.3114C8.61007 18.3114 8.46007 18.1614 8.36007 17.9114C7.71007 15.9114 7.06007 13.8614 6.41007 11.8614C6.36007 11.6614 6.26007 11.5614 6.06007 11.5114C4.51007 11.0114 2.96007 10.5114 1.46007 10.0114C1.21007 9.91142 1.01007 9.86142 0.76007 9.71142C0.46007 9.51142 0.41007 9.16142 0.66007 8.91142C0.91007 8.66142 1.21007 8.46142 1.56007 8.36142C3.46007 7.61142 5.31007 6.91142 7.21007 6.16142C12.0101 4.31142 16.8101 2.46142 21.6101 0.611416C22.5101 0.261416 23.2101 0.761416 23.1101 1.76142C23.0601 2.41142 22.9101 3.01142 22.7601 3.61142C21.7101 8.51142 20.6601 13.4114 19.6601 18.3114C19.4101 19.4614 18.6101 19.7614 17.6601 19.0614C16.0601 17.8614 14.4601 16.7114 12.8601 15.5114C12.7101 15.4614 12.6601 15.4114 12.5601 15.3614ZM8.96007 16.8614H9.01007C9.01007 16.8114 9.01007 16.7614 9.06007 16.7114C9.16007 15.6114 9.26007 14.5114 9.36007 13.3614C9.36007 13.1114 9.46007 12.9614 9.66007 12.7614C11.1601 11.4614 12.6101 10.1114 14.0601 8.76142C15.7101 7.31142 17.3101 5.81142 18.9601 4.36142C19.0101 4.31142 19.0601 4.11142 19.1601 4.01142C19.0101 4.01142 18.8601 3.91142 18.7101 3.96142C18.5101 4.01142 18.3101 4.11142 18.1601 4.21142C14.5601 6.51142 10.9601 8.76142 7.36007 11.0114C7.16007 11.1614 7.11007 11.2614 7.21007 11.4614C7.46007 12.2114 7.71007 13.0114 7.96007 13.7614C8.26007 14.8114 8.61007 15.8114 8.96007 16.8614Z" fill="#281812"/>
</svg>
