<svg width="753" height="11" viewBox="0 0 753 11" fill="none" xmlns="http://www.w3.org/2000/svg">
<path d="M-894.94 -21V-0.799999H-834.24C-833.94 -0.5 -836.94 -0.299999 -850.54 -0.5L-827.04 0.700001C-833.14 1.2 -829.24 2.2 -845.14 1.8C-850.14 1.1 -859.94 0.200001 -868.54 0.1C-834.24 1.5 -898.54 2.2 -866.64 4L-878.54 3.9C-877.04 4 -876.64 4.2 -877.44 4.3L-893.24 4.4C-883.54 4.8 -860.34 5 -871.14 6.3L-893.94 6.7C-887.84 7.7 -896.24 8.2 -894.84 9L-827.54 11C-830.14 10.4 -839.84 10 -836.24 9.4C-818.24 8.9 -821.54 10.5 -804.74 9.7L-812.24 8.9C-810.94 9.2 -808.54 9.3 -812.24 9.4C-818.14 9.9 -820.74 9.3 -820.84 8.8C-814.94 7.8 -797.94 8.5 -792.84 9.2C-770.94 9.1 -788.34 7.3 -783.54 7C-772.24 8.8 -747.04 7 -733.54 7.8L-742.24 6.7C-725.64 5.3 -710.74 6.5 -700.94 6.9L-704.74 6C-681.54 6.2 -670.14 3 -652.44 6.3L-654.84 5.7C-645.34 5.4 -630.94 4.7 -621.84 5.7C-621.64 5.3 -620.04 4.8 -616.14 4.7C-611.04 6 -601.14 5 -587.14 4.8C-596.44 4.5 -593.44 2.8 -603.24 2.4C-581.64 0.699999 -583.44 4.2 -565.34 4.2C-554.44 3.4 -575.14 3.3 -577.74 2.7C-549.74 3.6 -520.14 -1.1 -502.54 2.2L-514.54 3.3C-503.44 4 -497.34 4 -498.74 3.7C-502.34 3.8 -503.54 3.5 -504.84 3.2C-471.24 1.5 -452.24 5.6 -418.24 5C-420.74 4.4 -425.64 4.2 -425.84 3.7C-410.24 3.1 -410.64 6.9 -385.34 5.6L-390.34 4.9C-383.04 4.5 -377.44 5.3 -376.74 5.6C-374.54 3 -323.14 5.8 -305.74 2.2C-293.34 3.7 -257.94 4.9 -247.14 4.1C-231.64 2.4 -260.84 2.2 -255.14 0.700001C-242.94 0.700001 -236.54 2.2 -218.44 1.7C-218.14 3.3 -254.24 4.9 -220.14 5.8L-215.34 5C-218.84 5.1 -223.74 5.4 -228.64 5.2C-238.54 4.3 -222.74 4.2 -220.44 3.7L-183.84 4.2C-181.14 5.9 -203.04 5.5 -205.34 5.9C-176.34 5.6 -141.54 3.1 -114.64 4.2L-117.24 3.6C-82.9398 5 -97.2397 0.6 -69.8397 3.2C-55.4397 2.8 -75.0397 1.4 -53.2397 1.3C-47.0397 1.3 -50.7397 1.9 -51.8397 2.1C-25.0397 2.7 -40.0397 0.5 -15.3397 2.1L-20.6397 0.299999C8.76031 1.5 39.6602 4.6 65.0602 3.8C63.5602 2.4 47.7603 2.6 41.5602 1.5C76.0602 3.9 124.26 1.8 156.06 3.1C146.56 4.3 171.16 5.8 150.76 6.7C145.46 4.9 135.96 6.1 124.96 5.9C142.66 9.7 198.76 4 204.16 7.4L208.86 6C213.76 6.2 226.16 7.2 217.56 7.7L252.66 6.8C240.36 5.8 214.26 3.4 206.16 4.9C196.16 3.5 220.56 3.9 211.66 2.3C235.16 4.6 226.16 1.3 250.46 1.8C239.46 3.8 274.66 4.5 273.56 5.4C281.56 5 299.26 5.9 306.06 6.6C320.16 6.8 352.46 5.2 375.06 5.9C366.46 5.3 352.96 4.5 353.96 3.2C365.06 3.9 377.26 3.9 379.36 2.4C339.96 -0.300001 366.66 5.7 331.06 4C322.26 2.3 312.46 1.9 294.16 1.5C301.26 0.700001 299.66 0.299999 301.16 -0.5H305.86C328.46 2.2 362.16 -0.6 390.06 1.1C402.46 2.1 393.16 4.3 421.16 4.7L397.06 5.8C423.56 4.8 403.26 6.8 425.16 7.2L416.46 6.1C429.86 5.9 434.76 6.1 442.16 6.9L430.86 5.1C438.06 4.9 451.46 4.7 451.56 5.7C453.46 5.3 454.06 4.9 454.06 4.6C455.46 4.9 458.86 5.1 467.36 5C462.46 4.8 458.86 4.9 458.76 4.4C490.96 4.8 466.26 2.5 486.26 2.7C483.06 2.3 488.76 1.8 495.96 1.6C495.46 4.4 535.06 4.7 545.46 6.3H545.36L572.26 7.4C566.76 7.2 572.66 6.4 580.56 6.1H579.26C587.86 5.7 569.06 3.1 594.76 3.9L607.76 4.7C606.16 4.6 608.16 4.2 609.36 4L623.26 4.7C644.56 2.1 663.36 6.2 688.36 4.9C681.16 5.1 670.16 4.9 674.86 4.1C679.66 3.8 687.06 4.1 690.76 4.5L689.46 4.2L737.16 5.9C733.26 5 706.66 4.9 718.56 3.8C725.56 2.5 739.26 3.9 747.86 4C746.76 4.7 730.96 5.4 746.96 5.8C748.96 5.4 764.06 4.7 756.96 4.2C773.26 4.9 796.96 5.4 811.56 6.7C816.16 6.4 808.86 6.1 806.46 6L805.26 6.2C795.46 5.8 803.76 4.3 784.46 5.1C782.86 2.7 812.26 4.4 829.26 4.1L802.26 2.5C847.76 -0.799999 909.16 2.8 954.26 2.8C941.06 3.5 929.96 2.8 931.56 4.7C959.56 5.6 955.86 5.2 983.86 5.6L981.46 5.5C995.86 4.5 1015.66 6.4 1025.06 4.7C1018.86 3.7 1004.56 5.7 1004.26 3.6L1039.46 3.8C1028.36 2.6 1004.26 3.6 990.76 3.3C981.06 3.4 1010.26 3.6 1005.66 4.9C972.76 4.8 965.26 3.5 949.06 1.5C939.16 0.1 963.46 0 969.56 0C990.46 2.2 1021.06 3.2 1053.66 2.2L1071.56 0.6C1087.66 2 1080.86 4.8 1109.96 4.5L1101.26 3.4C1107.66 3 1111.86 2.8 1114.96 2.8C1102.46 1.9 1088.86 1 1077.56 0.1C1078.96 -0.1 1080.36 -0.299999 1081.96 -0.4H1105.96C1120.16 0.200001 1135.96 1.5 1149.66 1.7C1148.36 1.4 1139.86 1.3 1137.36 0.700001C1173.76 0.1 1211.86 3 1239.96 3.4C1251.86 2.3 1216.66 2.7 1222.36 1.1C1237.16 1.7 1253.86 0.299999 1257.76 1.8C1251.26 -0.300001 1291.76 1.6 1263.46 -0.299999C1266.66 -0.4 1269.86 -0.4 1273.06 -0.4H1314.86C1353.06 -0.1 1392.26 1.1 1429.16 1.9C1426.56 1.3 1426.56 0.799999 1428.86 0.299999C1417.36 0.299999 1402.46 0.1 1390.56 -0.4H1430.46C1446.86 0.9 1441.76 2.3 1471.66 1.8C1483.76 0.599998 1473.56 0.700001 1471.66 -0.4H1514.96C1515.46 -0.299999 1515.96 -0.300001 1516.46 -0.200001L1494.46 -0.1C1509.86 0.299999 1524.46 0.299999 1535.06 0.9C1533.96 0.6 1533.06 0.200001 1529.76 0.1C1541.96 0.6 1557.66 0.5 1563.96 1.5L1567.36 -0.200001C1560.06 0.5 1538.26 0.700001 1534.56 -0.299999C1534.66 -0.4 1534.86 -0.4 1535.06 -0.5H1600.66L1603.86 -0.299999L1604.16 -0.5H1664.86V-21H-894.94ZM48.0602 2.2L62.8603 2.8L61.6603 3L46.9603 2.4L48.0602 2.2ZM788.96 0.200001C791.26 0.300001 793.66 0.5 796.16 0.5C791.96 0.4 789.96 0.300001 788.96 0.200001C784.96 0 781.76 -0.4 781.26 -0.799999H787.56C790.56 -0.4 786.66 -0.0999985 788.96 0.200001ZM798.66 0.6C797.96 0.6 797.36 0.6 796.86 0.6C797.46 0.5 798.06 0.6 798.66 0.6ZM-765.24 -0.6L-757.94 -0.299999C-754.24 0.1 -756.54 0.5 -755.24 0.799999C-763.84 0.699999 -774.94 0 -765.24 -0.6ZM-652.74 4.5C-659.94 4.2 -666.24 3.2 -675.84 3.8C-674.54 4.1 -675.74 4.3 -669.74 4.3L-683.04 4.5C-698.24 3 -683.74 2.6 -669.54 2.1C-669.04 1.9 -668.04 1.6 -665.34 1.4C-663.04 1.2 -660.94 1.5 -658.74 1.7C-655.84 1.6 -653.24 1.4 -652.14 1.2L-650.84 1.5C-653.84 2 -656.44 1.9 -658.84 1.7C-662.04 1.9 -665.84 2 -669.64 2.1C-671.94 3.2 -656.74 3.9 -652.74 4.5ZM-486.64 1.8C-490.44 0.9 -481.84 1.5 -478.24 0.9L-455.04 1.6C-459.54 3.5 -475.84 1.5 -486.64 1.8ZM-317.74 1.8C-318.04 0.799999 -339.84 0.9 -342.24 0.799999C-345.84 -0.5 -338.74 -0.0999985 -330.94 -0.799999H-330.24C-330.84 -0.299999 -321.24 0.5 -311.94 0.200001L-317.74 1.8ZM-290.94 1.9C-277.54 1.7 -262.94 1.8 -259.54 1.1C-258.14 1.9 -284.64 3.4 -290.94 1.9ZM190.46 3.1L182.96 2.3L196.26 2.1L190.46 3.1ZM176.76 -0.799999H178.16C183.66 0.900002 209.56 -0.200001 215.36 0.299999C201.46 0.699999 170.36 1.1 176.76 -0.799999ZM248.06 -0.700001C240.46 -0.300001 237.06 -0.5 234.36 -0.799999H246.66C247.16 -0.799999 247.66 -0.700001 248.06 -0.700001ZM684.66 -0.799999H691.16L690.26 -0.5C688.26 -0.6 686.36 -0.699999 684.66 -0.799999ZM755.16 1.9L722.26 1.3L754.26 1.7L750.26 0.700001L756.46 1.7H754.36L755.16 1.9ZM761.06 0.799999L780.56 1.6L770.76 0.700001L800.16 2.4C783.36 3.3 763.66 2 761.06 0.799999ZM1011.36 -0.4C1010.66 -0.199999 1009.26 0 1006.46 0C1007.26 -0.1 1009.16 -0.199999 1011.36 -0.4C1011.76 -0.5 1011.86 -0.699999 1011.66 -0.799999H1021.36C1017.46 -0.699999 1013.96 -0.5 1011.36 -0.4ZM1169.16 -0.4L1171.26 -0.799999H1177.26L1169.16 -0.4Z" fill="white"/>
</svg>
