<svg width="24" height="24" viewBox="0 0 24 24" fill="none" xmlns="http://www.w3.org/2000/svg">
<path d="M21.2915 2.34028C20.661 1.79283 18.1202 0.0424387 12.4612 0.0172273C12.4612 0.0172273 5.78433 -0.364546 2.52946 2.46634C0.717828 4.18432 0.0797676 6.69827 0.015202 9.81728C-0.0531616 12.9363 -0.140515 18.7746 5.79952 20.3593H5.80332L5.79952 22.776C5.79952 22.776 5.76154 23.7556 6.44138 23.9537C7.26174 24.195 7.74409 23.4531 8.53027 22.6499C8.95944 22.2105 9.55572 21.5622 10.0039 21.0688C14.0639 21.3929 17.1897 20.651 17.5429 20.543C18.3632 20.2908 23.0044 19.7254 23.7564 13.8871C24.5349 7.8688 23.3766 4.05826 21.2915 2.34028ZM21.9789 13.4549C21.3408 18.3316 17.577 18.6413 16.8858 18.8502C16.5896 18.9402 13.8474 19.5885 10.3989 19.3724C10.3989 19.3724 7.82764 22.3114 7.02627 23.0785C6.90093 23.1974 6.75281 23.2478 6.65407 23.2226C6.51734 23.1902 6.47936 23.0353 6.47936 22.8084C6.48316 22.4842 6.50215 18.7926 6.50215 18.7926C6.49835 18.7926 6.49835 18.7926 6.50215 18.7926C1.48122 17.4708 1.77367 12.4969 1.83064 9.89292C1.8876 7.28894 2.40413 5.15676 3.93471 3.72331C6.68825 1.36064 12.3586 1.7136 12.3586 1.7136C17.1479 1.73521 19.4419 3.10023 19.9736 3.55764C21.7358 4.99469 22.636 8.42705 21.9789 13.4549Z" fill="#281812"/>
<path d="M14.7902 9.98639C14.6192 9.98639 14.4787 9.86034 14.4711 9.69826C14.418 8.66819 13.9052 8.16396 12.8608 8.10994C12.6861 8.10274 12.5493 7.95867 12.5569 7.78939C12.5645 7.62372 12.7165 7.49406 12.895 7.50126C14.2774 7.56969 15.0446 8.31883 15.113 9.66585C15.1206 9.83152 14.9839 9.97559 14.8091 9.98279C14.8015 9.98639 14.794 9.98639 14.7902 9.98639Z" fill="#281812"/>
<path d="M16.431 10.5086C16.4272 10.5086 16.4272 10.5086 16.4234 10.5086C16.2449 10.505 16.1081 10.3645 16.1119 10.1988C16.1385 9.16156 15.8233 8.32238 15.1548 7.63086C14.4864 6.93935 13.5711 6.56478 12.3633 6.48194C12.1886 6.47114 12.0557 6.32347 12.0671 6.15779C12.0785 5.99212 12.2304 5.86606 12.4089 5.87687C13.7686 5.96691 14.851 6.42071 15.6258 7.22028C16.4006 8.01984 16.7804 9.0283 16.75 10.2132C16.7462 10.3789 16.6057 10.5086 16.431 10.5086Z" fill="#281812"/>
<path d="M18.1123 11.1318C17.9376 11.1318 17.7932 10.9985 17.7932 10.8293C17.7781 8.99964 17.2008 7.54097 16.069 6.4965C14.9372 5.45202 13.5091 4.91538 11.819 4.90458C11.6405 4.90458 11.5 4.76771 11.5 4.59844C11.5 4.43276 11.6443 4.2959 11.819 4.2959C11.819 4.2959 11.819 4.2959 11.8228 4.2959C13.68 4.3067 15.26 4.90097 16.5133 6.0607C17.7705 7.22403 18.4123 8.82676 18.4275 10.8257C18.4351 10.9949 18.2908 11.1318 18.1123 11.1318Z" fill="#281812"/>
<path d="M12.9396 13.7503C12.9396 13.7503 13.3915 13.7863 13.6308 13.5017L14.1018 12.9399C14.3296 12.659 14.8803 12.4825 15.4197 12.767C15.7197 12.9291 16.259 13.2424 16.5932 13.4765C16.9502 13.7251 17.6832 14.3049 17.6832 14.3049C18.0327 14.5822 18.1124 14.9928 17.8769 15.425C17.8769 15.4286 17.8731 15.4322 17.8731 15.4322C17.6301 15.8392 17.3034 16.2246 16.8895 16.5812C16.8857 16.5848 16.8857 16.5848 16.8819 16.5884C16.5439 16.8549 16.2096 17.0097 15.883 17.0458C15.845 17.053 15.7956 17.0566 15.7387 17.053C15.5944 17.053 15.4538 17.035 15.3133 16.9917L15.3019 16.9773C14.7968 16.8441 13.9574 16.5055 12.556 15.7744C11.6445 15.299 10.8887 14.8127 10.2506 14.3301C9.91258 14.078 9.56697 13.7899 9.21376 13.4585C9.20236 13.4477 9.19097 13.4369 9.17957 13.4261C9.16818 13.4153 9.15679 13.4045 9.14539 13.3937C9.134 13.3829 9.1226 13.3721 9.11121 13.3613C9.09982 13.3505 9.08842 13.3397 9.07703 13.3289C8.72761 12.9939 8.42378 12.6662 8.15792 12.3456C7.64899 11.7405 7.13626 11.0202 6.63493 10.1594C5.86394 8.83043 5.50693 8.03446 5.3664 7.55545L5.35121 7.54464C5.30564 7.41138 5.28285 7.27812 5.28665 7.14126C5.28285 7.08723 5.28665 7.04041 5.29424 7.0044C5.33222 6.69465 5.49554 6.37771 5.77659 6.05716C5.78038 6.05356 5.78038 6.05356 5.78418 6.04996C6.16018 5.65738 6.56277 5.34764 6.99574 5.11714C6.99953 5.11714 7.00333 5.11353 7.00333 5.11353C7.45909 4.89023 7.89206 4.96587 8.1845 5.29722C8.1883 5.30082 8.79598 5.99233 9.05804 6.33089C9.30491 6.65143 9.63913 7.15927 9.80624 7.44379C10.1063 7.95523 9.92018 8.47746 9.62394 8.69356L9.03145 9.14017C8.73141 9.37067 8.76939 9.79566 8.76939 9.79566C8.76939 9.79566 9.65052 12.9543 12.9396 13.7503Z" fill="#281812"/>
</svg>
