<svg width="24" height="24" viewBox="0 0 24 24" fill="none" xmlns="http://www.w3.org/2000/svg">
<path d="M12.2169 23.3514C10.1205 23.3514 8.24096 22.8468 6.50602 21.9099L0 24L2.09639 17.7297C1.01205 16 0.433735 13.9099 0.433735 11.6757C0.433735 5.18919 5.71084 0 12.2169 0C18.7229 0 24 5.18919 24 11.6757C24 18.1622 18.7229 23.3514 12.2169 23.3514ZM12.2169 1.87387C6.79518 1.87387 2.31325 6.27027 2.31325 11.6757C2.31325 13.8378 3.03614 15.7838 4.19277 17.4414L2.96386 21.1171L6.79518 19.8919C8.38554 20.9009 10.2651 21.5495 12.2169 21.5495C17.7108 21.5495 22.1205 17.1532 22.1205 11.7477C22.1205 6.34234 17.7108 1.87387 12.2169 1.87387ZM18.2169 14.3423C18.1446 14.1982 17.9277 14.1261 17.6386 13.982C17.3494 13.8378 15.9036 13.1171 15.6867 13.045C15.3976 12.973 15.1807 12.973 15.0361 13.2613C14.8193 13.5495 14.3133 14.1982 14.0964 14.4144C13.9518 14.6306 13.7349 14.6306 13.4458 14.4865C13.1566 14.3423 12.2169 14.0541 11.1325 13.045C10.2651 12.2523 9.68675 11.3874 9.54217 11.0991C9.39759 10.8108 9.54217 10.6667 9.68675 10.5225C9.83132 10.3784 9.9759 10.1622 10.1205 10.018C10.2651 9.87387 10.3373 9.72973 10.4096 9.51351C10.4819 9.2973 10.4819 9.15315 10.4096 9.00901C10.3373 8.86487 9.75904 7.42342 9.54217 6.91892C9.3253 6.34234 9.03614 6.41441 8.89157 6.41441C8.74699 6.41441 8.53012 6.41441 8.31325 6.41441C8.09639 6.41441 7.80723 6.48649 7.51807 6.77477C7.22892 6.99099 6.50602 7.71171 6.50602 9.08108C6.50602 10.5225 7.51807 11.8198 7.66265 12.036C7.80723 12.2523 9.68675 15.2072 12.5783 16.3604C15.5422 17.5135 15.5422 17.1532 16.0482 17.0811C16.5542 17.009 17.7831 16.3604 18 15.7117C18.2892 15.0631 18.2892 14.4865 18.2169 14.3423Z" fill="#281812"/>
</svg>
