<svg width="131" height="88" viewBox="0 0 131 88" fill="none" xmlns="http://www.w3.org/2000/svg">
<g opacity="0.2" clip-path="url(#clip0)">
<path d="M30.6902 29.3344C15.7715 29.904 5.11532 37.3085 2.27367 52.5448C-0.283817 65.5027 5.54156 81.7357 18.6131 86.4348C30.2639 90.7066 45.4667 85.8652 53.1392 76.4671C64.7899 62.2276 60.1012 42.0076 51.15 27.7681C40.6359 10.9655 22.0231 1.14026 2.41575 0.855469C2.13158 0.855469 0.284513 1.56744 1.13701 1.85223C13.7823 6.69366 23.586 18.2276 29.2693 30.1888C29.5535 30.9008 31.5426 30.1888 31.2585 29.6192C25.5752 17.5157 15.6294 5.83929 2.842 0.997864C2.41575 1.28265 1.9895 1.56744 1.56325 1.99463C19.0394 2.27942 36.7997 10.6807 47.0296 25.205C57.2596 39.5869 63.7954 61.3733 51.2921 76.6095C44.3301 85.0108 30.6902 89.425 20.3181 85.7228C13.3561 83.3021 8.38321 77.1791 5.82573 70.3441C3.41033 63.794 2.98408 56.5318 4.83115 49.8393C6.10989 45.425 8.09905 40.726 11.0828 37.3085C15.3453 32.6095 23.8702 30.616 29.8377 30.4736C30.5481 30.4736 31.9689 29.3344 30.6902 29.3344Z" fill="#281812"/>
<path d="M71.8926 58.6673C71.8926 72.9068 83.2592 87.4311 98.1778 87.5735C110.539 87.7159 122.9 82.0201 128.157 70.0589C135.545 53.3987 127.305 34.6026 116.506 21.7871C111.107 15.3793 105.282 9.39872 97.7516 5.69645C90.7895 2.13658 81.6963 -0.711315 73.8817 0.143054C73.4555 0.143054 72.1767 0.712634 72.8872 1.13982C78.8546 4.84208 83.8275 9.8259 88.9425 14.5249C94.0574 19.0816 98.3199 23.923 99.5986 30.9003C100.025 30.6155 100.593 30.3308 101.019 30.046C84.3958 29.0492 72.4609 42.2919 71.8926 58.6673C71.8926 59.3793 73.8817 58.9521 73.8817 58.2401C74.308 43.5735 84.2538 30.1884 100.167 31.1851C100.593 31.1851 101.73 30.9003 101.588 30.3308C100.309 23.6382 96.4728 18.9392 91.5 14.3825C90.5054 13.3858 76.2971 1.42461 76.2971 1.28221C77.1496 -0.711315 89.2266 4.13011 91.5 4.84208C96.4728 6.55082 100.877 8.97153 104.998 12.389C111.391 17.8 117.217 24.7774 121.479 31.8971C130.715 47.2757 133.414 70.9133 116.08 82.0201C97.1832 94.1236 74.1659 79.3146 74.0238 57.9553C74.0238 57.5282 71.8926 57.813 71.8926 58.6673Z" fill="#281812"/>
<path d="M22.4485 36.5961C19.4648 35.5994 16.6231 36.8809 14.776 39.444C11.6502 44.0007 9.66107 50.6932 9.23482 56.2466C8.66649 65.9295 15.3444 75.6123 25.7164 74.046C26.711 73.9036 25.8585 73.4764 25.2901 73.4764C15.9127 74.9003 10.5136 65.5023 10.5136 57.3858C10.5136 53.1139 14.0656 34.745 21.3118 37.1657C21.8802 37.1657 23.1589 36.8809 22.4485 36.5961Z" fill="#281812"/>
<path d="M24.8648 41.5799C12.9299 36.7385 11.5091 62.9392 25.4331 63.5088C26.4277 63.5088 25.7173 62.9392 25.149 62.9392C12.7878 62.512 15.9136 38.5897 24.1544 42.0071C24.4386 42.1495 25.7173 41.8647 24.8648 41.5799Z" fill="#281812"/>
<path d="M26.5689 44.9972C24.8639 46.706 22.8748 48.8419 22.7327 51.405C22.5906 53.6833 23.7272 55.8192 25.4322 57.2432C28.2739 59.8063 32.2522 60.2335 35.5201 58.24C35.8042 58.0976 34.6676 57.528 34.2413 57.6704C30.121 60.0911 24.8639 57.3856 24.1535 52.829C23.7272 49.8387 25.8585 47.418 27.8476 45.4244C28.1318 45.1396 26.8531 44.7124 26.5689 44.9972Z" fill="#281812"/>
<path d="M97.1849 37.5921C80.7033 37.0225 73.315 63.3656 88.5178 70.9125C89.0862 71.1973 89.9387 70.9125 89.0862 70.4853C74.4517 63.2232 82.6925 37.7345 98.0374 38.3041C98.7478 38.3041 97.6111 37.5921 97.1849 37.5921Z" fill="#281812"/>
<path d="M97.7524 44.7119C86.67 45.2815 82.4075 61.7993 90.5062 68.6343C90.7904 68.919 92.2112 68.6343 91.785 68.3495C84.3967 62.2265 87.5225 45.8511 98.1787 45.2815C99.0312 45.1391 98.3208 44.7119 97.7524 44.7119Z" fill="#281812"/>
<path d="M113.951 33.3204C123.044 46.136 126.739 64.3625 114.946 76.8933C114.662 77.178 115.94 77.7476 116.225 77.4628C128.159 64.7897 124.323 46.4208 115.088 33.4628C114.946 33.0356 113.667 32.8932 113.951 33.3204Z" fill="#281812"/>
<path d="M110.541 43.2886C115.372 47.7028 118.071 53.2562 117.361 59.9488C116.793 65.3598 114.377 70.3436 112.104 75.185C111.962 75.4698 113.241 76.0394 113.525 75.6122C116.224 69.9164 118.924 64.0783 118.924 57.6705C118.924 51.6899 115.94 46.9909 111.678 43.0038C111.394 43.0038 109.973 42.719 110.541 43.2886Z" fill="#281812"/>
<path d="M37.0838 22.071C47.7399 33.3202 56.407 50.2652 46.8874 65.0742C46.7454 65.359 48.0241 65.359 48.3083 65.0742C57.8278 50.2652 49.1608 33.1778 38.5046 21.7862C38.0783 21.359 36.7996 21.7862 37.0838 22.071Z" fill="#281812"/>
<path d="M38.0783 81.4498C42.3408 78.4595 46.0349 74.8997 49.1607 70.7702C49.4449 70.4854 48.0241 70.0582 47.882 70.4854C44.7562 74.6149 41.2041 78.1747 36.9416 81.165C36.5154 81.3074 37.7941 81.5922 38.0783 81.4498Z" fill="#281812"/>
<path d="M109.404 80.881C110.256 80.3114 110.967 79.5995 111.535 78.8875C111.819 78.6027 110.398 78.4603 110.114 78.7451C109.546 79.4571 108.977 80.169 108.125 80.7386C107.841 80.881 108.267 81.0234 108.409 81.1658C108.693 81.1658 109.119 81.1658 109.404 80.881Z" fill="#281812"/>
<path d="M113.524 80.5957C113.95 80.4533 114.092 80.1685 114.234 79.7413C114.234 79.3141 112.814 79.3141 112.814 79.7413C112.814 79.8837 112.672 80.0261 112.53 80.1685C112.245 80.3109 112.245 80.4533 112.53 80.5957C112.814 80.7381 113.24 80.5957 113.524 80.5957Z" fill="#281812"/>
<path d="M109.83 28.6219C110.398 29.1915 111.109 29.6187 111.677 30.1883C111.961 30.3306 112.387 30.473 112.672 30.3306C112.814 30.3306 113.24 30.1883 112.956 29.9035C112.387 29.3339 111.677 28.9067 111.109 28.3371C110.825 28.1947 110.398 28.0523 110.114 28.1947C109.972 28.1947 109.546 28.3371 109.83 28.6219Z" fill="#281812"/>
<path d="M106.419 23.9219C106.987 24.4915 107.556 25.0611 108.124 25.6307C108.408 25.9155 109.687 25.9155 109.403 25.4883C108.834 24.9187 108.266 24.3491 107.698 23.7795C107.414 23.4947 105.993 23.4947 106.419 23.9219Z" fill="#281812"/>
<path d="M102.726 19.6504C103.01 20.0776 103.436 20.3624 103.72 20.7896C104.004 21.0744 105.283 21.0744 104.999 20.6472C104.715 20.22 104.289 19.9352 104.004 19.5081C103.72 19.2233 102.299 19.2233 102.726 19.6504Z" fill="#281812"/>
<path d="M99.8834 16.6606C100.025 16.803 100.31 16.9454 100.452 17.0878C100.736 17.2302 101.162 17.3726 101.446 17.3726C101.73 17.3726 101.73 17.2302 101.588 16.9454C101.446 16.803 101.162 16.6606 101.02 16.5182C100.736 16.3758 100.31 16.2334 100.025 16.2334C99.7413 16.3758 99.5992 16.5182 99.8834 16.6606Z" fill="#281812"/>
<path d="M34.0989 18.0839C34.241 18.3687 34.5251 18.6535 34.6672 18.9383C34.8093 19.2231 36.2301 19.0807 36.088 18.7959C35.9459 18.5111 35.6618 18.2263 35.5197 17.9415C35.2355 17.5143 33.9568 17.6567 34.0989 18.0839Z" fill="#281812"/>
<path d="M30.5482 15.0942C30.9744 15.5214 31.5428 15.9485 31.969 16.3757C32.2532 16.5181 32.5373 16.5181 32.8215 16.5181C32.9636 16.5181 33.5319 16.3757 33.2478 16.0909C32.8215 15.6638 32.2532 15.2366 31.8269 14.8094C31.5428 14.667 31.2586 14.667 30.9744 14.667C30.9744 14.667 30.4061 14.9518 30.5482 15.0942Z" fill="#281812"/>
<path d="M25.1483 11.6766C25.7167 12.1038 26.285 12.531 26.7112 12.9581C26.9954 13.1005 27.4216 13.2429 27.7058 13.1005C27.8479 13.1005 28.2741 12.9581 27.99 12.6734C27.4216 12.2462 26.8533 11.819 26.4271 11.3918C26.1429 11.2494 25.7167 11.107 25.4325 11.2494C25.2904 11.3918 24.8642 11.3918 25.1483 11.6766Z" fill="#281812"/>
<path d="M14.9178 77.1781C17.9016 79.4565 21.4536 80.738 25.1478 81.1652C25.7161 81.1652 26.4265 80.738 25.574 80.5956C22.164 80.3108 19.0382 79.0293 16.1966 76.8934C15.7703 76.6086 14.4916 76.8934 14.9178 77.1781Z" fill="#281812"/>
<path d="M28.5593 73.7608C29.2697 73.6184 29.838 73.3336 30.5484 73.1912C30.8326 73.0488 30.8326 72.9064 30.5484 72.764C30.2643 72.6216 29.838 72.6216 29.5538 72.764C28.8434 72.9064 28.2751 73.1912 27.5647 73.3336C27.2805 73.476 27.2805 73.6184 27.5647 73.7608C27.8489 73.7608 28.2751 73.7608 28.5593 73.7608Z" fill="#281812"/>
<path d="M34.9527 71.1978C35.3789 70.913 35.6631 70.7706 36.0893 70.4858C36.3735 70.3434 35.2369 69.6314 34.8106 69.9162C34.3844 70.201 34.1002 70.3434 33.6739 70.6282C33.3898 70.7706 34.5264 71.3402 34.9527 71.1978Z" fill="#281812"/>
<path d="M40.0667 67.2102C41.0613 67.2102 40.3509 66.6406 39.7825 66.6406C38.6459 66.6406 39.3563 67.2102 40.0667 67.2102Z" fill="#281812"/>
</g>
<defs>
<clipPath id="clip0">
<rect width="131" height="88" fill="white"/>
</clipPath>
</defs>
</svg>
