<svg width="1140" height="7" viewBox="0 0 1140 7" fill="none" xmlns="http://www.w3.org/2000/svg">
<path d="M1217.88 6.2C1180.88 5.8 1144.17 6.2 1107.17 6.4H1219.17C1218.37 6.3 1217.97 6.2 1217.88 6.2C1222.88 6.3 1227.88 6.3 1232.78 6.4C1232.68 6.4 1232.57 6.4 1232.57 6.4H1857.98V31H-701.925V7.3C-702.025 7.3 -702.025 7.3 -701.925 7.2V6.4H-664.225C-670.625 6.1 -676.025 5.6 -681.625 4.8C-674.525 4.4 -655.325 4.5 -656.125 4C-650.425 4.7 -636.725 5 -618.425 5C-616.325 4.2 -637.025 4.6 -631.825 4.4L-627.925 4.3C-630.025 3.9 -633.525 3.6 -639.825 3.6C-617.025 2.4 -574.225 2.6 -558.025 4.2C-539.425 3.4 -570.725 2.9 -580.225 2.3C-514.925 1.7 -470.725 1.8 -404.725 1.7C-403.625 3.2 -398.025 2.6 -388.925 3.6L-383.325 3.1C-386.025 3.4 -377.625 4.3 -388.625 4.6C-360.425 3.8 -349.625 5.4 -334.425 6.5H-320.725H-320.825C-319.225 6.5 -317.625 6.5 -316.225 6.5H-264.725C-259.925 5.9 -303.125 6.5 -295.225 5L-285.425 5.3C-291.025 4.6 -297.425 3.3 -308.325 2.8C-275.325 4 -261.025 2.3 -225.125 3.3C-229.325 2.5 -261.625 1.8 -270.425 1.7C-258.325 1.6 -236.625 2.2 -235.625 1.4L-233.225 2.5C-211.825 2.6 -236.025 1.5 -229.025 0.9C-178.425 1.1 -222.325 4.3 -179.825 4.9C-175.625 3.3 -159.825 5.2 -145.425 4.7C-159.125 4.5 -155.625 3.5 -153.925 3C-137.025 5.1 -133.225 2.6 -102.025 3C-101.325 2.3 -116.425 2.2 -118.225 1.4C-101.025 1.9 -74.725 2.2 -70.825 3.4C-41.625 3.4 -20.925 3 -3.42505 3.2C-24.525 2.7 -7.32501 2 -22.725 1C-1.32501 2.4 46.475 4 77.775 5.7C81.575 4.4 82.975 4.3 79.075 3.1C114.175 2.2 89.275 4.3 122.575 3.9L107.275 4C122.175 4.4 123.775 5.5 128.175 6.4H143.775C141.875 6.3 140.675 6.1 140.975 5.8C150.775 6.1 158.175 6.3 162.775 5.6C154.675 4.8 142.475 5.7 138.475 4.5L153.275 5C162.775 4.4 149.675 3.5 158.475 3.6C170.775 5.2 200.875 3 214.575 3.2L209.675 3L230.775 2.2C230.975 2.2 230.775 2.1 230.875 2.1C231.275 2.2 231.575 2.3 231.875 2.4C240.275 1.6 255.975 1 273.575 1.2C280.275 2.1 329.075 1.5 337.175 2.3C329.775 2.1 323.575 2.1 314.375 2.3L315.775 3.4C332.275 3.4 316.775 2.4 332.675 3C329.875 4.5 309.875 3 298.275 3.2C302.475 3.5 308.275 3.8 315.475 4C292.175 4 269.975 4.5 253.875 3C248.275 3.3 249.675 3.8 253.275 4C238.875 3.4 242.475 4.9 228.675 4.2C233.575 5.6 263.375 4.9 277.875 5.7C299.275 4.6 327.375 5.6 351.275 5.8C352.275 4.8 335.375 3.9 344.875 3.3C368.375 2.6 368.375 3.9 381.775 4.4C398.575 4 383.475 2.7 410.175 2.6L394.375 1.9C409.675 0.4 409.075 2.5 420.675 2.2C416.875 2.6 416.875 3 403.475 2.9C402.075 3.4 412.275 3.7 417.175 3.7H414.075C419.675 4.4 421.475 5.2 438.275 4.8C427.675 3.9 451.575 4.1 455.775 3.7L451.375 3.5C463.675 3.8 476.375 3.7 484.175 3.8L483.475 3.6C492.775 4 496.175 5 509.675 4.8C508.275 4.4 492.275 3.2 507.075 3.4C504.975 2.8 488.575 2.7 475.075 2.9C488.475 2.7 495.275 1.6 478.775 1.5C483.275 0.700001 494.275 1.9 502.975 1.5C501.575 1.7 503.775 2 503.675 2.2C505.375 1.2 535.775 2.2 536.275 2.9L520.075 2.3C518.975 3.1 534.875 3.6 533.775 4.1C543.275 3 575.875 4.9 583.775 3.8L577.975 4.5C609.175 4.1 635.375 5.5 666.375 6H670.675C662.075 5.6 659.475 4.5 646.675 4.5C666.775 4.1 649.375 3 658.175 2.3C682.775 1.7 670.975 3.7 678.575 4.2L661.475 3.9C683.475 5.7 725.275 3.5 759.275 4.6C761.775 4.1 752.275 4.3 747.675 4.2C762.975 3.3 762.475 4.4 771.775 4.7C787.575 4.6 806.575 4.1 796.875 3C814.275 2.7 794.975 3.7 804.275 4L807.475 3.7L825.875 5C840.975 4.6 859.275 4 865.975 3C899.675 3.2 880.075 5.3 900.975 5.9H905.375C917.075 5.4 901.175 5.1 899.775 4.7L922.475 4.8C914.375 3.5 896.075 4.2 897.475 2.7C916.475 4.2 923.175 3.1 948.675 4.1L947.075 4.2C958.375 5.2 984.575 4.5 999.475 4.7C993.475 4.1 976.975 4 966.075 3.8C982.775 3.3 1024.88 3.8 1039.28 5.1C1048.78 4.9 1069.38 4.4 1055.47 3.8C1089.38 3.6 1069.58 5.7 1098.78 5.3L1097.57 4.3C1129.57 2.9 1160.67 5.6 1190.97 4.3L1192.88 5.5C1199.38 5 1212.88 4.8 1215.38 4.3L1199.88 3.9C1212.88 2.9 1215.17 4.9 1231.17 4.2C1231.07 4.9 1217.88 5.8 1217.88 6.2ZM-143.025 4.6C-145.125 5.4 -128.925 5.7 -121.925 6.3C-113.125 6.4 -106.925 6.4 -106.125 5.7C-96.225 5.8 -92.025 6.1 -90.525 6.3H-55.425C-55.225 6.2 -54.525 6 -53.125 5.9C-70.325 2.9 -113.825 5.8 -143.025 4.6ZM-14.125 3.8L-53.825 4.2C-51.425 4.9 -48.025 5.7 -41.925 6.4H3.47498C-12.125 5.5 -33.125 4.8 -14.125 3.8ZM89.775 6.3L101.875 6.4L89.775 6.3ZM322.775 6.3C322.375 6.3 321.975 6.3 321.475 6.3C321.675 6.3 321.875 6.3 321.975 6.3H322.775ZM353.975 6.3H370.975C364.075 6.3 358.975 6.3 353.975 6.3ZM394.775 5.5C390.275 5.7 385.675 6.1 385.375 6.4H406.175C400.175 6.1 395.975 5.8 394.775 5.5ZM463.775 6.3H470.075C469.175 6.3 468.075 6.3 466.675 6.2C465.575 6.3 464.675 6.3 463.775 6.3ZM492.575 6.3H495.575C495.375 6.3 495.175 6.2 495.075 6.2C493.875 6.3 493.075 6.3 492.575 6.3ZM571.275 5.9C570.675 6 570.775 6.2 571.175 6.3H603.175C596.075 6 577.475 6.5 571.275 5.9ZM919.975 5.7C911.875 5.8 909.275 6.1 911.275 6.3H925.575C924.775 6.1 923.475 5.8 919.975 5.7ZM939.275 6.3H939.775C939.875 6.3 939.975 6.3 940.075 6.2L939.275 6.3ZM1026.78 5.4C1019.58 5.7 1006.38 5.4 1008.47 6L1010.78 6.1C1005.08 6 999.475 6.1 994.275 6.3H1020.88C1019.78 6.2 1020.38 6.1 1021.57 6L1024.17 6.3H1053.28C1043.18 6.2 1033.07 6.1 1022.97 5.9C1025.47 5.8 1028.47 5.7 1026.78 5.4Z" fill="#FAFAFA"/>
</svg>
