<svg width="7" height="90" viewBox="0 0 7 90" fill="none" xmlns="http://www.w3.org/2000/svg">
<path d="M0.800083 1919.87C1.20008 1882.87 0.800082 1846.17 0.600079 1809.17L0.600084 1921.17C0.700085 1920.37 0.800083 1919.97 0.800083 1919.87C0.700083 1924.87 0.700085 1929.87 0.600085 1934.78C0.600085 1934.68 0.600085 1934.57 0.600085 1934.57L0.600112 2559.98L-23.9999 2559.98L-24 0.075L-0.299999 0.074999C-0.299999 -0.025001 -0.300001 -0.025001 -0.200001 0.074999L0.6 0.0749989L0.600002 37.775C0.900001 31.375 1.4 25.975 2.2 20.375C2.6 27.475 2.5 46.675 3 45.875C2.3 51.575 2 65.275 2 83.575C2.8 85.675 2.4 64.975 2.6 70.175L2.7 74.075C3.1 71.975 3.4 68.475 3.4 62.175C4.6 84.975 4.40001 127.775 2.80001 143.975C3.60001 162.575 4.10001 131.275 4.70001 121.775C5.30001 187.075 5.20001 231.275 5.30001 297.275C3.80001 298.375 4.40001 303.975 3.40001 313.075L3.90001 318.675C3.60001 315.975 2.70001 324.375 2.40001 313.375C3.20001 341.575 1.60002 352.375 0.500016 367.575L0.500017 381.275L0.500017 381.175C0.500017 382.775 0.500017 384.375 0.500017 385.775L0.500019 437.275C1.10002 442.075 0.500017 398.875 2.00002 406.775L1.70002 416.575C2.40002 410.975 3.70002 404.575 4.20002 393.675C3.00002 426.675 4.70002 440.975 3.70002 476.875C4.50002 472.675 5.20002 440.375 5.30002 431.575C5.40002 443.675 4.80002 465.375 5.60002 466.375L4.50002 468.775C4.40002 490.175 5.50002 465.975 6.10002 472.975C5.90002 523.575 2.70002 479.675 2.10002 522.175C3.70002 526.375 1.80002 542.175 2.30002 556.575C2.50002 542.875 3.50002 546.375 4.00002 548.075C1.90002 564.975 4.40002 568.775 4.00003 599.975C4.70003 600.675 4.80003 585.575 5.60003 583.775C5.10003 600.975 4.80003 627.275 3.60003 631.175C3.60003 660.375 4.00003 681.075 3.80003 698.575C4.30003 677.475 5.00003 694.675 6.00003 679.275C4.60003 700.675 3.00003 748.475 1.30003 779.775C2.60003 783.575 2.70003 784.975 3.90003 781.075C4.80003 816.175 2.70004 791.275 3.10004 824.575L3.00004 809.275C2.60004 824.175 1.50004 825.775 0.600037 830.175L0.600037 845.775C0.700038 843.875 0.900038 842.675 1.20004 842.975C0.900039 852.775 0.700036 860.175 1.40004 864.775C2.20004 856.675 1.30004 844.475 2.50004 840.475L2.00004 855.275C2.60004 864.775 3.50004 851.675 3.40004 860.475C1.80004 872.775 4.00004 902.875 3.80004 916.575L4.00004 911.675L4.80004 932.775C4.80004 932.975 4.90004 932.775 4.90004 932.875C4.80004 933.275 4.70004 933.575 4.60004 933.875C5.40004 942.275 6.00004 957.975 5.80004 975.575C4.90004 982.275 5.50005 1031.07 4.70005 1039.17C4.90005 1031.77 4.90005 1025.57 4.70005 1016.37L3.60004 1017.77C3.60005 1034.27 4.60004 1018.77 4.00005 1034.67C2.50005 1031.87 4.00004 1011.87 3.80004 1000.27C3.50004 1004.47 3.20004 1010.27 3.00004 1017.47C3.00004 994.175 2.50004 971.975 4.00004 955.875C3.70004 950.275 3.20004 951.675 3.00004 955.275C3.60004 940.875 2.10004 944.475 2.80004 930.675C1.40004 935.575 2.10004 965.375 1.30004 979.875C2.40004 1001.28 1.40005 1029.37 1.20005 1053.28C2.20005 1054.28 3.10005 1037.37 3.70005 1046.87C4.40005 1070.37 3.10005 1070.37 2.60005 1083.78C3.00005 1100.58 4.30005 1085.47 4.40005 1112.17L5.10005 1096.37C6.60005 1111.68 4.50005 1111.07 4.80005 1122.67C4.40005 1118.87 4.00005 1118.87 4.10005 1105.47C3.60005 1104.07 3.30005 1114.27 3.30005 1119.17L3.30005 1116.07C2.60005 1121.67 1.80005 1123.47 2.20005 1140.28C3.10005 1129.68 2.90005 1153.58 3.30005 1157.78L3.50005 1153.37C3.20005 1165.68 3.30005 1178.37 3.20005 1186.17L3.40005 1185.47C3.00005 1194.78 2.00005 1198.17 2.20005 1211.67C2.60005 1210.27 3.80005 1194.27 3.60005 1209.07C4.20005 1206.97 4.30005 1190.57 4.10005 1177.07C4.30005 1190.47 5.40005 1197.28 5.50005 1180.78C6.30005 1185.28 5.10005 1196.28 5.50005 1204.97C5.30005 1203.57 5.00005 1205.77 4.80005 1205.67C5.80005 1207.37 4.80006 1237.78 4.10005 1238.28L4.70005 1222.07C3.90005 1220.97 3.40005 1236.87 2.90005 1235.78C4.00005 1245.28 2.10006 1277.87 3.20006 1285.78L2.50006 1279.97C2.90006 1311.17 1.50006 1337.37 1.00006 1368.37L1.00006 1372.67C1.40006 1364.07 2.50006 1361.47 2.50006 1348.67C2.90006 1368.77 4.00006 1351.37 4.70006 1360.17C5.30006 1384.77 3.30006 1372.97 2.80006 1380.57L3.10006 1363.47C1.30006 1385.47 3.50006 1427.28 2.40006 1461.28C2.90006 1463.78 2.70006 1454.27 2.80006 1449.67C3.70006 1464.97 2.60006 1464.47 2.30006 1473.78C2.40006 1489.58 2.90007 1508.57 4.00007 1498.87C4.30007 1516.28 3.30006 1496.97 3.00007 1506.28L3.30007 1509.47L2.00007 1527.87C2.40007 1542.97 3.00007 1561.28 4.00007 1567.97C3.80007 1601.67 1.70007 1582.07 1.10007 1602.97L1.10007 1607.37C1.60007 1619.07 1.90007 1603.18 2.30007 1601.78L2.20007 1624.47C3.50007 1616.37 2.80007 1598.07 4.30007 1599.47C2.80007 1618.47 3.90007 1625.17 2.90007 1650.67L2.80007 1649.07C1.80007 1660.37 2.50007 1686.57 2.30007 1701.47C2.90007 1695.47 3.00007 1678.97 3.20007 1668.07C3.70007 1684.77 3.20007 1726.87 1.90008 1741.28C2.10008 1750.78 2.60008 1771.37 3.20008 1757.47C3.40008 1791.37 1.30008 1771.58 1.70008 1800.78L2.70008 1799.57C4.10008 1831.57 1.40008 1862.67 2.70008 1892.97L1.50008 1894.87C2.00008 1901.37 2.20008 1914.87 2.70008 1917.37L3.10008 1901.87C4.10008 1914.87 2.10008 1917.17 2.80008 1933.17C2.10008 1933.07 1.20008 1919.87 0.800083 1919.87ZM2.40002 558.975C1.60002 556.875 1.30003 573.075 0.700026 580.075C0.600026 588.875 0.600024 595.075 1.30003 595.875C1.20003 605.775 0.900028 609.975 0.700027 611.475L0.700029 646.575C0.800029 646.775 1.00003 647.475 1.10003 648.875C4.10003 631.675 1.20002 588.175 2.40002 558.975ZM3.20003 687.875L2.80003 648.175C2.10003 650.575 1.30003 653.975 0.600029 660.075L0.600031 705.475C1.50003 689.875 2.20003 668.875 3.20003 687.875ZM0.700035 791.775L0.600036 803.875L0.700035 791.775ZM0.700046 1024.78C0.700046 1024.37 0.700046 1023.97 0.700046 1023.47C0.700046 1023.67 0.700046 1023.87 0.700046 1023.97L0.700046 1024.78ZM0.700047 1055.97L0.700048 1072.97C0.700047 1066.07 0.700047 1060.97 0.700047 1055.97ZM1.50005 1096.78C1.30005 1092.28 0.900047 1087.68 0.600048 1087.37L0.600049 1108.17C0.900048 1102.17 1.20005 1097.97 1.50005 1096.78ZM0.700052 1165.78L0.700052 1172.07C0.700052 1171.17 0.70005 1170.07 0.80005 1168.67C0.70005 1167.57 0.700052 1166.68 0.700052 1165.78ZM0.700053 1194.57L0.700053 1197.57C0.700053 1197.37 0.800052 1197.17 0.800052 1197.07C0.700051 1195.87 0.700053 1195.07 0.700053 1194.57ZM1.10006 1273.28C1.00006 1272.68 0.800057 1272.77 0.700056 1273.17L0.700058 1305.17C1.00006 1298.07 0.500056 1279.47 1.10006 1273.28ZM1.30007 1621.97C1.20007 1613.87 0.900072 1611.28 0.700071 1613.28L0.700072 1627.57C0.900073 1626.77 1.20007 1625.47 1.30007 1621.97ZM0.700073 1641.28L0.700073 1641.78C0.700073 1641.87 0.700071 1641.97 0.800071 1642.07L0.700073 1641.28ZM1.60008 1728.78C1.30008 1721.58 1.60008 1708.37 1.00007 1710.47L0.900074 1712.78C1.00007 1707.08 0.900076 1701.47 0.700075 1696.28L0.700076 1722.87C0.800076 1721.78 0.900075 1722.37 1.00008 1723.57L0.700076 1726.17L0.700077 1755.28C0.800077 1745.18 0.900075 1735.07 1.10008 1724.97C1.20008 1727.47 1.30008 1730.47 1.60008 1728.78Z" fill="#FAFAFA"/>
</svg>
