<svg width="8" height="90" viewBox="0 0 8 90" fill="none" xmlns="http://www.w3.org/2000/svg">
<path d="M32 0.0602965L11.8 0.0602958L11.8 60.7603C11.5 61.0603 11.3 58.0603 11.5 44.4603L10.3 67.9603C9.8 61.8603 8.8 65.7603 9.2 49.8603C9.9 44.8603 10.8 35.0603 10.9 26.4603C9.5 60.7603 8.8 -3.5397 7 28.3603L7.1 16.4603C7 17.9603 6.8 18.3603 6.7 17.5603L6.6 1.7603C6.2 11.4603 6 34.6603 4.7 23.8603L4.3 1.0603C3.3 7.1603 2.8 -1.2397 2 0.160296L-4.19383e-06 67.4603C0.599996 64.8603 0.999997 55.1603 1.6 58.7603C2.1 76.7603 0.499995 73.4603 1.29999 90.2603L2.1 82.7603C1.8 84.0603 1.7 86.4603 1.6 82.7603C1.1 76.8603 1.7 74.2603 2.2 74.1603C3.2 80.0603 2.49999 97.0603 1.79999 102.16C1.89999 124.06 3.69999 106.66 3.99999 111.46C2.19999 122.76 3.99999 147.96 3.19999 161.46L4.29999 152.76C5.69999 169.36 4.49999 184.26 4.09999 194.06L4.99999 190.26C4.79999 213.46 7.99999 224.86 4.69999 242.56L5.29998 240.16C5.59998 249.66 6.29998 264.06 5.29998 273.16C5.69998 273.36 6.19998 274.96 6.29998 278.86C4.99998 283.96 5.99998 293.86 6.19998 307.86C6.49998 298.56 8.19998 301.56 8.59998 291.76C10.3 313.36 6.79998 311.56 6.79998 329.66C7.59998 340.56 7.69998 319.86 8.29998 317.26C7.39998 345.26 12.1 374.86 8.79997 392.46L7.69998 380.46C6.99998 391.56 6.99998 397.66 7.29997 396.26C7.19997 392.66 7.49998 391.46 7.79997 390.16C9.49997 423.76 5.39997 442.76 5.99997 476.76C6.59997 474.26 6.79997 469.36 7.29997 469.16C7.89997 484.76 4.09997 484.36 5.39997 509.66L6.09997 504.66C6.49997 511.96 5.69997 517.56 5.39997 518.26C7.99997 520.46 5.19996 571.86 8.79996 589.26C7.29996 601.66 6.09996 637.06 6.89996 647.86C8.59996 663.36 8.79996 634.16 10.3 639.86C10.3 652.06 8.79996 658.46 9.29996 676.56C7.69996 676.86 6.09996 640.76 5.19996 674.86L5.99996 679.66C5.89996 676.16 5.59996 671.26 5.79996 666.36C6.69996 656.46 6.79996 672.26 7.29996 674.56L6.79996 711.16C5.09995 713.86 5.49996 691.96 5.09996 689.66C5.39995 718.66 7.89995 753.46 6.79995 780.36L7.39995 777.76C5.99995 812.06 10.4 797.76 7.79995 825.16C8.19995 839.56 9.59995 819.96 9.69995 841.76C9.69995 847.96 9.09995 844.26 8.89995 843.16C8.29995 869.96 10.4999 854.96 8.89994 879.66L10.6999 874.36C9.49994 903.76 6.39994 934.66 7.19994 960.06C8.59994 958.56 8.39994 942.76 9.49994 936.56C7.09994 971.06 9.19994 1019.26 7.89993 1051.06C6.69993 1041.56 5.19993 1066.16 4.29993 1045.76C6.09993 1040.46 4.89994 1030.96 5.09994 1019.96C1.29994 1037.66 6.99993 1093.76 3.59993 1099.16L4.99993 1103.86C4.79993 1108.76 3.79993 1121.16 3.29993 1112.56L4.19993 1147.66C5.19993 1135.36 7.59993 1109.26 6.09993 1101.16C7.49993 1091.16 7.09993 1115.56 8.69993 1106.66C6.39993 1130.16 9.69993 1121.16 9.19993 1145.46C7.19993 1134.46 6.49993 1169.66 5.59993 1168.56C5.99993 1176.56 5.09993 1194.26 4.39992 1201.06C4.19992 1215.16 5.79992 1247.46 5.09992 1270.06C5.69992 1261.46 6.49992 1247.96 7.79992 1248.96C7.09992 1260.06 7.09992 1272.26 8.59992 1274.36C11.2999 1234.96 5.29992 1261.66 6.99992 1226.06C8.69993 1217.26 9.09993 1207.46 9.49993 1189.16C10.2999 1196.26 10.6999 1194.66 11.4999 1196.16L11.4999 1200.86C8.79992 1223.46 11.5999 1257.16 9.89992 1285.06C8.89992 1297.46 6.69992 1288.16 6.29992 1316.16L5.19992 1292.06C6.19992 1318.56 4.19992 1298.26 3.79992 1320.16L4.89992 1311.46C5.09992 1324.86 4.89992 1329.76 4.09992 1337.16L5.89992 1325.86C6.09992 1333.06 6.29992 1346.46 5.29992 1346.56C5.69992 1348.46 6.09992 1349.06 6.39992 1349.06C6.09992 1350.46 5.89992 1353.86 5.99992 1362.36C6.19992 1357.46 6.09992 1353.86 6.59992 1353.76C6.19991 1385.96 8.49992 1361.26 8.29991 1381.26C8.69991 1378.06 9.19991 1383.76 9.39991 1390.96C6.59991 1390.46 6.29991 1430.06 4.69991 1440.46L4.69991 1440.36L3.59991 1467.26C3.79991 1461.76 4.59991 1467.66 4.89991 1475.56L4.89991 1474.26C5.29991 1482.86 7.89991 1464.06 7.09991 1489.76L6.29991 1502.76C6.39991 1501.16 6.79991 1503.16 6.99991 1504.36L6.2999 1518.26C8.8999 1539.56 4.7999 1558.36 6.0999 1583.36C5.8999 1576.16 6.0999 1565.16 6.8999 1569.86C7.1999 1574.66 6.8999 1582.06 6.4999 1585.76L6.7999 1584.46L5.0999 1632.16C5.9999 1628.26 6.0999 1601.66 7.1999 1613.56C8.4999 1620.56 7.0999 1634.26 6.9999 1642.86C6.2999 1641.76 5.5999 1625.96 5.1999 1641.96C5.5999 1643.96 6.2999 1659.06 6.7999 1651.96C6.09989 1668.26 5.59989 1691.96 4.29989 1706.56C4.59989 1711.16 4.89989 1703.86 4.99989 1701.46L4.79989 1700.26C5.19989 1690.46 6.69989 1698.76 5.8999 1679.46C8.29989 1677.86 6.59989 1707.26 6.89989 1724.26L8.49989 1697.26C11.7999 1742.76 8.19989 1804.16 8.19989 1849.26C7.49989 1836.06 8.19989 1824.96 6.29989 1826.56C5.39988 1854.56 5.79988 1850.86 5.39988 1878.86L5.49988 1876.46C6.49988 1890.86 4.59988 1910.66 6.29988 1920.06C7.29988 1913.86 5.29988 1899.56 7.39988 1899.26L7.19988 1934.46C8.39988 1923.36 7.39988 1899.26 7.69988 1885.76C7.59988 1876.06 7.39988 1905.26 6.09988 1900.66C6.19988 1867.76 7.49988 1860.26 9.49989 1844.06C10.8999 1834.16 10.9999 1858.46 10.9999 1864.56C8.79988 1885.46 7.79988 1916.06 8.79988 1948.66L10.3999 1966.56C8.99988 1982.66 6.19988 1975.86 6.49988 2004.96L7.59988 1996.26C7.99988 2002.66 8.19988 2006.86 8.19988 2009.96C9.09988 1997.46 9.99988 1983.86 10.8999 1972.56C11.0999 1973.96 11.2999 1975.36 11.3999 1976.96L11.3999 2000.96C10.7999 2015.16 9.49987 2030.96 9.29987 2044.66C9.59987 2043.36 9.69987 2034.86 10.2999 2032.36C10.8999 2068.76 7.99987 2106.86 7.59987 2134.96C8.69987 2146.86 8.29987 2111.66 9.89987 2117.36C9.29987 2132.16 10.6999 2148.86 9.19987 2152.76C11.2999 2146.26 9.39986 2186.76 11.2999 2158.46C11.3999 2161.66 11.3999 2164.86 11.3999 2168.06L11.3999 2209.86C11.0999 2248.06 9.89986 2287.26 9.09986 2324.16C9.69986 2321.56 10.1999 2321.56 10.6999 2323.86C10.6999 2312.36 10.8999 2297.46 11.3999 2285.56L11.3999 2325.46C10.0999 2341.86 8.69986 2336.76 9.19985 2366.66C10.3999 2378.76 10.2999 2368.56 11.3999 2366.66L11.3998 2409.96C11.2998 2410.46 11.2999 2410.96 11.1999 2411.46L11.0999 2389.46C10.6999 2404.86 10.6999 2419.46 10.0998 2430.06C10.3998 2428.96 10.7998 2428.06 10.8998 2424.76C10.3998 2436.96 10.4998 2452.66 9.49985 2458.96L11.1998 2462.36C10.4998 2455.06 10.2998 2433.26 11.2998 2429.56C11.3998 2429.66 11.3998 2429.86 11.4998 2430.06L11.4998 2495.66L11.2998 2498.86L11.4998 2499.16L11.4998 2559.86L31.9998 2559.86L32 0.0602965ZM8.79994 943.06L8.19994 957.86L7.99994 956.66L8.59994 941.96L8.79994 943.06ZM10.7999 1683.96C10.6999 1686.26 10.4999 1688.66 10.4999 1691.16C10.5999 1686.96 10.6999 1684.96 10.7999 1683.96C10.9999 1679.96 11.3999 1676.76 11.7999 1676.26L11.7999 1682.56C11.3999 1685.56 11.0999 1681.66 10.7999 1683.96ZM10.3999 1693.66C10.3999 1692.96 10.3999 1692.36 10.3999 1691.86C10.4999 1692.46 10.3999 1693.06 10.3999 1693.66ZM11.6 129.76L11.3 137.06C10.9 140.76 10.5 138.46 10.2 139.76C10.3 131.16 11 120.06 11.6 129.76ZM6.49998 242.26C6.79998 235.06 7.79999 228.76 7.19999 219.16C6.89999 220.46 6.69999 219.26 6.69999 225.26L6.49999 211.96C7.99999 196.76 8.39999 211.26 8.89999 225.46C9.09999 225.96 9.39999 226.96 9.59999 229.66C9.79999 231.96 9.49999 234.06 9.29998 236.26C9.39998 239.16 9.59998 241.76 9.79998 242.86L9.49998 244.16C8.99999 241.16 9.09998 238.56 9.29998 236.16C9.09998 232.96 8.99999 229.16 8.89999 225.36C7.79999 223.06 7.09999 238.26 6.49998 242.26ZM9.19998 408.36C10.1 404.56 9.49997 413.16 10.1 416.76L9.39997 439.96C7.49997 435.46 9.49997 419.16 9.19998 408.36ZM9.19996 577.26C10.2 576.96 10.1 555.16 10.2 552.76C11.5 549.16 11.1 556.26 11.8 564.06L11.8 564.76C11.3 564.16 10.5 573.76 10.8 583.06L9.19996 577.26ZM9.09996 604.06C9.29996 617.46 9.19996 632.06 9.89996 635.46C9.09996 636.86 7.59996 610.36 9.09996 604.06ZM7.89993 1085.46L8.69993 1077.96L8.89993 1091.26L7.89993 1085.46ZM11.7999 1071.76L11.7999 1073.16C10.0999 1078.66 11.1999 1104.56 10.6999 1110.36C10.2999 1096.46 9.89993 1065.36 11.7999 1071.76ZM11.6999 1143.06C11.2999 1135.46 11.4999 1132.06 11.7999 1129.36L11.7999 1141.66C11.7999 1142.16 11.6999 1142.66 11.6999 1143.06ZM11.7999 1579.66L11.7999 1586.16L11.4999 1585.26C11.5999 1583.26 11.6999 1581.36 11.7999 1579.66ZM9.0999 1650.16L9.6999 1617.26L9.2999 1649.26L10.2999 1645.26L9.2999 1651.46L9.2999 1649.36L9.0999 1650.16ZM10.1999 1656.06L9.3999 1675.56L10.2999 1665.76L8.59989 1695.16C7.6999 1678.36 8.9999 1658.66 10.1999 1656.06ZM11.3999 1906.36C11.1999 1905.66 10.9999 1904.26 10.9999 1901.46C11.0999 1902.26 11.1999 1904.16 11.3999 1906.36C11.4999 1906.76 11.6999 1906.86 11.7999 1906.66L11.7999 1916.36C11.6999 1912.46 11.4999 1908.96 11.3999 1906.36ZM11.3999 2064.16L11.7999 2066.26L11.7999 2072.26L11.3999 2064.16Z" fill="#FAFAFA"/>
</svg>
