<?xml version="1.0" standalone="no"?>
<!DOCTYPE svg PUBLIC "-//W3C//DTD SVG 1.1//EN" "http://www.w3.org/Graphics/SVG/1.1/DTD/svg11.dtd" >
<svg xmlns="http://www.w3.org/2000/svg" xmlns:xlink="http://www.w3.org/1999/xlink" version="1.1">
<metadata>
Created by FontForge 20170731 at Wed Feb  5 06:25:28 2014
 By Aleksey,,,
Copyright (c) 2012 by Jos Buivenga. All rights reserved.
</metadata>
<defs>
<font id="MuseoSansCyrillic-700" horiz-adv-x="392" >
  <font-face 
    font-family="Museo Sans Cyrillic"
    font-weight="700"
    font-stretch="normal"
    units-per-em="1000"
    panose-1="2 0 0 0 0 0 0 0 0 0"
    ascent="773"
    descent="-227"
    x-height="510"
    cap-height="710"
    bbox="-124 -215 1134 902"
    underline-thickness="50"
    underline-position="-200"
    unicode-range="U+0020-FB04"
  />
<missing-glyph horiz-adv-x="510" 
d="M505 0h-500v700h500v-700zM85 650l170 -255l170 255h-340zM455 605l-170 -255l170 -255v510zM55 605v-510l170 255zM255 305l-170 -255h340z" />
    <glyph glyph-name="f_f" unicode="ff" horiz-adv-x="710" 
d="M222 0h-126v409h-63v101h63v15q0 93 52 138q62 53 156 51q28 0 43 -3v-108q-10 2 -26 2q-99 0 -99 -83v-12h230v15q0 93 52 138q62 53 156 51q28 0 43 -3v-108q-10 2 -26 2q-99 0 -99 -83v-12h110v-101h-110v-409h-126v409h-230v-409z" />
    <glyph glyph-name="fi" unicode="fi" horiz-adv-x="618" 
d="M222 0h-126v409h-63v101h63v15q0 93 52 138q62 53 156 51q28 0 43 -3v-108q-10 2 -26 2q-99 0 -99 -83v-12h328v-510h-126v409h-202v-409zM550 597h-127v113h127v-113z" />
    <glyph glyph-name="fl" unicode="fl" horiz-adv-x="640" 
d="M224 0h-127v402h-63v101h63v22q0 92 53 138q62 53 156 51q28 0 43 -3v-108q-10 2 -26 2q-99 0 -99 -83v-19h110v-101h-110v-402zM419 159v551h126v-532q0 -39 12 -54.5t40 -15.5q14 0 19 1v-111q-27 -3 -40 -3q-61 0 -104 26q-53 34 -53 138z" />
    <glyph glyph-name="f_f_i" unicode="ffi" horiz-adv-x="974" 
d="M222 0h-126v409h-63v101h63v15q0 93 52 138q62 53 156 51q28 0 43 -3v-108q-10 2 -26 2q-99 0 -99 -83v-12h230v15q0 93 52 138q62 53 156 51q28 0 43 -3v-108q-10 2 -26 2q-99 0 -99 -83v-12h328v-510h-126v409h-202v-409h-126v409h-230v-409zM907 597h-127v113h127
v-113z" />
    <glyph glyph-name="f_f_l" unicode="ffl" horiz-adv-x="994" 
d="M222 0h-126v409h-63v101h63v15q0 93 52 138q62 53 156 51q28 0 43 -3v-108q-10 2 -26 2q-99 0 -99 -83v-12h230v15q0 93 52 138q62 53 156 51q28 0 43 -3v-108q-10 2 -26 2q-99 0 -99 -83v-12h110v-101h-110v-409h-126v409h-230v-409zM773 159v551h127v-532
q0 -39 12 -54.5t40 -15.5q14 0 19 1v-111q-27 -3 -40 -3q-24 0 -43.5 3t-42 13t-37.5 27t-25 48t-10 73z" />
    <glyph glyph-name="f_j" unicode="fj" horiz-adv-x="618" 
d="M222 0h-126v409h-63v101h63v15q0 93 52 138q62 53 156 51q28 0 43 -3v-108q-10 2 -26 2q-99 0 -99 -83v-12h328v-525q0 -97 -55 -141q-24 -21 -53 -32q-49 -19 -104 -19q-20 0 -39 3v107q16 -2 22 -2q17 0 32 3.5t32.5 12t28 29t10.5 49.5v414h-202v-409zM550 597h-127
v113h127v-113z" />
    <glyph glyph-name=".notdef" horiz-adv-x="510" 
d="M505 0h-500v700h500v-700zM85 650l170 -255l170 255h-340zM455 605l-170 -255l170 -255v510zM55 605v-510l170 255zM255 305l-170 -255h340z" />
    <glyph glyph-name=".null" horiz-adv-x="0" 
 />
    <glyph glyph-name="nonmarkingreturn" horiz-adv-x="333" 
 />
    <glyph glyph-name="space" unicode=" " horiz-adv-x="250" 
 />
    <glyph glyph-name="exclam" unicode="!" horiz-adv-x="288" 
d="M199 205h-111l-10 505h131zM205 0h-123v119h123v-119z" />
    <glyph glyph-name="quotedbl" unicode="&#x22;" horiz-adv-x="393" 
d="M324 514h-94v209h94v-209zM164 514h-95v209h95v-209z" />
    <glyph glyph-name="numbersign" unicode="#" horiz-adv-x="715" 
d="M228 0h-102l32 187h-119l16 91h119l25 140h-118l15 92h118l35 200h102l-35 -200h136l35 200h102l-35 -200h121l-16 -92h-120l-25 -140h119l-15 -91h-119l-33 -187h-102l33 187h-137zM300 418l-24 -140h136l25 140h-137z" />
    <glyph glyph-name="dollar" unicode="$" horiz-adv-x="586" 
d="M53 85l69 97q34 -33 83 -54t94 -21q46 0 75 23t29 63q0 56 -120 104q-55 23 -99 46q-53 27 -86 71.5t-33 101.5q0 77 52 132q53 56 136 69v94h85v-92q103 -7 176 -73l-56 -105q-31 27 -74 44.5t-82 17.5q-46 0 -77 -24t-31 -61q0 -12 4.5 -23t14.5 -20.5t20 -17t28 -16.5
t31 -14.5t35.5 -15t35.5 -15.5q39 -19 81 -44q40 -23 64 -63.5t24 -92.5q0 -80 -52 -136q-53 -57 -142 -69v-92h-85v92q-122 13 -200 94z" />
    <glyph glyph-name="percent" unicode="%" horiz-adv-x="800" 
d="M43 564q0 64 47 111q49 47 116 47q66 0 115 -47q49 -46 49 -111q0 -66 -48 -112q-47 -46 -116 -46t-116 46q-47 47 -47 112zM185 0h-117l545 710h117zM273 564q0 27 -19.5 46.5t-47.5 19.5t-47 -19.5t-19 -46.5q0 -28 19 -47t47 -19t47.5 19t19.5 47zM594 303
q66 0 115 -47q48 -46 48 -111t-48 -111q-46 -46 -115 -46t-116 46q-47 47 -47 111t47 111q49 47 116 47zM528 146q0 -28 19 -47t47 -19t47.5 19t19.5 47q0 27 -19.5 46.5t-47.5 19.5t-47 -19.5t-19 -46.5z" />
    <glyph glyph-name="ampersand" unicode="&#x26;" horiz-adv-x="684" 
d="M51 201q0 60 33 109t87 68v2q-42 19 -66 60t-24 95q0 90 63 138q64 49 162 49q40 0 93 -12l-31 -102q-21 6 -47 6q-49 0 -79 -25.5t-30 -69.5q0 -40 26.5 -67t80.5 -27h114v92h127v-92h92v-112h-92v-84q0 -110 -68 -176q-68 -65 -188 -65q-112 0 -183 60q-70 61 -70 153z
M183 209q0 -45 33.5 -74t87.5 -29q62 0 95.5 33t33.5 97v77h-120q-61 0 -95.5 -27t-34.5 -77z" />
    <glyph glyph-name="quotesingle" unicode="'" horiz-adv-x="235" 
d="M165 514h-96v209h96v-209z" />
    <glyph glyph-name="parenleft" unicode="(" horiz-adv-x="308" 
d="M274 -95h-107q-119 196 -119 438q0 210 119 398h107q-113 -191 -113 -399q0 -225 113 -437z" />
    <glyph glyph-name="parenright" unicode=")" horiz-adv-x="308" 
d="M141 -95h-107q113 212 113 437q0 208 -113 399h107q119 -188 119 -398q0 -242 -119 -438z" />
    <glyph glyph-name="asterisk" unicode="*" horiz-adv-x="495" 
d="M246 431l-68 -110l-92 66l84 100v2l-126 31l34 108l121 -49l-9 131h115l-10 -131l122 49l35 -107l-127 -32v-2l84 -99l-92 -67l-69 110h-2z" />
    <glyph glyph-name="plus" unicode="+" horiz-adv-x="586" 
d="M242 236h-217v99h217v237h103v-237h216v-99h-216v-236h-103v236z" />
    <glyph glyph-name="comma" unicode="," horiz-adv-x="282" 
d="M122 -105h-97l68 234h126z" />
    <glyph glyph-name="hyphen" unicode="-" horiz-adv-x="432" 
d="M366 230h-300v111h300v-111z" />
    <glyph glyph-name="period" unicode="." horiz-adv-x="259" 
d="M193 0h-127v128h127v-128z" />
    <glyph glyph-name="slash" unicode="/" horiz-adv-x="430" 
d="M142 -42h-109l255 788h109z" />
    <glyph glyph-name="zero" unicode="0" horiz-adv-x="628" 
d="M314 722q257 0 257 -366q-2 -127 -32.5 -212.5t-103.5 -127.5q-50 -28 -121 -28q-141 0 -202 108q-30 56 -43 116q-13 62 -13 144t13 144q48 222 245 222zM439 356q0 247 -125 247t-125 -247q0 -250 125 -250t125 250z" />
    <glyph glyph-name="one" unicode="1" horiz-adv-x="517" 
d="M490 0h-434v111h155v394l1 48h-2q-10 -18 -32 -40l-57 -54l-76 80l178 171h113v-599h154v-111z" />
    <glyph glyph-name="two" unicode="2" horiz-adv-x="583" 
d="M529 0h-471q-6 34 -6 63q0 52 18.5 97t47.5 77.5t64.5 60.5t71 52t64.5 47t47.5 49.5t18.5 54.5q0 44 -30.5 71.5t-77.5 27.5q-38 0 -72 -23.5t-56 -60.5l-96 64q35 65 96 103.5t139 38.5q97 0 164 -57q67 -55 67 -153q0 -63 -33 -115t-80 -86.5t-94.5 -65t-81.5 -64.5
t-35 -70h335v-111z" />
    <glyph glyph-name="three" unicode="3" horiz-adv-x="573" 
d="M38 83l66 99q31 -32 74.5 -52t87.5 -20q55 0 91 30t36 76q0 53 -41.5 81.5t-110.5 28.5h-49l-28 66l130 154q16 20 44 48l7 6v2q-23 -3 -63 -3h-212v111h433v-81l-173 -201q81 -11 136 -66q57 -54 57 -141q0 -95 -68 -165q-68 -68 -182 -68q-66 0 -128 25t-107 70z" />
    <glyph glyph-name="four" unicode="4" horiz-adv-x="619" 
d="M362 183h-332v79l307 448h152v-420h92v-107h-92v-183h-127v183zM166 292v-2h196v220l5 74h-2q-19 -42 -35 -65z" />
    <glyph glyph-name="five" unicode="5" horiz-adv-x="570" 
d="M44 84l67 97q65 -71 151 -71q54 0 93 33q40 34 40 88q0 55 -40 89t-102 34q-59 0 -110 -30l-72 26l33 360h374v-111h-262l-11 -117l-5 -33h2q29 16 76 16q115 0 182 -67q68 -68 68 -166q0 -105 -73 -175q-73 -69 -183 -69q-138 0 -228 96z" />
    <glyph glyph-name="six" unicode="6" horiz-adv-x="604" 
d="M52 324q0 57 12.5 113t39.5 107.5t64.5 91t92 63t118.5 23.5q83 0 146 -30l-38 -111q-40 22 -101 22q-78 0 -126 -55q-49 -56 -62 -135h2q18 22 56 36t77 14q102 0 164 -69q63 -69 63 -169q0 -99 -65 -169q-65 -68 -168 -68q-117 0 -196 91t-79 245zM328 106
q47 0 76 33.5t29 85.5q0 58 -35 95t-95 37q-50 0 -83.5 -22t-33.5 -58q0 -61 42 -117q42 -54 100 -54z" />
    <glyph glyph-name="seven" unicode="7" horiz-adv-x="547" 
d="M215 0h-134l266 534q18 37 36 58l5 7v2q-14 -2 -47 -2h-303v111h488v-90z" />
    <glyph glyph-name="eight" unicode="8" horiz-adv-x="610" 
d="M50 205q0 71 44 122q32 38 64 62q-74 57 -74 138t59 138t169 57q100 0 165 -53t65 -143q0 -91 -79 -177q91 -58 91 -150q0 -86 -69 -149q-68 -62 -182 -62q-112 0 -183 62q-70 63 -70 155zM342 408l25 -11q49 59 49 119q0 42 -29.5 66.5t-77.5 24.5q-45 0 -71.5 -22.5
t-26.5 -59.5q0 -22 11 -40q17 -22 28 -30q24 -16 42 -25l23 -11q6 -1 27 -11zM182 215q0 -48 36 -81q37 -32 85 -32q51 0 85.5 28.5t34.5 73.5q0 37 -39 63q-23 17 -36 23q-19 10 -50 23q-43 19 -49 22q-67 -57 -67 -120z" />
    <glyph glyph-name="nine" unicode="9" horiz-adv-x="604" 
d="M79 18l38 111q49 -23 100 -23q78 0 126 54q48 56 63 136h-2q-18 -22 -56 -36t-77 -14q-102 0 -165 69q-63 71 -63 169q0 99 65 169q64 69 169 69q116 0 195 -91t79 -246q0 -72 -20.5 -141t-59.5 -127t-103.5 -93.5t-143.5 -35.5q-84 0 -145 30zM301 352q48 0 82.5 22.5
t34.5 54.5q0 68 -43 120q-42 54 -97 54q-48 0 -77.5 -33.5t-29.5 -85.5q0 -58 35 -95t95 -37z" />
    <glyph glyph-name="colon" unicode=":" horiz-adv-x="258" 
d="M192 383h-126v127h126v-127zM192 0h-126v127h126v-127z" />
    <glyph glyph-name="semicolon" unicode=";" horiz-adv-x="295" 
d="M223 383h-123v127h123v-127zM136 -105h-97l58 234h126z" />
    <glyph glyph-name="less" unicode="&#x3c;" horiz-adv-x="586" 
d="M520 31l-481 214v82l481 214v-111l-347 -143v-2l347 -143v-111z" />
    <glyph glyph-name="equal" unicode="=" horiz-adv-x="586" 
d="M537 339h-488v98h488v-98zM537 134h-488v98h488v-98z" />
    <glyph glyph-name="greater" unicode="&#x3e;" horiz-adv-x="586" 
d="M546 245l-481 -214v111l347 143v2l-347 143v111l481 -214v-82z" />
    <glyph glyph-name="question" unicode="?" horiz-adv-x="483" 
d="M267 205h-122v48q0 75 58 128q6 5 28 24t30.5 28t22.5 25.5t19.5 32.5t5.5 33q0 35 -28 59t-69 24q-55 0 -106 -42l-71 87q77 72 188 72q90 0 154 -52q65 -51 65 -136q0 -87 -62 -144q-9 -8 -30.5 -26.5t-32 -29t-24.5 -26.5t-20 -32.5t-6 -33.5v-39zM267 0h-123v119h123
v-119z" />
    <glyph glyph-name="at" unicode="@" horiz-adv-x="815" 
d="M52 240q0 156 108 264q109 109 268 109q144 0 209 -61q66 -61 66 -157v-250h73v-91h-277q-98 0 -156 55q-59 56 -59 131t58 129t157 54h85q-1 39 -43.5 63.5t-108.5 24.5q-108 0 -181 -81q-74 -82 -74 -190q0 -112 74 -191q75 -77 198 -77v-99q-176 0 -287 105
q-110 105 -110 262zM507 145h77v196h-75q-44 0 -71 -28t-27 -70t27 -70t69 -28z" />
    <glyph glyph-name="A" unicode="A" horiz-adv-x="650" 
d="M140 0h-132l249 710h136l249 -710h-132l-61 182h-249zM296 477l-64 -190h185l-63 190l-28 110h-2q-17 -74 -28 -110z" />
    <glyph glyph-name="B" unicode="B" horiz-adv-x="633" 
d="M343 0h-257v710h253q100 0 160 -49t60 -134q0 -50 -23 -90t-63 -62v-2q54 -15 84.5 -61.5t30.5 -105.5q0 -102 -70 -154t-175 -52zM215 599v-179h125q41 0 64.5 25.5t23.5 65.5t-24 64t-66 24h-123zM215 316v-205h138q47 0 75 28.5t28 74.5t-28 74t-75 28h-138z" />
    <glyph glyph-name="C" unicode="C" horiz-adv-x="716" 
d="M45 358q0 157 103 260q104 104 262 104q162 0 262 -97l-62 -96q-40 34 -92.5 54.5t-101.5 20.5q-112 0 -175 -70t-63 -174q0 -106 64 -180q65 -74 175 -74q115 0 206 90l68 -93q-112 -115 -279 -115q-165 0 -266 105q-101 106 -101 265z" />
    <glyph glyph-name="D" unicode="D" horiz-adv-x="737" 
d="M328 0h-242v710h242q167 0 264 -94q98 -95 98 -260q0 -166 -98 -261t-264 -95zM215 599v-488h106q111 0 173.5 64t62.5 181q0 115 -63 179t-173 64h-106z" />
    <glyph glyph-name="E" unicode="E" horiz-adv-x="568" 
d="M527 0h-441v710h425v-111h-296v-186h239v-111h-239v-191h312v-111z" />
    <glyph glyph-name="F" unicode="F" horiz-adv-x="523" 
d="M215 0h-129v710h408v-111h-279v-201h235v-111h-235v-287z" />
    <glyph glyph-name="G" unicode="G" horiz-adv-x="766" 
d="M45 356q0 154 104 260q105 106 262 106q161 0 264 -90l-64 -96q-33 30 -86 49t-103 19q-116 0 -180 -70t-64 -174q0 -113 68 -184q67 -70 170 -70q101 0 178 74v83h-109v111h225v-374h-110v34l1 30h-2q-36 -34 -91.5 -55t-114.5 -21q-145 0 -247 102q-101 104 -101 266z
" />
    <glyph glyph-name="H" unicode="H" horiz-adv-x="754" 
d="M215 0h-129v710h129v-301h325v301h128v-710h-128v298h-325v-298z" />
    <glyph glyph-name="I" unicode="I" horiz-adv-x="301" 
d="M215 0h-129v710h129v-710z" />
    <glyph glyph-name="J" unicode="J" horiz-adv-x="546" 
d="M24 210v41h128v-33q0 -50 23.5 -81t69.5 -31q43 0 68 27t25 79v387h-184v111h312v-500q0 -109 -66 -166q-65 -56 -155 -56q-91 0 -156 57t-65 165z" />
    <glyph glyph-name="K" unicode="K" horiz-adv-x="638" 
d="M215 0h-129v710h129v-289h92l167 289h140l-201 -338v-2l213 -370h-146l-173 310h-92v-310z" />
    <glyph glyph-name="L" unicode="L" horiz-adv-x="536" 
d="M522 0h-436v710h129v-599h307v-111z" />
    <glyph glyph-name="M" unicode="M" horiz-adv-x="860" 
d="M188 0h-129l58 710h137l140 -351l35 -104h2q25 77 35 104l140 351h137l58 -710h-129l-29 397q-4 33 -1 93v17h-2q-23 -72 -39 -110l-115 -275h-112l-115 275l-39 111h-2q3 -68 -1 -111z" />
    <glyph glyph-name="N" unicode="N" horiz-adv-x="753" 
d="M215 0h-129v710h129l269 -410q18 -29 50 -92l9 -18h2q-7 63 -7 110v410h128v-710h-128l-269 409q-18 29 -50 92l-9 18h-2q7 -63 7 -110v-409z" />
    <glyph glyph-name="O" unicode="O" horiz-adv-x="822" 
d="M44 360q0 155 103 258q104 104 264 104q159 0 263 -104t104 -258q0 -158 -104 -265t-263 -107q-160 0 -264 107q-103 106 -103 265zM177 360q0 -108 66 -182q67 -72 168 -72t167 72q67 73 67 182q0 104 -67 174q-66 70 -167 70t-168 -70q-66 -70 -66 -174z" />
    <glyph glyph-name="P" unicode="P" horiz-adv-x="615" 
d="M215 0h-129v710h274q100 0 163 -64t63 -167t-63 -169q-63 -65 -163 -65h-145v-245zM215 599v-242h121q56 0 87.5 32.5t31.5 89.5q0 55 -31.5 87.5t-85.5 32.5h-123z" />
    <glyph glyph-name="Q" unicode="Q" horiz-adv-x="822" 
d="M44 359q0 154 104 258q103 105 263 105q159 0 263 -104t104 -259q0 -125 -78 -225l80 -72l-74 -82l-78 78q-92 -70 -217 -70q-159 0 -263 107t-104 264zM177 359q0 -108 67 -181q68 -72 167 -72q71 0 124 38l-79 74l73 81l77 -77q39 61 39 137q0 105 -67 175t-167 70
t-167 -70t-67 -175z" />
    <glyph glyph-name="R" unicode="R" horiz-adv-x="640" 
d="M215 0h-129v710h234q92 0 134 -19q57 -24 88.5 -74t31.5 -120q0 -66 -32.5 -119t-86.5 -75v-2q9 -10 23 -37l146 -264h-145l-140 265h-124v-265zM215 599v-222h116q52 0 82 30.5t30 82.5q0 74 -56 97q-27 12 -78 12h-94z" />
    <glyph glyph-name="S" unicode="S" horiz-adv-x="557" 
d="M35 85l70 97q37 -33 84.5 -54t91.5 -21q48 0 76 22.5t28 58.5q0 62 -117 111q-35 14 -58.5 24.5t-56.5 30.5t-52 41t-33.5 52.5t-13.5 68.5q0 92 68 149q69 57 174 57q126 0 208 -76l-57 -105q-31 28 -73.5 45t-82.5 17q-49 0 -78.5 -22t-29.5 -59q0 -62 116 -107
q36 -13 59.5 -23.5t56.5 -30t52 -40.5t33.5 -53t13.5 -70q0 -90 -63 -150t-173 -60q-146 0 -243 97z" />
    <glyph glyph-name="T" unicode="T" horiz-adv-x="622" 
d="M375 0h-128v599h-233v111h594v-111h-233v-599z" />
    <glyph glyph-name="U" unicode="U" horiz-adv-x="728" 
d="M78 255v455h129v-454q0 -71 42 -110.5t115 -39.5t115 39.5t42 110.5v454h129v-455q0 -120 -79 -193q-79 -74 -206 -74q-128 0 -208 74q-79 73 -79 193z" />
    <glyph glyph-name="V" unicode="V" horiz-adv-x="656" 
d="M395 0h-134l-256 710h139l156 -463l27 -104h2q14 64 27 104l158 463h137z" />
    <glyph glyph-name="W" unicode="W" horiz-adv-x="956" 
d="M347 0h-147l-177 710h135l110 -491l12 -75h2q4 34 15 75l127 491h108l126 -491l15 -75h2q1 32 11 75l118 491h133l-184 -710h-145l-111 420l-18 93h-3q-8 -52 -19 -93z" />
    <glyph glyph-name="X" unicode="X" horiz-adv-x="622" 
d="M156 0h-143l220 360l-212 350h147l98 -174l44 -87h2q18 41 44 87l99 174h147l-213 -350l221 -360h-144l-111 191l-44 84h-2q-15 -34 -43 -84z" />
    <glyph glyph-name="Y" unicode="Y" horiz-adv-x="606" 
d="M367 0h-128v297l-237 413h146l111 -209l43 -95h2q24 58 43 95l110 209h146l-236 -413v-297z" />
    <glyph glyph-name="Z" unicode="Z" horiz-adv-x="610" 
d="M570 0h-534v83l315 452q24 36 45 57l7 7v2q-26 -2 -53 -2h-298v111h513v-82l-315 -453q-24 -36 -45 -57l-7 -7v-2q26 2 53 2h319v-111z" />
    <glyph glyph-name="bracketleft" unicode="[" horiz-adv-x="321" 
d="M277 -95h-197v836h197v-92h-89v-652h89v-92z" />
    <glyph glyph-name="backslash" unicode="\" horiz-adv-x="430" 
d="M397 -42h-109l-255 788h109z" />
    <glyph glyph-name="bracketright" unicode="]" horiz-adv-x="321" 
d="M44 -95v92h89v652h-89v92h197v-836h-197z" />
    <glyph glyph-name="asciicircum" unicode="^" horiz-adv-x="619" 
d="M175 245h-110l201 465h80l201 -465h-110l-131 331z" />
    <glyph glyph-name="underscore" unicode="_" horiz-adv-x="605" 
d="M22 -98v98h561v-98h-561z" />
    <glyph glyph-name="grave" unicode="`" horiz-adv-x="493" 
d="M350 757h-103l-104 136h131z" />
    <glyph glyph-name="a" unicode="a" horiz-adv-x="537" 
d="M29 141q0 53 29 91t78 56q87 32 190 32h22v7q0 90 -96 90q-71 0 -142 -49l-47 91q34 26 89 44q54 19 111 19q100 0 156 -53.5t56 -149.5v-319h-118v43l3 37h-2q-24 -42 -67.5 -67t-93.5 -25q-71 0 -120 42q-48 44 -48 111zM155 152q0 -28 21 -47.5t56 -19.5q51 0 84 42
t33 92v14h-22q-172 0 -172 -81z" />
    <glyph glyph-name="b" unicode="b" horiz-adv-x="614" 
d="M186 0h-118v710h127v-221l-3 -43h2q22 34 64.5 55t89.5 21q102 0 164 -74t62 -193q0 -121 -66 -194q-64 -73 -168 -73q-46 0 -88 21.5t-66 57.5h-2q2 -18 2 -34v-33zM191 252q0 -64 33 -111q34 -46 94 -46q56 0 92 43t36 115t-35 116t-91 44q-57 0 -93 -42t-36 -119z" />
    <glyph glyph-name="c" unicode="c" horiz-adv-x="548" 
d="M37 255q0 113 76 189q77 78 201 78q126 0 196 -76l-57 -87q-55 55 -132 55q-69 0 -112 -46q-43 -44 -43 -112q0 -67 44 -114q43 -46 115 -46q82 0 150 65l49 -90q-36 -38 -92.5 -60.5t-117.5 -22.5q-125 0 -201 76t-76 191z" />
    <glyph glyph-name="d" unicode="d" horiz-adv-x="614" 
d="M39 255q0 120 64 193q65 74 167 74q101 0 149 -67h2q-2 18 -2 30v225h126v-710h-119v44l2 32h-2q-24 -40 -66.5 -64t-94.5 -24q-102 0 -164 74t-62 193zM167 255q0 -72 35 -116t92 -44q56 0 92 42t36 119q0 64 -33 110q-33 47 -94 47q-55 0 -91.5 -43.5t-36.5 -114.5z
" />
    <glyph glyph-name="e" unicode="e" horiz-adv-x="561" 
d="M37 255q0 119 72 192q73 75 188 75q106 0 166 -69q60 -67 60 -173q0 -21 -4 -49h-351q6 -63 48.5 -99t104.5 -36q75 0 146 56l50 -91q-38 -34 -93.5 -53.5t-111.5 -19.5q-122 0 -199 77q-76 77 -76 190zM171 318h225q-1 50 -29 79t-73 29q-48 0 -81 -29.5t-42 -78.5z" />
    <glyph glyph-name="f" unicode="f" horiz-adv-x="356" 
d="M224 0h-127v402h-63v101h63v22q0 92 53 138q62 53 156 51q28 0 43 -3v-108q-10 2 -26 2q-99 0 -99 -83v-19h110v-101h-110v-402z" />
    <glyph glyph-name="g" unicode="g" horiz-adv-x="606" 
d="M87 -166l39 97q68 -33 141 -33q66 0 105 31t39 93v32l2 27h-2q-47 -71 -143 -71q-105 0 -167 74q-61 73 -61 184q0 109 59 182q60 72 166 72q104 0 152 -67h3q-2 8 -2 14v41h120v-479q0 -63 -23 -111t-62 -75.5t-85.5 -41t-98.5 -13.5q-96 0 -182 44zM168 272
q0 -70 34 -112.5t94 -42.5q54 0 86 36.5t32 113.5q0 147 -126 147q-57 0 -88.5 -38t-31.5 -104z" />
    <glyph glyph-name="h" unicode="h" horiz-adv-x="612" 
d="M195 0h-127v710h127v-248l-3 -43h2q22 43 70.5 73t106.5 30q178 0 178 -194v-328h-127v302q0 53 -18 78.5t-62 25.5q-66 0 -107 -48q-40 -46 -40 -121v-237z" />
    <glyph glyph-name="i" unicode="i" horiz-adv-x="263" 
d="M195 597h-127v113h127v-113zM195 0h-127v510h127v-510z" />
    <glyph glyph-name="j" unicode="j" horiz-adv-x="263" 
d="M195 597h-127v113h127v-113zM68 -5v515h127v-525q0 -97 -55 -141q-62 -53 -158 -51q-19 0 -38 3v107q16 -2 22 -2q102 0 102 94z" />
    <glyph glyph-name="k" unicode="k" horiz-adv-x="549" 
d="M195 0h-127v710h127v-380h63l123 180h141l-161 -228v-2l181 -280h-146l-135 223h-66v-223z" />
    <glyph glyph-name="l" unicode="l" horiz-adv-x="289" 
d="M68 159v551h126v-532q0 -39 12 -54.5t40 -15.5q14 0 19 1v-111q-27 -3 -40 -3q-61 0 -104 26q-53 34 -53 138z" />
    <glyph glyph-name="m" unicode="m" horiz-adv-x="912" 
d="M195 0h-127v510h122v-60l-2 -36h2q19 41 65 75q47 33 102 33q117 0 148 -105h2q24 45 71.5 75t102.5 30q167 0 167 -194v-328h-126v304q0 51 -16 76.5t-54 25.5q-61 0 -96 -53q-34 -52 -34 -124v-229h-127v304q0 52 -15 77t-54 25q-62 0 -97 -54q-34 -52 -34 -123v-229z
" />
    <glyph glyph-name="n" unicode="n" horiz-adv-x="612" 
d="M195 0h-127v510h122v-60l-2 -36h2q20 41 66 74q46 34 115 34q178 0 178 -194v-328h-127v302q0 53 -18 78.5t-62 25.5q-66 0 -107 -48q-40 -47 -40 -119v-239z" />
    <glyph glyph-name="o" unicode="o" horiz-adv-x="634" 
d="M316 522q119 0 199 -76q82 -75 82 -191q0 -115 -81 -192q-81 -75 -199 -75t-199 75q-81 77 -81 192q0 116 81 191q80 76 198 76zM166 255q0 -71 43 -115q44 -44 108 -44t108 44q44 46 44 115t-45 114q-44 45 -107 45t-107 -45q-44 -46 -44 -114z" />
    <glyph glyph-name="p" unicode="p" horiz-adv-x="614" 
d="M195 -200h-127v710h116v-38l-2 -36h2q25 41 68.5 63.5t95.5 22.5q102 0 164 -74t62 -193q0 -121 -66 -194q-64 -73 -167 -73q-91 0 -147 72h-2q3 -18 3 -44v-216zM191 252q0 -65 34 -111t93 -46q56 0 92 43t36 115t-35 116t-91 44q-57 0 -93 -42t-36 -119z" />
    <glyph glyph-name="q" unicode="q" horiz-adv-x="614" 
d="M39 255q0 120 64 193q65 74 167 74q48 0 90 -19.5t66 -55.5h2q-2 18 -2 32v31h119v-710h-126v221l2 44h-2q-24 -35 -65 -56t-89 -21q-102 0 -164 74t-62 193zM167 255q0 -72 35 -116t92 -44q56 0 92 42t36 119q0 64 -33 110q-33 47 -94 47q-55 0 -91.5 -43.5
t-36.5 -114.5z" />
    <glyph glyph-name="r" unicode="r" horiz-adv-x="396" 
d="M195 0h-127v510h122v-90l-2 -35h2q18 58 62.5 95t99.5 37q2 0 24 -2v-125q-14 2 -31 2q-75 0 -112 -54q-38 -55 -38 -132v-206z" />
    <glyph glyph-name="s" unicode="s" horiz-adv-x="457" 
d="M27 63l57 84q62 -56 145 -56q34 0 52.5 13.5t18.5 37.5q0 36 -89 67q-32 10 -56.5 21.5t-52 30.5t-42 46.5t-13.5 61.5q0 72 55 112q56 41 140 41q107 0 172 -58l-47 -89q-22 19 -58.5 31.5t-70.5 12.5q-71 0 -71 -49q0 -36 89 -67q33 -10 57.5 -21t51.5 -29.5t41 -46
t14 -61.5q0 -68 -53 -113q-53 -44 -140 -44q-122 0 -200 75z" />
    <glyph glyph-name="t" unicode="t" horiz-adv-x="373" 
d="M93 187v215h-66v101h69v146h124v-146h116v-101h-116v-199q0 -55 31 -76q32 -20 70 -20q9 0 23 2v-111q-30 -3 -39 -3q-56 0 -105 19q-107 41 -107 173z" />
    <glyph glyph-name="u" unicode="u" horiz-adv-x="607" 
d="M63 182v328h127v-302q0 -53 18 -78.5t61 -25.5q66 0 104 50q39 49 39 122v234h126v-510h-122v60l3 35h-2q-21 -45 -70 -76t-107 -31q-177 0 -177 194z" />
    <glyph glyph-name="v" unicode="v" horiz-adv-x="545" 
d="M348 0h-150l-185 510h134l106 -316l18 -77h2q9 48 18 77l106 316h134z" />
    <glyph glyph-name="w" unicode="w" horiz-adv-x="831" 
d="M316 0h-142l-155 510h134l89 -335l10 -54h2q4 27 12 54l94 334h113l94 -334l11 -54h2q3 24 11 54l89 335h132l-155 -510h-141l-86 291l-13 55h-2q-4 -27 -12 -55z" />
    <glyph glyph-name="x" unicode="x" horiz-adv-x="519" 
d="M156 0h-141l168 258l-164 252h144l79 -139l16 -32h2l17 32l79 139h144l-164 -252l169 -258h-142l-88 148l-15 27h-2q-9 -20 -14 -27z" />
    <glyph glyph-name="y" unicode="y" horiz-adv-x="545" 
d="M13 -177l42 95q29 -21 56 -21q61 0 89 66l19 45l-215 502h143l107 -294l19 -69h2q6 29 17 67l100 296h138l-227 -587q-24 -65 -73 -99t-111 -34q-56 0 -93 24z" />
    <glyph glyph-name="z" unicode="z" horiz-adv-x="524" 
d="M486 0h-451v68l230 287q13 17 37 41l6 6v2q-20 -2 -48 -2h-215v108h434v-69l-229 -287q-13 -17 -38 -42l-6 -5v-2q15 3 48 3h232v-108z" />
    <glyph glyph-name="braceleft" unicode="{" horiz-adv-x="371" 
d="M122 71v97q0 43 -22 70.5t-63 33.5v111q40 6 62.5 33.5t22.5 72.5v86q0 82 45 125q19 17 45 28q44 16 87 16l31 -1v-94q-5 1 -18 1t-24.5 -3t-25.5 -11t-22.5 -26.5t-8.5 -44.5v-109q0 -45 -22.5 -79t-60.5 -48v-2q83 -32 83 -126v-120q0 -85 81 -85l18 1v-94
q-18 -2 -31 -2q-43 0 -87 16q-90 34 -90 154z" />
    <glyph glyph-name="bar" unicode="|" horiz-adv-x="264" 
d="M186 -161h-108v957h108v-957z" />
    <glyph glyph-name="braceright" unicode="}" horiz-adv-x="371" 
d="M41 -97v94q5 -1 18 -1q81 0 81 85v120q0 45 22 79.5t60 46.5v2q-35 12 -58.5 47.5t-23.5 79.5v109q0 26 -8.5 44.5t-22.5 26.5t-25.5 11t-24.5 3l-18 -1v94q8 1 31 1q55 0 108 -27q68 -35 68 -142v-86q0 -43 22.5 -72t62.5 -34v-111q-39 -4 -62 -33t-23 -71v-97
q0 -84 -46 -126q-53 -46 -130 -44z" />
    <glyph glyph-name="asciitilde" unicode="~" horiz-adv-x="621" 
d="M163 199h-101q0 182 153 182q32 0 60.5 -13.5t44.5 -32.5q41 -45 79 -45q31 0 46.5 24t15.5 63h101q0 -182 -153 -182q-64 0 -105 45q-39 45 -80 45q-29 0 -45 -24t-16 -62z" />
    <glyph glyph-name="uni00A0" unicode="&#xa0;" horiz-adv-x="250" 
 />
    <glyph glyph-name="exclamdown" unicode="&#xa1;" horiz-adv-x="268" 
d="M78 304h111l10 -505h-131zM72 509h123v-119h-123v119z" />
    <glyph glyph-name="cent" unicode="&#xa2;" horiz-adv-x="586" 
d="M347 -12h-86v86q-96 17 -154 94t-58 187t58 187q58 78 154 95v84h86v-84q66 -12 116 -55t74 -107l-114 -44q-36 89 -116 89q-58 0 -94 -46.5t-36 -118.5q0 -75 35 -120t95 -45q80 0 116 89l114 -44q-25 -61 -74 -107q-48 -46 -116 -54v-86z" />
    <glyph glyph-name="sterling" unicode="&#xa3;" horiz-adv-x="586" 
d="M548 0h-501v111h58v200h-43v87h43v121q0 88 64 145q64 58 164 58q101 0 178 -72l-73 -88q-44 43 -102 43q-44 0 -72 -25.5t-28 -64.5v-117h177v-87h-177v-200h312v-111z" />
    <glyph glyph-name="currency" unicode="&#xa4;" horiz-adv-x="624" 
d="M248 0h-129v159h-68v86h68v65h-68v101h68v299h252q107 0 165.5 -54.5t58.5 -151.5q0 -91 -64 -143t-166 -52h-117v-64h248v-86h-248v-159zM248 608v-197h99q55 0 85.5 27.5t30.5 72.5t-30 71t-84 26h-101z" />
    <glyph glyph-name="yen" unicode="&#xa5;" horiz-adv-x="586" 
d="M227 186h-163v77h163v33l-25 48h-138v76h99l-154 290h147l93 -190l43 -114h2q15 45 43 114l93 190h147l-154 -290h98v-76h-137l-26 -48v-33h163v-77h-163v-186h-131v186z" />
    <glyph glyph-name="section" unicode="&#xa7;" horiz-adv-x="479" 
d="M242 138h-99l-73 344q-7 25 -7 57q0 82 55 132.5t150 50.5q99 0 167 -62l-57 -81q-47 39 -109 39q-47 0 -75 -23.5t-28 -70.5q0 -25 7 -50zM44 -1l54 86q50 -44 113 -44q47 0 75 26t28 75q0 24 -9 57l-67 323h100l71 -344q7 -27 7 -57q0 -82 -55 -132.5t-150 -50.5
q-100 0 -167 61z" />
    <glyph glyph-name="dieresis" unicode="&#xa8;" horiz-adv-x="493" 
d="M387 777h-97v116h97v-116zM204 777h-98v116h98v-116z" />
    <glyph glyph-name="copyright" unicode="&#xa9;" horiz-adv-x="817" 
d="M407 721q151 0 255 -107q105 -106 105 -259t-105 -260t-255 -107q-148 0 -253 107q-104 109 -104 260q0 152 104 259q105 107 253 107zM407 69q115 0 193 83q79 82 79 203q0 120 -79 202q-78 83 -193 83q-113 0 -191 -83q-77 -83 -77 -202q0 -120 77 -203q78 -83 191 -83
zM412 548q54 0 97.5 -28.5t65.5 -76.5l-77 -36q-10 25 -33.5 41.5t-49.5 16.5q-42 0 -70 -32t-28 -80q0 -49 27 -80.5t71 -31.5q26 0 48.5 16t34.5 42l77 -35q-19 -46 -63.5 -76t-99.5 -30q-82 0 -134 57q-53 58 -53 138t53 138q54 57 134 57z" />
    <glyph glyph-name="ordfeminine" unicode="&#xaa;" horiz-adv-x="428" 
d="M175 383q-44 0 -75.5 27t-31.5 71q0 110 185 110h9v7q0 52 -58 52q-38 0 -82 -27l-32 59q50 38 128 38q65 0 99.5 -34.5t34.5 -95.5v-201h-84v44h-2q-11 -22 -36 -36t-55 -14zM198 453q26 0 44.5 22t18.5 50v7h-11q-92 0 -92 -45q0 -15 11 -24.5t29 -9.5zM355 266h-286
v68h286v-68z" />
    <glyph glyph-name="guillemotleft" unicode="&#xab;" horiz-adv-x="598" 
d="M429 77l-164 205l164 206h121l-164 -206l164 -205h-121zM325 77h-121l-164 205l164 206h121l-164 -206z" />
    <glyph glyph-name="logicalnot" unicode="&#xac;" horiz-adv-x="624" 
d="M448 339h-386v98h489v-294h-103v196z" />
    <glyph glyph-name="uni00AD" unicode="&#xad;" horiz-adv-x="432" 
d="M366 230h-300v111h300v-111z" />
    <glyph glyph-name="registered" unicode="&#xae;" horiz-adv-x="817" 
d="M407 721q151 0 255 -107q105 -106 105 -259t-105 -260t-255 -107q-148 0 -253 107q-104 109 -104 260q0 152 104 259q105 107 253 107zM407 69q115 0 193 83q79 82 79 203q0 120 -79 202q-78 83 -193 83q-113 0 -191 -83q-77 -83 -77 -202q0 -120 77 -203q78 -83 191 -83
zM367 174h-85v366h152q55 0 87.5 -31.5t32.5 -84.5q0 -37 -19.5 -62.5t-45.5 -32.5v-2q3 -3 13 -21l69 -132h-94l-61 135h-49v-135zM367 478v-109h47q25 0 39 14.5t14 40.5q0 54 -51 54h-49z" />
    <glyph glyph-name="overscore" unicode="&#xaf;" horiz-adv-x="493" 
d="M378 783h-262v87h262v-87z" />
    <glyph glyph-name="degree" unicode="&#xb0;" horiz-adv-x="420" 
d="M47 565q0 64 47 111q49 47 116 47q66 0 115 -47q49 -46 49 -111t-48 -112q-48 -45 -116 -45t-116 45q-47 47 -47 112zM277 565q0 27 -19.5 46.5t-47.5 19.5t-47 -19.5t-19 -46.5q0 -28 19 -47t47 -19t47.5 19t19.5 47z" />
    <glyph glyph-name="plusminus" unicode="&#xb1;" horiz-adv-x="586" 
d="M242 236h-217v99h217v237h103v-237h216v-99h-216v-236h-103v236zM39 -183v98h508v-98h-508z" />
    <glyph glyph-name="twosuperior" unicode="&#xb2;" 
d="M348 423h-305q-4 25 -4 41q0 41 15.5 74t38.5 53t49.5 39t49.5 32.5t38.5 31.5t15.5 38q0 23 -17.5 37.5t-43.5 14.5q-40 0 -80 -46l-62 55q22 35 62 57t85 22q64 0 107 -37q45 -36 45 -99q0 -34 -14 -62t-35.5 -45.5t-47 -34t-47 -28.5t-37 -27.5t-17.5 -32.5h204v-83z
" />
    <glyph glyph-name="threesuperior" unicode="&#xb3;" 
d="M184 413q-44 0 -85 17.5t-67 49.5l49 67q37 -47 98 -47q30 0 51 18t21 45q0 26 -22.5 41.5t-55.5 15.5h-35l-20 45l78 90l25 24v2q-19 -3 -36 -3h-129v84h280v-61l-98 -112q50 -9 79.5 -42.5t29.5 -84.5q0 -62 -45 -105q-46 -44 -118 -44z" />
    <glyph glyph-name="acute" unicode="&#xb4;" horiz-adv-x="493" 
d="M245 757h-102l76 136h131z" />
    <glyph glyph-name="mu" unicode="&#xb5;" horiz-adv-x="613" 
d="M182 9h-2q8 -53 8 -83v-126h-110v710h127v-302q0 -53 17.5 -78.5t60.5 -25.5q67 0 105 50t38 122v234h127v-510h-122v62l2 32h-3l-2 -6q-3 -5 -8 -12.5t-14 -18.5q-58 -69 -152 -69q-46 0 -72 21z" />
    <glyph glyph-name="mu" unicode="&#x3bc;" horiz-adv-x="613" 
d="M182 9h-2q8 -53 8 -83v-126h-110v710h127v-302q0 -53 17.5 -78.5t60.5 -25.5q67 0 105 50t38 122v234h127v-510h-122v62l2 32h-3l-2 -6q-3 -5 -8 -12.5t-14 -18.5q-58 -69 -152 -69q-46 0 -72 21z" />
    <glyph glyph-name="paragraph" unicode="&#xb6;" horiz-adv-x="626" 
d="M363 -50h-92v291q-96 0 -166 68q-69 69 -69 167t69 166q70 68 166 68h305v-111h-213v-649zM518 -50h-93v594h93v-594z" />
    <glyph glyph-name="middot" unicode="&#xb7;" horiz-adv-x="255" 
d="M189 228h-123v128h123v-128z" />
    <glyph glyph-name="cedilla" unicode="&#xb8;" horiz-adv-x="493" 
d="M201 -84l-21 -2l31 111l58 -13v-7l-11 -49q34 -4 53.5 -23.5t19.5 -52.5q0 -44 -30 -66t-78 -22q-34 0 -61 7v70q18 -8 43 -8q44 0 44 28q0 27 -48 27z" />
    <glyph glyph-name="onesuperior" unicode="&#xb9;" 
d="M344 423h-278v83h92v207l2 28h-2q-4 -8 -15 -19l-31 -29l-56 60l113 109h84v-356h91v-83z" />
    <glyph glyph-name="ordmasculine" unicode="&#xba;" horiz-adv-x="480" 
d="M64 553q0 73 51 119q51 48 124 48q74 0 126 -47q51 -47 51 -120t-51 -121t-125 -48t-125 48t-51 121zM240 464q36 0 60 25t24 64q0 38 -24 63t-60 25t-60.5 -25t-24.5 -63q0 -39 24.5 -64t60.5 -25zM402 266h-323v68h323v-68z" />
    <glyph glyph-name="guillemotright" unicode="&#xbb;" horiz-adv-x="598" 
d="M393 77h-121l164 205l-164 206h121l164 -206zM169 77h-121l164 205l-164 206h121l164 -206z" />
    <glyph glyph-name="onequarter" unicode="&#xbc;" horiz-adv-x="977" 
d="M881 0h-94v99h-203v64l189 276h108v-258h58v-82h-58v-99zM680 183v-2h107v110l4 55h-2q-12 -26 -26 -47zM335 272h-278v83h92v207l2 28h-2q-4 -8 -15 -19l-31 -29l-56 60l113 109h84v-356h91v-83zM694 710l-335 -710h-93l336 710h92z" />
    <glyph glyph-name="onehalf" unicode="&#xbd;" horiz-adv-x="967" 
d="M922 0h-305q-4 25 -4 41q0 41 15.5 74t38.5 53t49.5 39t49.5 32.5t38.5 31.5t15.5 38q0 23 -17.5 37.5t-43.5 14.5q-40 0 -80 -46l-62 55q22 35 62 57t85 22q64 0 107 -37q45 -36 45 -99q0 -34 -14 -62t-35.5 -45.5t-47 -34t-47 -28.5t-37 -27.5t-17.5 -32.5h204v-83z
M334 272h-278v83h92v207l2 28h-2q-4 -8 -15 -19l-31 -29l-56 60l113 109h84v-356h91v-83zM695 710l-335 -710h-93l336 710h92z" />
    <glyph glyph-name="threequarters" unicode="&#xbe;" horiz-adv-x="990" 
d="M892 0h-94v99h-203v64l189 276h108v-258h58v-82h-58v-99zM691 183v-2h107v110l4 55h-2q-12 -26 -26 -47zM191 262q-44 0 -85 17.5t-67 49.5l49 67q37 -47 98 -47q30 0 51 18t21 45q0 26 -22.5 41.5t-55.5 15.5h-35l-20 45l78 90l25 24v2q-20 -3 -36 -3h-129v84h280v-61
l-98 -112q50 -9 79.5 -42.5t29.5 -84.5q0 -61 -45 -105q-46 -44 -118 -44zM705 710l-335 -710h-93l336 710h92z" />
    <glyph glyph-name="questiondown" unicode="&#xbf;" horiz-adv-x="475" 
d="M211 304h122v-48q0 -75 -58 -128q-6 -5 -28 -24t-30.5 -28t-22.5 -25.5t-19.5 -32.5t-5.5 -33q0 -35 28 -59t69 -24q55 0 106 42l71 -87q-76 -72 -188 -72q-90 0 -154 52q-65 51 -65 136t61 144q9 9 30.5 27t32.5 28.5t25 26.5t20 32.5t6 33.5v39zM211 509h123v-119h-123
v119z" />
    <glyph glyph-name="Agrave" unicode="&#xc0;" horiz-adv-x="650" 
d="M140 0h-132l249 710h136l249 -710h-132l-61 182h-249zM296 477l-64 -190h185l-63 190l-28 110h-2q-17 -74 -28 -110zM379 757h-103l-104 136h131z" />
    <glyph glyph-name="Aacute" unicode="&#xc1;" horiz-adv-x="650" 
d="M140 0h-132l249 710h136l249 -710h-132l-61 182h-249zM296 477l-64 -190h185l-63 190l-28 110h-2q-17 -74 -28 -110zM372 757h-102l76 136h131z" />
    <glyph glyph-name="Acircumflex" unicode="&#xc2;" horiz-adv-x="650" 
d="M140 0h-132l249 710h136l249 -710h-132l-61 182h-249zM296 477l-64 -190h185l-63 190l-28 110h-2q-17 -74 -28 -110zM274 757h-105l92 136h127l93 -136h-105l-50 81h-2z" />
    <glyph glyph-name="Atilde" unicode="&#xc3;" horiz-adv-x="650" 
d="M140 0h-132l249 710h136l249 -710h-132l-61 182h-249zM296 477l-64 -190h185l-63 190l-28 110h-2q-17 -74 -28 -110zM230 758h-87q0 137 112 137q32 0 72.5 -32.5t53.5 -32.5q39 0 39 62h86q0 -137 -112 -137q-33 0 -73 32.5t-53 32.5q-38 0 -38 -62z" />
    <glyph glyph-name="Adieresis" unicode="&#xc4;" horiz-adv-x="650" 
d="M140 0h-132l249 710h136l249 -710h-132l-61 182h-249zM296 477l-64 -190h185l-63 190l-28 110h-2q-17 -74 -28 -110zM465 777h-97v116h97v-116zM282 777h-98v116h98v-116z" />
    <glyph glyph-name="Aring" unicode="&#xc5;" horiz-adv-x="650" 
d="M140 0h-132l249 710h136l249 -710h-132l-61 182h-249zM296 477l-64 -190h185l-63 190l-28 110h-2q-17 -74 -28 -110zM325 745q-40 0 -67.5 21.5t-27.5 56.5q0 36 27.5 57.5t67.5 21.5t67 -21.5t27 -57.5q0 -35 -27.5 -56.5t-66.5 -21.5zM325 789q15 0 24.5 9.5t9.5 24.5
q0 22 -17 31t-34 0t-17 -31q0 -15 9 -24.5t25 -9.5z" />
    <glyph glyph-name="AE" unicode="&#xc6;" horiz-adv-x="905" 
d="M136 0h-134l294 710h554v-111h-297v-186h239v-111h-239v-191h312v-111h-440v304h-170zM372 599l-76 -190h129v190h-53z" />
    <glyph glyph-name="Ccedilla" unicode="&#xc7;" horiz-adv-x="716" 
d="M366 -84l-21 -2l21 76q-146 15 -234 117q-87 104 -87 251q0 157 103 260q104 104 262 104q162 0 262 -97l-62 -96q-40 34 -92.5 54.5t-101.5 20.5q-112 0 -175 -70t-63 -174q0 -106 64 -180q65 -74 175 -74q115 0 206 90l68 -93q-107 -107 -261 -114l-7 -33
q34 -4 53.5 -23.5t19.5 -52.5q0 -44 -30 -66t-78 -22q-34 0 -61 7v70q18 -8 43 -8q44 0 44 28q0 27 -48 27z" />
    <glyph glyph-name="Egrave" unicode="&#xc8;" horiz-adv-x="568" 
d="M527 0h-441v710h425v-111h-296v-186h239v-111h-239v-191h312v-111zM363 757h-103l-104 136h131z" />
    <glyph glyph-name="Eacute" unicode="&#xc9;" horiz-adv-x="568" 
d="M527 0h-441v710h425v-111h-296v-186h239v-111h-239v-191h312v-111zM355 757h-102l76 136h131z" />
    <glyph glyph-name="Ecircumflex" unicode="&#xca;" horiz-adv-x="568" 
d="M527 0h-441v710h425v-111h-296v-186h239v-111h-239v-191h312v-111zM257 757h-105l92 136h127l93 -136h-105l-50 81h-2z" />
    <glyph glyph-name="Edieresis" unicode="&#xcb;" horiz-adv-x="568" 
d="M527 0h-441v710h425v-111h-296v-186h239v-111h-239v-191h312v-111zM449 777h-97v116h97v-116zM266 777h-98v116h98v-116z" />
    <glyph glyph-name="Igrave" unicode="&#xcc;" horiz-adv-x="301" 
d="M215 0h-129v710h129v-710zM206 757h-103l-104 136h131z" />
    <glyph glyph-name="Iacute" unicode="&#xcd;" horiz-adv-x="301" 
d="M215 0h-129v710h129v-710zM199 757h-102l76 136h131z" />
    <glyph glyph-name="Icircumflex" unicode="&#xce;" horiz-adv-x="301" 
d="M101 757h-105l92 136h127l93 -136h-105l-50 81h-2zM215 0h-129v710h129v-710z" />
    <glyph glyph-name="Idieresis" unicode="&#xcf;" horiz-adv-x="301" 
d="M215 0h-129v710h129v-710zM292 777h-97v116h97v-116zM109 777h-98v116h98v-116z" />
    <glyph glyph-name="Eth" unicode="&#xd0;" horiz-adv-x="743" 
d="M334 0h-242v301h-58v105h58v304h242q167 0 264 -94q98 -95 98 -260q0 -166 -98 -261t-264 -95zM220 301v-190h107q111 0 173.5 64t62.5 181q0 115 -63 179t-173 64h-107v-193h132v-105h-132z" />
    <glyph glyph-name="Ntilde" unicode="&#xd1;" horiz-adv-x="753" 
d="M282 758h-87q0 137 112 137q32 0 72.5 -32.5t53.5 -32.5q39 0 39 62h86q0 -137 -112 -137q-33 0 -73 32.5t-53 32.5q-38 0 -38 -62zM215 0h-129v710h129l269 -410q18 -29 50 -92l9 -18h2q-7 63 -7 110v410h128v-710h-128l-269 409q-18 29 -50 92l-9 18h-2q7 -63 7 -110
v-409z" />
    <glyph glyph-name="Ograve" unicode="&#xd2;" horiz-adv-x="822" 
d="M44 360q0 155 103 258q104 104 264 104q159 0 263 -104t104 -258q0 -158 -104 -265t-263 -107q-160 0 -264 107q-103 106 -103 265zM177 360q0 -108 66 -182q67 -72 168 -72t167 72q67 73 67 182q0 104 -67 174q-66 70 -167 70t-168 -70q-66 -70 -66 -174zM465 757h-103
l-104 136h131z" />
    <glyph glyph-name="Oacute" unicode="&#xd3;" horiz-adv-x="822" 
d="M44 360q0 155 103 258q104 104 264 104q159 0 263 -104t104 -258q0 -158 -104 -265t-263 -107q-160 0 -264 107q-103 106 -103 265zM177 360q0 -108 66 -182q67 -72 168 -72t167 72q67 73 67 182q0 104 -67 174q-66 70 -167 70t-168 -70q-66 -70 -66 -174zM458 757h-102
l76 136h131z" />
    <glyph glyph-name="Ocircumflex" unicode="&#xd4;" horiz-adv-x="822" 
d="M44 360q0 155 103 258q104 104 264 104q159 0 263 -104t104 -258q0 -158 -104 -265t-263 -107q-160 0 -264 107q-103 106 -103 265zM177 360q0 -108 66 -182q67 -72 168 -72t167 72q67 73 67 182q0 104 -67 174q-66 70 -167 70t-168 -70q-66 -70 -66 -174zM360 757h-105
l92 136h127l93 -136h-105l-50 81h-2z" />
    <glyph glyph-name="Otilde" unicode="&#xd5;" horiz-adv-x="822" 
d="M316 758h-87q0 137 112 137q32 0 72.5 -32.5t53.5 -32.5q39 0 39 62h86q0 -137 -112 -137q-33 0 -73 32.5t-53 32.5q-38 0 -38 -62zM44 360q0 155 103 258q104 104 264 104q159 0 263 -104t104 -258q0 -158 -104 -265t-263 -107q-160 0 -264 107q-103 106 -103 265z
M177 360q0 -108 66 -182q67 -72 168 -72t167 72q67 73 67 182q0 104 -67 174q-66 70 -167 70t-168 -70q-66 -70 -66 -174z" />
    <glyph glyph-name="Odieresis" unicode="&#xd6;" horiz-adv-x="822" 
d="M44 360q0 155 103 258q104 104 264 104q159 0 263 -104t104 -258q0 -158 -104 -265t-263 -107q-160 0 -264 107q-103 106 -103 265zM177 360q0 -108 66 -182q67 -72 168 -72t167 72q67 73 67 182q0 104 -67 174q-66 70 -167 70t-168 -70q-66 -70 -66 -174zM551 777h-97
v116h97v-116zM368 777h-98v116h98v-116z" />
    <glyph glyph-name="multiply" unicode="&#xd7;" horiz-adv-x="586" 
d="M98 0l-70 69l197 217l-197 216l70 70l194 -213l195 213l70 -70l-198 -216l198 -217l-70 -69l-195 213z" />
    <glyph glyph-name="Oslash" unicode="&#xd8;" horiz-adv-x="821" 
d="M173 -26l-57 39l48 68q-120 109 -120 278q0 153 105 258q107 105 262 105q99 0 182 -46l44 60l57 -39l-43 -60q127 -108 127 -278q0 -158 -106 -264q-105 -107 -261 -107q-106 0 -191 52zM240 186l280 389q-53 29 -109 29q-99 0 -166 -70q-68 -71 -68 -175
q0 -103 63 -173zM576 533l-284 -393q53 -34 119 -34q99 0 166 72q68 74 68 181q0 105 -69 174z" />
    <glyph glyph-name="Ugrave" unicode="&#xd9;" horiz-adv-x="728" 
d="M78 255v455h129v-454q0 -71 42 -110.5t115 -39.5t115 39.5t42 110.5v454h129v-455q0 -120 -79 -193q-79 -74 -206 -74q-128 0 -208 74q-79 73 -79 193zM418 757h-103l-104 136h131z" />
    <glyph glyph-name="Uacute" unicode="&#xda;" horiz-adv-x="728" 
d="M78 255v455h129v-454q0 -71 42 -110.5t115 -39.5t115 39.5t42 110.5v454h129v-455q0 -120 -79 -193q-79 -74 -206 -74q-128 0 -208 74q-79 73 -79 193zM411 757h-102l76 136h131z" />
    <glyph glyph-name="Ucircumflex" unicode="&#xdb;" horiz-adv-x="728" 
d="M78 255v455h129v-454q0 -71 42 -110.5t115 -39.5t115 39.5t42 110.5v454h129v-455q0 -120 -79 -193q-79 -74 -206 -74q-128 0 -208 74q-79 73 -79 193zM313 757h-105l92 136h127l93 -136h-105l-50 81h-2z" />
    <glyph glyph-name="Udieresis" unicode="&#xdc;" horiz-adv-x="728" 
d="M78 255v455h129v-454q0 -71 42 -110.5t115 -39.5t115 39.5t42 110.5v454h129v-455q0 -120 -79 -193q-79 -74 -206 -74q-128 0 -208 74q-79 73 -79 193zM504 777h-97v116h97v-116zM321 777h-98v116h98v-116z" />
    <glyph glyph-name="Yacute" unicode="&#xdd;" horiz-adv-x="606" 
d="M367 0h-128v297l-237 413h146l111 -209l43 -95h2q24 58 43 95l110 209h146l-236 -413v-297zM350 757h-102l76 136h131z" />
    <glyph glyph-name="Thorn" unicode="&#xde;" horiz-adv-x="616" 
d="M215 0h-129v710h129v-115h145q100 0 163 -64q63 -65 63 -167q0 -104 -63 -168q-63 -65 -164 -65h-144v-131zM215 484v-242h121q56 0 87.5 32.5t31.5 89.5q0 56 -31 88t-86 32h-123z" />
    <glyph glyph-name="germandbls" unicode="&#xdf;" horiz-adv-x="602" 
d="M195 0h-127v529q0 90 69 141q68 52 163 52q87 0 146 -50q60 -50 60 -124q0 -60 -45 -101q-44 -42 -44 -75q0 -29 80 -83q34 -22 57.5 -58.5t23.5 -76.5q0 -77 -52 -119t-128 -42q-81 0 -135 26v108q57 -26 116 -26q32 0 51.5 15t19.5 45q0 37 -81 88q-33 21 -57 53.5
t-24 66.5q0 52 45 93q45 45 45 84q0 29 -22.5 48.5t-59.5 19.5q-45 0 -73 -24t-28 -70v-520z" />
    <glyph glyph-name="agrave" unicode="&#xe0;" horiz-adv-x="537" 
d="M29 141q0 53 29 91t78 56q87 32 190 32h22v7q0 90 -96 90q-71 0 -142 -49l-47 91q34 26 89 44q54 19 111 19q100 0 156 -53.5t56 -149.5v-319h-118v43l3 37h-2q-24 -42 -67.5 -67t-93.5 -25q-71 0 -120 42q-48 44 -48 111zM155 152q0 -28 21 -47.5t56 -19.5q51 0 84 42
t33 92v14h-22q-172 0 -172 -81zM322 574h-103l-104 136h131z" />
    <glyph glyph-name="aacute" unicode="&#xe1;" horiz-adv-x="537" 
d="M29 141q0 53 29 91t78 56q87 32 190 32h22v7q0 90 -96 90q-71 0 -142 -49l-47 91q34 26 89 44q54 19 111 19q100 0 156 -53.5t56 -149.5v-319h-118v43l3 37h-2q-24 -42 -67.5 -67t-93.5 -25q-71 0 -120 42q-48 44 -48 111zM155 152q0 -28 21 -47.5t56 -19.5q51 0 84 42
t33 92v14h-22q-172 0 -172 -81zM313 574h-102l76 136h131z" />
    <glyph glyph-name="acircumflex" unicode="&#xe2;" horiz-adv-x="537" 
d="M29 141q0 53 29 91t78 56q87 32 190 32h22v7q0 90 -96 90q-71 0 -142 -49l-47 91q34 26 89 44q54 19 111 19q100 0 156 -53.5t56 -149.5v-319h-118v43l3 37h-2q-24 -42 -67.5 -67t-93.5 -25q-71 0 -120 42q-48 44 -48 111zM155 152q0 -28 21 -47.5t56 -19.5q51 0 84 42
t33 92v14h-22q-172 0 -172 -81zM215 574h-105l92 136h127l93 -136h-105l-50 81h-2z" />
    <glyph glyph-name="atilde" unicode="&#xe3;" horiz-adv-x="537" 
d="M29 141q0 53 29 91t78 56q87 32 190 32h22v7q0 90 -96 90q-71 0 -142 -49l-47 91q34 26 89 44q54 19 111 19q100 0 156 -53.5t56 -149.5v-319h-118v43l3 37h-2q-24 -42 -67.5 -67t-93.5 -25q-71 0 -120 42q-48 44 -48 111zM155 152q0 -28 21 -47.5t56 -19.5q51 0 84 42
t33 92v14h-22q-172 0 -172 -81zM172 575h-87q0 137 112 137q23 0 42.5 -10t30.5 -22.5t25.5 -22.5t27.5 -10q39 0 39 62h86q0 -137 -112 -137q-23 0 -42.5 10t-30.5 22.5t-25.5 22.5t-27.5 10q-38 0 -38 -62z" />
    <glyph glyph-name="adieresis" unicode="&#xe4;" horiz-adv-x="537" 
d="M29 141q0 53 29 91t78 56q87 32 190 32h22v7q0 90 -96 90q-71 0 -142 -49l-47 91q34 26 89 44q54 19 111 19q100 0 156 -53.5t56 -149.5v-319h-118v43l3 37h-2q-24 -42 -67.5 -67t-93.5 -25q-71 0 -120 42q-48 44 -48 111zM155 152q0 -28 21 -47.5t56 -19.5q51 0 84 42
t33 92v14h-22q-172 0 -172 -81zM407 594h-97v116h97v-116zM224 594h-98v116h98v-116z" />
    <glyph glyph-name="aring" unicode="&#xe5;" horiz-adv-x="537" 
d="M29 141q0 53 29 91t78 56q87 32 190 32h22v7q0 90 -96 90q-71 0 -142 -49l-47 91q34 26 89 44q54 19 111 19q100 0 156 -53.5t56 -149.5v-319h-118v43l3 37h-2q-24 -42 -67.5 -67t-93.5 -25q-71 0 -120 42q-48 44 -48 111zM155 152q0 -28 21 -47.5t56 -19.5q51 0 84 42
t33 92v14h-22q-172 0 -172 -81zM266 562q-40 0 -67.5 21.5t-27.5 56.5q0 36 27.5 57.5t67.5 21.5t67 -21.5t27 -57.5q0 -35 -27.5 -56.5t-66.5 -21.5zM266 606q15 0 24.5 9.5t9.5 24.5q0 22 -17 31t-34 0t-17 -31q0 -15 9 -24.5t25 -9.5z" />
    <glyph glyph-name="ae" unicode="&#xe6;" horiz-adv-x="859" 
d="M29 147q0 173 302 173h17v7q0 90 -99 90q-70 0 -140 -49l-47 90q33 28 87.5 46t108.5 18q120 0 166 -75h2q62 75 170 75q104 0 164 -69q61 -68 61 -174q0 -7 -1.5 -26t-1.5 -21h-349q6 -65 47 -100.5t103 -35.5q80 0 147 55l49 -90q-36 -33 -93 -53t-112 -20
q-146 0 -213 112h-2q-14 -30 -52 -64q-50 -47 -140 -47q-74 0 -124 43q-50 44 -50 115zM473 320h220q-1 46 -29 74.5t-69 28.5q-49 0 -80.5 -27t-41.5 -76zM157 153q0 -29 20.5 -47.5t57.5 -18.5q49 0 82 42q33 43 33 93v10h-36q-40 0 -72 -6q-35 -6 -60 -25.5t-25 -47.5z
" />
    <glyph glyph-name="ccedilla" unicode="&#xe7;" horiz-adv-x="548" 
d="M266 -84l-21 -2l21 78q-104 14 -167 87q-62 74 -62 176q0 113 76 189q77 78 201 78q126 0 196 -76l-57 -87q-55 55 -132 55q-69 0 -112 -46q-43 -44 -43 -112q0 -67 44 -114q43 -46 115 -46q82 0 150 65l49 -90q-34 -36 -85.5 -57.5t-108.5 -24.5l-7 -33
q34 -4 53.5 -23.5t19.5 -52.5q0 -44 -30 -66t-78 -22q-34 0 -61 7v70q18 -8 43 -8q44 0 44 28q0 27 -48 27z" />
    <glyph glyph-name="egrave" unicode="&#xe8;" horiz-adv-x="561" 
d="M37 255q0 119 72 192q73 75 188 75q106 0 166 -69q60 -67 60 -173q0 -21 -4 -49h-351q6 -63 48.5 -99t104.5 -36q75 0 146 56l50 -91q-38 -34 -93.5 -53.5t-111.5 -19.5q-122 0 -199 77q-76 77 -76 190zM171 318h225q-1 50 -29 79t-73 29q-48 0 -81 -29.5t-42 -78.5z
M350 574h-103l-104 136h131z" />
    <glyph glyph-name="eacute" unicode="&#xe9;" horiz-adv-x="561" 
d="M37 255q0 119 72 192q73 75 188 75q106 0 166 -69q60 -67 60 -173q0 -21 -4 -49h-351q6 -63 48.5 -99t104.5 -36q75 0 146 56l50 -91q-38 -34 -93.5 -53.5t-111.5 -19.5q-122 0 -199 77q-76 77 -76 190zM171 318h225q-1 50 -29 79t-73 29q-48 0 -81 -29.5t-42 -78.5z
M341 574h-102l76 136h131z" />
    <glyph glyph-name="ecircumflex" unicode="&#xea;" horiz-adv-x="561" 
d="M37 255q0 119 72 192q73 75 188 75q106 0 166 -69q60 -67 60 -173q0 -21 -4 -49h-351q6 -63 48.5 -99t104.5 -36q75 0 146 56l50 -91q-38 -34 -93.5 -53.5t-111.5 -19.5q-122 0 -199 77q-76 77 -76 190zM171 318h225q-1 50 -29 79t-73 29q-48 0 -81 -29.5t-42 -78.5z
M243 574h-105l92 136h127l93 -136h-105l-50 81h-2z" />
    <glyph glyph-name="edieresis" unicode="&#xeb;" horiz-adv-x="561" 
d="M37 255q0 119 72 192q73 75 188 75q106 0 166 -69q60 -67 60 -173q0 -21 -4 -49h-351q6 -63 48.5 -99t104.5 -36q75 0 146 56l50 -91q-38 -34 -93.5 -53.5t-111.5 -19.5q-122 0 -199 77q-76 77 -76 190zM171 318h225q-1 50 -29 79t-73 29q-48 0 -81 -29.5t-42 -78.5z
M435 594h-97v116h97v-116zM252 594h-98v116h98v-116z" />
    <glyph glyph-name="igrave" unicode="&#xec;" horiz-adv-x="263" 
d="M195 0h-127v510h127v-510zM187 574h-103l-104 136h131z" />
    <glyph glyph-name="iacute" unicode="&#xed;" horiz-adv-x="263" 
d="M195 0h-127v510h127v-510zM179 574h-102l76 136h131z" />
    <glyph glyph-name="icircumflex" unicode="&#xee;" horiz-adv-x="263" 
d="M81 574h-105l92 136h127l93 -136h-105l-50 81h-2zM195 0h-127v510h127v-510z" />
    <glyph glyph-name="idieresis" unicode="&#xef;" horiz-adv-x="263" 
d="M273 594h-97v116h97v-116zM90 594h-98v116h98v-116zM195 0h-127v510h127v-510z" />
    <glyph glyph-name="eth" unicode="&#xf0;" horiz-adv-x="583" 
d="M38 237q0 93 63 161q64 67 172 67q52 0 91 -22l11 -7h2q-27 63 -94 106l-185 -80l-6 75l111 49q-48 23 -115 40l35 100q122 -27 217 -83l147 63l6 -74l-88 -39q137 -120 137 -315q0 -54 -14.5 -103.5t-44 -92.5t-81.5 -68.5t-120 -25.5q-110 0 -178 74q-66 74 -66 175z
M167 234q0 -59 31.5 -99t86.5 -40q65 0 96 48q33 48 33 112q0 49 -32.5 80t-85.5 31q-60 0 -94.5 -37.5t-34.5 -94.5z" />
    <glyph glyph-name="ntilde" unicode="&#xf1;" horiz-adv-x="612" 
d="M195 0h-127v510h122v-60l-2 -36h2q20 41 66 74q46 34 115 34q178 0 178 -194v-328h-127v302q0 53 -18 78.5t-62 25.5q-66 0 -107 -48q-40 -47 -40 -119v-239zM220 575h-87q0 137 112 137q23 0 42.5 -10t30.5 -22.5t25.5 -22.5t27.5 -10q39 0 39 62h86q0 -137 -112 -137
q-23 0 -42.5 10t-30.5 22.5t-25.5 22.5t-27.5 10q-38 0 -38 -62z" />
    <glyph glyph-name="ograve" unicode="&#xf2;" horiz-adv-x="634" 
d="M316 522q119 0 199 -76q82 -75 82 -191q0 -115 -81 -192q-81 -75 -199 -75t-199 75q-81 77 -81 192q0 116 81 191q80 76 198 76zM166 255q0 -71 43 -115q44 -44 108 -44t108 44q44 46 44 115t-45 114q-44 45 -107 45t-107 -45q-44 -46 -44 -114zM371 574h-103l-104 136
h131z" />
    <glyph glyph-name="oacute" unicode="&#xf3;" horiz-adv-x="634" 
d="M316 522q119 0 199 -76q82 -75 82 -191q0 -115 -81 -192q-81 -75 -199 -75t-199 75q-81 77 -81 192q0 116 81 191q80 76 198 76zM166 255q0 -71 43 -115q44 -44 108 -44t108 44q44 46 44 115t-45 114q-44 45 -107 45t-107 -45q-44 -46 -44 -114zM364 574h-102l76 136h131
z" />
    <glyph glyph-name="ocircumflex" unicode="&#xf4;" horiz-adv-x="634" 
d="M316 522q119 0 199 -76q82 -75 82 -191q0 -115 -81 -192q-81 -75 -199 -75t-199 75q-81 77 -81 192q0 116 81 191q80 76 198 76zM166 255q0 -71 43 -115q44 -44 108 -44t108 44q44 46 44 115t-45 114q-44 45 -107 45t-107 -45q-44 -46 -44 -114zM266 574h-105l92 136h127
l93 -136h-105l-50 81h-2z" />
    <glyph glyph-name="otilde" unicode="&#xf5;" horiz-adv-x="634" 
d="M316 522q119 0 199 -76q82 -75 82 -191q0 -115 -81 -192q-81 -75 -199 -75t-199 75q-81 77 -81 192q0 116 81 191q80 76 198 76zM166 255q0 -71 43 -115q44 -44 108 -44t108 44q44 46 44 115t-45 114q-44 45 -107 45t-107 -45q-44 -46 -44 -114zM222 575h-87
q0 137 112 137q23 0 42.5 -10t30.5 -22.5t25.5 -22.5t27.5 -10q39 0 39 62h86q0 -137 -112 -137q-23 0 -42.5 10t-30.5 22.5t-25.5 22.5t-27.5 10q-38 0 -38 -62z" />
    <glyph glyph-name="odieresis" unicode="&#xf6;" horiz-adv-x="634" 
d="M316 522q119 0 199 -76q82 -75 82 -191q0 -115 -81 -192q-81 -75 -199 -75t-199 75q-81 77 -81 192q0 116 81 191q80 76 198 76zM166 255q0 -71 43 -115q44 -44 108 -44t108 44q44 46 44 115t-45 114q-44 45 -107 45t-107 -45q-44 -46 -44 -114zM457 594h-97v116h97v-116
zM274 594h-98v116h98v-116z" />
    <glyph glyph-name="divide" unicode="&#xf7;" horiz-adv-x="586" 
d="M350 437h-115v108h115v-108zM554 236h-522v99h522v-99zM350 27h-115v108h115v-108z" />
    <glyph glyph-name="oslash" unicode="&#xf8;" horiz-adv-x="635" 
d="M150 -43l-55 39l38 54q-96 76 -96 205q0 116 81 191q80 76 199 76q72 0 133 -31l41 56l55 -38l-40 -54q92 -77 92 -200q0 -115 -81 -192q-81 -75 -200 -75q-69 0 -126 27zM204 149l180 249q-31 16 -67 16q-63 0 -107 -45q-44 -46 -44 -114q0 -62 38 -106zM435 354
l-177 -246q27 -12 59 -12q64 0 108 44q44 46 44 115q0 58 -34 99z" />
    <glyph glyph-name="ugrave" unicode="&#xf9;" horiz-adv-x="607" 
d="M63 182v328h127v-302q0 -53 18 -78.5t61 -25.5q66 0 104 50q39 49 39 122v234h126v-510h-122v60l3 35h-2q-21 -45 -70 -76t-107 -31q-177 0 -177 194zM355 574h-103l-104 136h131z" />
    <glyph glyph-name="uacute" unicode="&#xfa;" horiz-adv-x="607" 
d="M63 182v328h127v-302q0 -53 18 -78.5t61 -25.5q66 0 104 50q39 49 39 122v234h126v-510h-122v60l3 35h-2q-21 -45 -70 -76t-107 -31q-177 0 -177 194zM347 574h-102l76 136h131z" />
    <glyph glyph-name="ucircumflex" unicode="&#xfb;" horiz-adv-x="607" 
d="M63 182v328h127v-302q0 -53 18 -78.5t61 -25.5q66 0 104 50q39 49 39 122v234h126v-510h-122v60l3 35h-2q-21 -45 -70 -76t-107 -31q-177 0 -177 194zM249 574h-105l92 136h127l93 -136h-105l-50 81h-2z" />
    <glyph glyph-name="udieresis" unicode="&#xfc;" horiz-adv-x="607" 
d="M63 182v328h127v-302q0 -53 18 -78.5t61 -25.5q66 0 104 50q39 49 39 122v234h126v-510h-122v60l3 35h-2q-21 -45 -70 -76t-107 -31q-177 0 -177 194zM441 594h-97v116h97v-116zM258 594h-98v116h98v-116z" />
    <glyph glyph-name="yacute" unicode="&#xfd;" horiz-adv-x="545" 
d="M13 -177l42 95q29 -21 56 -21q61 0 89 66l19 45l-215 502h143l107 -294l19 -69h2q6 29 17 67l100 296h138l-227 -587q-24 -65 -73 -99t-111 -34q-56 0 -93 24zM321 573h-102l76 136h131z" />
    <glyph glyph-name="thorn" unicode="&#xfe;" horiz-adv-x="612" 
d="M195 -200h-127v910h127v-218l-2 -42h2q49 72 150 72q103 0 166 -76q63 -75 63 -191q0 -115 -65 -192q-65 -75 -166 -75q-45 0 -85 18t-63 51h-2q2 -24 2 -44v-213zM191 254q0 -74 35 -116.5t94 -42.5q55 0 90.5 45t35.5 115t-34.5 114.5t-89.5 44.5q-60 0 -95.5 -40.5
t-35.5 -119.5z" />
    <glyph glyph-name="ydieresis" unicode="&#xff;" horiz-adv-x="545" 
d="M13 -177l42 95q29 -21 56 -21q61 0 89 66l19 45l-215 502h143l107 -294l19 -69h2q6 29 17 67l100 296h138l-227 -587q-24 -65 -73 -99t-111 -34q-56 0 -93 24zM414 593h-97v116h97v-116zM231 593h-98v116h98v-116z" />
    <glyph glyph-name="Amacron" unicode="&#x100;" horiz-adv-x="650" 
d="M140 0h-132l249 710h136l249 -710h-132l-61 182h-249zM296 477l-64 -190h185l-63 190l-28 110h-2q-17 -74 -28 -110zM456 783h-262v87h262v-87z" />
    <glyph glyph-name="amacron" unicode="&#x101;" horiz-adv-x="537" 
d="M29 141q0 53 29 91t78 56q87 32 190 32h22v7q0 90 -96 90q-71 0 -142 -49l-47 91q34 26 89 44q54 19 111 19q100 0 156 -53.5t56 -149.5v-319h-118v43l3 37h-2q-24 -42 -67.5 -67t-93.5 -25q-71 0 -120 42q-48 44 -48 111zM155 152q0 -28 21 -47.5t56 -19.5q51 0 84 42
t33 92v14h-22q-172 0 -172 -81zM398 600h-262v87h262v-87z" />
    <glyph glyph-name="Abreve" unicode="&#x102;" horiz-adv-x="650" 
d="M140 0h-132l249 710h136l249 -710h-132l-61 182h-249zM296 477l-64 -190h185l-63 190l-28 110h-2q-17 -74 -28 -110zM325 753q-65 0 -107 34.5t-42 93.5v12h90v-12q0 -28 16.5 -43.5t42.5 -15.5q24 0 41 16t17 44v11h90v-12q0 -59 -42 -93.5t-106 -34.5z" />
    <glyph glyph-name="abreve" unicode="&#x103;" horiz-adv-x="537" 
d="M29 141q0 53 29 91t78 56q87 32 190 32h22v7q0 90 -96 90q-71 0 -142 -49l-47 91q34 26 89 44q54 19 111 19q100 0 156 -53.5t56 -149.5v-319h-118v43l3 37h-2q-24 -42 -67.5 -67t-93.5 -25q-71 0 -120 42q-48 44 -48 111zM155 152q0 -28 21 -47.5t56 -19.5q51 0 84 42
t33 92v14h-22q-172 0 -172 -81zM266 570q-65 0 -107 34.5t-42 93.5v12h90v-12q0 -28 16.5 -43.5t42.5 -15.5q24 0 41 16t17 44v11h90v-12q0 -59 -42 -93.5t-106 -34.5z" />
    <glyph glyph-name="Aogonek" unicode="&#x104;" horiz-adv-x="650" 
d="M140 0h-132l249 710h136l249 -710q-56 -47 -56 -78q0 -13 11 -22t25 -12l13 -2l-31 -94q-11 0 -42 10q-80 24 -80 86q0 59 65 112h-37l-61 182h-249zM296 477l-64 -190h185l-63 190l-28 110h-2q-17 -74 -28 -110z" />
    <glyph glyph-name="aogonek" unicode="&#x105;" horiz-adv-x="537" 
d="M29 141q0 53 29 91t78 56q87 32 190 32h22v7q0 90 -96 90q-71 0 -142 -49l-47 91q34 26 89 44q54 19 111 19q100 0 156 -53.5t56 -149.5v-319q-57 -46 -57 -78q0 -13 11 -22t25 -12l13 -2l-30 -94q-12 0 -43 10q-33 9 -56.5 30t-23.5 56q0 60 67 112h-24v43l3 37h-2
q-24 -42 -67.5 -67t-93.5 -25q-71 0 -120 42q-48 44 -48 111zM155 152q0 -28 21 -47.5t56 -19.5q51 0 84 42t33 92v14h-22q-172 0 -172 -81z" />
    <glyph glyph-name="Cacute" unicode="&#x106;" horiz-adv-x="716" 
d="M45 358q0 157 103 260q104 104 262 104q162 0 262 -97l-62 -96q-40 34 -92.5 54.5t-101.5 20.5q-112 0 -175 -70t-63 -174q0 -106 64 -180q65 -74 175 -74q115 0 206 90l68 -93q-112 -115 -279 -115q-165 0 -266 105q-101 106 -101 265zM449 757h-102l76 136h131z" />
    <glyph glyph-name="cacute" unicode="&#x107;" horiz-adv-x="548" 
d="M37 255q0 113 76 189q77 78 201 78q126 0 196 -76l-57 -87q-55 55 -132 55q-69 0 -112 -46q-43 -44 -43 -112q0 -67 44 -114q43 -46 115 -46q82 0 150 65l49 -90q-36 -38 -92.5 -60.5t-117.5 -22.5q-125 0 -201 76t-76 191zM341 574h-102l76 136h131z" />
    <glyph glyph-name="Ccircumflex" unicode="&#x108;" horiz-adv-x="716" 
d="M45 358q0 157 103 260q104 104 262 104q162 0 262 -97l-62 -96q-40 34 -92.5 54.5t-101.5 20.5q-112 0 -175 -70t-63 -174q0 -106 64 -180q65 -74 175 -74q115 0 206 90l68 -93q-112 -115 -279 -115q-165 0 -266 105q-101 106 -101 265zM351 757h-105l92 136h127l93 -136
h-105l-50 81h-2z" />
    <glyph glyph-name="ccircumflex" unicode="&#x109;" horiz-adv-x="548" 
d="M37 255q0 113 76 189q77 78 201 78q126 0 196 -76l-57 -87q-55 55 -132 55q-69 0 -112 -46q-43 -44 -43 -112q0 -67 44 -114q43 -46 115 -46q82 0 150 65l49 -90q-36 -38 -92.5 -60.5t-117.5 -22.5q-125 0 -201 76t-76 191zM243 574h-105l92 136h127l93 -136h-105l-50 81
h-2z" />
    <glyph glyph-name="Cdotaccent" unicode="&#x10a;" horiz-adv-x="716" 
d="M45 358q0 157 103 260q104 104 262 104q162 0 262 -97l-62 -96q-40 34 -92.5 54.5t-101.5 20.5q-112 0 -175 -70t-63 -174q0 -106 64 -180q65 -74 175 -74q115 0 206 90l68 -93q-112 -115 -279 -115q-165 0 -266 105q-101 106 -101 265zM456 782h-108v111h108v-111z" />
    <glyph glyph-name="cdotaccent" unicode="&#x10b;" horiz-adv-x="548" 
d="M37 255q0 113 76 189q77 78 201 78q126 0 196 -76l-57 -87q-55 55 -132 55q-69 0 -112 -46q-43 -44 -43 -112q0 -67 44 -114q43 -46 115 -46q82 0 150 65l49 -90q-36 -38 -92.5 -60.5t-117.5 -22.5q-125 0 -201 76t-76 191zM349 599h-108v111h108v-111z" />
    <glyph glyph-name="Ccaron" unicode="&#x10c;" horiz-adv-x="716" 
d="M45 358q0 157 103 260q104 104 262 104q162 0 262 -97l-62 -96q-40 34 -92.5 54.5t-101.5 20.5q-112 0 -175 -70t-63 -174q0 -106 64 -180q65 -74 175 -74q115 0 206 90l68 -93q-112 -115 -279 -115q-165 0 -266 105q-101 106 -101 265zM465 757h-127l-92 136h105l50 -81
h2l50 81h105z" />
    <glyph glyph-name="ccaron" unicode="&#x10d;" horiz-adv-x="548" 
d="M37 255q0 113 76 189q77 78 201 78q126 0 196 -76l-57 -87q-55 55 -132 55q-69 0 -112 -46q-43 -44 -43 -112q0 -67 44 -114q43 -46 115 -46q82 0 150 65l49 -90q-36 -38 -92.5 -60.5t-117.5 -22.5q-125 0 -201 76t-76 191zM357 574h-127l-92 136h105l50 -81h2l50 81h105
z" />
    <glyph glyph-name="Dcaron" unicode="&#x10e;" horiz-adv-x="737" 
d="M328 0h-242v710h242q167 0 264 -94q98 -95 98 -260q0 -166 -98 -261t-264 -95zM215 599v-488h106q111 0 173.5 64t62.5 181q0 115 -63 179t-173 64h-106zM405 757h-127l-92 136h105l50 -81h2l50 81h105z" />
    <glyph glyph-name="dcaron" unicode="&#x10f;" horiz-adv-x="627" 
d="M39 255q0 120 64 193q65 74 167 74q101 0 149 -67h2q-2 18 -2 30v225h126v-710h-119v44l2 32h-2q-24 -40 -66.5 -64t-94.5 -24q-102 0 -164 74t-62 193zM167 255q0 -72 35 -116t92 -44q56 0 92 42t36 119q0 64 -33 110q-33 47 -94 47q-55 0 -91.5 -43.5t-36.5 -114.5z
M598 709h105q7 -27 7 -54q0 -42 -26 -97h-94q20 54 20 87t-12 64z" />
    <glyph glyph-name="Dcroat" unicode="&#x110;" horiz-adv-x="743" 
d="M334 0h-242v301h-58v105h58v304h242q167 0 264 -94q98 -95 98 -260q0 -166 -98 -261t-264 -95zM220 301v-190h107q111 0 173.5 64t62.5 181q0 115 -63 179t-173 64h-107v-193h132v-105h-132z" />
    <glyph glyph-name="dslash" unicode="&#x111;" horiz-adv-x="614" 
d="M39 255q0 120 64 193q65 74 167 74q101 0 148 -65h2q-1 9 -1 29v73h-129v76h129v75h126v-75h72v-76h-72v-559h-119v42l1 33h-2q-53 -87 -160 -87q-102 0 -164 74t-62 193zM167 255q0 -72 35 -116t92 -44q56 0 92 42t36 119q0 64 -33 110q-33 47 -94 47q-55 0 -91.5 -43.5
t-36.5 -114.5z" />
    <glyph glyph-name="Emacron" unicode="&#x112;" horiz-adv-x="568" 
d="M527 0h-441v710h425v-111h-296v-186h239v-111h-239v-191h312v-111zM440 783h-262v87h262v-87z" />
    <glyph glyph-name="emacron" unicode="&#x113;" horiz-adv-x="561" 
d="M37 255q0 119 72 192q73 75 188 75q106 0 166 -69q60 -67 60 -173q0 -21 -4 -49h-351q6 -63 48.5 -99t104.5 -36q75 0 146 56l50 -91q-38 -34 -93.5 -53.5t-111.5 -19.5q-122 0 -199 77q-76 77 -76 190zM171 318h225q-1 50 -29 79t-73 29q-48 0 -81 -29.5t-42 -78.5z
M426 600h-262v87h262v-87z" />
    <glyph glyph-name="Ebreve" unicode="&#x114;" horiz-adv-x="568" 
d="M527 0h-441v710h425v-111h-296v-186h239v-111h-239v-191h312v-111zM308 753q-65 0 -107 34.5t-42 93.5v12h90v-12q0 -28 16.5 -43.5t42.5 -15.5q24 0 41 16t17 44v11h90v-12q0 -59 -42 -93.5t-106 -34.5z" />
    <glyph glyph-name="ebreve" unicode="&#x115;" horiz-adv-x="561" 
d="M37 255q0 119 72 192q73 75 188 75q106 0 166 -69q60 -67 60 -173q0 -21 -4 -49h-351q6 -63 48.5 -99t104.5 -36q75 0 146 56l50 -91q-38 -34 -93.5 -53.5t-111.5 -19.5q-122 0 -199 77q-76 77 -76 190zM171 318h225q-1 50 -29 79t-73 29q-48 0 -81 -29.5t-42 -78.5z
M294 570q-65 0 -107 34.5t-42 93.5v12h90v-12q0 -28 16.5 -43.5t42.5 -15.5q24 0 41 16t17 44v11h90v-12q0 -59 -42 -93.5t-106 -34.5z" />
    <glyph glyph-name="Edotaccent" unicode="&#x116;" horiz-adv-x="568" 
d="M527 0h-441v710h425v-111h-296v-186h239v-111h-239v-191h312v-111zM362 782h-108v111h108v-111z" />
    <glyph glyph-name="edotaccent" unicode="&#x117;" horiz-adv-x="561" 
d="M37 255q0 119 72 192q73 75 188 75q106 0 166 -69q60 -67 60 -173q0 -21 -4 -49h-351q6 -63 48.5 -99t104.5 -36q75 0 146 56l50 -91q-38 -34 -93.5 -53.5t-111.5 -19.5q-122 0 -199 77q-76 77 -76 190zM171 318h225q-1 50 -29 79t-73 29q-48 0 -81 -29.5t-42 -78.5z
M348 599h-108v111h108v-111z" />
    <glyph glyph-name="Eogonek" unicode="&#x118;" horiz-adv-x="568" 
d="M437 0h-351v710h425v-111h-296v-186h239v-111h-239v-191h312v-111q-56 -47 -56 -78q0 -13 11.5 -22t25.5 -12l12 -2l-31 -94q-11 0 -42 10q-80 24 -80 86q0 60 70 112z" />
    <glyph glyph-name="eogonek" unicode="&#x119;" horiz-adv-x="561" 
d="M37 255q0 119 72 192q73 75 188 75q106 0 166 -69q60 -67 60 -173l-4 -49h-351q6 -63 48.5 -99t104.5 -36q75 0 146 56l49 -90q-9 -9 -45 -36q-78 -58 -78 -104q0 -13 11 -22t25 -12l12 -2l-30 -94q-12 0 -43 10q-33 9 -56.5 30t-23.5 56q0 54 63 104q-21 -4 -39 -4
q-122 0 -199 77q-76 77 -76 190zM171 318h225q-1 49 -29 78.5t-73 29.5q-47 0 -80.5 -29.5t-42.5 -78.5z" />
    <glyph glyph-name="Ecaron" unicode="&#x11a;" horiz-adv-x="568" 
d="M527 0h-441v710h425v-111h-296v-186h239v-111h-239v-191h312v-111zM371 757h-127l-92 136h105l50 -81h2l50 81h105z" />
    <glyph glyph-name="ecaron" unicode="&#x11b;" horiz-adv-x="561" 
d="M37 255q0 119 72 192q73 75 188 75q106 0 166 -69q60 -67 60 -173q0 -21 -4 -49h-351q6 -63 48.5 -99t104.5 -36q75 0 146 56l50 -91q-38 -34 -93.5 -53.5t-111.5 -19.5q-122 0 -199 77q-76 77 -76 190zM171 318h225q-1 50 -29 79t-73 29q-48 0 -81 -29.5t-42 -78.5z
M357 574h-127l-92 136h105l50 -81h2l50 81h105z" />
    <glyph glyph-name="Gcircumflex" unicode="&#x11c;" horiz-adv-x="766" 
d="M45 356q0 154 104 260q105 106 262 106q161 0 264 -90l-64 -96q-33 30 -86 49t-103 19q-116 0 -180 -70t-64 -174q0 -113 68 -184q67 -70 170 -70q101 0 178 74v83h-109v111h225v-374h-110v34l1 30h-2q-36 -34 -91.5 -55t-114.5 -21q-145 0 -247 102q-101 104 -101 266z
M349 757h-105l92 136h127l93 -136h-105l-50 81h-2z" />
    <glyph glyph-name="gcircumflex" unicode="&#x11d;" horiz-adv-x="606" 
d="M87 -166l39 97q68 -33 141 -33q66 0 105 31t39 93v32l2 27h-2q-47 -71 -143 -71q-105 0 -167 74q-61 73 -61 184q0 109 59 182q60 72 166 72q104 0 152 -67h3q-2 8 -2 14v41h120v-479q0 -63 -23 -111t-62 -75.5t-85.5 -41t-98.5 -13.5q-96 0 -182 44zM168 272
q0 -70 34 -112.5t94 -42.5q54 0 86 36.5t32 113.5q0 147 -126 147q-57 0 -88.5 -38t-31.5 -104zM244 574h-105l92 136h127l93 -136h-105l-50 81h-2z" />
    <glyph glyph-name="Gbreve" unicode="&#x11e;" horiz-adv-x="766" 
d="M45 356q0 154 104 260q105 106 262 106q161 0 264 -90l-64 -96q-33 30 -86 49t-103 19q-116 0 -180 -70t-64 -174q0 -113 68 -184q67 -70 170 -70q101 0 178 74v83h-109v111h225v-374h-110v34l1 30h-2q-36 -34 -91.5 -55t-114.5 -21q-145 0 -247 102q-101 104 -101 266z
M401 753q-65 0 -107 34.5t-42 93.5v12h90v-12q0 -28 16.5 -43.5t42.5 -15.5q24 0 41 16t17 44v11h90v-12q0 -59 -42 -93.5t-106 -34.5z" />
    <glyph glyph-name="gbreve" unicode="&#x11f;" horiz-adv-x="606" 
d="M87 -166l39 97q68 -33 141 -33q66 0 105 31t39 93v32l2 27h-2q-47 -71 -143 -71q-105 0 -167 74q-61 73 -61 184q0 109 59 182q60 72 166 72q104 0 152 -67h3q-2 8 -2 14v41h120v-479q0 -63 -23 -111t-62 -75.5t-85.5 -41t-98.5 -13.5q-96 0 -182 44zM168 272
q0 -70 34 -112.5t94 -42.5q54 0 86 36.5t32 113.5q0 147 -126 147q-57 0 -88.5 -38t-31.5 -104zM295 570q-65 0 -107 34.5t-42 93.5v12h90v-12q0 -28 16.5 -43.5t42.5 -15.5q24 0 41 16t17 44v11h90v-12q0 -59 -42 -93.5t-106 -34.5z" />
    <glyph glyph-name="Gdotaccent" unicode="&#x120;" horiz-adv-x="766" 
d="M45 356q0 154 104 260q105 106 262 106q161 0 264 -90l-64 -96q-33 30 -86 49t-103 19q-116 0 -180 -70t-64 -174q0 -113 68 -184q67 -70 170 -70q101 0 178 74v83h-109v111h225v-374h-110v34l1 30h-2q-36 -34 -91.5 -55t-114.5 -21q-145 0 -247 102q-101 104 -101 266z
M455 782h-108v111h108v-111z" />
    <glyph glyph-name="gdotaccent" unicode="&#x121;" horiz-adv-x="606" 
d="M87 -166l39 97q68 -33 141 -33q66 0 105 31t39 93v32l2 27h-2q-47 -71 -143 -71q-105 0 -167 74q-61 73 -61 184q0 109 59 182q60 72 166 72q104 0 152 -67h3q-2 8 -2 14v41h120v-479q0 -63 -23 -111t-62 -75.5t-85.5 -41t-98.5 -13.5q-96 0 -182 44zM168 272
q0 -70 34 -112.5t94 -42.5q54 0 86 36.5t32 113.5q0 147 -126 147q-57 0 -88.5 -38t-31.5 -104zM349 599h-108v111h108v-111z" />
    <glyph glyph-name="Gcommaaccent" unicode="&#x122;" horiz-adv-x="766" 
d="M45 356q0 154 104 260q105 106 262 106q161 0 264 -90l-64 -96q-33 30 -86 49t-103 19q-116 0 -180 -70t-64 -174q0 -113 68 -184q67 -70 170 -70q101 0 178 74v83h-109v111h225v-374h-110v34l1 30h-2q-36 -34 -91.5 -55t-114.5 -21q-145 0 -247 102q-101 104 -101 266z
M338 -55h105q7 -27 7 -54q0 -42 -26 -97h-94q20 54 20 87t-12 64z" />
    <glyph glyph-name="gcommaaccent" unicode="&#x123;" horiz-adv-x="606" 
d="M350 562h-105q-7 25 -7 52q0 41 26 95h93q-18 -52 -19 -85.5t12 -61.5zM87 -166l39 97q68 -33 141 -33q66 0 105 31t39 93v32l2 27h-2q-47 -71 -143 -71q-105 0 -167 74q-61 73 -61 184q0 109 59 182q60 72 166 72q104 0 152 -67h3q-2 8 -2 14v41h120v-479
q0 -63 -23 -111t-62 -75.5t-85.5 -41t-98.5 -13.5q-96 0 -182 44zM168 272q0 -70 34 -112.5t94 -42.5q54 0 86 36.5t32 113.5q0 147 -126 147q-57 0 -88.5 -38t-31.5 -104z" />
    <glyph glyph-name="Hcircumflex" unicode="&#x124;" horiz-adv-x="754" 
d="M215 0h-129v710h129v-301h325v301h128v-710h-128v298h-325v-298zM326 757h-105l92 136h127l93 -136h-105l-50 81h-2z" />
    <glyph glyph-name="hcircumflex" unicode="&#x125;" horiz-adv-x="612" 
d="M195 0h-127v710h127v-248l-3 -43h2q22 43 70.5 73t106.5 30q178 0 178 -194v-328h-127v302q0 53 -18 78.5t-62 25.5q-66 0 -107 -48q-40 -46 -40 -121v-237zM82 757h-105l92 136h127l93 -136h-105l-50 81h-2z" />
    <glyph glyph-name="Hbar" unicode="&#x126;" horiz-adv-x="761" 
d="M224 0h-131v515h-66v83h66v112h131v-112h313v112h131v-112h65v-83h-65v-515h-131v298h-313v-298zM224 515v-106h313v106h-313z" />
    <glyph glyph-name="hbar" unicode="&#x127;" horiz-adv-x="612" 
d="M195 0h-127v559h-66v76h66v75h127v-75h134v-76h-134v-95l-2 -43h2q22 43 70 72t106 29q178 0 178 -194v-328h-127v302q0 53 -18 78.5t-62 25.5q-67 0 -107 -49q-40 -47 -40 -118v-239z" />
    <glyph glyph-name="Itilde" unicode="&#x128;" horiz-adv-x="301" 
d="M57 758h-87q0 137 112 137q32 0 72.5 -32.5t53.5 -32.5q39 0 39 62h86q0 -137 -112 -137q-33 0 -73 32.5t-53 32.5q-38 0 -38 -62zM215 0h-129v710h129v-710z" />
    <glyph glyph-name="itilde" unicode="&#x129;" horiz-adv-x="263" 
d="M195 0h-127v510h127v-510zM38 575h-87q0 137 112 137q23 0 42.5 -10t30.5 -22.5t25.5 -22.5t27.5 -10q39 0 39 62h86q0 -137 -112 -137q-23 0 -42.5 10t-30.5 22.5t-25.5 22.5t-27.5 10q-38 0 -38 -62z" />
    <glyph glyph-name="Imacron" unicode="&#x12a;" horiz-adv-x="301" 
d="M215 0h-129v710h129v-710zM283 783h-262v87h262v-87z" />
    <glyph glyph-name="imacron" unicode="&#x12b;" horiz-adv-x="263" 
d="M264 600h-262v87h262v-87zM195 0h-127v510h127v-510z" />
    <glyph glyph-name="Ibreve" unicode="&#x12c;" horiz-adv-x="301" 
d="M152 753q-65 0 -107 34.5t-42 93.5v12h90v-12q0 -28 16.5 -43.5t42.5 -15.5q24 0 41 16t17 44v11h90v-12q0 -59 -42 -93.5t-106 -34.5zM215 0h-129v710h129v-710z" />
    <glyph glyph-name="ibreve" unicode="&#x12d;" horiz-adv-x="263" 
d="M133 570q-65 0 -107 34.5t-42 93.5v12h90v-12q0 -28 16.5 -43.5t42.5 -15.5q24 0 41 16t17 44v11h90v-12q0 -59 -42 -93.5t-106 -34.5zM195 0h-127v510h127v-510z" />
    <glyph glyph-name="Iogonek" unicode="&#x12e;" horiz-adv-x="301" 
d="M121 0h-35v710h129v-710q-56 -47 -56 -78q0 -13 11 -22t25 -12l12 -2l-30 -94q-12 0 -43 10q-33 9 -56.5 30t-23.5 56q0 58 67 112z" />
    <glyph glyph-name="iogonek" unicode="&#x12f;" horiz-adv-x="264" 
d="M102 0h-34v510h127v-510q-56 -47 -56 -78q0 -13 11.5 -22t25.5 -12l12 -2l-30 -94q-3 0 -7 0.5t-17 3.5t-24.5 7t-26 11.5t-24.5 17t-17 24.5t-7 33q0 56 67 111zM195 597h-127v113h127v-113z" />
    <glyph glyph-name="Idot" unicode="&#x130;" horiz-adv-x="301" 
d="M215 0h-129v710h129v-710zM206 782h-108v111h108v-111z" />
    <glyph glyph-name="dotlessi" unicode="&#x131;" horiz-adv-x="263" 
d="M195 0h-127v510h127v-510z" />
    <glyph glyph-name="IJ" unicode="&#x132;" horiz-adv-x="637" 
d="M297 -4v117q22 0 42.5 6t41.5 20t33.5 43t12.5 70v458h131v-460q0 -152 -88 -208q-74 -46 -173 -46zM215 0h-129v710h129v-710z" />
    <glyph glyph-name="ij" unicode="&#x133;" horiz-adv-x="526" 
d="M458 597h-127v113h127v-113zM331 -5v515h127v-525q0 -97 -55 -141q-62 -53 -158 -51q-19 0 -38 3v107q16 -2 22 -2q102 0 102 94zM195 597h-127v113h127v-113zM195 0h-127v510h127v-510z" />
    <glyph glyph-name="Jcircumflex" unicode="&#x134;" horiz-adv-x="546" 
d="M24 210v41h128v-33q0 -50 23.5 -81t69.5 -31q43 0 68 27t25 79v387h-184v111h312v-500q0 -109 -66 -166q-65 -56 -155 -56q-91 0 -156 57t-65 165zM256 757h-105l92 136h127l93 -136h-105l-50 81h-2z" />
    <glyph glyph-name="jcircumflex" unicode="&#x135;" horiz-adv-x="263" 
d="M79 573h-99l92 137h117l92 -137h-99l-50 82h-2zM68 -5v515h127v-525q0 -97 -55 -141q-62 -53 -158 -51q-19 0 -38 3v107q16 -2 22 -2q102 0 102 94z" />
    <glyph glyph-name="Kcommaaccent" unicode="&#x136;" horiz-adv-x="638" 
d="M215 0h-129v710h129v-289h92l167 289h140l-201 -338v-2l213 -370h-146l-173 310h-92v-310zM272 -55h105q7 -27 7 -54q0 -42 -26 -97h-94q20 54 20 87t-12 64z" />
    <glyph glyph-name="kcommaaccent" unicode="&#x137;" horiz-adv-x="549" 
d="M195 0h-127v710h127v-380h63l123 180h141l-161 -228v-2l181 -280h-146l-135 223h-66v-223zM230 -55h105q7 -27 7 -54q0 -42 -26 -97h-94q20 54 20 87t-12 64z" />
    <glyph glyph-name="kgreenlandic" unicode="&#x138;" horiz-adv-x="547" 
d="M195 0h-127v510h127v-192h62l129 192h142l-167 -239v-2l174 -269h-149l-126 211h-65v-211z" />
    <glyph glyph-name="Lacute" unicode="&#x139;" horiz-adv-x="536" 
d="M522 0h-436v710h129v-599h307v-111zM199 757h-102l76 136h131z" />
    <glyph glyph-name="lacute" unicode="&#x13a;" horiz-adv-x="288" 
d="M68 159v551h126v-532q0 -39 12 -54.5t40 -15.5q14 0 19 1v-111q-27 -3 -40 -3q-61 0 -104 26q-53 34 -53 138zM180 757h-102l76 136h131z" />
    <glyph glyph-name="Lcommaaccent" unicode="&#x13b;" horiz-adv-x="536" 
d="M254 -55h105q7 -27 7 -54q0 -42 -26 -97h-94q20 54 20 87t-12 64zM522 0h-436v710h129v-599h307v-111z" />
    <glyph glyph-name="lcommaaccent" unicode="&#x13c;" horiz-adv-x="288" 
d="M68 159v551h126v-532q0 -39 12 -54.5t40 -15.5q14 0 19 1v-111q-27 -3 -40 -3q-61 0 -104 26q-53 34 -53 138zM114 -55h105q7 -27 7 -54q0 -42 -26 -97h-94q20 54 20 87t-12 64z" />
    <glyph glyph-name="Lcaron" unicode="&#x13d;" horiz-adv-x="537" 
d="M294 709h105q7 -27 7 -54q0 -42 -26 -97h-94q20 54 20 87t-12 64zM522 0h-436v710h129v-599h307v-111z" />
    <glyph glyph-name="lcaron" unicode="&#x13e;" horiz-adv-x="301" 
d="M68 159v551h126v-532q0 -39 12 -54.5t40 -15.5q14 0 19 1v-111q-27 -3 -40 -3q-61 0 -104 26q-53 34 -53 138zM248 709h105q7 -27 7 -54q0 -42 -26 -97h-94q20 54 20 87t-12 64z" />
    <glyph glyph-name="Ldot" unicode="&#x13f;" horiz-adv-x="538" 
d="M522 0h-436v710h129v-599h307v-111zM445 321h-123v128h123v-128z" />
    <glyph glyph-name="ldot" unicode="&#x140;" horiz-adv-x="403" 
d="M68 159v551h126v-532q0 -39 12 -54.5t40 -15.5q14 0 19 1v-111q-27 -3 -40 -3q-61 0 -104 26q-53 34 -53 138zM393 321h-123v128h123v-128z" />
    <glyph glyph-name="Lslash" unicode="&#x141;" horiz-adv-x="541" 
d="M526 0h-435v263l-57 -32v124l57 32v323h128v-249l106 61v-124l-106 -61v-226h307v-111z" />
    <glyph glyph-name="lslash" unicode="&#x142;" horiz-adv-x="305" 
d="M81 280l-64 -36v124l64 36v306h126v-233l78 45v-124l-78 -45v-175q0 -39 12 -54.5t40 -15.5l19 1v-111q-18 -3 -40 -3q-61 0 -104 26q-53 34 -53 138v121z" />
    <glyph glyph-name="Nacute" unicode="&#x143;" horiz-adv-x="753" 
d="M215 0h-129v710h129l269 -410q18 -29 50 -92l9 -18h2q-7 63 -7 110v410h128v-710h-128l-269 409q-18 29 -50 92l-9 18h-2q7 -63 7 -110v-409zM423 757h-102l76 136h131z" />
    <glyph glyph-name="nacute" unicode="&#x144;" horiz-adv-x="612" 
d="M195 0h-127v510h122v-60l-2 -36h2q20 41 66 74q46 34 115 34q178 0 178 -194v-328h-127v302q0 53 -18 78.5t-62 25.5q-66 0 -107 -48q-40 -47 -40 -119v-239zM361 574h-102l76 136h131z" />
    <glyph glyph-name="Ncommaaccent" unicode="&#x145;" horiz-adv-x="753" 
d="M215 0h-129v710h129l269 -410q18 -29 50 -92l9 -18h2q-7 63 -7 110v410h128v-710h-128l-269 409q-18 29 -50 92l-9 18h-2q7 -63 7 -110v-409zM321 -55h105q7 -27 7 -54q0 -42 -26 -97h-94q20 54 20 87t-12 64z" />
    <glyph glyph-name="ncommaaccent" unicode="&#x146;" horiz-adv-x="612" 
d="M195 0h-127v510h122v-60l-2 -36h2q20 41 66 74q46 34 115 34q178 0 178 -194v-328h-127v302q0 53 -18 78.5t-62 25.5q-66 0 -107 -48q-40 -47 -40 -119v-239zM251 -55h105q7 -27 7 -54q0 -42 -26 -97h-94q20 54 20 87t-12 64z" />
    <glyph glyph-name="Ncaron" unicode="&#x147;" horiz-adv-x="753" 
d="M215 0h-129v710h129l269 -410q18 -29 50 -92l9 -18h2q-7 63 -7 110v410h128v-710h-128l-269 409q-18 29 -50 92l-9 18h-2q7 -63 7 -110v-409zM439 757h-127l-92 136h105l50 -81h2l50 81h105z" />
    <glyph glyph-name="ncaron" unicode="&#x148;" horiz-adv-x="612" 
d="M195 0h-127v510h122v-60l-2 -36h2q20 41 66 74q46 34 115 34q178 0 178 -194v-328h-127v302q0 53 -18 78.5t-62 25.5q-66 0 -107 -48q-40 -47 -40 -119v-239zM377 574h-127l-92 136h105l50 -81h2l50 81h105z" />
    <glyph glyph-name="napostrophe" unicode="&#x149;" horiz-adv-x="612" 
d="M195 0h-127v510h122v-60l-2 -36h2q20 41 66 74q46 34 115 34q178 0 178 -194v-328h-127v302q0 53 -18 78.5t-62 25.5q-66 0 -107 -48q-40 -47 -40 -119v-239zM-12 709h105q7 -27 7 -54q0 -42 -26 -97h-94q20 54 20 87t-12 64z" />
    <glyph glyph-name="Eng" unicode="&#x14a;" horiz-adv-x="752" 
d="M215 0h-129v710h129l269 -410q18 -29 50 -92l9 -18h2q-7 63 -7 110v410h128v-667q0 -143 -85 -200q-71 -48 -172 -48v117q41 0 79 25q39 24 45 71l-264 401q-18 29 -50 92l-9 18h-2q7 -63 7 -110v-409z" />
    <glyph glyph-name="eng" unicode="&#x14b;" horiz-adv-x="612" 
d="M195 0h-127v510h122v-72l-1 -22h2q23 46 69 76t111 30q178 0 178 -194v-345q0 -97 -55 -141q-62 -53 -158 -51l-39 3v107q6 -1 22 -1q103 0 103 93v309q0 53 -18 78.5t-62 25.5q-67 0 -107 -49q-40 -47 -40 -118v-239z" />
    <glyph glyph-name="Omacron" unicode="&#x14c;" horiz-adv-x="822" 
d="M44 360q0 155 103 258q104 104 264 104q159 0 263 -104t104 -258q0 -158 -104 -265t-263 -107q-160 0 -264 107q-103 106 -103 265zM177 360q0 -108 66 -182q67 -72 168 -72t167 72q67 73 67 182q0 104 -67 174q-66 70 -167 70t-168 -70q-66 -70 -66 -174zM542 783h-262
v87h262v-87z" />
    <glyph glyph-name="omacron" unicode="&#x14d;" horiz-adv-x="634" 
d="M316 522q119 0 199 -76q82 -75 82 -191q0 -115 -81 -192q-81 -75 -199 -75t-199 75q-81 77 -81 192q0 116 81 191q80 76 198 76zM166 255q0 -71 43 -115q44 -44 108 -44t108 44q44 46 44 115t-45 114q-44 45 -107 45t-107 -45q-44 -46 -44 -114zM448 600h-262v87h262v-87
z" />
    <glyph glyph-name="Obreve" unicode="&#x14e;" horiz-adv-x="822" 
d="M44 360q0 155 103 258q104 104 264 104q159 0 263 -104t104 -258q0 -158 -104 -265t-263 -107q-160 0 -264 107q-103 106 -103 265zM177 360q0 -108 66 -182q67 -72 168 -72t167 72q67 73 67 182q0 104 -67 174q-66 70 -167 70t-168 -70q-66 -70 -66 -174zM411 753
q-65 0 -107 34.5t-42 93.5v12h90v-12q0 -28 16.5 -43.5t42.5 -15.5q24 0 41 16t17 44v11h90v-12q0 -59 -42 -93.5t-106 -34.5z" />
    <glyph glyph-name="obreve" unicode="&#x14f;" horiz-adv-x="634" 
d="M316 522q119 0 199 -76q82 -75 82 -191q0 -115 -81 -192q-81 -75 -199 -75t-199 75q-81 77 -81 192q0 116 81 191q80 76 198 76zM166 255q0 -71 43 -115q44 -44 108 -44t108 44q44 46 44 115t-45 114q-44 45 -107 45t-107 -45q-44 -46 -44 -114zM317 570q-65 0 -107 34.5
t-42 93.5v12h90v-12q0 -28 16.5 -43.5t42.5 -15.5q24 0 41 16t17 44v11h90v-12q0 -59 -42 -93.5t-106 -34.5z" />
    <glyph glyph-name="Ohungarumlaut" unicode="&#x150;" horiz-adv-x="822" 
d="M44 360q0 155 103 258q104 104 264 104q159 0 263 -104t104 -258q0 -158 -104 -265t-263 -107q-160 0 -264 107q-103 106 -103 265zM177 360q0 -108 66 -182q67 -72 168 -72t167 72q67 73 67 182q0 104 -67 174q-66 70 -167 70t-168 -70q-66 -70 -66 -174zM531 757h-97
l76 136h125zM364 757h-105l71 136h108z" />
    <glyph glyph-name="ohungarumlaut" unicode="&#x151;" horiz-adv-x="634" 
d="M316 522q119 0 199 -76q82 -75 82 -191q0 -115 -81 -192q-81 -75 -199 -75t-199 75q-81 77 -81 192q0 116 81 191q80 76 198 76zM166 255q0 -71 43 -115q44 -44 108 -44t108 44q44 46 44 115t-45 114q-44 45 -107 45t-107 -45q-44 -46 -44 -114zM437 574h-97l76 136h125z
M270 574h-105l71 136h108z" />
    <glyph glyph-name="OE" unicode="&#x152;" horiz-adv-x="969" 
d="M417 718q34 0 69 -4q36 -4 57 -4h370v-111h-297v-186h240v-111h-240v-191h313v-111h-386q-21 0 -57 -4q-43 -5 -69 -5q-158 0 -265 106q-108 107 -108 259q0 153 107 257q108 105 266 105zM177 356q0 -107 68 -181q67 -73 172 -73q39 0 63 6l8 2v490q-32 8 -71 8
q-105 0 -172 -73q-68 -74 -68 -179z" />
    <glyph glyph-name="oe" unicode="&#x153;" horiz-adv-x="992" 
d="M313 522q136 0 211 -105h2q66 105 201 105q107 0 166 -69q60 -68 60 -173l-3 -49h-351q7 -62 49 -98.5t103 -36.5q76 0 147 56l49 -91q-39 -34 -94 -53.5t-111 -19.5q-142 0 -213 108h-2q-77 -108 -214 -108q-117 0 -197 74q-79 73 -79 192q0 118 80 193q79 75 196 75z
M602 318h223q-1 47 -29 76.5t-70 29.5q-48 0 -81.5 -29t-42.5 -77zM316 96q65 0 108 43q44 44 44 116q0 71 -45 115q-44 44 -107 44t-107 -45q-44 -44 -44 -115t44 -115q43 -43 107 -43z" />
    <glyph glyph-name="Racute" unicode="&#x154;" horiz-adv-x="640" 
d="M215 0h-129v710h234q92 0 134 -19q57 -24 88.5 -74t31.5 -120q0 -66 -32.5 -119t-86.5 -75v-2q9 -10 23 -37l146 -264h-145l-140 265h-124v-265zM215 599v-222h116q52 0 82 30.5t30 82.5q0 74 -56 97q-27 12 -78 12h-94zM357 757h-102l76 136h131z" />
    <glyph glyph-name="racute" unicode="&#x155;" horiz-adv-x="396" 
d="M195 0h-127v510h122v-90l-2 -35h2q18 58 62.5 95t99.5 37q2 0 24 -2v-125q-14 2 -31 2q-75 0 -112 -54q-38 -55 -38 -132v-206zM281 573h-102l76 136h131z" />
    <glyph glyph-name="Rcommaaccent" unicode="&#x156;" horiz-adv-x="640" 
d="M215 0h-129v710h234q92 0 134 -19q57 -24 88.5 -74t31.5 -120q0 -66 -32.5 -119t-86.5 -75v-2q9 -10 23 -37l146 -264h-145l-140 265h-124v-265zM215 599v-222h116q52 0 82 30.5t30 82.5q0 74 -56 97q-27 12 -78 12h-94zM275 -55h105q7 -27 7 -54q0 -42 -26 -97h-94
q20 54 20 87t-12 64z" />
    <glyph glyph-name="rcommaaccent" unicode="&#x157;" horiz-adv-x="396" 
d="M195 0h-127v510h122v-90l-2 -35h2q18 58 62.5 95t99.5 37q2 0 24 -2v-125q-14 2 -31 2q-75 0 -112 -54q-38 -55 -38 -132v-206zM78 -55h105q7 -27 7 -54q0 -42 -26 -97h-94q20 54 20 87t-12 64z" />
    <glyph glyph-name="Rcaron" unicode="&#x158;" horiz-adv-x="640" 
d="M215 0h-129v710h234q92 0 134 -19q57 -24 88.5 -74t31.5 -120q0 -66 -32.5 -119t-86.5 -75v-2q9 -10 23 -37l146 -264h-145l-140 265h-124v-265zM215 599v-222h116q52 0 82 30.5t30 82.5q0 74 -56 97q-27 12 -78 12h-94zM373 757h-127l-92 136h105l50 -81h2l50 81h105z
" />
    <glyph glyph-name="rcaron" unicode="&#x159;" horiz-adv-x="396" 
d="M195 0h-127v510h122v-90l-2 -35h2q18 58 62.5 95t99.5 37q2 0 24 -2v-125q-14 2 -31 2q-75 0 -112 -54q-38 -55 -38 -132v-206zM298 573h-127l-92 136h105l50 -81h2l50 81h105z" />
    <glyph glyph-name="Sacute" unicode="&#x15a;" horiz-adv-x="557" 
d="M35 85l70 97q37 -33 84.5 -54t91.5 -21q48 0 76 22.5t28 58.5q0 62 -117 111q-35 14 -58.5 24.5t-56.5 30.5t-52 41t-33.5 52.5t-13.5 68.5q0 92 68 149q69 57 174 57q126 0 208 -76l-57 -105q-31 28 -73.5 45t-82.5 17q-49 0 -78.5 -22t-29.5 -59q0 -62 116 -107
q36 -13 59.5 -23.5t56.5 -30t52 -40.5t33.5 -53t13.5 -70q0 -90 -63 -150t-173 -60q-146 0 -243 97zM326 757h-102l76 136h131z" />
    <glyph glyph-name="sacute" unicode="&#x15b;" horiz-adv-x="457" 
d="M27 63l57 84q62 -56 145 -56q34 0 52.5 13.5t18.5 37.5q0 36 -89 67q-32 10 -56.5 21.5t-52 30.5t-42 46.5t-13.5 61.5q0 72 55 112q56 41 140 41q107 0 172 -58l-47 -89q-22 19 -58.5 31.5t-70.5 12.5q-71 0 -71 -49q0 -36 89 -67q33 -10 57.5 -21t51.5 -29.5t41 -46
t14 -61.5q0 -68 -53 -113q-53 -44 -140 -44q-122 0 -200 75zM272 574h-102l76 136h131z" />
    <glyph glyph-name="Scircumflex" unicode="&#x15c;" horiz-adv-x="557" 
d="M35 85l70 97q37 -33 84.5 -54t91.5 -21q48 0 76 22.5t28 58.5q0 62 -117 111q-35 14 -58.5 24.5t-56.5 30.5t-52 41t-33.5 52.5t-13.5 68.5q0 92 68 149q69 57 174 57q126 0 208 -76l-57 -105q-31 28 -73.5 45t-82.5 17q-49 0 -78.5 -22t-29.5 -59q0 -62 116 -107
q36 -13 59.5 -23.5t56.5 -30t52 -40.5t33.5 -53t13.5 -70q0 -90 -63 -150t-173 -60q-146 0 -243 97zM229 757h-105l92 136h127l93 -136h-105l-50 81h-2z" />
    <glyph glyph-name="scircumflex" unicode="&#x15d;" horiz-adv-x="457" 
d="M27 63l57 84q62 -56 145 -56q34 0 52.5 13.5t18.5 37.5q0 36 -89 67q-32 10 -56.5 21.5t-52 30.5t-42 46.5t-13.5 61.5q0 72 55 112q56 41 140 41q107 0 172 -58l-47 -89q-22 19 -58.5 31.5t-70.5 12.5q-71 0 -71 -49q0 -36 89 -67q33 -10 57.5 -21t51.5 -29.5t41 -46
t14 -61.5q0 -68 -53 -113q-53 -44 -140 -44q-122 0 -200 75zM176 574h-105l92 136h127l93 -136h-105l-50 81h-2z" />
    <glyph glyph-name="Scedilla" unicode="&#x15e;" horiz-adv-x="558" 
d="M247 -84l-21 -2l21 76q-129 12 -212 95l70 97q37 -33 84.5 -54t91.5 -21q48 0 76 22.5t28 58.5q0 62 -117 111q-35 14 -58.5 24.5t-56.5 30.5t-52 41t-33.5 52.5t-13.5 68.5q0 92 68 149q69 57 174 57q126 0 208 -76l-57 -105q-31 28 -73.5 45t-82.5 17q-49 0 -78.5 -22
t-29.5 -59q0 -62 116 -107q36 -13 59.5 -23.5t56.5 -30t52 -40.5t33.5 -53t13.5 -70q0 -82 -54 -141q-53 -58 -149 -67l-7 -34q34 -4 53.5 -23.5t19.5 -52.5q0 -44 -30 -66t-78 -22q-34 0 -61 7v70q18 -8 43 -8q44 0 44 28q0 27 -48 27z" />
    <glyph glyph-name="scedilla" unicode="&#x15f;" horiz-adv-x="459" 
d="M190 -84l-21 -2l21 76q-100 12 -162 73l57 84q62 -56 145 -56q34 0 52.5 13.5t18.5 37.5q0 36 -89 67q-32 10 -56.5 21.5t-52 30.5t-42 46.5t-13.5 61.5q0 72 55 112q56 41 140 41q107 0 172 -58l-47 -89q-22 19 -58.5 31.5t-70.5 12.5q-71 0 -71 -49q0 -36 89 -67
q33 -11 57 -21.5t51.5 -29t42 -46t13.5 -61.5q0 -63 -46 -106t-121 -50l-7 -33q34 -4 53.5 -23.5t19.5 -52.5q0 -44 -30 -66t-78 -22q-34 0 -61 7v70q18 -8 43 -8q44 0 44 28q0 27 -48 27z" />
    <glyph glyph-name="Scaron" unicode="&#x160;" horiz-adv-x="557" 
d="M35 85l70 97q37 -33 84.5 -54t91.5 -21q48 0 76 22.5t28 58.5q0 62 -117 111q-35 14 -58.5 24.5t-56.5 30.5t-52 41t-33.5 52.5t-13.5 68.5q0 92 68 149q69 57 174 57q126 0 208 -76l-57 -105q-31 28 -73.5 45t-82.5 17q-49 0 -78.5 -22t-29.5 -59q0 -62 116 -107
q36 -13 59.5 -23.5t56.5 -30t52 -40.5t33.5 -53t13.5 -70q0 -90 -63 -150t-173 -60q-146 0 -243 97zM343 757h-127l-92 136h105l50 -81h2l50 81h105z" />
    <glyph glyph-name="scaron" unicode="&#x161;" horiz-adv-x="457" 
d="M27 63l57 84q62 -56 145 -56q34 0 52.5 13.5t18.5 37.5q0 36 -89 67q-32 10 -56.5 21.5t-52 30.5t-42 46.5t-13.5 61.5q0 72 55 112q56 41 140 41q107 0 172 -58l-47 -89q-22 19 -58.5 31.5t-70.5 12.5q-71 0 -71 -49q0 -36 89 -67q33 -10 57.5 -21t51.5 -29.5t41 -46
t14 -61.5q0 -68 -53 -113q-53 -44 -140 -44q-122 0 -200 75zM290 574h-127l-92 136h105l50 -81h2l50 81h105z" />
    <glyph glyph-name="Tcommaaccent" unicode="&#x162;" horiz-adv-x="622" 
d="M277 0h-30v599h-233v111h594v-111h-233v-599h-34l-10 -44q34 -4 53.5 -23.5t19.5 -52.5q0 -44 -30 -66t-78 -22q-34 0 -61 7v70q18 -8 43 -8q44 0 44 28q0 27 -48 27l-21 -2z" />
    <glyph glyph-name="tcommaaccent" unicode="&#x163;" horiz-adv-x="373" 
d="M176 -84l-21 -2l29 106q-91 46 -91 167v215h-66v101h69v146h124v-146h116v-101h-116v-199q0 -55 31 -76q32 -20 70 -20q9 0 23 2v-111q-30 -3 -39 -3q-27 0 -62 6l-10 -45q34 -4 53.5 -23.5t19.5 -52.5q0 -44 -30 -66t-78 -22q-34 0 -61 7v70q18 -8 43 -8q44 0 44 28
q0 27 -48 27z" />
    <glyph glyph-name="Tcaron" unicode="&#x164;" horiz-adv-x="622" 
d="M375 0h-128v599h-233v111h594v-111h-233v-599zM373 757h-127l-92 136h105l50 -81h2l50 81h105z" />
    <glyph glyph-name="tcaron" unicode="&#x165;" horiz-adv-x="373" 
d="M272 709h105q7 -25 7 -52q0 -39 -26 -93h-94q20 54 20 84t-12 61zM93 187v215h-66v101h69v146h124v-146h116v-101h-116v-199q0 -55 31 -76q32 -20 70 -20q9 0 23 2v-111q-30 -3 -39 -3q-56 0 -105 19q-107 41 -107 173z" />
    <glyph glyph-name="Tbar" unicode="&#x166;" horiz-adv-x="632" 
d="M380 0h-128v295h-151v96h151v208h-233v111h594v-111h-233v-208h156v-96h-156v-295z" />
    <glyph glyph-name="tbar" unicode="&#x167;" horiz-adv-x="377" 
d="M96 239h-74v84h74v79h-66v101h69v146h123v-146h116v-101h-116v-79h109v-84h-109v-42q0 -27 10.5 -46.5t27.5 -28t32.5 -12t31.5 -3.5l23 2v-111q-17 -3 -39 -3q-56 0 -105 19q-107 41 -107 173v52z" />
    <glyph glyph-name="Utilde" unicode="&#x168;" horiz-adv-x="728" 
d="M269 758h-87q0 137 112 137q32 0 72.5 -32.5t53.5 -32.5q39 0 39 62h86q0 -137 -112 -137q-33 0 -73 32.5t-53 32.5q-38 0 -38 -62zM78 255v455h129v-454q0 -71 42 -110.5t115 -39.5t115 39.5t42 110.5v454h129v-455q0 -120 -79 -193q-79 -74 -206 -74q-128 0 -208 74
q-79 73 -79 193z" />
    <glyph glyph-name="utilde" unicode="&#x169;" horiz-adv-x="607" 
d="M63 182v328h127v-302q0 -53 18 -78.5t61 -25.5q66 0 104 50q39 49 39 122v234h126v-510h-122v60l3 35h-2q-21 -45 -70 -76t-107 -31q-177 0 -177 194zM206 575h-87q0 137 112 137q23 0 42.5 -10t30.5 -22.5t25.5 -22.5t27.5 -10q39 0 39 62h86q0 -137 -112 -137
q-23 0 -42.5 10t-30.5 22.5t-25.5 22.5t-27.5 10q-38 0 -38 -62z" />
    <glyph glyph-name="Umacron" unicode="&#x16a;" horiz-adv-x="728" 
d="M78 255v455h129v-454q0 -71 42 -110.5t115 -39.5t115 39.5t42 110.5v454h129v-455q0 -120 -79 -193q-79 -74 -206 -74q-128 0 -208 74q-79 73 -79 193zM495 783h-262v87h262v-87z" />
    <glyph glyph-name="umacron" unicode="&#x16b;" horiz-adv-x="607" 
d="M63 182v328h127v-302q0 -53 18 -78.5t61 -25.5q66 0 104 50q39 49 39 122v234h126v-510h-122v60l3 35h-2q-21 -45 -70 -76t-107 -31q-177 0 -177 194zM432 600h-262v87h262v-87z" />
    <glyph glyph-name="Ubreve" unicode="&#x16c;" horiz-adv-x="728" 
d="M364 753q-65 0 -107 34.5t-42 93.5v12h90v-12q0 -28 16.5 -43.5t42.5 -15.5q24 0 41 16t17 44v11h90v-12q0 -59 -42 -93.5t-106 -34.5zM78 255v455h129v-454q0 -71 42 -110.5t115 -39.5t115 39.5t42 110.5v454h129v-455q0 -120 -79 -193q-79 -74 -206 -74q-128 0 -208 74
q-79 73 -79 193z" />
    <glyph glyph-name="ubreve" unicode="&#x16d;" horiz-adv-x="607" 
d="M63 182v328h127v-302q0 -53 18 -78.5t61 -25.5q66 0 104 50q39 49 39 122v234h126v-510h-122v60l3 35h-2q-21 -45 -70 -76t-107 -31q-177 0 -177 194zM301 570q-65 0 -107 34.5t-42 93.5v12h90v-12q0 -28 16.5 -43.5t42.5 -15.5q24 0 41 16t17 44v11h90v-12
q0 -59 -42 -93.5t-106 -34.5z" />
    <glyph glyph-name="Uring" unicode="&#x16e;" horiz-adv-x="728" 
d="M364 745q-40 0 -67.5 21.5t-27.5 56.5q0 36 27.5 57.5t67.5 21.5t67 -21.5t27 -57.5q0 -35 -27.5 -56.5t-66.5 -21.5zM364 789q15 0 24.5 9.5t9.5 24.5q0 22 -17 31t-34 0t-17 -31q0 -15 9 -24.5t25 -9.5zM78 255v455h129v-454q0 -71 42 -110.5t115 -39.5t115 39.5
t42 110.5v454h129v-455q0 -120 -79 -193q-79 -74 -206 -74q-128 0 -208 74q-79 73 -79 193z" />
    <glyph glyph-name="uring" unicode="&#x16f;" horiz-adv-x="607" 
d="M63 182v328h127v-302q0 -53 18 -78.5t61 -25.5q66 0 104 50q39 49 39 122v234h126v-510h-122v60l3 35h-2q-21 -45 -70 -76t-107 -31q-177 0 -177 194zM301 562q-40 0 -67.5 21.5t-27.5 56.5q0 36 27.5 57.5t67.5 21.5t67 -21.5t27 -57.5q0 -35 -27.5 -56.5t-66.5 -21.5z
M301 606q15 0 24.5 9.5t9.5 24.5q0 22 -17 31t-34 0t-17 -31q0 -15 9 -24.5t25 -9.5z" />
    <glyph glyph-name="Uhungarumlaut" unicode="&#x170;" horiz-adv-x="728" 
d="M78 255v455h129v-454q0 -71 42 -110.5t115 -39.5t115 39.5t42 110.5v454h129v-455q0 -120 -79 -193q-79 -74 -206 -74q-128 0 -208 74q-79 73 -79 193zM484 757h-97l76 136h125zM317 757h-105l71 136h108z" />
    <glyph glyph-name="uhungarumlaut" unicode="&#x171;" horiz-adv-x="607" 
d="M63 182v328h127v-302q0 -53 18 -78.5t61 -25.5q66 0 104 50q39 49 39 122v234h126v-510h-122v60l3 35h-2q-21 -45 -70 -76t-107 -31q-177 0 -177 194zM421 574h-97l76 136h125zM254 574h-105l71 136h108z" />
    <glyph glyph-name="Uogonek" unicode="&#x172;" horiz-adv-x="729" 
d="M79 255v455h128v-454q0 -71 42.5 -110.5t115.5 -39.5t115 39.5t42 110.5v454h128v-455q0 -62 -22 -110q-23 -50 -47 -72q-24 -23 -63 -51q-65 -47 -80 -65q-14 -19 -14 -35q0 -13 11 -22t25 -12l13 -2l-31 -94q-12 0 -43 10q-33 9 -56.5 30t-23.5 56q0 59 57 101
q-7 -1 -19 -1q-114 0 -196 70t-82 197z" />
    <glyph glyph-name="uogonek" unicode="&#x173;" horiz-adv-x="607" 
d="M63 182v328h127v-302q0 -53 18 -78.5t61 -25.5q66 0 104 50q39 49 39 122v234h126v-510q-56 -47 -56 -78q0 -13 11 -22t25 -12l13 -2l-31 -94q-11 0 -42 10q-80 24 -80 86q0 60 67 112h-29v60l3 35h-2q-21 -45 -70 -76t-107 -31q-177 0 -177 194z" />
    <glyph glyph-name="Wcircumflex" unicode="&#x174;" horiz-adv-x="956" 
d="M347 0h-147l-177 710h135l110 -491l12 -75h2q4 34 15 75l127 491h108l126 -491l15 -75h2q1 32 11 75l118 491h133l-184 -710h-145l-111 420l-18 93h-3q-8 -52 -19 -93zM429 757h-105l92 136h127l93 -136h-105l-50 81h-2z" />
    <glyph glyph-name="wcircumflex" unicode="&#x175;" horiz-adv-x="831" 
d="M316 0h-142l-155 510h134l89 -335l10 -54h2q4 27 12 54l94 334h113l94 -334l11 -54h2q3 24 11 54l89 335h132l-155 -510h-141l-86 291l-13 55h-2q-4 -27 -12 -55zM365 574h-105l92 136h127l93 -136h-105l-50 81h-2z" />
    <glyph glyph-name="Ycircumflex" unicode="&#x176;" horiz-adv-x="606" 
d="M367 0h-128v297l-237 413h146l111 -209l43 -95h2q24 58 43 95l110 209h146l-236 -413v-297zM252 757h-105l92 136h127l93 -136h-105l-50 81h-2z" />
    <glyph glyph-name="ycircumflex" unicode="&#x177;" horiz-adv-x="545" 
d="M13 -177l42 95q29 -21 56 -21q61 0 89 66l19 45l-215 502h143l107 -294l19 -69h2q6 29 17 67l100 296h138l-227 -587q-24 -65 -73 -99t-111 -34q-56 0 -93 24zM223 573h-105l92 136h127l93 -136h-105l-50 81h-2z" />
    <glyph glyph-name="Ydieresis" unicode="&#x178;" horiz-adv-x="606" 
d="M367 0h-128v297l-237 413h146l111 -209l43 -95h2q24 58 43 95l110 209h146l-236 -413v-297zM441 777h-97v116h97v-116zM258 777h-98v116h98v-116z" />
    <glyph glyph-name="Zacute" unicode="&#x179;" horiz-adv-x="610" 
d="M570 0h-534v83l315 452q24 36 45 57l7 7v2q-26 -2 -53 -2h-298v111h513v-82l-315 -453q-24 -36 -45 -57l-7 -7v-2q26 2 53 2h319v-111zM363 757h-102l76 136h131z" />
    <glyph glyph-name="zacute" unicode="&#x17a;" horiz-adv-x="524" 
d="M486 0h-451v68l230 287q13 17 37 41l6 6v2q-20 -2 -48 -2h-215v108h434v-69l-229 -287q-13 -17 -38 -42l-6 -5v-2q15 3 48 3h232v-108zM304 574h-102l76 136h131z" />
    <glyph glyph-name="Zdotaccent" unicode="&#x17b;" horiz-adv-x="610" 
d="M570 0h-534v83l315 452q24 36 45 57l7 7v2q-26 -2 -53 -2h-298v111h513v-82l-315 -453q-24 -36 -45 -57l-7 -7v-2q26 2 53 2h319v-111zM370 782h-108v111h108v-111z" />
    <glyph glyph-name="zdotaccent" unicode="&#x17c;" horiz-adv-x="524" 
d="M486 0h-451v68l230 287q13 17 37 41l6 6v2q-20 -2 -48 -2h-215v108h434v-69l-229 -287q-13 -17 -38 -42l-6 -5v-2q15 3 48 3h232v-108zM312 599h-108v111h108v-111z" />
    <glyph glyph-name="Zcaron" unicode="&#x17d;" horiz-adv-x="610" 
d="M570 0h-534v83l315 452q24 36 45 57l7 7v2q-26 -2 -53 -2h-298v111h513v-82l-315 -453q-24 -36 -45 -57l-7 -7v-2q26 2 53 2h319v-111zM379 757h-127l-92 136h105l50 -81h2l50 81h105z" />
    <glyph glyph-name="zcaron" unicode="&#x17e;" horiz-adv-x="524" 
d="M486 0h-451v68l230 287q13 17 37 41l6 6v2q-20 -2 -48 -2h-215v108h434v-69l-229 -287q-13 -17 -38 -42l-6 -5v-2q15 3 48 3h232v-108zM321 574h-127l-92 136h105l50 -81h2l50 81h105z" />
    <glyph glyph-name="longs" unicode="&#x17f;" horiz-adv-x="312" 
d="M224 0h-127v402h-63v101h63v22q0 92 53 138q62 53 156 51l43 -3v-108q-14 2 -26 2q-99 0 -99 -85v-520z" />
    <glyph glyph-name="florin" unicode="&#x192;" horiz-adv-x="586" 
d="M31 -110v108q45 -6 68 -6q97 0 105 92l22 250h-74v101h82l10 97q7 93 64 139q67 53 161 51l85 -8v-108q-49 7 -78 7q-97 0 -106 -93l-9 -85h109v-101h-117l-23 -262q-5 -58 -29.5 -98.5t-62.5 -59.5q-63 -31 -132 -31z" />
    <glyph glyph-name="Scommaaccent" unicode="&#x218;" horiz-adv-x="557" 
d="M35 85l70 97q37 -33 84.5 -54t91.5 -21q48 0 76 22.5t28 58.5q0 62 -117 111q-35 14 -58.5 24.5t-56.5 30.5t-52 41t-33.5 52.5t-13.5 68.5q0 92 68 149q69 57 174 57q126 0 208 -76l-57 -105q-31 28 -73.5 45t-82.5 17q-49 0 -78.5 -22t-29.5 -59q0 -62 116 -107
q36 -13 59.5 -23.5t56.5 -30t52 -40.5t33.5 -53t13.5 -70q0 -90 -63 -150t-173 -60q-146 0 -243 97zM218 -55h105q7 -27 7 -54q0 -42 -26 -97h-94q20 54 20 87t-12 64z" />
    <glyph glyph-name="scommaaccent" unicode="&#x219;" horiz-adv-x="457" 
d="M27 63l57 84q62 -56 145 -56q34 0 52.5 13.5t18.5 37.5q0 36 -89 67q-32 10 -56.5 21.5t-52 30.5t-42 46.5t-13.5 61.5q0 72 55 112q56 41 140 41q107 0 172 -58l-47 -89q-22 19 -58.5 31.5t-70.5 12.5q-71 0 -71 -49q0 -36 89 -67q33 -10 57.5 -21t51.5 -29.5t41 -46
t14 -61.5q0 -68 -53 -113q-53 -44 -140 -44q-122 0 -200 75zM168 -55h105q7 -27 7 -54q0 -42 -26 -97h-94q20 54 20 87t-12 64z" />
    <glyph glyph-name="uni021A" unicode="&#x21a;" horiz-adv-x="622" 
d="M375 0h-128v599h-233v111h594v-111h-233v-599zM252 -55h105q7 -27 7 -54q0 -42 -26 -97h-94q20 54 20 87t-12 64z" />
    <glyph glyph-name="uni021B" unicode="&#x21b;" horiz-adv-x="373" 
d="M93 187v215h-66v101h69v146h124v-146h116v-101h-116v-199q0 -55 31 -76q32 -20 70 -20q9 0 23 2v-111q-30 -3 -39 -3q-56 0 -105 19q-107 41 -107 173zM164 -55h105q7 -27 7 -54q0 -42 -26 -97h-94q20 54 20 87t-12 64z" />
    <glyph glyph-name="circumflex" unicode="&#x2c6;" horiz-adv-x="494" 
d="M196 757h-105l92 136h127l93 -136h-105l-50 81h-2z" />
    <glyph glyph-name="caron" unicode="&#x2c7;" horiz-adv-x="494" 
d="M310 757h-127l-92 136h105l50 -81h2l50 81h105z" />
    <glyph glyph-name="breve" unicode="&#x2d8;" horiz-adv-x="493" 
d="M247 753q-65 0 -107 34.5t-42 93.5v12h90v-12q0 -28 16.5 -43.5t42.5 -15.5q24 0 41 16t17 44v11h90v-12q0 -59 -42 -93.5t-106 -34.5z" />
    <glyph glyph-name="dotaccent" unicode="&#x2d9;" horiz-adv-x="494" 
d="M301 782h-108v111h108v-111z" />
    <glyph glyph-name="ring" unicode="&#x2da;" horiz-adv-x="494" 
d="M247 745q-40 0 -67.5 21.5t-27.5 56.5q0 36 27.5 57.5t67.5 21.5t67 -21.5t27 -57.5q0 -35 -27.5 -56.5t-66.5 -21.5zM247 789q15 0 24.5 9.5t9.5 24.5q0 22 -17 31t-34 0t-17 -31q0 -15 9 -24.5t25 -9.5z" />
    <glyph glyph-name="ogonek" unicode="&#x2db;" horiz-adv-x="494" 
d="M160 -112q0 36 25 70q24 33 51 50l26 17l72 -13l-20 -16q-13 -13 -30 -34q-19 -23 -19 -40q0 -13 11.5 -22t25.5 -12l12 -2l-31 -94q-12 0 -43 10q-33 9 -56.5 30t-23.5 56z" />
    <glyph glyph-name="tilde" unicode="&#x2dc;" horiz-adv-x="493" 
d="M152 758h-87q0 137 112 137q32 0 72.5 -32.5t53.5 -32.5q39 0 39 62h86q0 -137 -112 -137q-33 0 -73 32.5t-53 32.5q-38 0 -38 -62z" />
    <glyph glyph-name="hungarumlaut" unicode="&#x2dd;" horiz-adv-x="493" 
d="M331 757h-97l76 136h125zM164 757h-105l71 136h108z" />
    <glyph glyph-name="uni0400" unicode="&#x400;" horiz-adv-x="569" 
d="M527 0h-441v710h425v-111h-296v-186h239v-111h-239v-191h312v-111zM380 757h-103l-104 136h131z" />
    <glyph glyph-name="uni0401" unicode="&#x401;" horiz-adv-x="569" 
d="M527 0h-441v710h425v-111h-296v-186h239v-111h-239v-191h312v-111zM445 777h-97v116h97v-116zM262 777h-98v116h98v-116z" />
    <glyph glyph-name="uni0402" unicode="&#x402;" horiz-adv-x="746" 
d="M329 0h-129v599h-186v111h541v-111h-226v-164l-2 -31h2q81 38 173 38q100 0 158 -61q59 -61 59 -156q0 -105 -62 -172q-62 -65 -162 -65q-24 0 -48 3v107q22 -2 31 -2q47 0 79.5 30.5t32.5 88.5q0 52 -31 82.5t-87 30.5q-69 0 -126 -26l-17 -9v-293z" />
    <glyph glyph-name="uni0403" unicode="&#x403;" horiz-adv-x="506" 
d="M215 0h-129v710h408v-111h-279v-599zM318 757h-102l76 136h131z" />
    <glyph glyph-name="uni0404" unicode="&#x404;" horiz-adv-x="716" 
d="M45 358q0 156 101 260t264 104q97 0 167 -34q61 -29 85 -53l10 -10l-62 -96q-9 9 -36 26q-73 50 -158 50q-94 0 -158 -56q-62 -55 -76 -141h340v-105h-340q13 -87 75 -143q61 -55 160 -55q55 0 107 21q55 23 78 44l25 21l65 -91q-9 -13 -47 -39q-23 -17 -56 -34
q-78 -39 -177 -39q-161 0 -264 106t-103 264z" />
    <glyph glyph-name="uni0405" unicode="&#x405;" horiz-adv-x="557" 
d="M35 85l70 97q37 -33 84.5 -54t91.5 -21q48 0 76 22.5t28 58.5q0 62 -117 111q-35 14 -58.5 24.5t-56.5 30.5t-52 41t-33.5 52.5t-13.5 68.5q0 92 68 149q69 57 174 57q126 0 208 -76l-57 -105q-31 28 -73.5 45t-82.5 17q-49 0 -78.5 -22t-29.5 -59q0 -62 116 -107
q36 -13 59.5 -23.5t56.5 -30t52 -40.5t33.5 -53t13.5 -70q0 -90 -63 -150t-173 -60q-146 0 -243 97z" />
    <glyph glyph-name="uni0406" unicode="&#x406;" horiz-adv-x="301" 
d="M215 0h-129v710h129v-710z" />
    <glyph glyph-name="uni0407" unicode="&#x407;" horiz-adv-x="301" 
d="M215 0h-129v710h129v-710zM292 777h-97v116h97v-116zM109 777h-98v116h98v-116z" />
    <glyph glyph-name="uni0408" unicode="&#x408;" horiz-adv-x="546" 
d="M24 210v41h128v-33q0 -50 23.5 -81t69.5 -31q43 0 68 27t25 79v387h-184v111h312v-500q0 -109 -66 -166q-65 -56 -155 -56q-91 0 -156 57t-65 165z" />
    <glyph glyph-name="uni0409" unicode="&#x409;" horiz-adv-x="970" 
d="M19 -6v118q80 8 114 94q35 90 35 281v223h421v-279h131q102 0 163 -60q63 -59 63 -156q0 -96 -63 -156q-64 -59 -161 -59h-261v599h-163v-112q0 -232 -53 -353q-60 -133 -226 -140zM589 320v-209h111q53 0 84 28t31 76t-31.5 76.5t-85.5 28.5h-109z" />
    <glyph glyph-name="uni040A" unicode="&#x40a;" horiz-adv-x="1019" 
d="M215 0h-129v710h129v-282h294v282h128v-282h135q99 0 161 -59t62 -155q0 -95 -63 -155q-62 -59 -160 -59h-263v317h-294v-317zM637 317v-206h112q53 0 84 27.5t31 75.5q0 47 -31.5 75t-85.5 28h-110z" />
    <glyph glyph-name="uni040B" unicode="&#x40b;" horiz-adv-x="748" 
d="M329 0h-129v599h-186v111h540v-111h-225v-165l-2 -33h2q85 41 175 41q100 0 151 -57.5t51 -161.5v-223h-131v204q0 124 -112 124q-73 0 -134 -38v-290z" />
    <glyph glyph-name="uni040C" unicode="&#x40c;" horiz-adv-x="638" 
d="M215 0h-129v710h129v-289h92l167 289h140l-201 -338v-2l213 -370h-146l-173 310h-92v-310zM379 757h-102l76 136h131z" />
    <glyph glyph-name="uni040D" unicode="&#x40d;" horiz-adv-x="753" 
d="M214 0h-128v710h129v-410l-7 -110h2q34 69 60 111l268 409h128v-710h-128v409l7 110h-2q-32 -66 -59 -110zM439 757h-103l-104 136h131z" />
    <glyph glyph-name="uni040E" unicode="&#x40e;" horiz-adv-x="612" 
d="M67 37l57 97q46 -35 80 -35q47 0 71 62l-278 549h142l151 -317l40 -94h2q18 62 29 93l114 318h135l-219 -561q-25 -65 -63 -108q-47 -53 -119 -53t-142 49zM146 880v13h97v-13q-2 -39 32.5 -55.5t69 0t33.5 56.5v12h96v-13q0 -64 -48 -101q-47 -37 -116 -37t-116 37
q-48 37 -48 101z" />
    <glyph glyph-name="uni040F" unicode="&#x40f;" horiz-adv-x="737" 
d="M311 0h-225v710h129v-599h307v599h129v-710h-224v-140h-116v140z" />
    <glyph glyph-name="uni0410" unicode="&#x410;" horiz-adv-x="650" 
d="M140 0h-132l249 710h136l249 -710h-132l-61 182h-249zM296 477l-64 -190h185l-63 190l-28 110h-2q-17 -74 -28 -110z" />
    <glyph glyph-name="uni0411" unicode="&#x411;" horiz-adv-x="616" 
d="M360 0h-274v710h436v-111h-307v-164h142q99 0 160 -60q62 -59 62 -159q0 -96 -61 -156q-62 -60 -158 -60zM215 324v-213h122q53 0 82 28t29 77t-30 78.5t-83 29.5h-120z" />
    <glyph glyph-name="uni0412" unicode="&#x412;" horiz-adv-x="633" 
d="M343 0h-257v710h253q100 0 160 -49t60 -134q0 -50 -23 -90t-63 -62v-2q54 -15 84.5 -61.5t30.5 -105.5q0 -102 -70 -154t-175 -52zM215 599v-179h125q41 0 64.5 25.5t23.5 65.5t-24 64t-66 24h-123zM215 316v-205h138q47 0 75 28.5t28 74.5t-28 74t-75 28h-138z" />
    <glyph glyph-name="uni0413" unicode="&#x413;" horiz-adv-x="506" 
d="M215 0h-129v710h408v-111h-279v-599z" />
    <glyph glyph-name="uni0414" unicode="&#x414;" horiz-adv-x="740" 
d="M212 111h282v488h-190v-53q0 -286 -92 -435zM7 -140v251h72q103 155 103 444v155h441v-599h79v-251h-115v140h-461v-140h-119z" />
    <glyph glyph-name="uni0415" unicode="&#x415;" horiz-adv-x="569" 
d="M527 0h-441v710h425v-111h-296v-186h239v-111h-239v-191h312v-111z" />
    <glyph glyph-name="uni0416" unicode="&#x416;" horiz-adv-x="932" 
d="M158 0h-145l200 370v2l-185 338h139l152 -289h83v289h128v-289h83l152 289h139l-186 -338v-2l201 -370h-145l-161 310h-83v-310h-128v310h-83z" />
    <glyph glyph-name="uni0417" unicode="&#x417;" horiz-adv-x="555" 
d="M22 89l70 86q31 -32 74 -52.5t86 -20.5q58 0 92 29t34 80q0 46 -30.5 72.5t-82.5 26.5h-87v104h70q48 0 79 28t31 70q0 44 -28.5 71t-80.5 27q-81 0 -154 -60l-52 94q95 78 228 78q92 0 154 -52q64 -52 64 -142q0 -105 -98 -158v-2q56 -18 87.5 -61t31.5 -104
q0 -98 -71 -157q-70 -58 -175 -58q-69 0 -133 26.5t-109 74.5z" />
    <glyph glyph-name="uni0418" unicode="&#x418;" horiz-adv-x="753" 
d="M214 0h-128v710h129v-410l-7 -110h2q34 69 60 111l268 409h128v-710h-128v409l7 110h-2q-32 -66 -59 -110z" />
    <glyph glyph-name="uni0419" unicode="&#x419;" horiz-adv-x="753" 
d="M214 0h-128v710h129v-410l-7 -110h2q34 69 60 111l268 409h128v-710h-128v409l7 110h-2q-32 -66 -59 -110zM218 880v13h97v-13q-2 -39 32.5 -55.5t69 0t33.5 56.5v12h96v-13q0 -64 -48 -101q-47 -37 -116 -37t-116 37q-48 37 -48 101z" />
    <glyph glyph-name="uni041A" unicode="&#x41a;" horiz-adv-x="638" 
d="M215 0h-129v710h129v-289h92l167 289h140l-201 -338v-2l213 -370h-146l-173 310h-92v-310z" />
    <glyph glyph-name="uni041B" unicode="&#x41b;" horiz-adv-x="692" 
d="M14 -8v118q80 11 116.5 107t36.5 299v194h439v-710h-129v599h-187v-85q0 -264 -65.5 -390.5t-210.5 -131.5z" />
    <glyph glyph-name="uni041C" unicode="&#x41c;" horiz-adv-x="860" 
d="M188 0h-129l58 710h137l140 -351l35 -104h2q25 77 35 104l140 351h137l58 -710h-129l-29 397q-4 33 -1 93v17h-2q-23 -72 -39 -110l-115 -275h-112l-115 275l-39 111h-2q3 -68 -1 -111z" />
    <glyph glyph-name="uni041D" unicode="&#x41d;" horiz-adv-x="754" 
d="M215 0h-129v710h129v-301h325v301h128v-710h-128v298h-325v-298z" />
    <glyph glyph-name="uni041E" unicode="&#x41e;" horiz-adv-x="822" 
d="M44 360q0 154 105 257q107 105 262 105q156 0 261 -105q106 -103 106 -257q0 -158 -106 -265q-105 -107 -261 -107q-155 0 -262 107q-105 108 -105 265zM177 360q0 -107 68 -181q67 -73 166 -73t166 73q68 74 68 181q0 102 -68 173t-166 71t-166 -71t-68 -173z" />
    <glyph glyph-name="uni041F" unicode="&#x41f;" horiz-adv-x="747" 
d="M215 0h-129v710h575v-710h-129v599h-317v-599z" />
    <glyph glyph-name="uni0420" unicode="&#x420;" horiz-adv-x="612" 
d="M215 0h-129v710h274q100 0 163 -64t63 -167t-63 -169q-63 -65 -163 -65h-145v-245zM215 599v-242h121q56 0 87.5 32.5t31.5 89.5q0 55 -31.5 87.5t-85.5 32.5h-123z" />
    <glyph glyph-name="uni0421" unicode="&#x421;" horiz-adv-x="716" 
d="M45 358q0 157 103 260q104 104 262 104q162 0 262 -97l-62 -96q-40 34 -92.5 54.5t-101.5 20.5q-112 0 -175 -70t-63 -174q0 -106 64 -180q65 -74 175 -74q115 0 206 90l68 -93q-112 -115 -279 -115q-165 0 -266 105q-101 106 -101 265z" />
    <glyph glyph-name="uni0422" unicode="&#x422;" horiz-adv-x="623" 
d="M375 0h-128v599h-233v111h594v-111h-233v-599z" />
    <glyph glyph-name="uni0423" unicode="&#x423;" horiz-adv-x="612" 
d="M67 37l57 97q46 -35 80 -35q47 0 71 62l-278 549h142l151 -317l40 -94h2q18 62 29 93l114 318h135l-219 -561q-25 -65 -63 -108q-47 -53 -119 -53t-142 49z" />
    <glyph glyph-name="uni0424" unicode="&#x424;" horiz-adv-x="845" 
d="M33 378q0 130 90 212q91 82 235 82v78h129v-78q145 0 234 -82q91 -82 91 -212q0 -133 -90 -217q-91 -83 -235 -83v-90h-129v90q-144 0 -235 84q-90 84 -90 216zM487 564v-378q85 0 140 53q54 54 54 139q0 83 -54 134q-53 52 -140 52zM165 378q0 -84 53 -139
q55 -53 140 -53v378q-87 0 -140 -52q-53 -51 -53 -134z" />
    <glyph glyph-name="uni0425" unicode="&#x425;" horiz-adv-x="622" 
d="M156 0h-143l220 360l-212 350h147l98 -174l44 -86h2q19 42 44 86l99 174h147l-213 -350l221 -360h-144l-111 191l-44 84h-2q-15 -34 -43 -84z" />
    <glyph glyph-name="uni0426" unicode="&#x426;" horiz-adv-x="771" 
d="M620 0h-534v710h129v-599h307v599h129v-599h84v-251h-115v140z" />
    <glyph glyph-name="uni0427" unicode="&#x427;" horiz-adv-x="660" 
d="M263 264q-108 0 -162.5 55t-54.5 158v233h131v-204q0 -125 119 -125q82 0 146 42v287h131v-710h-131v275l2 33h-2q-86 -44 -179 -44z" />
    <glyph glyph-name="uni0428" unicode="&#x428;" horiz-adv-x="1017" 
d="M930 0h-844v710h129v-599h229v599h129v-599h229v599h128v-710z" />
    <glyph glyph-name="uni0429" unicode="&#x429;" horiz-adv-x="1053" 
d="M902 0h-816v710h129v-599h229v599h129v-599h229v599h128v-599h88v-251h-116v140z" />
    <glyph glyph-name="uni042A" unicode="&#x42a;" horiz-adv-x="706" 
d="M459 0h-270v599h-182v111h311v-249h139q99 0 160 -64q62 -64 62 -168q0 -102 -61 -166q-62 -63 -159 -63zM318 350v-239h118q53 0 82.5 31.5t29.5 86.5t-30.5 88t-83.5 33h-116z" />
    <glyph glyph-name="uni042B" unicode="&#x42b;" horiz-adv-x="876" 
d="M789 0h-128v710h128v-710zM350 0h-264v710h129v-249h132q99 0 160 -64q62 -64 62 -168q0 -102 -61 -166q-62 -63 -158 -63zM215 350v-239h112q53 0 82 31.5t29 86.5t-30 88t-83 33h-110z" />
    <glyph glyph-name="uni042C" unicode="&#x42c;" horiz-adv-x="603" 
d="M356 0h-270v710h129v-249h139q99 0 160 -64q62 -64 62 -168q0 -102 -61 -166q-61 -63 -159 -63zM215 350v-239h118q53 0 82.5 31.5t29.5 86.5t-30.5 88t-83.5 33h-116z" />
    <glyph glyph-name="uni042D" unicode="&#x42d;" horiz-adv-x="716" 
d="M28 97l65 91q40 -38 96 -60.5t115 -22.5q94 0 156 56q61 55 75 142h-340v105h341q-10 85 -74 141t-157 56q-110 0 -202 -80l-62 97q47 48 118 74t150 26q162 0 263 -104q100 -103 100 -259q0 -158 -104 -265q-103 -106 -264 -106q-163 0 -276 109z" />
    <glyph glyph-name="uni042E" unicode="&#x42e;" horiz-adv-x="1083" 
d="M215 0h-129v710h129v-301h110q17 136 115 224q100 89 239 89q153 0 256 -105q104 -104 104 -257q0 -156 -104 -265q-104 -107 -256 -107q-137 0 -235 87q-98 89 -117 223h-112v-298zM453 360q0 -107 65 -181q66 -73 161 -73t161 73q66 74 66 181q0 102 -66 173
q-66 70 -161 70t-161 -70q-65 -71 -65 -173z" />
    <glyph glyph-name="uni042F" unicode="&#x42f;" horiz-adv-x="634" 
d="M161 0h-144l150 250l23 37v2q-62 27 -94 81t-32 125q0 70 32 121t87 75q42 19 135 19h230v-710h-129v265h-104zM307 373h112v226h-91q-60 0 -89 -18q-44 -27 -44 -91q0 -56 30 -86.5t82 -30.5z" />
    <glyph glyph-name="uni0430" unicode="&#x430;" horiz-adv-x="536" 
d="M29 141q0 53 29 91t78 56q87 32 190 32h22v7q0 90 -96 90q-71 0 -142 -49l-47 91q34 26 89 44q54 19 111 19q100 0 156 -53.5t56 -149.5v-319h-118v43l3 37h-2q-24 -42 -67.5 -67t-93.5 -25q-71 0 -120 42q-48 44 -48 111zM155 152q0 -28 21 -47.5t56 -19.5q51 0 84 42
t33 92v14h-22q-172 0 -172 -81z" />
    <glyph glyph-name="uni0431" unicode="&#x431;" horiz-adv-x="596" 
d="M46 298q0 146 57 233t194 140l176 69l38 -103l-194 -74q-72 -30 -108.5 -70.5t-40.5 -100.5h2q59 74 168 74q98 0 158 -64t60 -170q0 -107 -69 -176q-70 -68 -181 -68q-128 0 -194 84q-66 86 -66 226zM175 231q0 -63 36 -101q36 -37 90 -37t90 37q37 37 37 100
q0 62 -35.5 100t-89.5 38q-55 0 -91.5 -38.5t-36.5 -98.5z" />
    <glyph glyph-name="uni0432" unicode="&#x432;" horiz-adv-x="538" 
d="M310 0h-242v510h237q80 0 126 -35t46 -97q0 -37 -17.5 -67t-49.5 -45v-1q43 -11 66.5 -43t23.5 -74q0 -71 -51.5 -109.5t-138.5 -38.5zM195 427v-127h83q34 0 52.5 18t18.5 49q0 60 -73 60h-81zM195 221v-137h93q40 0 62 18.5t22 49.5q0 32 -22 50.5t-62 18.5h-93z" />
    <glyph glyph-name="uni0433" unicode="&#x433;" horiz-adv-x="422" 
d="M195 0h-127v510h335v-108h-208v-402z" />
    <glyph glyph-name="uni0434" unicode="&#x434;" horiz-adv-x="616" 
d="M203 102h189v306h-127v-24q0 -178 -62 -282zM13 -120v222h63q68 101 68 302v106h375v-408h73v-222h-115v120h-346v-120h-118z" />
    <glyph glyph-name="uni0435" unicode="&#x435;" horiz-adv-x="561" 
d="M37 255q0 119 72 192q73 75 188 75q106 0 166 -69q60 -67 60 -173q0 -21 -4 -49h-351q6 -63 48.5 -99t104.5 -36q75 0 146 56l50 -91q-38 -34 -93.5 -53.5t-111.5 -19.5q-122 0 -199 77q-76 77 -76 190zM171 318h225q-1 50 -29 79t-73 29q-48 0 -81 -29.5t-42 -78.5z" />
    <glyph glyph-name="uni0436" unicode="&#x436;" horiz-adv-x="785" 
d="M152 0h-139l156 262v2l-143 246h132l113 -198h62v198h119v-198h62l113 198h132l-142 -246v-2l156 -262h-140l-117 205h-64v-205h-119v205h-64z" />
    <glyph glyph-name="uni0437" unicode="&#x437;" horiz-adv-x="458" 
d="M22 63l54 81q59 -58 129 -58q41 0 64.5 18.5t23.5 50.5q0 63 -85 63h-62v88h52q79 0 79 59q0 61 -76 61q-60 0 -123 -42l-41 81q76 57 188 57q79 0 129 -38t50 -102q0 -82 -70 -115v-2q86 -32 86 -117q0 -76 -57 -118t-144 -42q-117 0 -197 75z" />
    <glyph glyph-name="uni0438" unicode="&#x438;" horiz-adv-x="606" 
d="M191 0h-123v510h121v-273q0 -37 -3 -61h2q7 13 38 61l189 273h123v-510h-121v272q0 22 3 61h-2q-2 -4 -38 -61z" />
    <glyph glyph-name="uni0439" unicode="&#x439;" horiz-adv-x="606" 
d="M191 0h-123v510h121v-273q0 -37 -3 -61h2q7 13 38 61l189 273h123v-510h-121v272q0 22 3 61h-2q-2 -4 -38 -61zM139 697v13h97v-13q-2 -39 32.5 -55.5t69 0t33.5 56.5v12h96v-13q0 -63 -48 -101q-47 -37 -116 -37t-116 37q-48 38 -48 101z" />
    <glyph glyph-name="uni043A" unicode="&#x43a;" horiz-adv-x="549" 
d="M195 0h-127v510h127v-195h62l124 195h141l-162 -243v-2l182 -265h-147l-134 207h-66v-207z" />
    <glyph glyph-name="uni043B" unicode="&#x43b;" horiz-adv-x="567" 
d="M20 -5v112q54 7 80.5 63.5t26.5 179.5v160h372v-510h-127v407h-124v-57q0 -177 -54 -264t-174 -91z" />
    <glyph glyph-name="uni043C" unicode="&#x43c;" horiz-adv-x="743" 
d="M169 0h-122l46 510h144l108 -263l25 -65h2l25 65l110 263h142l46 -510h-122l-18 276l1 87h-2q-14 -40 -30 -74l-100 -225h-105l-100 224l-31 75h-2l1 -87z" />
    <glyph glyph-name="uni043D" unicode="&#x43d;" horiz-adv-x="608" 
d="M195 0h-127v510h127v-197h218v197h127v-510h-127v206h-218v-206z" />
    <glyph glyph-name="uni043E" unicode="&#x43e;" horiz-adv-x="634" 
d="M316 522q119 0 199 -76q82 -75 82 -191q0 -115 -81 -192q-81 -75 -199 -75t-199 75q-81 77 -81 192q0 116 81 191q80 76 198 76zM166 255q0 -71 43 -115q44 -44 108 -44t108 44q44 46 44 115t-45 114q-44 45 -107 45t-107 -45q-44 -46 -44 -114z" />
    <glyph glyph-name="uni043F" unicode="&#x43f;" horiz-adv-x="601" 
d="M195 0h-127v510h465v-510h-127v402h-211v-402z" />
    <glyph glyph-name="uni0440" unicode="&#x440;" horiz-adv-x="614" 
d="M195 -200h-127v710h116v-38l-2 -36h2q25 41 68.5 63.5t95.5 22.5q102 0 164 -74t62 -193q0 -121 -66 -194q-64 -73 -167 -73q-91 0 -147 72h-2q3 -18 3 -44v-216zM191 252q0 -65 34 -111t93 -46q56 0 92 43t36 115t-35 116t-91 44q-57 0 -93 -42t-36 -119z" />
    <glyph glyph-name="uni0441" unicode="&#x441;" horiz-adv-x="548" 
d="M37 255q0 113 76 189q77 78 201 78q126 0 196 -76l-57 -87q-55 55 -132 55q-69 0 -112 -46q-43 -44 -43 -112q0 -67 44 -114q43 -46 115 -46q82 0 150 65l49 -90q-36 -38 -92.5 -60.5t-117.5 -22.5q-125 0 -201 76t-76 191z" />
    <glyph glyph-name="uni0442" unicode="&#x442;" horiz-adv-x="500" 
d="M313 0h-126v402h-168v108h463v-108h-169v-402z" />
    <glyph glyph-name="uni0443" unicode="&#x443;" horiz-adv-x="545" 
d="M13 -177l42 95q29 -21 56 -21q61 0 89 66l19 45l-215 502h143l107 -294l19 -69h2q6 29 17 67l100 296h138l-227 -587q-24 -65 -73 -99t-111 -34q-56 0 -93 24z" />
    <glyph glyph-name="uni0444" unicode="&#x444;" horiz-adv-x="749" 
d="M38 255q0 115 78 188q80 74 199 78v179h120v-179q120 -5 198 -78q78 -74 78 -188q0 -115 -78 -189t-198 -78v-188h-120v188q-119 4 -199 78q-78 74 -78 189zM435 419v-329q69 5 111 49.5t42 115.5t-42 115t-111 49zM162 255q0 -71 42 -115.5t111 -49.5v329
q-69 -5 -111 -49t-42 -115z" />
    <glyph glyph-name="uni0445" unicode="&#x445;" horiz-adv-x="519" 
d="M156 0h-141l168 258l-164 252h144l79 -139l16 -32h2l17 32l79 139h144l-164 -252l169 -258h-142l-88 148l-15 27h-2q-9 -20 -14 -27z" />
    <glyph glyph-name="uni0446" unicode="&#x446;" horiz-adv-x="624" 
d="M484 0h-416v510h127v-402h204v402h127v-402h73v-228h-115v120z" />
    <glyph glyph-name="uni0447" unicode="&#x447;" horiz-adv-x="544" 
d="M38 339v171h125v-150q0 -85 87 -85q52 0 99 32v203h126v-510h-126v174l1 28h-2q-60 -33 -138 -33q-80 0 -126 43.5t-46 126.5z" />
    <glyph glyph-name="uni0448" unicode="&#x448;" horiz-adv-x="817" 
d="M749 0h-681v510h121v-402h159v402h121v-402h159v402h121v-510z" />
    <glyph glyph-name="uni0449" unicode="&#x449;" horiz-adv-x="847" 
d="M707 0h-639v510h121v-402h159v402h121v-402h159v402h121v-402h72v-228h-114v120z" />
    <glyph glyph-name="uni044A" unicode="&#x44a;" horiz-adv-x="581" 
d="M364 0h-221v402h-134v108h261v-175h95q91 0 141 -44t50 -125q0 -79 -48.5 -122.5t-143.5 -43.5zM270 249v-162h73q42 0 64 21.5t22 58.5q0 38 -22.5 60t-64.5 22h-72z" />
    <glyph glyph-name="uni044B" unicode="&#x44b;" horiz-adv-x="743" 
d="M675 0h-127v510h127v-510zM285 0h-217v510h127v-175h91q91 0 141.5 -44t50.5 -125q0 -79 -49 -122.5t-144 -43.5zM195 249v-162h70q41 0 63 21.5t22 58.5q0 38 -22.5 60t-64.5 22h-68z" />
    <glyph glyph-name="uni044C" unicode="&#x44c;" horiz-adv-x="507" 
d="M289 0h-221v510h127v-175h95q91 0 141.5 -44t50.5 -125q0 -79 -49 -122.5t-144 -43.5zM195 249v-162h74q41 0 63 21.5t22 58.5q0 38 -22.5 60t-64.5 22h-72z" />
    <glyph glyph-name="uni044D" unicode="&#x44d;" horiz-adv-x="546" 
d="M24 63l47 88q65 -62 154 -62q62 0 106 34t55 89h-223v87h223q-10 55 -53 88.5t-103 33.5q-81 0 -142 -55l-54 85q71 71 201 71q123 0 198 -78q76 -76 76 -189q0 -114 -77 -191q-76 -76 -200 -76t-208 75z" />
    <glyph glyph-name="uni044E" unicode="&#x44e;" horiz-adv-x="851" 
d="M195 0h-127v510h127v-202h84q17 96 90 154q73 60 173 60q116 0 193 -76q79 -75 79 -191q0 -115 -78 -192q-78 -75 -193 -75q-101 0 -175 60t-90 157h-83v-205zM543 96q60 0 101 44q41 46 41 115q0 70 -41 114q-40 45 -101 45t-102 -45q-41 -44 -41 -114q0 -69 41 -115
q41 -44 102 -44z" />
    <glyph glyph-name="uni044F" unicode="&#x44f;" horiz-adv-x="530" 
d="M155 0h-137l112 163l23 31v1q-46 16 -74.5 57t-28.5 93q0 77 49 121t134 44h229v-510h-127v173h-66zM268 261h67v166h-66q-92 0 -92 -81q0 -41 24.5 -63t66.5 -22z" />
    <glyph glyph-name="uni0450" unicode="&#x450;" horiz-adv-x="561" 
d="M37 255q0 119 72 192q73 75 188 75q106 0 166 -69q60 -67 60 -173q0 -21 -4 -49h-351q6 -63 48.5 -99t104.5 -36q75 0 146 56l50 -91q-38 -34 -93.5 -53.5t-111.5 -19.5q-122 0 -199 77q-76 77 -76 190zM171 318h225q-1 50 -29 79t-73 29q-48 0 -81 -29.5t-42 -78.5z
M361 574h-103l-104 136h131z" />
    <glyph glyph-name="uni0451" unicode="&#x451;" horiz-adv-x="561" 
d="M37 255q0 119 72 192q73 75 188 75q106 0 166 -69q60 -67 60 -173q0 -21 -4 -49h-351q6 -63 48.5 -99t104.5 -36q75 0 146 56l50 -91q-38 -34 -93.5 -53.5t-111.5 -19.5q-122 0 -199 77q-76 77 -76 190zM171 318h225q-1 50 -29 79t-73 29q-48 0 -81 -29.5t-42 -78.5z
M432 594h-97v116h97v-116zM249 594h-98v116h98v-116z" />
    <glyph glyph-name="uni0452" unicode="&#x452;" horiz-adv-x="613" 
d="M195 0h-127v541h-61v88h61v81h127v-81h189v-88h-189v-138l-2 -43h2q22 43 70 72t106 29q178 0 178 -194v-259q0 -52 -15 -92.5t-36.5 -63.5t-50.5 -37.5t-53 -19t-48 -4.5l-49 3v107q20 -2 32 -2q93 0 93 110v232q0 53 -18 78.5t-62 25.5q-50 0 -87 -29t-51 -77
q-9 -25 -9 -66v-173z" />
    <glyph glyph-name="uni0453" unicode="&#x453;" horiz-adv-x="422" 
d="M195 0h-127v510h335v-108h-208v-402zM264 574h-102l76 136h131z" />
    <glyph glyph-name="uni0454" unicode="&#x454;" horiz-adv-x="549" 
d="M37 255q0 113 76 189q77 78 201 78q60 0 109 -18t69 -36l20 -17l-55 -87q-6 6 -18 15q-10 9 -47 24q-35 16 -73 16q-62 0 -105 -31.5t-54 -85.5h223v-88h-223q11 -58 55 -91.5t109 -33.5q39 0 77.5 15.5t58.5 34.5l18 17l48 -89q-11 -11 -35 -28q-78 -51 -177 -51
q-125 0 -201 76t-76 191z" />
    <glyph glyph-name="uni0455" unicode="&#x455;" horiz-adv-x="457" 
d="M27 63l57 84q62 -56 145 -56q34 0 52.5 13.5t18.5 37.5q0 36 -89 67q-32 10 -56.5 21.5t-52 30.5t-42 46.5t-13.5 61.5q0 72 55 112q56 41 140 41q107 0 172 -58l-47 -89q-22 19 -58.5 31.5t-70.5 12.5q-71 0 -71 -49q0 -36 89 -67q33 -10 57.5 -21t51.5 -29.5t41 -46
t14 -61.5q0 -68 -53 -113q-53 -44 -140 -44q-122 0 -200 75z" />
    <glyph glyph-name="uni0456" unicode="&#x456;" horiz-adv-x="263" 
d="M195 597h-127v113h127v-113zM195 0h-127v510h127v-510z" />
    <glyph glyph-name="uni0457" unicode="&#x457;" horiz-adv-x="263" 
d="M273 594h-97v116h97v-116zM90 594h-98v116h98v-116zM195 0h-127v510h127v-510z" />
    <glyph glyph-name="uni0458" unicode="&#x458;" horiz-adv-x="263" 
d="M195 597h-127v113h127v-113zM68 -5v515h127v-525q0 -97 -55 -141q-62 -53 -158 -51q-19 0 -38 3v107q16 -2 22 -2q102 0 102 94z" />
    <glyph glyph-name="uni0459" unicode="&#x459;" horiz-adv-x="779" 
d="M24 -5v112q55 7 82 62t27 175v166h339v-185h92q91 0 141.5 -42.5t50.5 -122.5q0 -76 -49 -118t-144 -42h-218v407h-92v-59q0 -182 -52.5 -265.5t-176.5 -87.5zM472 237v-150h76q41 0 63 19.5t22 53.5q0 36 -22 56.5t-64 20.5h-75z" />
    <glyph glyph-name="uni045A" unicode="&#x45a;" horiz-adv-x="837" 
d="M195 0h-127v510h127v-186h208v186h127v-188h90q92 0 143 -42t51 -119q0 -76 -49 -118.5t-144 -42.5h-218v224h-208v-224zM530 235v-148h76q86 0 86 74q0 35 -23 54.5t-66 19.5h-73z" />
    <glyph glyph-name="uni045B" unicode="&#x45b;" horiz-adv-x="613" 
d="M195 0h-127v541h-61v88h61v81h127v-81h189v-88h-189v-138l-2 -43h2q22 44 69 72.5t107 28.5q178 0 178 -193v-268h-127v242q0 52 -18 77.5t-62 25.5q-50 0 -87 -28.5t-51 -76.5q-9 -25 -9 -67v-173z" />
    <glyph glyph-name="uni045C" unicode="&#x45c;" horiz-adv-x="549" 
d="M195 0h-127v510h127v-195h62l124 195h141l-162 -243v-2l182 -265h-147l-134 207h-66v-207zM321 574h-102l76 136h131z" />
    <glyph glyph-name="uni045D" unicode="&#x45d;" horiz-adv-x="606" 
d="M191 0h-123v510h121v-273q0 -37 -3 -61h2q7 13 38 61l189 273h123v-510h-121v272q0 22 3 61h-2q-2 -4 -38 -61zM373 574h-103l-104 136h131z" />
    <glyph glyph-name="uni045E" unicode="&#x45e;" horiz-adv-x="545" 
d="M13 -177l42 95q29 -21 56 -21q61 0 89 66l19 45l-215 502h143l107 -294l19 -69h2q6 29 17 67l100 296h138l-227 -587q-24 -65 -73 -99t-111 -34q-56 0 -93 24zM110 697v13h97v-13q-2 -39 32.5 -55.5t69 0t33.5 56.5v12h96v-13q0 -63 -48 -101q-47 -37 -116 -37t-116 37
q-48 38 -48 101z" />
    <glyph glyph-name="uni045F" unicode="&#x45f;" horiz-adv-x="588" 
d="M237 0h-169v510h127v-402h198v402h126v-510h-168v-120h-114v120z" />
    <glyph glyph-name="uni0462" unicode="&#x462;" horiz-adv-x="700" 
d="M450 0h-269v539h-171v99h173v94h126v-94h204v-99h-204v-104h140q99 0 161 -60q63 -60 63 -156t-63 -158q-61 -61 -160 -61zM309 324v-213h118q53 0 84 29t31 79q0 48 -31.5 76.5t-85.5 28.5h-116z" />
    <glyph glyph-name="uni0463" unicode="&#x463;" horiz-adv-x="560" 
d="M344 0h-225v458h-122v92h121v160h127v-160h164v-92h-163v-123h99q91 0 141 -44t50 -125q0 -79 -48.5 -122.5t-143.5 -43.5zM246 249v-162h77q42 0 64 21.5t22 58.5q0 38 -22.5 60t-64.5 22h-76z" />
    <glyph glyph-name="uni0472" unicode="&#x472;" horiz-adv-x="822" 
d="M44 360q0 154 105 257q105 105 262 105t262 -105q105 -103 105 -257q0 -158 -105 -265t-262 -107t-262 107t-105 265zM412 101q87 0 151 58q65 59 81 148h-466q16 -90 81 -149q65 -57 153 -57zM412 607q-89 0 -154 -56t-80 -144h467q-17 89 -81 144q-65 56 -152 56z" />
    <glyph glyph-name="uni0473" unicode="&#x473;" horiz-adv-x="634" 
d="M316 522q119 0 199 -76q82 -75 82 -191q0 -115 -81 -192q-81 -75 -199 -75t-199 75q-81 77 -81 192q0 116 81 191q80 76 198 76zM318 82q60 0 105 38t56 100h-323q10 -62 55.5 -100t106.5 -38zM318 427q-60 0 -104.5 -36t-56.5 -96h321q-13 59 -57.5 95.5t-102.5 36.5z
" />
    <glyph glyph-name="uni0474" unicode="&#x474;" horiz-adv-x="692" 
d="M395 0h-134l-256 710h139l156 -463l27 -104h2q14 64 27 104l129 392q15 43 36 57q22 14 69 14h89v-112h-24q-31 0 -43.5 -8.5t-23.5 -39.5z" />
    <glyph glyph-name="uni0475" unicode="&#x475;" horiz-adv-x="578" 
d="M348 0h-151l-185 510h134l106 -316l18 -77h2q10 51 19 77l71 222q16 52 42.5 73t78.5 21h77v-109h-23q-30 0 -43.5 -10t-24.5 -42z" />
    <glyph glyph-name="uni048A" unicode="&#x48a;" horiz-adv-x="803" 
d="M214 0h-128v710h129v-410l-7 -110h2q34 69 60 111l268 409h128v-599h120v-70l-79 -181h-90l39 140h-118v409l7 110h-2q-32 -66 -59 -110zM220 880v13h97v-13q-2 -39 32.5 -55.5t69 0t33.5 56.5v12h96v-13q0 -64 -48 -101q-47 -37 -116 -37t-116 37q-48 37 -48 101z" />
    <glyph glyph-name="uni048B" unicode="&#x48b;" horiz-adv-x="662" 
d="M191 0h-123v510h121v-273q0 -37 -3 -61h2q7 13 38 61l189 273h123v-403h105v-67l-69 -160h-85l33 120h-105v272q0 22 3 61h-2q-2 -4 -38 -61zM144 697v13h97v-13q-2 -39 32.5 -55.5t69 0t33.5 56.5v12h96v-13q0 -63 -48 -101q-47 -37 -116 -37t-116 37q-48 38 -48 101z
" />
    <glyph glyph-name="uni048C" unicode="&#x48c;" horiz-adv-x="692" 
d="M443 0h-273v561h-161v98h164v91h126v-91h192v-98h-192v-123h143q100 0 161 -61q63 -60 63 -158q0 -96 -63 -158q-61 -61 -160 -61zM299 327v-216h121q53 0 84 29t31 79t-31.5 79t-85.5 29h-119z" />
    <glyph glyph-name="uni048D" unicode="&#x48d;" horiz-adv-x="563" 
d="M347 0h-225v458h-122v92h121v160h127v-160h164v-92h-163v-123h99q91 0 141 -44t50 -125q0 -79 -48.5 -122.5t-143.5 -43.5zM249 249v-162h77q42 0 64 21.5t22 58.5q0 38 -22.5 60t-64.5 22h-76z" />
    <glyph glyph-name="uni048E" unicode="&#x48e;" horiz-adv-x="629" 
d="M215 0h-129v710h274q100 0 163 -64t63 -167q0 -105 -63 -169l57 -72l-67 -56l-63 79q-38 -16 -90 -16h-145v-245zM380 349l-64 81l68 56l66 -84q16 31 16 70q0 60 -32.5 93.5t-90.5 33.5h-128v-255h126q17 0 39 5z" />
    <glyph glyph-name="uni048F" unicode="&#x48f;" horiz-adv-x="620" 
d="M195 -200h-127v710h116v-38l-2 -36h2q21 28 23 30q49 53 141 56q102 0 164 -74t62 -193q0 -109 -57 -183l54 -65l-67 -58l-55 65q-50 -26 -108 -26q-41 0 -78.5 17t-54.5 37l-14 18h-2q3 -18 3 -44v-216zM376 101l-66 80l67 58l62 -75q18 38 18 85q0 74 -36.5 119
t-95.5 45q-60 0 -97 -42.5t-37 -122.5q0 -65 35 -112q34 -46 97 -46q26 0 53 11z" />
    <glyph glyph-name="uni0490" unicode="&#x490;" horiz-adv-x="517" 
d="M215 0h-129v710h314v106h105v-217h-290v-599z" />
    <glyph glyph-name="uni0491" unicode="&#x491;" horiz-adv-x="428" 
d="M195 0h-127v510h243v102h99v-210h-215v-402z" />
    <glyph glyph-name="uni0492" unicode="&#x492;" horiz-adv-x="516" 
d="M219 0h-128v298h-59v91h59v321h408v-111h-280v-210h158v-91h-158v-298z" />
    <glyph glyph-name="uni0493" unicode="&#x493;" horiz-adv-x="431" 
d="M200 0h-127v196h-61v81h61v233h336v-108h-209v-125h126v-81h-126v-196z" />
    <glyph glyph-name="uni0494" unicode="&#x494;" horiz-adv-x="626" 
d="M215 0h-129v710h409v-111h-280v-200q58 24 128 24q120 0 184.5 -73.5t64.5 -213.5q0 -160 -69.5 -239.5t-201.5 -79.5v104q66 0 101 50t35 165q0 91 -34.5 133.5t-109.5 42.5q-45 0 -98 -21v-291z" />
    <glyph glyph-name="uni0495" unicode="&#x495;" horiz-adv-x="519" 
d="M195 0h-127v510h347v-102h-220v-137q47 21 104 21q97 0 145 -62t48 -156q0 -181 -158 -282l-60 87q97 63 97 186q0 124 -101 124q-42 0 -75 -21v-168z" />
    <glyph glyph-name="uni0496" unicode="&#x496;" horiz-adv-x="979" 
d="M158 0h-145l200 370v2l-185 338h139l152 -289h83v289h128v-289h83l152 289h139l-186 -338v-2l140 -259h105v-251h-115v140h-74l-161 310h-83v-310h-128v310h-83z" />
    <glyph glyph-name="uni0497" unicode="&#x497;" horiz-adv-x="829" 
d="M152 0h-139l156 262v2l-143 246h132l113 -198h62v198h119v-198h62l113 198h132l-142 -246v-2l91 -154h102v-228h-114v120h-63l-117 205h-64v-205h-119v205h-64z" />
    <glyph glyph-name="uni0498" unicode="&#x498;" horiz-adv-x="557" 
d="M22 89l70 86q31 -32 74 -52.5t86 -20.5q58 0 92 29t34 80q0 46 -30.5 72.5t-82.5 26.5h-87v104h70q48 0 79 28t31 70q0 44 -28.5 71t-80.5 27q-81 0 -154 -60l-52 94q95 78 228 78q92 0 154 -52q64 -52 64 -142q0 -105 -98 -158v-2q56 -18 87.5 -61t31.5 -104
q0 -81 -50.5 -137t-133.5 -72v-134h-116v133q-115 17 -188 96z" />
    <glyph glyph-name="uni0499" unicode="&#x499;" horiz-adv-x="460" 
d="M22 63l54 81q59 -58 129 -58q41 0 64.5 18.5t23.5 50.5q0 63 -85 63h-62v88h52q79 0 79 59q0 61 -76 61q-60 0 -123 -42l-41 81q76 57 188 57q79 0 129 -38t50 -102q0 -82 -70 -115v-2q86 -32 86 -117q0 -60 -37 -100t-100 -53v-115h-111v112q-88 13 -150 71z" />
    <glyph glyph-name="uni049A" unicode="&#x49a;" horiz-adv-x="683" 
d="M215 0h-129v710h129v-289h92l167 289h140l-201 -338v-2l149 -259h104v-251h-115v140h-71l-173 310h-92v-310z" />
    <glyph glyph-name="uni049B" unicode="&#x49b;" horiz-adv-x="588" 
d="M195 0h-127v510h127v-195h62l124 195h141l-162 -243v-2l108 -157h101v-228h-114v120h-60l-134 207h-66v-207z" />
    <glyph glyph-name="uni049C" unicode="&#x49c;" horiz-adv-x="742" 
d="M215 0h-129v710h129v-289h63v114h92v-114h41l166 289h140l-200 -338v-2l213 -370h-146l-173 310h-41v-116h-92v116h-63v-310z" />
    <glyph glyph-name="uni049D" unicode="&#x49d;" horiz-adv-x="635" 
d="M195 0h-127v510h127v-195h45v98h88v-98h15l124 195h141l-162 -243v-2l182 -265h-147l-134 207h-19v-100h-88v100h-45v-207z" />
    <glyph glyph-name="uni049E" unicode="&#x49e;" horiz-adv-x="642" 
d="M89 521h-67v87h67v102h129v-102h85v-87h-85v-100h92l167 289h140l-201 -338v-2l213 -370h-146l-173 310h-92v-310h-129v521z" />
    <glyph glyph-name="uni049F" unicode="&#x49f;" horiz-adv-x="549" 
d="M195 0h-127v528h-61v85h61v97h127v-97h101v-85h-101v-205h63l123 187h141l-161 -235v-2l181 -273h-146l-135 215h-66v-215z" />
    <glyph glyph-name="uni04A0" unicode="&#x4a0;" horiz-adv-x="770" 
d="M346 0h-128v599h-202v111h330v-289h93l166 289h140l-201 -338v-2l213 -370h-145l-173 310h-93v-310z" />
    <glyph glyph-name="uni04A1" unicode="&#x4a1;" horiz-adv-x="623" 
d="M270 0h-127v402h-134v108h261v-195h62l124 195h140l-161 -243v-2l182 -265h-147l-135 207h-65v-207z" />
    <glyph glyph-name="uni04A2" unicode="&#x4a2;" horiz-adv-x="796" 
d="M215 0h-129v710h129v-301h325v301h128v-599h104v-251h-115v140h-117v298h-325v-298z" />
    <glyph glyph-name="uni04A3" unicode="&#x4a3;" horiz-adv-x="651" 
d="M195 0h-127v510h127v-197h218v197h127v-402h90v-228h-114v120h-103v206h-218v-206z" />
    <glyph glyph-name="uni04A4" unicode="&#x4a4;" horiz-adv-x="942" 
d="M215 0h-129v710h129v-301h307v301h408v-111h-280v-599h-128v298h-307v-298z" />
    <glyph glyph-name="uni04A5" unicode="&#x4a5;" horiz-adv-x="741" 
d="M195 0h-127v510h127v-197h204v197h323v-108h-196v-402h-127v206h-204v-206z" />
    <glyph glyph-name="uni04A6" unicode="&#x4a6;" horiz-adv-x="1000" 
d="M215 0h-129v710h507v-301q59 24 128 24q120 0 184.5 -75.5t64.5 -221.5q0 -319 -271 -319v104q66 0 101 50t35 165q0 100 -34 146.5t-109 46.5q-36 0 -99 -22v-307h-128v600h-250v-600z" />
    <glyph glyph-name="uni04A7" unicode="&#x4a7;" horiz-adv-x="835" 
d="M195 0h-127v510h428v-205q51 23 105 23q97 0 152 -66q56 -65 56 -170q0 -97 -42 -174t-116 -126l-61 87q97 66 97 207q0 136 -110 136q-45 0 -81 -21v-201h-127v402h-174v-402z" />
    <glyph glyph-name="uni04A8" unicode="&#x4a8;" horiz-adv-x="940" 
d="M45 368q0 149 82 243q69 79 154 111l53 -116q-66 -29 -112 -90q-47 -62 -47 -153q0 -107 63 -182t180 -75q41 0 82 10q-138 119 -138 295q0 134 76 216q77 83 189 83q117 0 188 -81q71 -80 71 -207q0 -83 -39.5 -163.5t-110.5 -144.5q42 -9 91 -9h51v-105h-53
q-105 0 -199 39q-102 -51 -210 -51q-161 0 -267 104q-104 106 -104 276zM495 413q0 -160 118 -245q64 45 102 113t38 140q0 78 -35 124.5t-92 46.5q-56 0 -93.5 -47.5t-37.5 -131.5z" />
    <glyph glyph-name="uni04A9" unicode="&#x4a9;" horiz-adv-x="796" 
d="M37 264q0 100 54 165q56 67 128 93l44 -102q-48 -22 -78 -63.5t-30 -95.5q0 -71 46 -121q47 -51 139 -51q37 0 66 7q-103 81 -103 206q0 93 63 156q63 64 163 64q99 0 157 -58q59 -59 59 -144q0 -118 -113 -220q24 -4 62 -4h60v-96h-54q-93 0 -174 31q-90 -43 -187 -43
q-138 0 -221 77q-81 77 -81 199zM422 305q0 -105 95 -164q109 67 109 171q0 51 -26.5 81.5t-73.5 30.5t-75.5 -33t-28.5 -86z" />
    <glyph glyph-name="uni04AA" unicode="&#x4aa;" horiz-adv-x="716" 
d="M45 358q0 157 103 260q104 104 262 104q162 0 262 -97l-62 -96q-40 34 -92.5 54.5t-101.5 20.5q-112 0 -175 -70t-63 -174q0 -106 64 -180q65 -74 175 -74q115 0 206 90l68 -93q-96 -99 -236 -113v-130h-116v134q-135 23 -214 123q-80 101 -80 241z" />
    <glyph glyph-name="uni04AB" unicode="&#x4ab;" horiz-adv-x="548" 
d="M37 255q0 113 76 189q77 78 201 78q126 0 196 -76l-57 -87q-55 55 -132 55q-69 0 -112 -46q-43 -44 -43 -112q0 -67 44 -114q43 -46 115 -46q82 0 150 65l49 -90q-62 -67 -165 -80v-111h-112v115q-96 20 -153 91q-57 72 -57 169z" />
    <glyph glyph-name="uni04AC" unicode="&#x4ac;" horiz-adv-x="626" 
d="M363 0h-118l1 2v597h-233v111h594v-111h-233v-488h104v-251h-115v140z" />
    <glyph glyph-name="uni04AD" unicode="&#x4ad;" horiz-adv-x="507" 
d="M289 0h-102v402h-168v108h463v-108h-169v-294h90v-228h-114v120z" />
    <glyph glyph-name="uni04AE" unicode="&#x4ae;" horiz-adv-x="593" 
d="M361 0h-128v297l-237 413h146l111 -209l43 -95h2q24 58 43 95l110 209h146l-236 -413v-297z" />
    <glyph glyph-name="uni04AF" unicode="&#x4af;" horiz-adv-x="541" 
d="M208 -200v214l-197 496h133l106 -291l19 -75h2q10 47 19 75l106 291h134l-196 -496v-214h-126z" />
    <glyph glyph-name="uni04B0" unicode="&#x4b0;" horiz-adv-x="593" 
d="M233 215h-115v92h109l-231 403h146l111 -209l43 -95h2q24 58 43 95l110 209h146l-231 -403h116v-92h-121v-215h-128v215z" />
    <glyph glyph-name="uni04B1" unicode="&#x4b1;" horiz-adv-x="540" 
d="M208 0h-118v88h88l-167 422h134l105 -291l19 -75h2q10 47 19 75l105 291h134l-166 -422h89v-88h-118v-200h-126v200z" />
    <glyph glyph-name="uni04B2" unicode="&#x4b2;" horiz-adv-x="666" 
d="M156 0h-143l220 360l-212 350h147l98 -174l44 -87h2q18 41 44 87l99 174h147l-213 -350l153 -249h108v-251h-116v140h-68l-111 191l-44 84h-2q-15 -34 -43 -84z" />
    <glyph glyph-name="uni04B3" unicode="&#x4b3;" horiz-adv-x="555" 
d="M156 0h-141l168 258l-164 252h144l79 -139l16 -32h2l17 32l79 139h144l-164 -252l98 -150h99v-228h-114v120h-56l-88 148l-15 27h-2q-9 -20 -14 -27z" />
    <glyph glyph-name="uni04B4" unicode="&#x4b4;" horiz-adv-x="913" 
d="M771 0h-553v599h-202v111h531v-111h-201v-488h318v599h128v-599h94v-251h-115v140z" />
    <glyph glyph-name="uni04B5" unicode="&#x4b5;" horiz-adv-x="745" 
d="M606 0h-447v402h-139v108h406v-108h-140v-294h230v402h127v-402h78v-227h-115v119z" />
    <glyph glyph-name="uni04B6" unicode="&#x4b6;" horiz-adv-x="701" 
d="M263 264q-108 0 -162.5 55t-54.5 158v233h131v-204q0 -125 119 -125q82 0 146 42v287h131v-599h104v-251h-115v140h-120v275l2 33h-2q-86 -44 -179 -44z" />
    <glyph glyph-name="uni04B7" unicode="&#x4b7;" horiz-adv-x="588" 
d="M38 339v171h125v-150q0 -85 87 -85q52 0 99 32v203h126v-402h92v-228h-113v120h-105v174l1 28h-2q-60 -33 -138 -33q-80 0 -126 43.5t-46 126.5z" />
    <glyph glyph-name="uni04B8" unicode="&#x4b8;" horiz-adv-x="684" 
d="M277 269h-2q-115 0 -173 55t-58 158v228h131v-204q0 -114 102 -124v137h92v-131q55 10 97 35v287h131v-710h-131v280l2 33h-2q-44 -20 -97 -33v-113h-92v102z" />
    <glyph glyph-name="uni04B9" unicode="&#x4b9;" horiz-adv-x="582" 
d="M230 172h-7q-86 0 -135.5 42.5t-49.5 124.5v171h125v-150q0 -67 67 -82v118h88v-116q39 8 69 27v203h127v-510h-127v181l2 27h-2q-31 -16 -69 -24v-91h-88v79z" />
    <glyph glyph-name="uni04BA" unicode="&#x4ba;" horiz-adv-x="639" 
d="M215 0h-129v710h129v-261l-2 -33h2q85 41 175 41q100 0 151 -57.5t51 -160.5v-239h-131v219q0 124 -112 124q-73 0 -134 -38v-305z" />
    <glyph glyph-name="uni04BB" unicode="&#x4bb;" horiz-adv-x="612" 
d="M195 0h-127v710h127v-248l-3 -43h2q22 43 70.5 73t106.5 30q178 0 178 -194v-328h-127v302q0 53 -18 78.5t-62 25.5q-66 0 -107 -48q-40 -46 -40 -121v-237z" />
    <glyph glyph-name="uni04BC" unicode="&#x4bc;" horiz-adv-x="893" 
d="M32 519q0 52 8 86l8 36h115l-8 -37q-8 -40 -8 -71q0 -103 75 -103q21 134 111 213q89 79 212 79q141 0 221 -92t80 -243l-4 -57h-491q6 -101 68 -163q62 -61 156 -61q64 0 121 26q52 25 83 53l61 -98q-106 -99 -281 -99q-141 0 -239 96q-96 95 -104 247q-86 0 -135 48.5
t-49 139.5zM352 430h364q0 80 -45 129t-126 49t-133 -54q-53 -54 -60 -124z" />
    <glyph glyph-name="uni04BD" unicode="&#x4bd;" horiz-adv-x="695" 
d="M27 397q0 36 10 72h101q-11 -35 -11 -65q0 -78 50 -86q19 92 87 148t166 56q106 0 166 -69q60 -67 60 -173l-4 -49h-351q6 -63 48.5 -99t104.5 -36q34 0 70.5 13t57.5 29l18 14l50 -91q-11 -11 -36 -26q-76 -47 -169 -47q-117 0 -190 69q-74 71 -83 174q-145 3 -145 166z
M304 318h224q-1 48 -29.5 77t-71.5 29q-48 0 -81 -29t-42 -77z" />
    <glyph glyph-name="uni04BE" unicode="&#x4be;" horiz-adv-x="894" 
d="M32 519q0 52 8 86l8 36h115l-8 -37q-8 -40 -8 -71q0 -103 75 -103q21 134 111 213q89 79 212 79q141 0 221 -92t80 -243l-4 -57h-491q6 -101 68 -163q62 -61 156 -61q64 0 121 26q52 25 83 53l61 -98q-92 -85 -237 -97v-130h-115v135q-115 24 -190 115t-82 221
q-86 0 -135 48.5t-49 139.5zM352 430h364q0 80 -45 129t-126 49t-133 -54q-53 -54 -60 -124z" />
    <glyph glyph-name="uni04BF" unicode="&#x4bf;" horiz-adv-x="695" 
d="M27 397q0 36 10 72h101q-11 -35 -11 -65q0 -78 50 -86q19 92 87 148t166 56q106 0 166 -69q60 -67 60 -173l-4 -49h-351q6 -63 48.5 -99t104.5 -36q34 0 70.5 13t57.5 29l18 14l50 -91q-8 -7 -21 -18q-13 -10 -59 -30q-42 -18 -93 -23v-110h-112v118q-83 22 -134.5 85
t-58.5 148q-145 3 -145 166zM304 318h224q-1 48 -29.5 77t-71.5 29q-48 0 -81 -29t-42 -77z" />
    <glyph glyph-name="uni04C0" unicode="&#x4c0;" horiz-adv-x="300" 
d="M213 0h-127v710h127v-710z" />
    <glyph glyph-name="uni04C1" unicode="&#x4c1;" horiz-adv-x="932" 
d="M158 0h-145l200 370v2l-185 338h139l152 -289h83v289h128v-289h83l152 289h139l-186 -338v-2l201 -370h-145l-161 310h-83v-310h-128v310h-83zM306 880v13h97v-13q-2 -39 32.5 -55.5t69 0t33.5 56.5v12h96v-13q0 -64 -48 -101q-47 -37 -116 -37t-116 37q-48 37 -48 101z
" />
    <glyph glyph-name="uni04C2" unicode="&#x4c2;" horiz-adv-x="785" 
d="M152 0h-139l156 262v2l-143 246h132l113 -198h62v198h119v-198h62l113 198h132l-142 -246v-2l156 -262h-140l-117 205h-64v-205h-119v205h-64zM228 697v13h97v-13q-2 -39 32.5 -55.5t69 0t33.5 56.5v12h96v-13q0 -63 -48 -101q-47 -37 -116 -37t-116 37q-48 38 -48 101z
" />
    <glyph glyph-name="uni04C3" unicode="&#x4c3;" horiz-adv-x="657" 
d="M215 0h-129v710h129v-289h92l167 289h140l-185 -312q84 -22 133 -94.5t49 -176.5q0 -138 -68 -224t-189 -86v108q55 0 88.5 47.5t33.5 144.5q0 96 -49.5 146t-145.5 50h-66v-313z" />
    <glyph glyph-name="uni04C4" unicode="&#x4c4;" horiz-adv-x="553" 
d="M195 0h-127v510h127v-196h62l124 196h141l-151 -227v-2q74 -25 109 -84t35 -138q0 -94 -47 -162q-46 -67 -113 -105l-59 88q98 50 98 179q0 69 -39.5 108t-113.5 39h-46v-206z" />
    <glyph glyph-name="uni04C5" unicode="&#x4c5;" horiz-adv-x="743" 
d="M14 -8v118q80 11 116.5 107t36.5 299v194h439v-599h120v-70l-79 -181h-90l39 140h-119v599h-187v-85q0 -264 -65.5 -390.5t-210.5 -131.5z" />
    <glyph glyph-name="uni04C6" unicode="&#x4c6;" horiz-adv-x="618" 
d="M20 -5v112q54 7 80.5 63.5t26.5 179.5v160h372v-403h99v-67l-69 -160h-85l33 120h-105v407h-124v-57q0 -177 -54 -264t-174 -91z" />
    <glyph glyph-name="uni04C7" unicode="&#x4c7;" horiz-adv-x="754" 
d="M215 0h-129v710h129v-301h325v301h128l1 -640q0 -160 -77 -213q-68 -47 -154 -41v109q102 0 102 142v231h-325v-298z" />
    <glyph glyph-name="uni04C8" unicode="&#x4c8;" horiz-adv-x="609" 
d="M195 0h-127v510h127v-197h218v197h127v-454q0 -98 -39 -157q-38 -59 -117 -107l-66 90q50 29 72.5 67.5t22.5 105.5v151h-218v-206z" />
    <glyph glyph-name="uni04C9" unicode="&#x4c9;" horiz-adv-x="805" 
d="M215 0h-129v710h129v-301h325v301h128v-599h120v-70l-79 -181h-90l39 140h-118v298h-325v-298z" />
    <glyph glyph-name="uni04CA" unicode="&#x4ca;" horiz-adv-x="659" 
d="M195 0h-127v510h127v-197h218v197h127v-403h99v-67l-69 -160h-85l33 120h-105v206h-218v-206z" />
    <glyph glyph-name="uni04CB" unicode="&#x4cb;" horiz-adv-x="659" 
d="M263 264q-108 0 -162.5 55t-54.5 158v233h131v-204q0 -125 119 -125q82 0 146 42v287h131v-710h-120v-140h-116v251h105v164l2 33h-2q-86 -44 -179 -44z" />
    <glyph glyph-name="uni04CC" unicode="&#x4cc;" horiz-adv-x="545" 
d="M260 -120v202h90v109l1 27h-1q-66 -36 -150 -36q-76 0 -119.5 42.5t-43.5 124.5v161h125v-140q0 -85 84 -85q54 0 104 32v193h127v-510h-103v-120h-114z" />
    <glyph glyph-name="uni04CD" unicode="&#x4cd;" horiz-adv-x="918" 
d="M188 0h-129l58 710h137l140 -351l35 -104h2q25 77 35 104l140 351h137l49 -599h120v-70l-79 -181h-89l38 140h-110l-29 397q-4 33 -1 93v17h-2q-23 -72 -39 -110l-115 -275h-112l-115 275l-39 111h-2q3 -68 -1 -111z" />
    <glyph glyph-name="uni04CE" unicode="&#x4ce;" horiz-adv-x="802" 
d="M169 0h-122l46 510h144l108 -263l25 -65h2l25 65l110 263h142l36 -403h106v-67l-69 -160h-86l33 120h-96l-18 276l1 87h-2q-14 -40 -30 -74l-100 -225h-105l-100 224l-31 75h-2l1 -87z" />
    <glyph glyph-name="uni04CF" unicode="&#x4cf;" horiz-adv-x="263" 
d="M195 0h-127v710h127v-710z" />
    <glyph glyph-name="uni04D0" unicode="&#x4d0;" horiz-adv-x="650" 
d="M140 0h-132l249 710h136l249 -710h-132l-61 182h-249zM296 477l-64 -190h185l-63 190l-28 110h-2q-17 -74 -28 -110zM159 880v13h97v-13q-2 -39 32.5 -55.5t69 0t33.5 56.5v12h96v-13q0 -64 -48 -101q-47 -37 -116 -37t-116 37q-48 37 -48 101z" />
    <glyph glyph-name="uni04D1" unicode="&#x4d1;" horiz-adv-x="537" 
d="M29 141q0 53 29 91t78 56q87 32 190 32h22v7q0 90 -96 90q-71 0 -142 -49l-47 91q34 26 89 44q54 19 111 19q100 0 156 -53.5t56 -149.5v-319h-118v43l3 37h-2q-24 -42 -67.5 -67t-93.5 -25q-71 0 -120 42q-48 44 -48 111zM155 152q0 -28 21 -47.5t56 -19.5q51 0 84 42
t33 92v14h-22q-172 0 -172 -81zM114 697v13h97v-13q-2 -39 32.5 -55.5t69 0t33.5 56.5v12h96v-13q0 -63 -48 -101q-47 -37 -116 -37t-116 37q-48 38 -48 101z" />
    <glyph glyph-name="uni04D2" unicode="&#x4d2;" horiz-adv-x="650" 
d="M140 0h-132l249 710h136l249 -710h-132l-61 182h-249zM296 477l-64 -190h185l-63 190l-28 110h-2q-17 -74 -28 -110zM465 777h-97v116h97v-116zM282 777h-98v116h98v-116z" />
    <glyph glyph-name="uni04D3" unicode="&#x4d3;" horiz-adv-x="537" 
d="M29 141q0 53 29 91t78 56q87 32 190 32h22v7q0 90 -96 90q-71 0 -142 -49l-47 91q34 26 89 44q54 19 111 19q100 0 156 -53.5t56 -149.5v-319h-118v43l3 37h-2q-24 -42 -67.5 -67t-93.5 -25q-71 0 -120 42q-48 44 -48 111zM155 152q0 -28 21 -47.5t56 -19.5q51 0 84 42
t33 92v14h-22q-172 0 -172 -81zM407 594h-97v116h97v-116zM224 594h-98v116h98v-116z" />
    <glyph glyph-name="uni04D4" unicode="&#x4d4;" horiz-adv-x="905" 
d="M135 0h-134l294 710h554v-111h-297v-186h239v-111h-239v-191h312v-111h-440v304h-170zM371 599l-76 -190h129v190h-53z" />
    <glyph glyph-name="uni04D5" unicode="&#x4d5;" horiz-adv-x="859" 
d="M29 147q0 173 302 173h17v7q0 90 -99 90q-70 0 -140 -49l-47 90q33 28 87.5 46t108.5 18q120 0 166 -75h2q62 75 170 75q104 0 164 -69q61 -68 61 -174q0 -7 -1.5 -26t-1.5 -21h-349q6 -65 47 -100.5t103 -35.5q80 0 147 55l49 -90q-36 -33 -93 -53t-112 -20
q-146 0 -213 112h-2q-14 -30 -52 -64q-50 -47 -140 -47q-74 0 -124 43q-50 44 -50 115zM473 320h220q-1 46 -29 74.5t-69 28.5q-49 0 -80.5 -27t-41.5 -76zM157 153q0 -29 20.5 -47.5t57.5 -18.5q49 0 82 42q33 43 33 93v10h-36q-40 0 -72 -6q-35 -6 -60 -25.5t-25 -47.5z
" />
    <glyph glyph-name="uni04D6" unicode="&#x4d6;" horiz-adv-x="569" 
d="M140 880v13h97v-13q-2 -39 32.5 -55.5t69 0t33.5 56.5v12h96v-13q0 -64 -48 -101q-47 -37 -116 -37t-116 37q-48 37 -48 101zM527 0h-441v710h425v-111h-296v-186h239v-111h-239v-191h312v-111z" />
    <glyph glyph-name="uni04D7" unicode="&#x4d7;" horiz-adv-x="561" 
d="M37 255q0 119 72 192q73 75 188 75q106 0 166 -69q60 -67 60 -173q0 -21 -4 -49h-351q6 -63 48.5 -99t104.5 -36q75 0 146 56l50 -91q-38 -34 -93.5 -53.5t-111.5 -19.5q-122 0 -199 77q-76 77 -76 190zM171 318h225q-1 50 -29 79t-73 29q-48 0 -81 -29.5t-42 -78.5z
M128 697v13h97v-13q-2 -39 32.5 -55.5t69 0t33.5 56.5v12h96v-13q0 -63 -48 -101q-47 -37 -116 -37t-116 37q-48 38 -48 101z" />
    <glyph glyph-name="uni04D8" unicode="&#x4d8;" horiz-adv-x="724" 
d="M46 337l4 62h493q-8 93 -66 148q-59 57 -149 57q-70 0 -124 -25q-58 -27 -84 -50l-62 96q112 97 286 97q149 0 242 -107q93 -106 93 -259q0 -162 -91 -265q-90 -103 -236 -103q-144 0 -225 93t-81 256zM542 299h-366q0 -94 45.5 -145.5t133.5 -51.5q84 0 134 54
q52 55 53 143z" />
    <glyph glyph-name="uni04D9" unicode="&#x4d9;" horiz-adv-x="561" 
d="M37 236l4 55h353q-7 59 -47.5 94t-98.5 35q-37 0 -77 -14q-41 -15 -57 -26l-20 -14l-47 88q103 68 217 68q119 0 189 -76q71 -77 71 -191q0 -120 -71 -194q-70 -73 -185 -73q-109 0 -171 68q-60 69 -60 180zM390 205h-221q1 -58 28.5 -88.5t73.5 -30.5q52 0 85 31.5
t34 87.5z" />
    <glyph glyph-name="uni04DA" unicode="&#x4da;" horiz-adv-x="724" 
d="M46 337l4 62h493q-8 93 -66 148q-59 57 -149 57q-70 0 -124 -25q-58 -27 -84 -50l-62 96q112 97 286 97q149 0 242 -107q93 -106 93 -259q0 -162 -91 -265q-90 -103 -236 -103q-144 0 -225 93t-81 256zM542 299h-366q0 -94 45.5 -145.5t133.5 -51.5q84 0 134 54
q52 55 53 143zM492 777h-97v116h97v-116zM309 777h-98v116h98v-116z" />
    <glyph glyph-name="uni04DB" unicode="&#x4db;" horiz-adv-x="561" 
d="M37 236l4 55h353q-7 59 -47.5 94t-98.5 35q-37 0 -77 -14q-41 -15 -57 -26l-20 -14l-47 88q103 68 217 68q119 0 189 -76q71 -77 71 -191q0 -120 -71 -194q-70 -73 -185 -73q-109 0 -171 68q-60 69 -60 180zM390 205h-221q1 -58 28.5 -88.5t73.5 -30.5q52 0 85 31.5
t34 87.5zM404 594h-97v116h97v-116zM221 594h-98v116h98v-116z" />
    <glyph glyph-name="uni04DC" unicode="&#x4dc;" horiz-adv-x="932" 
d="M158 0h-145l200 370v2l-185 338h139l152 -289h83v289h128v-289h83l152 289h139l-186 -338v-2l201 -370h-145l-161 310h-83v-310h-128v310h-83zM610 777h-97v116h97v-116zM427 777h-98v116h98v-116z" />
    <glyph glyph-name="uni04DD" unicode="&#x4dd;" horiz-adv-x="785" 
d="M152 0h-139l156 262v2l-143 246h132l113 -198h62v198h119v-198h62l113 198h132l-142 -246v-2l156 -262h-140l-117 205h-64v-205h-119v205h-64zM533 594h-97v116h97v-116zM350 594h-98v116h98v-116z" />
    <glyph glyph-name="uni04DE" unicode="&#x4de;" horiz-adv-x="555" 
d="M22 89l70 86q31 -32 74 -52.5t86 -20.5q58 0 92 29t34 80q0 46 -30.5 72.5t-82.5 26.5h-87v104h70q48 0 79 28t31 70q0 44 -28.5 71t-80.5 27q-81 0 -154 -60l-52 94q95 78 228 78q92 0 154 -52q64 -52 64 -142q0 -105 -98 -158v-2q56 -18 87.5 -61t31.5 -104
q0 -98 -71 -157q-70 -58 -175 -58q-69 0 -133 26.5t-109 74.5zM411 777h-97v116h97v-116zM228 777h-98v116h98v-116z" />
    <glyph glyph-name="uni04DF" unicode="&#x4df;" horiz-adv-x="458" 
d="M22 63l54 81q59 -58 129 -58q41 0 64.5 18.5t23.5 50.5q0 63 -85 63h-62v88h52q79 0 79 59q0 61 -76 61q-60 0 -123 -42l-41 81q76 57 188 57q79 0 129 -38t50 -102q0 -82 -70 -115v-2q86 -32 86 -117q0 -76 -57 -118t-144 -42q-117 0 -197 75zM359 594h-97v116h97v-116z
M176 594h-98v116h98v-116z" />
    <glyph glyph-name="uni04E0" unicode="&#x4e0;" horiz-adv-x="533" 
d="M31 49l41 93q30 -20 73.5 -33.5t82.5 -13.5q62 0 99 31t37 81q0 42 -23 65t-73 30q-24 2 -156 2v83l168 180q23 23 36 31l7 5v2q-27 -3 -61 -3h-215v108h419v-100l-178 -183l-29 -24v-2q59 -3 86 -10q144 -31 144 -181q0 -104 -73 -162q-71 -58 -181 -58q-115 0 -204 59z
" />
    <glyph glyph-name="uni04E1" unicode="&#x4e1;" horiz-adv-x="494" 
d="M7 -151l41 93q30 -20 73.5 -33.5t82.5 -13.5q62 0 99 31t37 81q0 42 -23 65t-73 30q-24 2 -156 2v83l168 180q23 23 36 31l7 5v2q-27 -3 -61 -3h-215v108h419v-100l-178 -183l-29 -24v-2q59 -3 86 -10q144 -31 144 -181q0 -103 -73 -161q-73 -59 -181 -59q-115 0 -204 59
z" />
    <glyph glyph-name="uni04E2" unicode="&#x4e2;" horiz-adv-x="753" 
d="M214 0h-128v710h129v-410l-7 -110h2q34 69 60 111l268 409h128v-710h-128v409l7 110h-2q-32 -66 -59 -110zM520 783h-262v87h262v-87z" />
    <glyph glyph-name="uni04E3" unicode="&#x4e3;" horiz-adv-x="606" 
d="M191 0h-123v510h121v-273q0 -37 -3 -61h2q7 13 38 61l189 273h123v-510h-121v272q0 22 3 61h-2q-2 -4 -38 -61zM439 600h-262v87h262v-87z" />
    <glyph glyph-name="uni04E4" unicode="&#x4e4;" horiz-adv-x="753" 
d="M214 0h-128v710h129v-410l-7 -110h2q34 69 60 111l268 409h128v-710h-128v409l7 110h-2q-32 -66 -59 -110zM518 777h-97v116h97v-116zM335 777h-98v116h98v-116z" />
    <glyph glyph-name="uni04E5" unicode="&#x4e5;" horiz-adv-x="606" 
d="M191 0h-123v510h121v-273q0 -37 -3 -61h2q7 13 38 61l189 273h123v-510h-121v272q0 22 3 61h-2q-2 -4 -38 -61zM446 594h-97v116h97v-116zM263 594h-98v116h98v-116z" />
    <glyph glyph-name="uni04E6" unicode="&#x4e6;" horiz-adv-x="822" 
d="M44 360q0 155 103 258q104 104 264 104q159 0 263 -104t104 -258q0 -158 -104 -265t-263 -107q-160 0 -264 107q-103 106 -103 265zM177 360q0 -108 66 -182q67 -72 168 -72t167 72q67 73 67 182q0 104 -67 174q-66 70 -167 70t-168 -70q-66 -70 -66 -174zM550 777h-97
v116h97v-116zM367 777h-98v116h98v-116z" />
    <glyph glyph-name="uni04E7" unicode="&#x4e7;" horiz-adv-x="634" 
d="M316 522q119 0 199 -76q82 -75 82 -191q0 -115 -81 -192q-81 -75 -199 -75t-199 75q-81 77 -81 192q0 116 81 191q80 76 198 76zM166 255q0 -71 43 -115q44 -44 108 -44t108 44q44 46 44 115t-45 114q-44 45 -107 45t-107 -45q-44 -46 -44 -114zM458 594h-97v116h97v-116
zM275 594h-98v116h98v-116z" />
    <glyph glyph-name="uni04E8" unicode="&#x4e8;" horiz-adv-x="822" 
d="M44 360q0 154 105 257q105 105 262 105t262 -105q105 -103 105 -257q0 -158 -105 -265t-262 -107t-262 107t-105 265zM412 101q87 0 151 58q65 59 81 148h-466q16 -90 81 -149q65 -57 153 -57zM412 607q-89 0 -154 -56t-80 -144h467q-17 89 -81 144q-65 56 -152 56z" />
    <glyph glyph-name="uni04E9" unicode="&#x4e9;" horiz-adv-x="634" 
d="M316 522q119 0 199 -76q82 -75 82 -191q0 -115 -81 -192q-81 -75 -199 -75t-199 75q-81 77 -81 192q0 116 81 191q80 76 198 76zM318 82q60 0 105 38t56 100h-323q10 -62 55.5 -100t106.5 -38zM318 427q-60 0 -104.5 -36t-56.5 -96h321q-13 59 -57.5 95.5t-102.5 36.5z
" />
    <glyph glyph-name="uni04EA" unicode="&#x4ea;" horiz-adv-x="822" 
d="M44 360q0 154 105 257q105 105 262 105t262 -105q105 -103 105 -257q0 -158 -105 -265t-262 -107t-262 107t-105 265zM412 101q87 0 151 58q65 59 81 148h-466q16 -90 81 -149q65 -57 153 -57zM412 607q-89 0 -154 -56t-80 -144h467q-17 89 -81 144q-65 56 -152 56z
M368 777h-98v116h98v-116zM551 777h-97v116h97v-116z" />
    <glyph glyph-name="uni04EB" unicode="&#x4eb;" horiz-adv-x="634" 
d="M316 522q119 0 199 -76q82 -75 82 -191q0 -115 -81 -192q-81 -75 -199 -75t-199 75q-81 77 -81 192q0 116 81 191q80 76 198 76zM318 82q60 0 105 38t56 100h-323q10 -62 55.5 -100t106.5 -38zM318 427q-60 0 -104.5 -36t-56.5 -96h321q-13 59 -57.5 95.5t-102.5 36.5z
M273 594h-98v116h98v-116zM456 594h-97v116h97v-116z" />
    <glyph glyph-name="uni04EC" unicode="&#x4ec;" horiz-adv-x="716" 
d="M28 97l65 91q40 -38 96 -60.5t115 -22.5q94 0 156 56q61 55 75 142h-340v105h341q-10 85 -74 141t-157 56q-110 0 -202 -80l-62 97q47 48 118 74t150 26q162 0 263 -104q100 -103 100 -259q0 -158 -104 -265q-103 -106 -264 -106q-163 0 -276 109zM466 777h-97v116h97
v-116zM283 777h-98v116h98v-116z" />
    <glyph glyph-name="uni04ED" unicode="&#x4ed;" horiz-adv-x="546" 
d="M24 63l47 88q65 -62 154 -62q62 0 106 34t55 89h-223v87h223q-10 55 -53 88.5t-103 33.5q-81 0 -142 -55l-54 85q71 71 201 71q123 0 198 -78q76 -76 76 -189q0 -114 -77 -191q-76 -76 -200 -76t-208 75zM395 594h-97v116h97v-116zM212 594h-98v116h98v-116z" />
    <glyph glyph-name="uni04EE" unicode="&#x4ee;" horiz-adv-x="612" 
d="M67 37l57 97q46 -35 80 -35q47 0 71 62l-278 549h142l151 -317l40 -94h2q18 62 29 93l114 318h135l-219 -561q-25 -65 -63 -108q-47 -53 -119 -53t-142 49zM439 783h-262v87h262v-87z" />
    <glyph glyph-name="uni04EF" unicode="&#x4ef;" horiz-adv-x="545" 
d="M13 -177l42 95q29 -21 56 -21q61 0 89 66l19 45l-215 502h143l107 -294l19 -69h2q6 29 17 67l100 296h138l-227 -587q-24 -65 -73 -99t-111 -34q-56 0 -93 24zM404 600h-262v87h262v-87z" />
    <glyph glyph-name="uni04F0" unicode="&#x4f0;" horiz-adv-x="612" 
d="M67 37l57 97q46 -35 80 -35q47 0 71 62l-278 549h142l151 -317l40 -94h2q18 62 29 93l114 318h135l-219 -561q-25 -65 -63 -108q-47 -53 -119 -53t-142 49zM454 777h-97v116h97v-116zM271 777h-98v116h98v-116z" />
    <glyph glyph-name="uni04F1" unicode="&#x4f1;" horiz-adv-x="545" 
d="M13 -177l42 95q29 -21 56 -21q61 0 89 66l19 45l-215 502h143l107 -294l19 -69h2q6 29 17 67l100 296h138l-227 -587q-24 -65 -73 -99t-111 -34q-56 0 -93 24zM413 594h-97v116h97v-116zM230 594h-98v116h98v-116z" />
    <glyph glyph-name="uni04F2" unicode="&#x4f2;" horiz-adv-x="612" 
d="M67 37l57 97q46 -35 80 -35q47 0 71 62l-278 549h142l151 -317l40 -94h2q18 62 29 93l114 318h135l-219 -561q-25 -65 -63 -108q-47 -53 -119 -53t-142 49zM443 757h-97l76 136h125zM276 757h-105l71 136h108z" />
    <glyph glyph-name="uni04F3" unicode="&#x4f3;" horiz-adv-x="545" 
d="M13 -177l42 95q29 -21 56 -21q61 0 89 66l19 45l-215 502h143l107 -294l19 -69h2q6 29 17 67l100 296h138l-227 -587q-24 -65 -73 -99t-111 -34q-56 0 -93 24zM398 574h-97l76 136h125zM231 574h-105l71 136h108z" />
    <glyph glyph-name="uni04F4" unicode="&#x4f4;" horiz-adv-x="660" 
d="M263 264q-108 0 -162.5 55t-54.5 158v233h131v-204q0 -125 119 -125q82 0 146 42v287h131v-710h-131v275l2 33h-2q-86 -44 -179 -44zM457 777h-97v116h97v-116zM274 777h-98v116h98v-116z" />
    <glyph glyph-name="uni04F5" unicode="&#x4f5;" horiz-adv-x="544" 
d="M38 339v171h125v-150q0 -85 87 -85q52 0 99 32v203h126v-510h-126v174l1 28h-2q-60 -33 -138 -33q-80 0 -126 43.5t-46 126.5zM401 594h-97v116h97v-116zM218 594h-98v116h98v-116z" />
    <glyph glyph-name="uni04F6" unicode="&#x4f6;" horiz-adv-x="510" 
d="M204 0h-118v710h408v-111h-279v-488h104v-251h-115v140z" />
    <glyph glyph-name="uni04F7" unicode="&#x4f7;" horiz-adv-x="426" 
d="M171 0h-103v510h335v-108h-208v-294h90v-228h-114v120z" />
    <glyph glyph-name="uni04F8" unicode="&#x4f8;" horiz-adv-x="876" 
d="M789 0h-128v710h128v-710zM350 0h-264v710h129v-249h132q99 0 160 -64q62 -64 62 -168q0 -102 -61 -166q-62 -63 -158 -63zM215 350v-239h112q53 0 82 31.5t29 86.5t-30 88t-83 33h-110zM578 777h-97v116h97v-116zM395 777h-98v116h98v-116z" />
    <glyph glyph-name="uni04F9" unicode="&#x4f9;" horiz-adv-x="743" 
d="M675 0h-127v510h127v-510zM285 0h-217v510h127v-175h91q91 0 141.5 -44t50.5 -125q0 -79 -49 -122.5t-144 -43.5zM195 249v-162h70q41 0 63 21.5t22 58.5q0 38 -22.5 60t-64.5 22h-68zM511 594h-97v116h97v-116zM328 594h-98v116h98v-116z" />
    <glyph glyph-name="uni0524" unicode="&#x524;" horiz-adv-x="789" 
d="M215 0h-129v710h575v-599h104v-251h-115v140h-118v599h-317v-599z" />
    <glyph glyph-name="uni0525" unicode="&#x525;" horiz-adv-x="644" 
d="M195 0h-127v510h465v-402h90v-228h-115v120h-102v402h-211v-402z" />
    <glyph glyph-name="uni1E9E" unicode="&#x1e9e;" horiz-adv-x="687" 
d="M211 0h-131v496q0 94 61 154t157 60h316v-89l-120 -181l-23 -31v-2l19 -1q69 -9 111 -67q43 -58 43 -129q0 -88 -64 -149q-62 -61 -153 -61h-137v111h127q42 0 68.5 28.5t26.5 70.5t-26 69.5t-68 27.5h-84v89l89 141q21 35 40 57l5 5v2q-10 -2 -44 -2h-123
q-39 0 -64.5 -29t-25.5 -72v-498z" />
    <glyph glyph-name="thinspace" unicode="&#x2009;" horiz-adv-x="16" 
 />
    <glyph glyph-name="endash" unicode="&#x2013;" horiz-adv-x="689" 
d="M621 236h-553v99h553v-99z" />
    <glyph glyph-name="emdash" unicode="&#x2014;" horiz-adv-x="889" 
d="M821 236h-753v99h753v-99z" />
    <glyph glyph-name="quoteleft" unicode="&#x2018;" horiz-adv-x="262" 
d="M169 504h-117l75 218h89z" />
    <glyph glyph-name="quoteright" unicode="&#x2019;" horiz-adv-x="255" 
d="M146 504h-89l47 218h117z" />
    <glyph glyph-name="quotesinglbase" unicode="&#x201a;" horiz-adv-x="265" 
d="M127 -89h-87l48 218h113z" />
    <glyph glyph-name="quotedblleft" unicode="&#x201c;" horiz-adv-x="426" 
d="M333 504h-118l75 218h90zM169 504h-117l75 218h90z" />
    <glyph glyph-name="quotedblright" unicode="&#x201d;" horiz-adv-x="419" 
d="M310 504h-90l47 218h118zM147 504h-90l47 218h117z" />
    <glyph glyph-name="quotedblbase" unicode="&#x201e;" horiz-adv-x="424" 
d="M286 -89h-86l47 218h114zM127 -89h-87l48 218h113z" />
    <glyph glyph-name="dagger" unicode="&#x2020;" horiz-adv-x="452" 
d="M286 -50h-122v461h-124v99h124v200h122v-200h126v-99h-126v-461z" />
    <glyph glyph-name="daggerdbl" unicode="&#x2021;" horiz-adv-x="480" 
d="M178 163h-124v98h124v150h-124v99h124v200h122v-200h126v-99h-126v-150h126v-98h-126v-213h-122v213z" />
    <glyph glyph-name="bullet" unicode="&#x2022;" horiz-adv-x="494" 
d="M247 124q-69 0 -118 49t-49 118t49 118t118 49q70 0 118 -49q49 -49 49 -118t-49 -118q-48 -49 -118 -49z" />
    <glyph glyph-name="ellipsis" unicode="&#x2026;" horiz-adv-x="825" 
d="M759 0h-124v128h124v-128zM474 0h-123v128h123v-128zM189 0h-123v128h123v-128z" />
    <glyph glyph-name="perthousand" unicode="&#x2030;" horiz-adv-x="1167" 
d="M46 564q0 64 48 111q49 47 115 47q67 0 116 -47q48 -47 48 -111q0 -66 -48 -112q-47 -46 -116 -46t-116 46q-47 47 -47 112zM188 0h-116l544 710h117zM276 564q0 27 -19.5 46.5t-47.5 19.5t-47 -19.5t-19 -46.5q0 -28 19 -47t47 -19t47.5 19t19.5 47zM854 34
q-47 47 -47 111q0 65 48 111q49 47 115 47t115 -47q49 -46 49 -111t-48 -111q-47 -46 -116 -46t-116 46zM597 303q66 0 115 -47q49 -46 49 -111t-48 -111q-47 -46 -116 -46t-116 46q-47 47 -47 111t47 111q49 47 116 47zM904 146q0 -28 19 -47t47 -19t47.5 19t19.5 47
q0 27 -19.5 46.5t-47.5 19.5t-47 -19.5t-19 -46.5zM531 146q0 -28 19 -47t47 -19t47.5 19t19.5 47q0 27 -19.5 46.5t-47.5 19.5t-47 -19.5t-19 -46.5z" />
    <glyph glyph-name="guilsinglleft" unicode="&#x2039;" horiz-adv-x="373" 
d="M325 77h-121l-164 205l164 206h121l-164 -206z" />
    <glyph glyph-name="guilsinglright" unicode="&#x203a;" horiz-adv-x="373" 
d="M169 77h-121l164 205l-164 206h121l164 -206z" />
    <glyph glyph-name="fraction" unicode="&#x2044;" horiz-adv-x="180" 
d="M304 710l-335 -710h-93l336 710h92z" />
    <glyph glyph-name="zerosuperior" unicode="&#x2070;" 
d="M34 643q0 229 162 229t162 -229q0 -230 -162 -230t-162 230zM196 500q66 0 66 143q0 141 -66 141q-67 0 -67 -141q0 -143 67 -143z" />
    <glyph glyph-name="foursuperior" unicode="&#x2074;" 
d="M312 423h-94v99h-203v64l189 276h108v-258h58v-82h-58v-99zM111 606v-2h107v110l4 55h-2q-12 -26 -26 -47z" />
    <glyph glyph-name="fivesuperior" unicode="&#x2075;" 
d="M187 413q-93 0 -151 67l52 67q14 -20 40 -33.5t52 -13.5q32 0 54.5 19.5t22.5 48.5q0 30 -23 49.5t-56 19.5q-38 0 -71 -18l-51 19l22 224h245v-84h-168l-5 -47l-4 -25l2 -1q24 8 51 8q67 0 110 -43q44 -42 44 -103q0 -62 -46 -108t-120 -46z" />
    <glyph glyph-name="sixsuperior" unicode="&#x2076;" 
d="M208 413q-74 0 -123 55t-49 150q0 100 54 176q54 78 150 78q54 0 98 -23l-28 -81q-29 16 -65 16q-38 0 -64.5 -26t-36.5 -71h2q26 21 63 21q68 0 109 -40.5t41 -103.5q0 -64 -42 -108q-40 -43 -109 -43zM208 500q26 0 41.5 18.5t15.5 46.5q0 32 -19.5 53t-51.5 21
q-24 0 -42 -12t-18 -28q0 -39 22 -69t52 -30z" />
    <glyph glyph-name="sevensuperior" unicode="&#x2077;" 
d="M156 423h-104l175 317l24 38v2q-24 -2 -39 -2h-167v84h315v-65z" />
    <glyph glyph-name="eightsuperior" unicode="&#x2078;" 
d="M196 413q-66 0 -116 36q-49 37 -49 101q0 60 69 110q-47 35 -47 90q0 56 42 89t104 33q59 0 104 -33t45 -90q0 -49 -53 -108q62 -38 62 -99q0 -58 -48 -94q-47 -35 -113 -35zM196 687l34 -15q29 37 29 71q0 21 -18 34t-43 13q-24 0 -39 -11.5t-15 -32.5q0 -26 27 -44
q18 -12 25 -15zM196 494q27 0 46.5 15t19.5 38q0 22 -22 38l-21 13q-11 7 -29 15l-28 13q-39 -34 -39 -71q0 -27 21 -44t52 -17z" />
    <glyph glyph-name="ninesuperior" unicode="&#x2079;" 
d="M53 436l28 81q33 -16 65 -16q38 0 64.5 26t36.5 70h-2q-29 -21 -63 -21q-68 0 -109 40.5t-41 104.5q0 63 41 107q42 44 110 44q72 0 122 -56t50 -150q0 -98 -54 -176q-54 -77 -150 -77q-57 0 -98 23zM196 645q24 0 42.5 12.5t18.5 27.5q0 39 -22 69t-52 30
q-26 0 -41.5 -18t-15.5 -46q0 -32 19.5 -53.5t50.5 -21.5z" />
    <glyph glyph-name="zeroinferior" unicode="&#x2080;" 
d="M34 63q0 229 162 229t162 -229q0 -230 -162 -230t-162 230zM196 -80q66 0 66 143q0 141 -66 141q-67 0 -67 -141q0 -143 67 -143z" />
    <glyph glyph-name="oneinferior" unicode="&#x2081;" 
d="M344 -157h-278v83h92v207l2 28h-2q-4 -8 -15 -19l-31 -29l-56 60l113 109h84v-356h91v-83z" />
    <glyph glyph-name="twoinferior" unicode="&#x2082;" 
d="M348 -157h-305q-4 25 -4 41q0 41 15.5 74t38.5 53t49.5 39t49.5 32.5t38.5 31.5t15.5 38q0 23 -17.5 37.5t-43.5 14.5q-40 0 -80 -46l-62 55q22 35 62 57t85 22q64 0 107 -37q45 -36 45 -99q0 -34 -14 -62t-35.5 -45.5t-47 -34t-47 -28.5t-37 -27.5t-17.5 -32.5h204v-83z
" />
    <glyph glyph-name="threeinferior" unicode="&#x2083;" 
d="M184 -167q-44 0 -85 17.5t-67 49.5l49 67q37 -47 98 -47q30 0 51 18t21 45q0 26 -22.5 41.5t-55.5 15.5h-35l-20 45l78 90l25 24v2q-19 -3 -36 -3h-129v84h280v-61l-98 -112q50 -9 79.5 -42.5t29.5 -84.5q0 -62 -45 -105q-46 -44 -118 -44z" />
    <glyph glyph-name="fourinferior" unicode="&#x2084;" 
d="M312 -157h-94v99h-203v64l189 276h108v-258h58v-82h-58v-99zM111 26v-2h107v110l4 55h-2q-12 -26 -26 -47z" />
    <glyph glyph-name="fiveinferior" unicode="&#x2085;" 
d="M187 -167q-93 0 -151 67l52 67q14 -20 40 -33.5t52 -13.5q32 0 54.5 19.5t22.5 48.5q0 30 -23 49.5t-56 19.5q-38 0 -71 -18l-51 19l22 224h245v-84h-168l-5 -47l-4 -25l2 -1q24 8 51 8q67 0 110 -43q44 -42 44 -103q0 -62 -46 -108t-120 -46z" />
    <glyph glyph-name="sixinferior" unicode="&#x2086;" 
d="M208 -167q-74 0 -123 55t-49 150q0 100 54 176q54 78 150 78q54 0 98 -23l-28 -81q-29 16 -65 16q-38 0 -64.5 -26t-36.5 -71h2q26 21 63 21q68 0 109 -40.5t41 -103.5q0 -64 -42 -107q-41 -44 -109 -44zM208 -80q26 0 41.5 18.5t15.5 46.5q0 32 -19.5 53t-51.5 21
q-24 0 -42 -12t-18 -28q0 -39 22 -69t52 -30z" />
    <glyph glyph-name="seveninferior" unicode="&#x2087;" 
d="M156 -157h-104l175 317l24 38v2q-24 -2 -39 -2h-167v84h315v-65z" />
    <glyph glyph-name="eightinferior" unicode="&#x2088;" 
d="M196 -166q-67 0 -116 37q-49 36 -49 100q0 61 69 110q-47 35 -47 90q0 56 42 89t104 33q59 0 104 -33t45 -90q0 -49 -53 -108q62 -38 62 -99q0 -59 -48 -93q-46 -36 -113 -36zM196 108l34 -15q29 37 29 71q0 21 -18 34t-43 13q-24 0 -39 -11.5t-15 -32.5q0 -26 27 -44
q18 -12 25 -15zM196 -85q27 0 46.5 15t19.5 38q0 22 -22 38l-21 13q-11 7 -29 15l-28 13q-39 -35 -39 -71q0 -27 21 -44t52 -17z" />
    <glyph glyph-name="nineinferior" unicode="&#x2089;" 
d="M53 -144l28 81q33 -16 65 -16q38 0 64.5 26t36.5 70h-2q-29 -21 -63 -21q-68 0 -109 40.5t-41 104.5q0 63 41 107q42 44 110 44q72 0 122 -56t50 -150q0 -99 -54 -175q-54 -78 -150 -78q-57 0 -98 23zM196 65q24 0 42.5 12.5t18.5 27.5q0 39 -22 69t-52 30
q-26 0 -41.5 -18t-15.5 -46q0 -32 19.5 -53.5t50.5 -21.5z" />
    <glyph glyph-name="Euro" unicode="&#x20ac;" horiz-adv-x="586" 
d="M95 250h-69v76h56q-5 28 -1 62h-55v77h69q33 115 126 185q95 72 216 72q52 0 107 -13l-31 -117q-30 10 -79 10q-71 0 -124.5 -37t-76.5 -100h255l-16 -77h-257q-4 -24 1 -62h244l-15 -76h-207q24 -64 78 -102t123 -38q45 0 92 14l24 -118q-53 -18 -118 -18
q-127 0 -219 72t-123 190z" />
    <glyph glyph-name="numero" unicode="&#x2116;" horiz-adv-x="1085" 
d="M210 0h-128v710h129l268 -410q18 -29 50 -92l9 -18h2q-7 63 -7 110v410h129v-710h-128l-270 409q-18 29 -50 92l-9 18h-2q7 -63 7 -110v-409zM886 616q64 0 108 -45q45 -43 45 -107t-44 -108q-43 -43 -109 -43q-67 0 -110 43q-44 44 -44 108t44 108t110 44zM825 465
q0 -27 17.5 -45.5t43.5 -18.5t43.5 18.5t17.5 45.5q0 26 -17.5 44t-43.5 18t-43.5 -18t-17.5 -44zM1027 171h-286v88h286v-88z" />
    <glyph glyph-name="trademark" unicode="&#x2122;" horiz-adv-x="1004" 
d="M572 267h-96l35 443h89l91 -209l14 -42h2q7 28 13 42l92 209h89l33 -443h-95l-17 228l1 31h-2l-77 -178h-76l-78 178h-2l1 -31zM302 267h-95v359h-149v84h391v-84h-147v-359z" />
    <glyph glyph-name="minus" unicode="&#x2212;" horiz-adv-x="586" 
d="M557 236h-528v99h528v-99z" />
    <glyph glyph-name="infinity" unicode="&#x221e;" horiz-adv-x="494" 
d="M382 213q-56 -56 -135 -56t-135 56q-56 58 -56 136q0 79 56 135t135 56t135 -56t56 -135q0 -78 -56 -136z" />
    <glyph glyph-name="approxequal" unicode="&#x2248;" horiz-adv-x="586" 
d="M87 322l-50 74q76 76 157 76q49 0 107 -35q59 -35 91 -35q58 0 107 55l49 -75q-73 -76 -156 -76q-49 0 -108 35q-58 35 -90 35q-54 0 -107 -54zM87 117l-50 75q77 75 157 75q49 0 107 -35q59 -35 91 -35q58 0 107 55l49 -75q-75 -75 -156 -75q-49 0 -108 35
q-58 35 -90 35q-55 0 -107 -55z" />
    <glyph glyph-name="notequal" unicode="&#x2260;" horiz-adv-x="586" 
d="M163 24l-62 39l49 71h-102v98h166l74 107h-240v98h305l76 112l61 -40l-50 -72h97v-98h-161l-74 -107h235v-98h-299z" />
    <glyph glyph-name="lessequal" unicode="&#x2264;" horiz-adv-x="586" 
d="M526 31l-481 214v82l481 214v-111l-347 -143v-2l347 -143v-111zM47 -183v98h479v-98h-479z" />
    <glyph glyph-name="greaterequal" unicode="&#x2265;" horiz-adv-x="586" 
d="M541 245l-481 -214v111l346 143v2l-346 143v111l481 -214v-82zM60 -183v98h479v-98h-479z" />
    <glyph glyph-name="commaaccent" unicode="&#xf6c3;" horiz-adv-x="335" 
d="M118 -55h105q7 -27 7 -54q0 -42 -26 -97h-94q20 54 20 87t-12 64z" />
    <glyph glyph-name="cyrbreve" unicode="&#xf6d4;" horiz-adv-x="369" 
d="M19 880v13h97v-13q-2 -39 32.5 -55.5t69 0t33.5 56.5v12h96v-13q0 -64 -48 -101q-47 -37 -116 -37t-116 37q-48 37 -48 101z" />
    <glyph glyph-name="apple" unicode="&#xf8ff;" horiz-adv-x="1130" 
d="M433 -146l-265 141v152l-126 72v278l126 71v151l265 142l134 -71l132 71l265 -142v-151l124 -71v-278l-124 -72v-152l-265 -141l-132 71zM208 169v-139l238 -126l121 66l118 -66l238 126v139l114 64v249l-114 66v136l-238 126l-118 -64l-121 64l-238 -126v-136l-114 -66
v-249zM457 -50l-215 114v121l-99 60v225l99 58v123l215 114l110 -59l107 59l214 -114v-123l100 -58v-225l-100 -60v-121l-214 -114l-107 58zM447 551v-460h43v228h228v40h-228v192h199q17 0 23 -6.5t6 -22.5v-42h42v54q0 30 -13 43.5t-45 13.5h-320v-40h65z" />
    <glyph glyph-name="NULL" horiz-adv-x="0" 
 />
    <glyph glyph-name="CR" horiz-adv-x="333" 
 />
    <glyph glyph-name="zero.tnum" horiz-adv-x="586" 
d="M294 722q257 0 257 -366q-2 -127 -32.5 -212.5t-103.5 -127.5q-50 -28 -121 -28q-141 0 -202 108q-30 56 -43 116q-13 62 -13 144t13 144q48 222 245 222zM419 356q0 247 -125 247t-125 -247q0 -250 125 -250t125 250z" />
    <glyph glyph-name="one.tnum" horiz-adv-x="586" 
d="M524 0h-434v111h155v394l1 48h-2q-10 -18 -32 -40l-57 -54l-76 80l178 171h113v-599h154v-111z" />
    <glyph glyph-name="two.tnum" horiz-adv-x="586" 
d="M530 0h-471q-6 34 -6 63q0 52 18.5 97t47.5 77.5t64.5 60.5t71 52t64.5 47t47.5 49.5t18.5 54.5q0 44 -30.5 71.5t-77.5 27.5q-38 0 -72 -23.5t-56 -60.5l-96 64q35 65 96 103.5t139 38.5q96 0 164 -57q67 -55 67 -153q0 -63 -33 -115t-80 -86.5t-94.5 -65t-81.5 -64.5
t-35 -70h335v-111z" />
    <glyph glyph-name="three.tnum" horiz-adv-x="586" 
d="M44 83l66 99q31 -32 74.5 -52t87.5 -20q55 0 91 30t36 76q0 53 -41.5 81.5t-110.5 28.5h-49l-28 66l130 154q16 20 44 48l7 6v2q-23 -3 -63 -3h-212v111h433v-81l-173 -201q81 -11 136 -66q57 -54 57 -141q0 -95 -68 -165q-68 -68 -182 -68q-66 0 -128 25t-107 70z" />
    <glyph glyph-name="four.tnum" horiz-adv-x="586" 
d="M345 183h-332v79l307 448h152v-420h92v-107h-92v-183h-127v183zM149 292v-2h196v220l5 74h-2q-19 -42 -35 -65z" />
    <glyph glyph-name="five.tnum" horiz-adv-x="586" 
d="M51 84l67 97q65 -71 151 -71q54 0 93 33q40 34 40 88q0 55 -40 89t-102 34q-59 0 -110 -30l-72 26l33 360h374v-111h-262l-11 -117l-5 -33h2q29 16 76 16q115 0 182 -67q68 -68 68 -166q0 -105 -73 -175q-74 -69 -183 -69q-138 0 -228 96z" />
    <glyph glyph-name="six.tnum" horiz-adv-x="586" 
d="M43 324q0 57 12.5 113t39.5 107.5t64.5 91t92 63t118.5 23.5q83 0 146 -30l-38 -111q-40 22 -101 22q-78 0 -126 -55q-49 -56 -62 -135h2q18 22 56 36t77 14q103 0 164 -69q63 -69 63 -169q0 -99 -65 -169q-65 -68 -168 -68q-117 0 -196 91t-79 245zM319 106
q47 0 76 33.5t29 85.5q0 58 -35 95t-95 37q-50 0 -83.5 -22t-33.5 -58q0 -61 42 -117q42 -54 100 -54z" />
    <glyph glyph-name="seven.tnum" horiz-adv-x="586" 
d="M234 0h-134l266 534q18 37 36 58l5 7v2q-14 -2 -47 -2h-303v111h488v-90z" />
    <glyph glyph-name="eight.tnum" horiz-adv-x="586" 
d="M38 205q0 71 44 122q32 38 64 62q-74 57 -74 138t59 138t169 57q100 0 165 -53t65 -143q0 -91 -79 -177q91 -58 91 -150q0 -86 -69 -149q-68 -62 -182 -62q-112 0 -183 62q-70 63 -70 155zM330 408l25 -11q49 59 49 119q0 42 -29.5 66.5t-77.5 24.5q-45 0 -71.5 -22.5
t-26.5 -59.5q0 -22 11 -40q17 -22 28 -30q24 -16 42 -25l23 -11q6 -1 27 -11zM170 215q0 -48 36 -81q37 -32 85 -32q51 0 85.5 28.5t34.5 73.5q0 37 -39 63q-23 17 -36 23q-19 10 -50 23q-43 19 -49 22q-67 -57 -67 -120z" />
    <glyph glyph-name="nine.tnum" horiz-adv-x="586" 
d="M70 18l38 111q49 -23 100 -23q78 0 126 54q48 56 63 136h-2q-18 -22 -56 -36t-77 -14q-102 0 -165 69q-63 71 -63 169q0 99 65 169q65 69 169 69q116 0 195 -91t79 -246q0 -72 -20.5 -141t-59.5 -127t-103.5 -93.5t-143.5 -35.5q-83 0 -145 30zM292 352q48 0 82.5 22.5
t34.5 54.5q0 68 -43 120q-42 54 -97 54q-48 0 -77.5 -33.5t-29.5 -85.5q0 -58 35 -95t95 -37z" />
    <glyph glyph-name="hyphen.case" horiz-adv-x="432" 
d="M366 292h-300v111h300v-111z" />
    <glyph glyph-name="parenleft.case" horiz-adv-x="308" 
d="M274 -65h-107q-119 196 -119 438q0 210 119 398h107q-113 -191 -113 -399q0 -225 113 -437z" />
    <glyph glyph-name="parenright.case" horiz-adv-x="308" 
d="M141 -65h-107q113 212 113 437q0 208 -113 399h107q119 -188 119 -398q0 -242 -119 -438z" />
    <glyph glyph-name="bracketleft.case" horiz-adv-x="321" 
d="M277 -65h-197v836h197v-92h-89v-652h89v-92z" />
    <glyph glyph-name="bracketright.case" horiz-adv-x="321" 
d="M44 -65v92h89v652h-89v92h197v-836h-197z" />
    <glyph glyph-name="braceleft.case" horiz-adv-x="371" 
d="M122 101v97q0 43 -22 70.5t-63 33.5v111q40 6 62.5 33.5t22.5 72.5v86q0 82 45 125q19 17 45 28q44 16 87 16l31 -1v-94q-5 1 -18 1t-24.5 -3t-25.5 -11t-22.5 -26.5t-8.5 -44.5v-109q0 -45 -22.5 -79t-60.5 -48v-2q83 -32 83 -126v-120q0 -85 81 -85l18 1v-94
q-18 -2 -31 -2q-43 0 -87 16q-90 34 -90 154z" />
    <glyph glyph-name="braceright.case" horiz-adv-x="371" 
d="M41 -67v94q5 -1 18 -1q81 0 81 85v120q0 45 22 79.5t60 46.5v2q-35 12 -58.5 47.5t-23.5 79.5v109q0 26 -8.5 44.5t-22.5 26.5t-25.5 11t-24.5 3l-18 -1v94q8 1 31 1q55 0 108 -27q68 -35 68 -142v-86q0 -43 22.5 -72t62.5 -34v-111q-39 -4 -62 -33t-23 -71v-97
q0 -84 -46 -126q-53 -46 -130 -44z" />
    <glyph glyph-name="at.case" horiz-adv-x="815" 
d="M52 352q0 156 108 264q109 109 268 109q144 0 209 -61q66 -62 66 -157v-250h73v-91h-277q-98 0 -156 55q-59 56 -59 131t58 129t157 54h85q-1 39 -43.5 63.5t-108.5 24.5q-108 0 -181 -81q-74 -82 -74 -190q0 -112 74 -191q75 -77 198 -77v-99q-176 0 -287 105
q-110 105 -110 262zM507 257h77v196h-75q-44 0 -71 -28t-27 -70t27 -70t69 -28z" />
    <glyph glyph-name="guillemotleft.case" horiz-adv-x="597" 
d="M550 137h-121l-164 205l164 206h121l-164 -206zM325 137h-121l-164 205l164 206h121l-164 -206z" />
    <glyph glyph-name="guillemotright.case" horiz-adv-x="597" 
d="M393 137h-121l164 205l-164 206h121l164 -206zM168 137h-121l164 205l-164 206h121l164 -206z" />
    <glyph glyph-name="guilsinglleft.case" horiz-adv-x="373" 
d="M325 137h-121l-164 205l164 206h121l-164 -206z" />
    <glyph glyph-name="guilsinglright.case" horiz-adv-x="373" 
d="M168 137h-121l164 205l-164 206h121l164 -206z" />
    <glyph glyph-name="endash.case" horiz-adv-x="685" 
d="M619 296h-553v99h553v-99z" />
    <glyph glyph-name="emdash.case" horiz-adv-x="885" 
d="M819 296h-753v99h753v-99z" />
    <glyph glyph-name="periodcentered.case" horiz-adv-x="254" 
d="M188 282h-122v127h122v-127z" />
    <glyph glyph-name="questiondown.case" horiz-adv-x="484" 
d="M215 504h122v-48q0 -75 -58 -128q-6 -5 -28 -24t-30.5 -28t-22.5 -25.5t-19.5 -32.5t-5.5 -33q0 -35 28 -59t69 -24q55 0 106 42l71 -87q-77 -72 -188 -72q-89 0 -154 51q-65 53 -65 137q0 85 61 144q9 9 30.5 27t32.5 28.5t25 26.5t20 32.5t6 33.5v39zM215 709h123v-119
h-123v119z" />
    <glyph glyph-name="exclamdown.case" horiz-adv-x="287" 
d="M88 504h111l10 -505h-131zM82 709h123v-119h-123v119z" />
    <glyph glyph-name="bullet.case" horiz-adv-x="492" 
d="M246 187q-69 0 -118 49t-49 118t49 118t118 49q70 0 118 -49q49 -49 49 -118t-49 -118q-48 -49 -118 -49z" />
    <glyph glyph-name="zero.p_osf" horiz-adv-x="585" 
d="M46 274q0 119 63 203q63 85 184 85q82 0 139.5 -43t82 -106.5t24.5 -139.5q0 -56 -14.5 -105.5t-43.5 -90.5t-77.5 -65t-110.5 -24q-121 0 -184 84t-63 202zM293 96q60 0 88 52q30 52 30 126t-30 127q-29 53 -88 53q-60 0 -90 -52q-29 -53 -29 -127t29 -127
q30 -52 90 -52z" />
    <glyph glyph-name="one.p_osf" horiz-adv-x="498" 
d="M470 0h-407v108h148v249l1 65h-2q-14 -16 -38 -30l-77 -45l-58 87l187 116h110v-442h136v-108z" />
    <glyph glyph-name="two.p_osf" horiz-adv-x="547" 
d="M502 0h-447v86q67 43 105 70q55 40 91 70q96 81 96 144q0 40 -26.5 60.5t-69.5 20.5q-74 0 -144 -73l-66 83q38 44 100 72.5t127 28.5q88 0 148 -48t60 -127q0 -80 -57 -144.5t-178 -136.5v-2q20 4 63 4h198v-108z" />
    <glyph glyph-name="three.p_osf" horiz-adv-x="540" 
d="M28 -40l60 89q69 -69 155 -69q57 0 92.5 28t35.5 75q0 53 -45 81q-44 28 -104 28h-55l-28 62l126 147q22 27 38 37l6 5v2q-20 -4 -63 -4h-180v109h411v-74l-175 -193q80 -10 139 -60q58 -49 58 -132q0 -93 -69 -156q-68 -63 -183 -63q-134 0 -219 88z" />
    <glyph glyph-name="four.p_osf" horiz-adv-x="600" 
d="M344 29h-320v79l290 442h157v-413h95v-108h-95v-145h-127v145zM312 361l-152 -224h184v217l5 74h-2q-18 -42 -35 -67z" />
    <glyph glyph-name="five.p_osf" horiz-adv-x="544" 
d="M36 -36l59 88q27 -31 68 -49.5t82 -18.5q55 0 95 30q41 30 41 84t-39.5 86t-98.5 32q-52 0 -99 -20l-14 -7l-68 25l33 336h360v-109h-252l-11 -108l-5 -31h2q36 14 77 14q110 0 176 -60q67 -58 67 -152q0 -104 -72 -165q-71 -63 -183 -63q-134 0 -218 88z" />
    <glyph glyph-name="six.p_osf" horiz-adv-x="595" 
d="M50 298q0 141 78 256q39 58 102.5 91t139.5 33q82 0 145 -28l-38 -101q-45 21 -100 21q-76 0 -125 -55t-62 -130h2q18 21 56.5 35t78.5 14q101 0 162 -64q62 -65 62 -157q0 -93 -65 -160q-65 -65 -166 -65q-115 0 -193 82q-77 83 -77 228zM181 261q0 -64 40 -114
q41 -51 99 -51q48 0 76 32t28 84q0 53 -34.5 87.5t-93.5 34.5q-48 0 -81.5 -21t-33.5 -52z" />
    <glyph glyph-name="seven.p_osf" horiz-adv-x="523" 
d="M209 -116h-133l253 498q11 23 31 55l5 6v2q-11 -3 -46 -3h-289v108h477v-85z" />
    <glyph glyph-name="eight.p_osf" horiz-adv-x="592" 
d="M48 193q0 93 105 172q-73 52 -73 130q0 77 57 129q59 53 164 53q97 0 161 -50q63 -49 63 -134q0 -36 -16 -74q-20 -48 -57 -92q89 -57 89 -140q0 -82 -67 -140q-68 -59 -179 -59q-109 0 -179 59q-68 59 -68 146zM355 373q48 57 48 112q0 39 -28.5 62t-75.5 23
q-45 0 -71 -21.5t-26 -55.5q0 -26 21 -49q29 -29 114 -64q3 -1 7 -2.5t6.5 -3t4.5 -1.5zM174 203q0 -47 35 -77.5t86 -30.5t84.5 27t33.5 69q-2 23 -14.5 39t-40.5 31q-25 13 -33 17l-41 17l-40 18q-70 -52 -70 -110z" />
    <glyph glyph-name="nine.p_osf" horiz-adv-x="578" 
d="M72 -100l38 101q43 -21 100 -21q76 0 124 54q50 54 63 130h-2q-18 -21 -56.5 -34.5t-77.5 -13.5q-102 0 -163 63q-62 65 -62 157q0 96 64 160q65 66 167 66q116 0 193 -83t77 -228q0 -143 -78 -255q-39 -58 -102.5 -91t-139.5 -33q-83 0 -145 28zM291 216q48 0 81.5 21
t33.5 51q0 65 -40 115q-40 51 -99 51q-48 0 -76 -32t-28 -84q0 -53 34.5 -87.5t93.5 -34.5z" />
    <glyph glyph-name="zero.t_osf" horiz-adv-x="586" 
d="M46 274q0 119 63 203q63 85 184 85q82 0 139.5 -43t82 -106.5t24.5 -139.5q0 -56 -14.5 -105.5t-43.5 -90.5t-77.5 -65t-110.5 -24q-121 0 -184 84t-63 202zM293 96q60 0 88 52q30 52 30 126t-30 127q-29 53 -88 53q-60 0 -90 -52q-29 -53 -29 -127t29 -127
q30 -52 90 -52z" />
    <glyph glyph-name="one.t_osf" horiz-adv-x="586" 
d="M514 0h-407v108h148v249l1 65h-2q-14 -16 -38 -30l-77 -45l-58 87l187 116h110v-442h136v-108z" />
    <glyph glyph-name="two.t_osf" horiz-adv-x="586" 
d="M522 0h-447v86q67 43 105 70q55 40 91 70q96 81 96 144q0 40 -26.5 60.5t-69.5 20.5q-74 0 -144 -73l-66 83q38 44 100 72.5t127 28.5q88 0 148 -48t60 -127q0 -80 -57 -144.5t-178 -136.5v-2q20 4 63 4h198v-108z" />
    <glyph glyph-name="three.t_osf" horiz-adv-x="586" 
d="M52 -39l60 89q69 -69 154 -69q57 0 92.5 28t35.5 75q0 53 -45 80q-44 28 -104 28h-54l-28 62l125 147q22 27 38 37l6 5v2q-20 -4 -63 -4h-179v109h410v-74l-175 -193q79 -11 138 -60q59 -50 59 -131q0 -93 -69 -156q-67 -63 -183 -63q-62 0 -119.5 23t-98.5 65z" />
    <glyph glyph-name="four.t_osf" horiz-adv-x="586" 
d="M338 29h-320v79l290 442h157v-413h95v-108h-95v-145h-127v145zM306 361l-152 -224h184v217l5 74h-2q-18 -42 -35 -67z" />
    <glyph glyph-name="five.t_osf" horiz-adv-x="586" 
d="M57 -36l59 88q27 -31 68 -49.5t82 -18.5q54 0 95 30t41 84t-39.5 86t-98.5 32q-52 0 -99 -20l-14 -7l-68 25l33 336h360v-109h-252l-11 -108l-5 -31h2q36 14 77 14q110 0 176 -60q67 -58 67 -152q0 -104 -72 -165q-70 -63 -183 -63q-134 0 -218 88z" />
    <glyph glyph-name="six.t_osf" horiz-adv-x="586" 
d="M47 298q0 141 78 256q39 58 102.5 91t139.5 33q82 0 145 -28l-38 -101q-47 21 -100 21q-76 0 -125 -55t-62 -130h2q18 21 56.5 35t78.5 14q101 0 162 -64q62 -65 62 -157q0 -93 -65 -160q-65 -65 -166 -65q-115 0 -193 82q-77 83 -77 228zM178 261q0 -64 40 -114
q40 -51 99 -51q48 0 76 32t28 84q0 53 -34.5 87.5t-93.5 34.5q-48 0 -81.5 -21t-33.5 -52z" />
    <glyph glyph-name="seven.t_osf" horiz-adv-x="586" 
d="M240 -116h-133l253 498q20 41 32 55l4 6v2q-11 -3 -46 -3h-289v108h477v-85z" />
    <glyph glyph-name="eight.t_osf" horiz-adv-x="586" 
d="M45 193q0 93 105 172q-73 52 -73 130q0 77 57 129q59 53 164 53q97 0 161 -50q63 -49 63 -134q0 -36 -16 -74q-20 -48 -57 -92q89 -57 89 -140q0 -82 -67 -140q-68 -59 -179 -59q-109 0 -179 59q-68 59 -68 146zM352 373q48 57 48 112q0 39 -28.5 62t-75.5 23
q-45 0 -71 -21.5t-26 -55.5q0 -26 21 -49q29 -29 114 -64q3 -1 7 -2.5t6.5 -3t4.5 -1.5zM171 203q0 -47 35 -77.5t86 -30.5t84.5 27t33.5 69q-2 23 -14.5 39t-40.5 31q-25 13 -33 17l-41 17l-40 18q-70 -52 -70 -110z" />
    <glyph glyph-name="nine.t_osf" horiz-adv-x="586" 
d="M75 -100l38 101q44 -21 100 -21q76 0 124 54q50 54 63 130h-2q-18 -21 -56.5 -34.5t-77.5 -13.5q-102 0 -163 63q-62 65 -62 157q0 96 64 160q65 66 167 66q116 0 193 -83t77 -228q0 -143 -78 -255q-39 -58 -102.5 -91t-139.5 -33q-83 0 -145 28zM294 216q48 0 81.5 21
t33.5 51q0 65 -40 115q-41 51 -99 51q-48 0 -76 -32t-28 -84q0 -53 34.5 -87.5t93.5 -34.5z" />
    <glyph glyph-name="dollar.osf" horiz-adv-x="526" 
d="M39 84l62 94q30 -34 73.5 -55.5t84.5 -21.5q42 0 66.5 16.5t24.5 45.5q0 20 -21.5 37t-53.5 29t-70 29t-70 36.5t-53.5 53t-21.5 76.5q0 66 45.5 109.5t122.5 55.5v89h86v-88q97 -11 154 -62l-49 -101q-25 24 -62.5 38.5t-73.5 14.5q-91 0 -91 -62q0 -36 102 -74
q37 -12 65.5 -25.5t59 -35t47 -53t16.5 -69.5q0 -65 -46.5 -111.5t-125.5 -57.5v-93h-86v92q-113 15 -185 93z" />
    <glyph glyph-name="cent.osf" horiz-adv-x="555" 
d="M337 -28h-89v83q-95 18 -150 85t-55 159q0 91 55 158q56 68 150 86v84h89v-79q96 -9 168 -78l-59 -93q-22 27 -57 43.5t-70 16.5q-67 0 -108.5 -39t-41.5 -97q0 -60 41.5 -99.5t108.5 -39.5q71 0 127 59l58 -92q-60 -66 -167 -78v-79z" />
    <glyph glyph-name="sterling.osf" horiz-adv-x="606" 
d="M550 0h-498v108h59v129h-44v84h44v70q0 87 68 144q67 58 168 58q104 0 182 -57l-58 -94q-53 38 -122 38q-47 0 -78.5 -26.5t-31.5 -64.5v-68h203v-84h-203v-129h311v-108z" />
    <glyph glyph-name="yen.osf" horiz-adv-x="642" 
d="M256 132h-164v76h164v16l-37 63h-127v76h83l-129 218h146l84 -158l43 -98h2q23 56 43 98l84 158h146l-129 -218h87v-76h-131l-37 -63v-16h168v-76h-168v-132h-128v132z" />
    <glyph glyph-name="florin.osf" horiz-adv-x="555" 
d="M18 -120v108q45 -6 67 -6q99 0 107 92l19 215h-76v101h84l9 99q7 92 64 138q26 21 55 32q49 19 105 19l86 -8v-108q-50 7 -78 7q-99 0 -107 -92l-9 -87h109v-101h-118l-19 -227q-5 -58 -29.5 -98.5t-62.5 -59.5q-62 -31 -131 -31z" />
    <glyph glyph-name="Euro.osf" horiz-adv-x="597" 
d="M125 192h-78v70h65q-3 17 -1 55h-64v70h76q29 90 107 148q79 58 201 58q51 0 99 -12l-28 -102q-31 10 -74 10q-124 0 -170 -102h225l-15 -70h-230q-3 -27 2 -55h219l-13 -70h-181q22 -46 65.5 -72t102.5 -26q47 0 87 14l21 -103q-51 -17 -110 -17q-115 0 -194.5 55.5
t-111.5 148.5z" />
    <glyph glyph-name="zero.numerator" 
d="M34 492q0 229 162 229t162 -229q0 -230 -162 -230t-162 230zM196 349q66 0 66 143q0 141 -66 141q-67 0 -67 -141q0 -143 67 -143z" />
    <glyph glyph-name="one.numerator" 
d="M344 272h-278v83h92v207l2 28h-2q-4 -8 -15 -19l-31 -29l-56 60l113 109h84v-356h91v-83z" />
    <glyph glyph-name="two.numerator" 
d="M348 272h-305q-4 25 -4 41q0 41 15.5 74t38.5 53t49.5 39t49.5 32.5t38.5 31.5t15.5 38q0 23 -17.5 37.5t-43.5 14.5q-40 0 -80 -46l-62 55q22 35 62 57t85 22q64 0 107 -37q45 -36 45 -99q0 -34 -14 -62t-35.5 -45.5t-47 -34t-47 -28.5t-37 -27.5t-17.5 -32.5h204v-83z
" />
    <glyph glyph-name="three.numerator" 
d="M184 262q-44 0 -85 17.5t-67 49.5l49 67q37 -47 98 -47q30 0 51 18t21 45q0 26 -22.5 41.5t-55.5 15.5h-35l-20 45l78 90l25 24v2q-19 -3 -36 -3h-129v84h280v-61l-98 -112q50 -9 79.5 -42.5t29.5 -84.5q0 -61 -45 -105q-46 -44 -118 -44z" />
    <glyph glyph-name="four.numerator" 
d="M312 272h-94v99h-203v64l189 276h108v-258h58v-82h-58v-99zM111 455v-2h107v110l4 55h-2q-12 -26 -26 -47z" />
    <glyph glyph-name="five.numerator" 
d="M187 262q-93 0 -151 67l52 67q14 -20 40 -33.5t52 -13.5q32 0 54.5 19.5t22.5 48.5q0 30 -23 49.5t-56 19.5q-38 0 -71 -18l-51 19l22 224h245v-84h-168l-5 -47l-4 -25l2 -1q24 8 51 8q67 0 110 -43q44 -42 44 -103q0 -62 -46 -108t-120 -46z" />
    <glyph glyph-name="six.numerator" 
d="M208 262q-74 0 -123 55t-49 150q0 99 54 176q54 78 150 78q54 0 98 -23l-28 -81q-29 16 -65 16q-38 0 -64.5 -26t-36.5 -71h2q26 21 63 21q68 0 109 -40.5t41 -103.5q0 -65 -42 -108q-40 -43 -109 -43zM208 349q26 0 41.5 18.5t15.5 46.5q0 32 -19.5 53t-51.5 21
q-24 0 -42 -12t-18 -28q0 -39 22 -69t52 -30z" />
    <glyph glyph-name="seven.numerator" 
d="M156 272h-104l175 317l24 38v2q-24 -2 -39 -2h-167v84h315v-65z" />
    <glyph glyph-name="eight.numerator" 
d="M196 261q-66 0 -116 36q-49 37 -49 101q0 60 69 110q-47 35 -47 90q0 56 42 89t104 33q59 0 104 -33t45 -90q0 -49 -53 -108q62 -38 62 -99q0 -58 -48 -94q-47 -35 -113 -35zM196 535l34 -15q29 37 29 71q0 21 -18 34t-43 13q-24 0 -39 -11.5t-15 -32.5q0 -26 27 -44
q18 -12 25 -15zM196 342q27 0 46.5 15t19.5 38q0 22 -22 38l-21 13q-11 7 -29 15l-28 13q-39 -34 -39 -71q0 -27 21 -44t52 -17z" />
    <glyph glyph-name="nine.numerator" 
d="M53 285l28 81q33 -16 65 -16q38 0 64.5 26t36.5 70h-2q-29 -21 -63 -21q-68 0 -109 40.5t-41 104.5q0 63 41 107q42 44 110 44q72 0 122 -56t50 -150q0 -98 -54 -176q-54 -77 -150 -77q-57 0 -98 23zM196 494q24 0 42.5 12.5t18.5 27.5q0 39 -22 69t-52 30
q-26 0 -41.5 -18t-15.5 -46q0 -32 19.5 -53.5t50.5 -21.5z" />
    <glyph glyph-name="zero.denominator" 
d="M34 220q0 229 162 229t162 -229q0 -230 -162 -230t-162 230zM196 77q66 0 66 143q0 141 -66 141q-67 0 -67 -141q0 -143 67 -143z" />
    <glyph glyph-name="one.denominator" 
d="M344 0h-278v83h92v207l2 28h-2q-4 -8 -15 -19l-31 -29l-56 60l113 109h84v-356h91v-83z" />
    <glyph glyph-name="two.denominator" 
d="M348 0h-305q-4 25 -4 41q0 41 15.5 74t38.5 53t49.5 39t49.5 32.5t38.5 31.5t15.5 38q0 23 -17.5 37.5t-43.5 14.5q-40 0 -80 -46l-62 55q22 35 62 57t85 22q64 0 107 -37q45 -36 45 -99q0 -34 -14 -62t-35.5 -45.5t-47 -34t-47 -28.5t-37 -27.5t-17.5 -32.5h204v-83z
" />
    <glyph glyph-name="three.denominator" 
d="M184 -10q-44 0 -85 17.5t-67 49.5l49 67q37 -47 98 -47q30 0 51 18t21 45q0 26 -22.5 41.5t-55.5 15.5h-35l-20 45l78 90l25 24v2q-19 -3 -36 -3h-129v84h280v-61l-98 -112q50 -9 79.5 -42.5t29.5 -84.5q0 -61 -45 -105q-46 -44 -118 -44z" />
    <glyph glyph-name="four.denominator" 
d="M312 0h-94v99h-203v64l189 276h108v-258h58v-82h-58v-99zM111 183v-2h107v110l4 55h-2q-12 -26 -26 -47z" />
    <glyph glyph-name="five.denominator" 
d="M187 -10q-93 0 -151 67l52 67q14 -20 40 -33.5t52 -13.5q32 0 54.5 19.5t22.5 48.5q0 30 -23 49.5t-56 19.5q-38 0 -71 -18l-51 19l22 224h245v-84h-168l-5 -47l-4 -25l2 -1q24 8 51 8q67 0 110 -43q44 -42 44 -103q0 -62 -46 -108t-120 -46z" />
    <glyph glyph-name="six.denominator" 
d="M208 -10q-74 0 -123 55t-49 150q0 99 54 176q54 78 150 78q54 0 98 -23l-28 -81q-29 16 -65 16q-38 0 -64.5 -26t-36.5 -71h2q26 21 63 21q68 0 109 -40.5t41 -103.5q0 -65 -42 -108q-40 -43 -109 -43zM208 77q26 0 41.5 18.5t15.5 46.5q0 32 -19.5 53t-51.5 21
q-24 0 -42 -12t-18 -28q0 -39 22 -69t52 -30z" />
    <glyph glyph-name="seven.denominator" 
d="M156 0h-104l175 317l24 38v2q-24 -2 -39 -2h-167v84h315v-65z" />
    <glyph glyph-name="eight.denominator" 
d="M196 -10q-66 0 -116 36q-49 37 -49 101q0 61 69 110q-47 35 -47 90q0 56 42 89t104 33q59 0 104 -33t45 -90q0 -49 -53 -108q62 -38 62 -99q0 -58 -48 -94q-47 -35 -113 -35zM196 264l34 -15q29 37 29 71q0 21 -18 34t-43 13q-24 0 -39 -11.5t-15 -32.5q0 -26 27 -44
q18 -12 25 -15zM196 71q27 0 46.5 15t19.5 38q0 22 -22 38l-21 13q-11 7 -29 15l-28 13q-39 -35 -39 -71q0 -27 21 -44t52 -17z" />
    <glyph glyph-name="nine.denominator" 
d="M53 13l28 81q33 -16 65 -16q38 0 64.5 26t36.5 70h-2q-29 -21 -63 -21q-68 0 -109 40.5t-41 104.5q0 63 41 107q42 44 110 44q72 0 122 -56t50 -150q0 -98 -54 -176q-54 -77 -150 -77q-57 0 -98 23zM196 222q24 0 42.5 12.5t18.5 27.5q0 39 -22 69t-52 30
q-26 0 -41.5 -18t-15.5 -46q0 -32 19.5 -53.5t50.5 -21.5z" />
    <glyph glyph-name="uni0433.BUL" horiz-adv-x="455" 
d="M35 128q0 45 26 79.5t63.5 54.5t75 36.5t63.5 35t26 40.5q0 43 -64 43q-68 0 -132 -44l-47 91q82 58 184 58q82 0 130.5 -36.5t48.5 -103.5q0 -34 -14.5 -63t-42 -50t-51.5 -34t-57 -27q-90 -39 -90 -72q0 -21 19 -32t51 -11q41 0 80.5 17t62.5 39l58 -86
q-85 -75 -204 -75q-86 0 -136 38t-50 102z" />
    <glyph glyph-name="uni0434.BUL" horiz-adv-x="606" 
d="M87 -166l39 97q68 -33 141 -33q66 0 105 31t39 93v32l2 27h-2q-47 -71 -143 -71q-105 0 -167 74q-61 73 -61 184q0 109 59 182q60 72 166 72q104 0 152 -67h3q-2 8 -2 14v41h120v-479q0 -63 -23 -111t-62 -75.5t-85.5 -41t-98.5 -13.5q-96 0 -182 44zM168 272
q0 -70 34 -112.5t94 -42.5q54 0 86 36.5t32 113.5q0 147 -126 147q-57 0 -88.5 -38t-31.5 -104z" />
    <glyph glyph-name="uni0436.BUL" horiz-adv-x="785" 
d="M152 0h-139l156 262v2l-143 246h132l113 -198h62v398h119v-398h62l113 198h132l-142 -246v-2l156 -262h-140l-117 205h-64v-205h-119v205h-64z" />
    <glyph glyph-name="uni0438.BUL" horiz-adv-x="607" 
d="M63 182v328h127v-302q0 -53 18 -78.5t61 -25.5q66 0 104 50q39 49 39 122v234h126v-510h-122v60l3 35h-2q-21 -45 -70 -76t-107 -31q-177 0 -177 194z" />
    <glyph glyph-name="uni0439.BUL" horiz-adv-x="607" 
d="M63 182v328h127v-302q0 -53 18 -78.5t61 -25.5q66 0 104 50q39 49 39 122v234h126v-510h-122v60l3 35h-2q-21 -45 -70 -76t-107 -31q-177 0 -177 194zM135 697v13h97v-13q-2 -39 32.5 -55.5t69 0t33.5 56.5v12h96v-13q0 -63 -48 -101q-47 -37 -116 -37t-116 37
q-48 38 -48 101z" />
    <glyph glyph-name="uni043A.BUL" horiz-adv-x="549" 
d="M195 0h-127v710h127v-380h63l123 180h141l-161 -228v-2l181 -280h-146l-135 223h-66v-223z" />
    <glyph glyph-name="uni043B.BUL" horiz-adv-x="542" 
d="M143 0h-133l184 510h151l182 -510h-134l-105 316l-18 76h-2q-10 -51 -19 -76z" />
    <glyph glyph-name="uni043F.BUL" horiz-adv-x="612" 
d="M195 0h-127v510h122v-60l-2 -36h2q20 41 66 74q46 34 115 34q178 0 178 -194v-328h-127v302q0 53 -18 78.5t-62 25.5q-66 0 -107 -48q-40 -47 -40 -119v-239z" />
    <glyph glyph-name="uni0442.BUL" horiz-adv-x="912" 
d="M195 0h-127v510h122v-60l-2 -36h2q19 41 65 75q47 33 102 33q117 0 148 -105h2q24 45 71.5 75t102.5 30q167 0 167 -194v-328h-126v304q0 51 -16 76.5t-54 25.5q-61 0 -96 -53q-34 -52 -34 -124v-229h-127v304q0 52 -15 77t-54 25q-62 0 -97 -54q-34 -52 -34 -123v-229z
" />
    <glyph glyph-name="uni0446.BUL" horiz-adv-x="644" 
d="M63 182v328h127v-302q0 -53 18 -78.5t61 -25.5q66 0 104 50q39 49 39 122v234h126v-402h83v-228h-114v120h-91v60l3 35h-2q-21 -45 -70 -76t-107 -31q-177 0 -177 194z" />
    <glyph glyph-name="uni0448.BUL" horiz-adv-x="911" 
d="M716 509h127v-510h-122v60l2 36h-2q-19 -42 -66 -75q-45 -33 -101 -33q-116 0 -148 105h-2q-24 -45 -71.5 -75t-102.5 -30q-167 0 -167 194v328h126v-304q0 -51 16 -76.5t54 -25.5q62 0 96 52t34 125v229h127v-304q0 -52 15 -77t54 -25q61 0 96 53q35 55 35 124v229z" />
    <glyph glyph-name="uni0449.BUL" horiz-adv-x="943" 
d="M716 509h127v-401h76v-228h-114v119h-84v60l2 36h-2q-19 -42 -66 -75q-45 -33 -101 -33q-116 0 -148 105h-2q-24 -45 -71.5 -75t-102.5 -30q-167 0 -167 194v328h126v-304q0 -51 16 -76.5t54 -25.5q62 0 96 52t34 125v229h127v-304q0 -52 15 -77t54 -25q61 0 96 53
q35 55 35 124v229z" />
    <glyph glyph-name="uni044A.BUL" horiz-adv-x="588" 
d="M125 190v212h-102v108h229v-132q0 -35 -1 -42h2q46 43 126 43q78 0 131 -53q52 -52 52 -141q0 -90 -60 -143.5t-159 -53.5q-108 0 -163 53.5t-55 148.5zM343 84q41 0 66 25t25 72q0 98 -89 98q-44 0 -69 -26t-25 -69q0 -44 25 -72t67 -28z" />
    <glyph glyph-name="uni044C.BUL" horiz-adv-x="526" 
d="M63 190v320h127v-132q0 -12 -2 -42h2q49 43 126 43q80 0 131 -53q52 -52 52 -141q0 -90 -60 -143.5t-159 -53.5q-108 0 -162.5 53t-54.5 149zM280 84q41 0 66.5 25t25.5 72q0 98 -90 98q-44 0 -68.5 -26t-24.5 -69q0 -44 24.5 -72t66.5 -28z" />
    <glyph glyph-name="uni044E.BUL" horiz-adv-x="851" 
d="M195 0h-127v710h127v-402h84q17 96 90 154q73 60 173 60q116 0 193 -76q79 -75 79 -191q0 -115 -78 -192q-78 -75 -193 -75q-101 0 -175 60t-90 157h-83v-205zM543 96q60 0 101 44q41 46 41 115q0 70 -41 114q-40 45 -101 45t-102 -45q-41 -44 -41 -114q0 -69 41 -115
q41 -44 102 -44z" />
    <glyph glyph-name="uni0432.BUL" horiz-adv-x="604" 
d="M59 245v190q0 127 69 207q71 80 190 80q90 0 140 -44q51 -44 51 -104q0 -91 -111 -151v-2q68 -8 119 -57q51 -50 51 -132q0 -110 -73 -177q-71 -67 -186 -67q-66 0 -116 23t-78 61t-42 82t-14 91zM185 480v-89h2q18 28 65 54l46 23q45 22 65 44.5t20 52.5
q0 28 -22.5 46.5t-57.5 18.5q-54 0 -86 -40.5t-32 -109.5zM184 225q0 -64 33.5 -98.5t89.5 -34.5q59 0 95 36t36 100q0 58 -35.5 88t-92.5 30q-50 0 -88 -31q-38 -32 -38 -90z" />
    <glyph glyph-name="uni0437.BUL" horiz-adv-x="454" 
d="M-3 -161l51 98q52 -38 115 -38q60 0 94 32.5t34 84.5t-33 80t-95 28h-65v101h67q47 0 78.5 26.5t31.5 72.5q0 42 -27.5 66.5t-72.5 24.5q-66 0 -110 -43l-56 80q79 70 188 70q93 0 149 -50q55 -49 57 -125q0 -57 -28.5 -99t-77.5 -64v-2q121 -46 121 -173q0 -93 -66 -156
t-177 -63q-47 0 -97 13.5t-81 35.5z" />
    <glyph glyph-name="uni0414.ALT" horiz-adv-x="728" 
d="M11 -140v251h74l211 599h134l211 -599h76v-251h-115v140h-476v-140h-115zM336 461l-117 -350h288l-117 350l-26 104h-2q-12 -55 -26 -104z" />
    <glyph glyph-name="uni041B.ALT" horiz-adv-x="653" 
d="M146 0h-139l252 710h134l252 -710h-137l-154 461l-27 104h-2q-15 -70 -26 -104z" />
    <glyph glyph-name="uni0434.ALT" horiz-adv-x="624" 
d="M17 -120v222h63l153 408h157l151 -408h65v-222h-114v120h-360v-120h-115zM289 329l-83 -227h208l-82 227l-21 76h-2q-13 -56 -20 -76z" />
    <glyph glyph-name="uni043B.ALT" horiz-adv-x="542" 
d="M143 0h-133l184 510h151l182 -510h-134l-105 316l-18 76h-2q-10 -51 -19 -76z" />
    <glyph glyph-name="uni0409.ALT" horiz-adv-x="910" 
d="M138 0h-132l269 710h254v-279h131q102 0 163 -60q63 -59 63 -156q0 -96 -63 -156q-62 -59 -160 -59h-262v599h-39zM529 320v-209h111q53 0 84 28t31 76t-31.5 76.5t-85.5 28.5h-109z" />
    <glyph glyph-name="uni0459.ALT" horiz-adv-x="775" 
d="M134 0h-124l211 510h246v-185h93q91 0 141 -42.5t50 -122.5q0 -76 -48.5 -118t-143.5 -42h-218v415h-40zM467 237v-150h77q41 0 63 19.5t22 53.5q0 36 -22.5 56.5t-64.5 20.5h-75z" />
    <glyph glyph-name="uni04C5.ALT" horiz-adv-x="745" 
d="M146 0h-139l252 710h134l212 -599h138v-70l-78 -181h-90l38 140h-105l-154 461l-27 104h-2q-15 -70 -26 -104z" />
    <glyph glyph-name="uni04C6.ALT" horiz-adv-x="612" 
d="M490 0h-97l-105 316l-18 76h-2q-10 -51 -19 -76l-106 -316h-133l184 510h151l144 -403h122v-67l-69 -160h-85z" />
    </font>
</defs>
</svg>
