<svg width="168" height="73" fill="none" xmlns="http://www.w3.org/2000/svg"><path d="M91.114 21.986c1.22 0 2.032-.392 2.032-1.521 0-1.16-.842-1.431-1.76-1.431h-1.49v2.922c.345.03.616.03 1.218.03zm-.286-4.399c1.22 0 2.032-.361 2.032-1.521 0-1.145-.843-1.386-1.76-1.386h-1.205v2.907h.933zm2.363.452c1.385.332 2.032 1.296 2.032 2.395 0 2.17-1.234 3.179-5.087 3.179-.647 0-1.445-.03-2.257-.09V14.68h-.527c-1.354 0-1.942.437-1.942 1.552 0 .783.392 1.37 1.114 1.37v1.658c-1.882-.016-2.875-1.28-2.875-3.013 0-1.944 1.264-3.209 3.928-3.209h3.763c2.287 0 3.492.859 3.492 2.606 0 1.01-.542 1.989-1.641 2.395zm9.873-3.359v-1.642h4.62v1.642h-1.49v5.047c0 2.71-1.656 3.976-3.823 3.976-2.604 0-3.973-1.295-3.973-3.72V14.68h-1.685l.376-1.642h4.545v1.642h-1.249v4.94c0 1.748.767 2.29 2.016 2.29 1.205 0 1.912-.632 1.912-2.29v-4.94h-1.249zm6.471 5.182h1.701v1.627c.526.361 1.279.512 1.986.512 1.189 0 1.852-.332 1.852-1.13 0-.903-1.009-1.25-2.138-1.656-1.535-.543-3.341-1.16-3.341-3.315 0-2.093 1.46-3.058 3.823-3.058 1.083 0 2.227.301 3.13.829v2.756h-1.7v-1.641c-.347-.151-.994-.271-1.626-.271-.918 0-1.731.33-1.731 1.235 0 .933 1.054 1.326 2.213 1.747 1.52.543 3.25 1.16 3.25 3.178-.03 1.658-.842 3.074-3.822 3.074-1.204 0-2.724-.362-3.597-1.145v-2.742zm13.439 1.973h1.7v1.688h-5.402v-1.688h1.685V14.71h-1.806l.391-1.672h5.132v1.672h-1.7v7.125zm7.314-8.797l4.454 6.809v-6.81h1.821v10.485h-1.64l-4.515-6.9v6.9h-1.821V14.71h-1.701l.392-1.672h3.01zm13.228 8.782h4.379v1.703h-8.096V21.82h1.7v-7.11h-1.821l.392-1.672h7.825v1.672h-4.379v2.621h3.477v1.673h-3.477v2.816zm7.134-1.958h1.7v1.627c.527.361 1.28.512 1.987.512 1.189 0 1.851-.332 1.851-1.13 0-.903-1.008-1.25-2.137-1.656-1.535-.543-3.341-1.16-3.341-3.315 0-2.093 1.46-3.058 3.823-3.058 1.083 0 2.227.301 3.13.829v2.756h-1.7v-1.641c-.347-.151-.994-.271-1.626-.271-.918 0-1.731.33-1.731 1.235 0 .933 1.054 1.326 2.213 1.747 1.52.543 3.25 1.16 3.25 3.178-.03 1.658-.842 3.074-3.822 3.074-1.204 0-2.724-.362-3.597-1.145v-2.742zm9.677 0h1.7v1.627c.527.361 1.28.512 1.987.512 1.189 0 1.851-.332 1.851-1.13 0-.903-1.008-1.25-2.137-1.656-1.535-.543-3.341-1.16-3.341-3.315 0-2.093 1.46-3.058 3.823-3.058 1.083 0 2.227.301 3.13.829v2.756h-1.701v-1.641c-.346-.151-.993-.271-1.625-.271-.918 0-1.731.33-1.731 1.235 0 .933 1.053 1.326 2.212 1.747 1.52.543 3.251 1.16 3.251 3.178-.03 1.658-.842 3.074-3.823 3.074-1.203 0-2.723-.362-3.596-1.145v-2.742zM87.879 32.77h-.859c-1.218.046-1.745.483-1.745 1.538 0 .783.39 1.37 1.113 1.37v1.657c-1.88-.015-2.874-1.28-2.874-3.012 0-1.703 1.038-3.209 3.446-3.209h2.92l3.04 4.79 3.19-4.79h3.176v1.657h-1.384v7.14h1.384v1.687h-4.575v-1.687h1.264v-5.769l-3.055 4.685-3.16-4.685v5.77h1.294v1.686H86.51v-1.687h1.37v-7.14zm18.21 7.126h4.379V41.6h-8.097v-1.703h1.701v-7.11h-1.821l.391-1.672h7.826v1.672h-4.379v2.621h3.476v1.673h-3.476v2.816zm10.037-8.782l4.455 6.81v-6.81h1.821v10.484h-1.64l-4.516-6.899v6.9h-1.821v-8.813h-1.7l.391-1.672h3.01zm9.601 6.824h1.701v1.627c.527.361 1.28.512 1.986.512 1.19 0 1.852-.331 1.852-1.13 0-.904-1.008-1.25-2.137-1.657-1.535-.542-3.341-1.16-3.341-3.313 0-2.094 1.46-3.059 3.822-3.059 1.084 0 2.228.302 3.131.829v2.757h-1.701V32.86c-.346-.15-.993-.27-1.626-.27-.917 0-1.73.33-1.73 1.235 0 .934 1.054 1.325 2.213 1.747 1.519.542 3.25 1.16 3.25 3.178-.03 1.657-.843 3.073-3.823 3.073-1.204 0-2.724-.36-3.597-1.145v-2.741zM81.558 58.666l1.55-1.522 1.611 1.522-1.61 1.49-1.55-1.49zm8.352-7.804v3.39l1.054.015c1.144.015 2.137-.407 2.213-1.733 0-1.355-.829-1.672-2.002-1.672H89.91zm-2.016-1.672h3.552c2.513 0 3.777 1.055 3.777 3.345-.06 1.762-1.129 2.651-2.543 3.012l.933 1.28c.406.558.707.965 1.31.965h.405v1.883h-.315c-1.22 0-1.957-.286-2.665-1.431l-1.76-2.516h-.678v3.947h-2.016V49.19zm15.14 1.642V49.19h4.62v1.642h-1.49v5.047c0 2.711-1.655 3.977-3.822 3.977-2.604 0-3.974-1.296-3.974-3.721v-5.303h-1.685l.376-1.642h4.545v1.642h-1.249v4.941c0 1.748.768 2.29 2.017 2.29 1.204 0 1.911-.633 1.911-2.29v-4.94h-1.249z" fill="#000"/><path d="M.155 36.5c0 20.105 16.283 36.403 36.37 36.403 20.087 0 36.37-16.298 36.37-36.404 0-20.105-16.283-36.403-36.37-36.403C16.438.096.155 16.394.155 36.499z" fill="url(#paint0_linear)"/><path d="M13.394 36.5c0 12.786 10.356 23.151 23.13 23.151 12.775 0 23.13-10.365 23.13-23.152 0-12.786-10.355-23.151-23.13-23.151-12.774 0-23.13 10.365-23.13 23.151z" fill="url(#paint1_linear)"/><path d="M16.181 36.5c0 11.245 9.109 20.362 20.343 20.362 11.236 0 20.344-9.117 20.344-20.363 0-11.245-9.108-20.362-20.344-20.362-11.234 0-20.343 9.117-20.343 20.362z" fill="url(#paint2_linear)"/><path d="M64.71 36.5c0-.9 4.786-1.999 4.71-2.879-.077-.895-4.98-1.153-5.133-2.025-.155-.883 4.368-2.796 4.14-3.651-.232-.866-5.105-.264-5.409-1.097-.305-.841 3.814-3.516 3.439-4.32-.378-.81-5.072.635-5.517-.135-.447-.773 3.144-4.125 2.634-4.853-.512-.73-4.884 1.507-5.456.826-.573-.683 2.384-4.607 1.755-5.236-.63-.63-4.55 2.33-5.232 1.756-.68-.572 1.555-4.948.825-5.46-.727-.512-4.076 3.082-4.848 2.636-.769-.446.674-5.144-.135-5.522-.803-.376-3.476 3.747-4.316 3.44-.832-.302-.23-5.18-1.095-5.412-.855-.229-2.766 4.299-3.648 4.144-.871-.153-1.13-5.061-2.023-5.138-.88-.077-1.978 4.714-2.876 4.714-.9 0-1.997-4.79-2.876-4.714-.894.077-1.152 4.985-2.023 5.138-.882.155-2.793-4.373-3.648-4.144-.865.231-.263 5.11-1.096 5.413-.84.306-3.512-3.817-4.316-3.44-.81.377.634 5.076-.134 5.52-.772.448-4.121-3.146-4.85-2.635-.729.512 1.507 4.888.826 5.46-.682.574-4.602-2.386-5.231-1.756-.63.63 2.328 4.553 1.755 5.236-.572.682-4.944-1.556-5.456-.826-.51.729 3.08 4.08 2.633 4.853-.444.77-5.138-.675-5.516.135-.375.805 3.744 3.48 3.438 4.32-.303.833-5.177.231-5.408 1.097-.228.855 4.294 2.768 4.14 3.651-.153.872-5.056 1.13-5.134 2.025-.076.88 4.71 1.98 4.71 2.878 0 .9-4.786 1.999-4.71 2.879.078.895 4.981 1.153 5.134 2.025.154.883-4.368 2.796-4.14 3.651.231.865 5.105.264 5.408 1.097.306.841-3.813 3.516-3.438 4.32.378.81 5.072-.634 5.517.135.447.773-3.144 4.125-2.634 4.853.512.73 4.884-1.507 5.456-.826.573.683-2.384 4.607-1.755 5.236.63.63 4.55-2.33 5.231-1.756.682.572-1.554 4.948-.825 5.46.728.512 4.077-3.083 4.85-2.636.768.446-.676 5.144.134 5.522.803.375 3.475-3.747 4.315-3.441.833.303.231 5.181 1.096 5.413.855.229 2.766-4.299 3.648-4.144.87.153 1.13 5.061 2.023 5.138.88.077 1.977-4.714 2.876-4.714.898 0 1.997 4.79 2.876 4.715.894-.078 1.152-4.986 2.022-5.139.883-.155 2.794 4.373 3.649 4.144.864-.231.263-5.11 1.096-5.413.84-.306 3.512 3.816 4.316 3.44.81-.377-.635-5.076.134-5.52.772-.448 4.121 3.146 4.849 2.635.73-.512-1.506-4.888-.825-5.46.682-.574 4.602 2.386 5.231 1.756.63-.63-2.328-4.554-1.755-5.236.572-.682 4.944 1.556 5.456.826.51-.729-3.08-4.08-2.633-4.853.444-.77 5.138.675 5.516-.135.375-.805-3.744-3.48-3.438-4.32.303-.833 5.176-.232 5.407-1.097.229-.855-4.294-2.768-4.139-3.651.152-.872 5.056-1.13 5.133-2.025.076-.88-4.71-1.98-4.71-2.879z" stroke="#00AEEF" stroke-width="3.995" stroke-miterlimit="10"/><defs><linearGradient id="paint0_linear" x1="36.525" y1="-.438" x2="36.525" y2="73.608" gradientUnits="userSpaceOnUse"><stop stop-color="#FAFAFA"/><stop offset="1" stop-color="#D4D4D4"/></linearGradient><linearGradient id="paint1_linear" x1="36.525" y1="12.743" x2="36.525" y2="60.246" gradientUnits="userSpaceOnUse"><stop stop-color="#D0D0D0"/><stop offset="1" stop-color="#fff"/></linearGradient><linearGradient id="paint2_linear" x1="36.525" y1="12.117" x2="36.525" y2="60.195" gradientUnits="userSpaceOnUse"><stop stop-color="#fff"/><stop offset="1" stop-color="#CFCDCD"/></linearGradient></defs></svg>