<svg viewBox="0 0 1140 474" fill="none" preserveAspectRatio="none" xmlns="http://www.w3.org/2000/svg">
<path d="M1136.8 468.284C1136.56 449.253 1136.97 429.81 1135.38 428.472C1135.68 427.767 1136.48 422.132 1136.08 414.785L1135.38 419.817C1134.07 394.356 1137.89 394.758 1137.29 379.059C1136.79 379.26 1136.59 384.192 1135.98 386.708C1135.38 352.491 1139.51 333.37 1137.79 299.556C1137.31 301.564 1137.14 303.635 1137.29 305.695C1136.99 307.104 1136.99 300.965 1137.69 289.794L1138.8 301.871C1142.12 284.159 1137.39 254.37 1138.3 226.192C1137.69 228.808 1137.59 249.64 1136.79 238.671C1136.79 220.455 1140.31 222.267 1138.6 200.529C1138.2 210.392 1136.48 207.372 1136.18 216.732C1135.98 202.643 1134.97 192.68 1136.28 187.547C1136.18 183.622 1135.68 182.012 1135.28 181.811C1136.28 172.653 1135.58 158.161 1135.28 148.601L1134.67 151.016C1138 133.203 1134.77 121.73 1134.97 98.3827L1134.07 102.207C1134.47 92.3445 1135.68 77.3496 1134.27 60.6438L1133.16 69.3992C1133.97 55.8133 1132.16 30.4527 1133.97 19.0808C1133.67 14.2502 1131.85 31.761 1131.75 9.72153C1131.89 8.71516 1132.02 7.29618 1132.16 5.58535C1128.97 5.49478 1125.24 5.38408 1120.65 5.23312C1119.53 3.90471 1124.6 3.83427 1132.28 3.68331V3.25057C1088.27 2.78764 1032.6 -0.0402547 990.435 3.01911L1017.62 4.6293C1000.5 4.93121 970.903 3.22038 972.514 5.63567C991.945 4.83057 983.589 6.34013 993.456 6.74268L994.664 6.5414C997.08 6.64204 1004.43 6.94395 999.798 7.24586C985.099 5.93758 961.237 5.43439 944.826 4.72994C951.974 5.23312 936.771 5.93758 934.758 6.34013C918.648 5.93758 934.556 5.23312 935.664 4.52866C927.005 4.42803 913.212 3.01911 906.164 4.32739C894.183 5.43439 920.964 5.53503 924.891 6.44076L876.895 4.72994L878.204 5.03185C872.884 4.53094 867.535 4.39644 862.196 4.6293C857.464 5.43439 868.539 5.63567 875.788 5.43439C850.617 6.74267 831.689 2.61656 810.244 5.23312L796.289 4.52866C795.081 4.72994 793.067 5.13248 794.678 5.23312L781.589 4.42803C755.714 3.62293 774.642 6.23949 765.984 6.64204H767.292C759.339 6.94395 753.398 7.74904 758.936 7.95032L731.852 6.84331H731.953C721.482 5.23312 681.612 4.93121 682.115 2.11338C674.866 2.31465 669.127 2.81783 672.349 3.22038C652.212 3.01911 677.081 5.33376 644.661 4.93121C644.762 5.43439 648.386 5.33376 653.32 5.53503C644.762 5.63567 641.339 5.43439 639.929 5.13248C639.929 5.43439 639.325 5.83694 637.412 6.23949C637.311 5.23312 623.82 5.43439 616.571 5.63567L627.948 7.44713C620.497 6.64204 615.564 6.44076 602.072 6.64204L610.832 7.74904C588.782 7.3465 609.221 5.33376 582.54 6.34013L606.805 5.23312C578.613 4.83057 587.977 2.61656 575.492 1.61019C547.362 -0.100637 513.432 2.7172 490.677 0H485.945C484.435 0.805096 486.046 1.20764 478.897 2.01274C497.322 2.41529 507.189 2.81783 516.049 4.52866C551.892 6.23949 525.01 0.201274 564.679 2.91847C562.565 4.42803 550.281 4.42803 539.106 3.72357C538.099 5.03185 551.691 5.83694 560.35 6.44076C537.595 5.73631 505.075 7.3465 490.879 7.14522C484.032 6.44076 466.211 5.53503 458.157 5.93758C459.264 5.03185 423.824 4.32739 434.899 2.31465C410.433 1.81147 419.495 5.13248 395.834 2.81783C404.795 4.42803 380.229 4.02548 390.297 5.43439C398.452 3.92484 424.73 6.34013 437.114 7.3465L401.775 8.25223C410.433 7.74904 397.949 6.74268 393.015 6.5414L388.283 7.95032C382.846 4.52866 326.364 10.265 308.543 6.44076C319.618 6.64204 329.183 5.43439 334.519 7.24586C355.058 6.34013 330.29 4.83057 339.855 3.62293C307.838 2.31465 259.309 4.42803 224.574 2.01274C227.594 2.44139 230.636 2.71013 233.685 2.81783L246.019 3.32102L244.811 3.52229H244.68C246.532 3.72357 247.851 3.97516 248.234 4.33745C222.661 5.14255 191.55 2.0228 161.949 0.815159L167.285 2.62662C142.417 1.01643 157.519 3.23045 130.536 2.62662C131.644 2.42535 135.369 1.82153 129.127 1.82153C107.178 1.92217 126.912 3.33108 112.413 3.73363C84.8262 1.11707 99.2238 5.5451 64.6897 4.13618L67.3477 4.72994C48.792 3.97516 26.521 4.91108 4.92461 5.67592C4.92461 21.4759 2.19612 23.2069 2.7096 36.5312C3.21301 36.3299 3.41437 31.3987 4.01847 28.8828C4.62256 63.0994 0.494582 82.2204 2.20618 116.034C2.69162 114.027 2.86146 111.956 2.7096 109.896C3.01164 108.487 3.01164 114.625 2.30687 125.796L1.19936 113.72C-2.12316 131.432 2.60891 161.22 1.70277 189.399C2.30687 186.782 2.40755 165.95 3.21301 176.92C3.21301 195.135 -0.310878 193.324 1.40072 215.061C1.80345 205.199 3.51506 208.218 3.8171 198.859C4.01847 212.948 5.02529 222.911 3.71642 228.043C3.8171 231.968 4.32052 233.578 4.72325 233.78C3.71642 242.938 4.4212 257.429 4.72325 266.99L5.32734 264.575C2.00482 282.387 5.22666 293.86 5.02529 317.208L5.93144 313.383C5.52871 323.246 4.32052 338.241 5.73007 354.947L6.83758 346.191C6.03212 359.777 7.8444 385.138 6.03212 396.51C6.33417 401.34 8.14645 383.829 8.24713 405.869C7.54236 411.001 6.83758 428.11 7.8444 434.047C8.34782 433.947 8.95191 431.33 8.4485 425.392C8.34782 421.669 8.24713 424.084 7.94509 425.392L8.75055 417.845C9.55601 434.752 7.94509 431.431 8.4485 449.545C9.05259 453.168 9.45532 443.406 10.0594 440.79L9.23382 468.445L19.9263 468.767C21.0036 470.045 16.3521 470.156 9.18348 470.297V470.76C53.0408 471.253 108.255 474.02 150.139 470.981L122.955 469.371C140.071 469.069 169.671 470.78 168.06 468.364C148.629 469.169 156.985 467.66 147.118 467.257L145.91 467.459C143.494 467.358 136.144 467.056 140.775 466.754C155.475 468.062 179.337 468.566 195.748 469.27C188.6 468.767 203.803 468.062 205.816 467.66C221.926 468.062 206.018 468.767 204.91 469.471C213.569 469.572 227.362 470.981 234.41 469.673C246.391 468.566 219.61 468.465 215.683 467.559L263.709 469.27L262.4 468.968C267.721 469.469 273.069 469.604 278.408 469.371C283.141 468.566 272.065 468.364 264.816 468.566C289.987 467.257 308.915 471.383 330.361 468.767L344.355 469.471C345.564 469.27 347.577 468.868 345.966 468.767L359.055 469.572C384.931 470.377 366.002 467.761 374.661 467.358H373.352C381.306 467.056 387.246 466.251 381.709 466.05L408.792 467.157H408.661C419.132 468.767 459.003 469.069 458.499 471.887C465.748 471.685 471.487 471.182 468.265 470.78C488.402 470.981 463.533 468.666 495.953 469.069C495.852 468.566 492.228 468.666 487.294 468.465C495.852 468.364 499.276 468.566 500.685 468.868C500.685 468.566 501.289 468.163 503.202 467.761C503.303 468.767 516.794 468.566 524.043 468.364L512.666 466.553C520.117 467.358 525.05 467.559 538.542 467.358L529.782 466.251C551.832 466.654 531.393 468.666 558.074 467.66L533.81 468.767C562.001 469.169 552.637 471.383 565.122 472.39C593.212 474.101 627.142 471.283 649.897 474H654.629C656.139 473.195 654.528 472.792 661.676 471.987C643.252 471.585 633.385 471.182 624.525 469.471C588.682 467.761 615.564 473.799 575.895 471.082C578.009 469.572 590.293 469.572 601.468 470.276C602.475 468.968 588.883 468.163 580.224 467.559C602.979 468.264 635.499 466.654 649.695 466.855C656.542 467.559 674.362 468.465 682.417 468.062C681.31 468.968 716.75 469.673 705.675 471.685C730.141 472.189 721.079 468.868 744.74 471.182C735.779 469.572 760.345 469.975 750.277 468.566C742.122 470.075 715.844 467.66 703.46 466.654L738.799 465.748C730.141 466.251 742.625 467.257 747.559 467.459L752.291 466.05C757.728 469.471 814.21 463.735 832.031 467.559C820.956 467.358 811.391 468.566 806.055 466.754C785.516 467.66 810.284 469.169 800.719 470.377C832.736 471.685 881.265 469.572 916 471.987C912.996 471.561 909.971 471.292 906.939 471.182L894.555 470.679L895.763 470.478H895.894C894.042 470.276 892.723 470.025 892.34 469.663C917.913 468.857 949.024 471.977 978.625 473.185L973.289 471.373C998.157 472.984 983.055 470.77 1010.04 471.373C1008.93 471.575 1005.21 472.178 1011.45 472.178C1033.4 472.078 1013.66 470.669 1028.16 470.266C1055.75 472.883 1041.35 468.455 1075.88 469.864L1073.27 469.26C1092.13 470.045 1114.87 469.059 1136.8 468.284Z" fill="#FFDF39"/>
</svg>
