<svg viewBox="0 0 310 983" preserveAspectRatio="none" fill="none" xmlns="http://www.w3.org/2000/svg">
<path d="M308.928 801.803C309.054 792.986 309.685 770.673 310 786.148L309.432 722.99C308.801 745.122 307.287 792.086 308.234 806.661C307.35 824.655 307.603 780.75 306.593 796.764C308.044 754.479 305.963 770.673 306.278 726.949C307.54 746.742 307.981 683.404 308.549 685.383C308.297 670.988 308.864 639.139 309.306 626.903C309.432 601.532 308.423 543.412 308.864 502.746C308.486 518.221 307.981 542.512 307.161 540.713C307.603 520.74 307.603 498.788 306.656 495.009C304.953 565.904 308.738 517.861 307.666 581.919C306.593 597.753 306.341 615.387 306.089 648.316C305.584 635.54 305.332 638.419 304.827 635.72V627.263C306.53 586.597 304.764 525.958 305.836 475.755C306.467 453.443 307.855 470.177 308.107 419.795L308.801 463.16C308.171 415.476 309.432 452.004 309.685 412.597L308.991 428.252C308.864 404.14 308.991 395.323 309.495 382.008L308.36 402.341C308.234 389.385 308.107 365.274 308.738 365.094C308.486 361.675 308.234 360.595 308.044 360.595C308.234 358.076 308.36 351.958 308.297 336.664C308.171 345.481 308.234 351.958 307.918 352.138C308.171 294.198 306.72 338.643 306.846 302.655C306.593 308.413 306.278 298.157 306.152 285.201C307.918 286.101 308.107 214.846 309.117 196.132V196.312L309.811 147.909C309.685 157.805 309.18 147.189 308.991 132.974V135.313C308.738 119.839 307.098 153.667 307.603 107.423L308.107 84.0309C308.044 86.9099 307.792 83.3112 307.666 81.1519L308.107 56.1406C307.35 37.9669 307.477 20.8728 307.792 3.05894L291.895 2.69907C281.044 3.05894 264.326 2.33919 257.072 6.6577C249.249 3.95863 226.917 1.79938 220.104 3.23888C210.326 6.29782 228.746 6.6577 225.151 9.35676C217.454 9.35676 213.417 6.6577 201.998 7.55739C201.809 4.67838 224.583 1.79938 203.071 0.179938L200.043 1.61944C202.251 1.4395 205.342 0.899689 208.433 1.25956C214.678 2.879 204.711 3.05894 203.26 3.95863L180.171 3.05894C178.468 0 192.283 0.719751 193.734 0C175.44 0.539813 153.486 5.03826 136.516 3.05894L138.156 4.13857C116.518 1.61944 125.539 9.5367 108.254 4.85832C99.1697 5.57807 111.534 8.0972 97.7818 8.27714C93.8706 8.27714 96.2047 7.19751 96.8987 6.83764C79.9919 5.75801 89.4546 9.71664 73.8726 6.83764L77.2161 10.0765C59.1107 7.91726 40.1221 2.69907 24.2877 3.77869V3.41882H3.15425C3.21734 33.4684 3.21734 62.4384 2.90191 86.1902C2.14489 69.0961 1.19862 113.361 0.630851 76.6535C1.76638 67.1168 1.00936 50.0227 1.13553 30.2295C-1.2617 62.0785 2.33415 163.024 0.189255 172.74L1.07245 181.197C0.946276 190.014 0.315425 212.327 0 196.852L0.567766 260.01C1.19862 237.878 2.71266 190.914 1.76638 176.339C2.64957 158.345 2.39723 202.25 3.40659 186.236C1.95564 228.521 4.03744 212.327 3.72202 256.051C2.46032 236.258 2.01872 299.596 1.45096 297.617C1.7033 312.012 1.13553 343.861 0.693936 356.097C0.567766 381.468 1.57713 439.588 1.13553 480.254C1.51404 464.779 2.01872 440.488 2.83883 442.287C2.39723 462.26 2.39723 484.213 3.34351 487.991C5.0468 417.096 1.2617 465.139 2.33415 401.081C3.40659 385.247 3.65893 367.613 3.91127 334.684C4.28978 344.581 4.54212 345.121 4.85755 346.02V364.914C3.72202 405.22 5.17298 460.641 4.16361 507.245C3.53276 529.557 2.14489 512.823 1.89255 563.205L1.19862 519.84C1.82947 567.524 0.567766 530.996 0.315425 570.403L1.00936 554.748C1.13553 578.86 1.00936 587.677 0.504681 600.992L1.64021 580.659C1.76638 593.615 1.89255 617.726 1.2617 617.906C1.51404 621.325 1.76638 622.405 1.95564 622.405C1.76638 624.924 1.64021 631.042 1.7033 646.336C1.82947 637.52 1.76638 631.042 2.08181 630.862C1.82947 688.802 3.28042 644.357 3.15425 680.345C3.40659 674.587 3.72202 684.843 3.84819 697.799C2.08181 696.899 1.89255 768.154 0.883191 786.868V786.688L0.189255 835.091C0.315425 825.195 0.820106 835.811 1.00936 850.026V847.687C1.2617 863.161 2.90191 829.333 2.39723 875.577L1.89255 898.969C1.95564 896.09 2.20798 899.689 2.33415 901.848L1.89255 926.859C2.64957 945.033 2.5234 962.127 2.20798 979.941L18.1054 980.301V976.882C23.6569 976.522 28.956 975.982 33.8767 975.083C32.4888 975.803 30.407 976.162 28.199 976.522C25.7387 976.882 23.1522 977.242 21.3858 977.782H21.2597C20.1241 978.142 19.2409 978.502 19.0517 979.221C35.0753 980.661 54.5686 975.083 73.1156 972.924L69.7721 976.162C85.3541 973.283 75.8913 977.242 92.7981 976.162C92.1042 975.802 89.77 974.723 93.6813 974.723C107.434 974.903 95.0692 977.422 104.153 978.142C121.439 973.463 112.418 981.381 134.056 978.861L132.416 979.941C149.385 977.962 171.339 982.46 189.634 983C188.183 982.28 174.367 983 176.07 979.941L199.16 979.041C200.611 979.941 210.578 980.121 204.333 981.74C201.241 982.1 198.15 981.561 195.942 981.381L198.97 982.82C220.482 981.201 197.709 978.322 197.898 975.443C209.316 976.342 213.354 973.643 221.05 973.643C224.646 976.342 206.225 976.702 216.003 979.761C222.816 981.201 245.149 979.041 252.971 976.342C261.235 981.201 281.738 979.581 291.895 980.481L306.846 979.581C306.783 949.532 306.783 920.562 307.098 896.81C307.855 913.904 308.801 869.639 309.369 906.347C308.234 915.883 308.991 932.977 308.864 952.771C311.262 920.922 307.666 819.976 309.811 810.26L308.928 801.803ZM4.66829 192.893C4.60521 188.215 4.54212 182.457 4.54212 176.159C4.54212 174 4.54212 172.021 4.47904 169.861C4.47904 165.543 4.41595 161.224 4.41595 156.906C4.41595 161.224 4.41595 165.543 4.47904 169.861C4.47904 172.021 4.47904 174.18 4.54212 176.159C4.54212 182.457 4.60521 188.215 4.66829 192.893C4.73138 190.014 4.79446 184.076 4.73138 177.059C4.79446 184.076 4.73138 190.014 4.66829 192.893ZM4.73138 177.059C4.73138 165.003 4.66829 149.528 4.85755 138.372C4.66829 149.528 4.73138 165.183 4.73138 177.059ZM24.2877 6.11788V4.67838C24.6032 4.85832 24.9817 5.03826 25.3602 5.03826L34.5706 6.11788L33.8767 6.47776L32.2996 6.29782C34.5075 6.6577 36.6524 7.01757 37.9772 7.73732C33.6874 7.01757 29.0822 6.47776 24.2877 6.11788ZM243.635 975.802C235.181 975.443 225.971 975.623 223.826 974.363L223.763 974.543C223.763 974.543 223.763 974.363 223.826 974.363C225.971 975.623 235.181 975.443 243.635 975.802ZM260.667 972.924C264.894 972.744 268.427 971.844 268.427 971.124C268.427 971.664 264.894 972.744 260.667 972.924C260.289 972.924 259.974 972.924 259.595 972.924C259.974 972.924 260.352 972.924 260.667 972.924ZM305.332 790.107C305.395 794.785 305.395 800.543 305.458 806.841C305.458 809 305.458 810.979 305.521 813.139C305.521 817.457 305.584 821.776 305.584 826.094C305.584 821.776 305.584 817.457 305.521 813.139C305.521 810.979 305.521 808.82 305.458 806.841C305.458 800.543 305.395 794.785 305.332 790.107C305.269 792.986 305.206 798.924 305.269 805.941C305.206 798.924 305.269 792.986 305.332 790.107ZM304.638 755.919C304.701 755.019 304.701 754.119 304.764 753.04C304.764 751.96 304.827 750.88 304.827 749.621C304.827 750.88 304.764 751.96 304.764 753.04C304.764 754.119 304.701 755.019 304.638 755.919ZM304.638 857.044C305.395 849.846 305.269 823.935 305.269 805.941C305.269 823.935 305.395 849.846 304.638 857.044Z" fill="#FFDF39"/>
</svg>
