<svg width="35" height="113" fill="none" xmlns="http://www.w3.org/2000/svg"><path d="M21.061 84.496a79.576 79.576 0 003.207-11.385C29.38 71.16 33.513 66.494 35 59.993c-.097-.154-.194-.308-.294-.462-3.912 1.25-6.983 4.278-9.435 7.396a79.96 79.96 0 00.57-11.853c4.945-2.963 7.37-8.541 7.277-14.348-.128-.127-.256-.258-.388-.386-3.454 1.802-5.646 5.178-7.277 8.708-.406-4-1.12-7.97-2.126-11.871 3.505-2.983 5.457-8.523 3.764-14.842-.155-.1-.31-.197-.464-.297-2.955 2.264-4.326 5.937-4.958 9.58a78.762 78.762 0 00-4.938-11.494c3.42-4.51 2.994-9.846.28-14.595-.175-.066-.35-.128-.524-.193-2.664 2.905-2.7 6.358-2.467 10.058A79.404 79.404 0 001.572 0a78.436 78.436 0 0112.72 17.296c.019.1.023.193.038.297-2.281-.475-2.603-1.798-4.446-3.02-1.704-1.1-4.493-1.166-6.313-.051l-.039.486c1.259 1.597 3.861 3.53 5.833 3.696 3.513.25 2.99-1.366 6.638 2.357.039-.05.078-.104.12-.154a77.345 77.345 0 014.9 13.338c-3.862-1.999-1.894-4.24-6.82-5.56-1.1-.258-2.236-.39-3.525-.02l-.151.452c.705 1.358 1.537 2.265 2.401 3.102 4.857 4.456 5.244-.039 8.935 5.498a77.684 77.684 0 011.731 13.854c-3.772-3.569-.875-4.494-5.627-7.052-1.085-.54-2.227-.965-3.633-.93-.082.135-.167.266-.248.401.782 2.6 2.893 5.336 4.392 6.266 2.874 1.747 3.505.644 5.163 4.502a77.927 77.927 0 01-1.39 14.163c-2.348-3.858-.113-4.838-4.106-8.357-.992-.837-2.08-1.55-3.51-1.89-.107.112-.22.224-.328.332.17 1.609.646 2.886 1.173 4.132 2.843 6.277 4.857 3.29 6.166 8.65a76.855 76.855 0 01-4.609 13.804c-.852-3.283-.035-2.57-.511-5.552-.422-2.5-2.479-5.447-4.849-6.697-.132.084-.263.17-.395.25-.744 9.075 4.24 8.994 4.597 14.484a76.683 76.683 0 01-7.877 12.809c.03-3.858 1.901-5.217.023-10.109-.562-1.365-1.267-2.654-2.463-3.742l-.442.162c-.79 2.712-.856 7.03-.225 9.267.868 2.956 1.902 3.171 1.453 6.524A77.984 77.984 0 010 109.875L3.137 113a81.942 81.942 0 005.558-6.347c3.048-.023 5.58-.563 7.9-1.5 3.196-1.447 6.399-3.5 9.303-6.96l-.058-.56c-2.97-.127-7.052.521-13.09 3.395a80.072 80.072 0 005.805-10.47c6.519-1.22 11.302-5.61 14.063-11.154-.062-.174-.12-.348-.182-.521-2.881.382-6.514 1.748-11.375 5.613z" fill="#F2C22F"/></svg>