<svg width="35" height="113" fill="none" xmlns="http://www.w3.org/2000/svg"><path d="M30.1 96.457c.631-2.234.565-6.55-.225-9.267l-.442-.162c-1.197 1.088-1.902 2.377-2.463 3.742-1.88 4.888-.008 6.25.023 10.108a76.64 76.64 0 01-7.88-12.808c.334-5.108 2.747-3.029 4.246-9.961.275-1.409.492-2.844.353-4.522-.132-.085-.264-.17-.392-.25-1.367.72-2.305 1.731-3.13 2.846-2.878 4.12-1.228 5.544-2.231 9.402a76.839 76.839 0 01-4.61-13.804c.918-3.753 1.829-3.051 4.11-5.327 1.34-1.37 2.937-4.711 3.231-7.454-.112-.108-.22-.22-.33-.332-1.429.34-2.517 1.057-3.509 1.89-4.048 3.57-1.604 4.24-4.106 8.357a77.928 77.928 0 01-1.39-14.163c2.327-5.42 3.768-1.728 7.704-7.122.725-1.049 1.399-2.148 1.852-3.645-.081-.135-.167-.267-.248-.401-1.406-.031-2.553.39-3.637.93-4.61 2.484-2.286 3.892-5.63 7.052a78.009 78.009 0 011.732-13.854c2.697-4.09 2.216-2.346 6.09-3.604 1.96-.655 4.261-3.101 5.245-4.992-.042-.146-.093-.297-.143-.447-2.173-.63-5.06.135-6.574 1.62-1.732 1.74-1.48 2.77-3.773 3.954a77.44 77.44 0 014.9-13.337c.039.05.082.1.12.155 4.978-5.077 4.448-.378 9.623-3.538.965-.625 1.914-1.331 2.851-2.515-.011-.162-.027-.325-.039-.487-1.82-1.115-4.61-1.049-6.314.05-1.84 1.227-2.162 2.55-4.443 3.021.015-.1.02-.196.038-.297A78.434 78.434 0 0133.431 0a79.408 79.408 0 00-12.45 15.393c.232-3.696.201-7.149-2.468-10.054-.174.066-.349.128-.523.193-2.696 4.719-3.142 10.104.283 14.595a78.714 78.714 0 00-4.94 11.49c-.639-3.674-2.018-7.327-4.958-9.58-.155.096-.31.197-.465.297-1.445 5.397-.449 11.176 3.766 14.838a79.756 79.756 0 00-2.127 11.87c-1.612-3.495-3.8-6.894-7.279-8.707-.128.127-.256.259-.387.386-.093 5.818 2.34 11.393 7.279 14.348-.105 3.95.085 7.908.569 11.851-2.452-3.125-5.528-6.145-9.437-7.395-.096.154-.197.308-.294.463 1.336 5.844 5.005 10.93 10.734 13.117a80.073 80.073 0 003.208 11.385c-4.862-3.862-8.495-5.232-11.39-5.618-.061.174-.123.348-.181.521 2.781 5.579 7.58 9.938 14.066 11.154a80.074 80.074 0 005.806 10.47c-6.039-2.874-10.122-3.526-13.093-3.395l-.058.56c4.238 5.057 10.122 8.414 17.207 8.472A82.16 82.16 0 0031.862 113L35 109.875a77.95 77.95 0 01-6.35-6.886c-.452-3.36.586-3.588 1.45-6.532z" fill="#F2C22F"/></svg>