<svg width="15" height="13" viewBox="0 0 15 13" fill="none" xmlns="http://www.w3.org/2000/svg">
<path opacity="0.2" d="M4.4 7.5C4.8 7.5 5.2 7.5 5.6 7.4V3.3C5.2 3.3 4.8 3.3 4.4 3.3C2 3.3 0 4.1 0 5.2V5.6C0 6.7 2 7.5 4.4 7.5ZM4.4 9.7C4.8 9.7 5.2 9.7 5.6 9.6V8.4C5.2 8.4 4.8 8.5 4.4 8.5C2.3 8.5 0.5 7.8 0.1 7C0 7.1 0 7.2 0 7.4V7.8C0 8.8 2 9.7 4.4 9.7ZM5.6 10.7C5.2 10.7 4.8 10.7 4.4 10.7C2.3 10.7 0.5 10 0.1 9.2C0 9.2 0 9.4 0 9.5V9.9C0 11 2 11.8 4.4 11.8C4.9 11.8 5.3 11.8 5.8 11.7C5.7 11.5 5.6 11.3 5.6 11V10.7ZM10.6 0C8.2 0 6.3 0.9 6.3 1.9V2.3C6.3 3.4 8.3 4.2 10.7 4.2C13.1 4.2 15 3.4 15 2.3V1.9C15 0.9 13 0 10.6 0ZM10.6 5.2C8.5 5.2 6.7 4.5 6.3 3.7C6.3 3.8 6.3 3.9 6.3 4.1V4.5C6.3 5.6 8.3 6.4 10.7 6.4C13.1 6.4 15 5.6 15 4.5V4.1C15 4 15 3.8 14.9 3.7C14.5 4.6 12.7 5.2 10.6 5.2ZM10.6 7.4C8.5 7.4 6.7 6.7 6.3 5.9C6.3 6 6.3 6.1 6.3 6.2V6.6C6.3 7.7 8.3 8.5 10.7 8.5C13.1 8.5 15 7.7 15 6.6V6.2C15 6.1 15 5.9 14.9 5.8C14.5 6.7 12.7 7.4 10.6 7.4ZM10.6 9.6C8.5 9.6 6.8 9 6.4 8.1C6.3 8.2 6.3 8.4 6.3 8.5V8.9C6.3 10 8.3 10.8 10.7 10.8C13.1 10.8 15 10 15 8.9V8.5C15 8.4 15 8.2 14.9 8.1C14.5 9 12.7 9.6 10.6 9.6ZM10.6 11.8C8.5 11.8 6.7 11.1 6.3 10.3C6.2 10.4 6.2 10.6 6.2 10.7V11.1C6.2 12.2 8.2 13 10.6 13C13 13 15 12.1 15 11.1V10.7C15 10.6 15 10.4 14.9 10.3C14.5 11.1 12.7 11.8 10.6 11.8Z" fill="#281812"/>
</svg>
