<svg width="16" height="14" viewBox="0 0 16 14" fill="none" xmlns="http://www.w3.org/2000/svg">
<g opacity="0.2" clip-path="url(#clip0)">
<path d="M11.2664 13.9999C10.163 13.9999 9.05955 13.9713 7.9561 13.9999C6.88169 14.0285 6.32997 13.4272 6.56227 12.5109C6.76554 11.6519 7.23015 10.6783 7.86899 10.1342C9.37897 8.8457 12.9797 8.87434 14.5768 10.077C15.1576 10.5065 15.6802 11.1937 15.8835 11.8809C16.3481 13.3413 15.7674 13.9999 14.1993 13.9999C13.183 13.9999 12.2247 13.9999 11.2664 13.9999Z" fill="#281812"/>
<path d="M7.89919 8.64507C7.08613 9.59 6.33114 10.5349 5.51807 11.4512C5.3148 11.6517 4.99538 11.8521 4.705 11.8521C3.54348 11.9094 2.38195 11.8521 1.22043 11.8808C0.262169 11.8808 -0.115326 11.3367 0.000826556 10.5063C0.0879409 9.93362 0.291208 9.27503 0.639665 8.81688C2.14965 6.95564 6.38921 6.98428 7.89919 8.64507Z" fill="#281812"/>
<path d="M8.59423 5.00902C8.59423 3.4914 9.69767 2.34603 11.1786 2.3174C12.6886 2.28876 13.8792 3.4914 13.8792 5.06629C13.8501 6.81299 12.6015 8.50242 11.2657 8.53105C9.8719 8.55968 8.56519 6.87026 8.59423 5.00902Z" fill="#281812"/>
<path d="M1.9752 3.60573C1.94616 2.14537 2.99153 1 4.4144 1C5.77919 1 6.8536 2.05947 6.91168 3.43392C6.96975 5.09471 5.75015 6.78414 4.44344 6.78414C3.16576 6.81278 2.00424 5.29515 1.9752 3.60573Z" fill="#281812"/>
</g>
<defs>
<clipPath id="clip0">
<rect width="16" height="14" fill="white"/>
</clipPath>
</defs>
</svg>
